<svg width="56" height="56" viewBox="0 0 56 56" fill="none" xmlns="http://www.w3.org/2000/svg">
<path opacity="0.4" d="M19.2254 20.321V17.1901C19.2491 12.5309 23.1612 8.72508 27.9981 8.72508C31.6969 8.72508 35.0163 11.0211 36.2254 14.4558C36.6284 15.5226 37.8139 16.0769 38.881 15.7081C39.4025 15.5435 39.8292 15.1724 40.0663 14.6854C40.3036 14.1984 40.351 13.6418 40.1613 13.1315C38.3592 8.07802 33.4751 4.6665 27.9507 4.6665C20.8851 4.6665 15.1236 10.3044 15.0762 17.2365V20.7918L19.2254 20.321Z" fill="white"/>
<path fill-rule="evenodd" clip-rule="evenodd" d="M18.1265 20.3257H37.8721C43.3727 20.3257 47.8327 24.688 47.8327 30.0687V41.5902C47.8327 46.9709 43.3727 51.3333 37.8721 51.3333H18.1265C12.6259 51.3333 8.16602 46.9709 8.16602 41.5902V30.0687C8.16602 24.688 12.6259 20.3257 18.1265 20.3257ZM27.9874 40.4331C29.1492 40.4331 30.0739 39.5285 30.0739 38.3921V33.2436C30.0739 32.1304 29.1492 31.2258 27.9874 31.2258C26.8495 31.2258 25.9248 32.1304 25.9248 33.2436V38.3921C25.9248 39.5285 26.8495 40.4331 27.9874 40.4331Z" fill="white"/>
</svg>
