<svg width="52" height="53" viewBox="0 0 52 53" fill="none" xmlns="http://www.w3.org/2000/svg">
<path d="M28.8287 12.9902V13.3944C27.7655 13.3731 26.7024 13.3731 25.6393 13.3731V13.0115C25.6393 11.5435 24.4273 10.3521 22.9814 10.3521H20.8764C18.4737 10.3521 16.5176 8.39487 16.5176 6.0121C16.5176 5.13984 17.2405 4.4165 18.1123 4.4165C19.0053 4.4165 19.707 5.13984 19.707 6.0121C19.707 6.65035 20.2385 7.16094 20.8764 7.16094H22.9814C26.1921 7.18221 28.8074 9.799 28.8287 12.9902Z" fill="white" fill-opacity="0.6"/>
<path fill-rule="evenodd" clip-rule="evenodd" d="M32.856 13.4333C33.5387 13.4429 34.223 13.4525 34.9097 13.4596C42.2879 13.4596 47.6673 18.8208 47.6673 26.2244V35.7342C47.6673 43.1378 42.2879 48.499 34.9097 48.499C31.9542 48.5629 28.9987 48.5841 26.0219 48.5841C23.0451 48.5841 20.0471 48.5629 17.0916 48.499C9.71344 48.499 4.33398 43.1378 4.33398 35.7342V26.2244C4.33398 18.8208 9.71344 13.4596 17.1129 13.4596C19.8983 13.4171 22.7475 13.3745 25.6392 13.3745C26.7023 13.3745 27.7655 13.3745 28.8286 13.3958C30.169 13.3958 31.5094 13.4145 32.856 13.4333ZM23.5129 32.5633H21.2803V34.8184C21.2803 35.6907 20.5574 36.414 19.6856 36.414C18.7926 36.414 18.0909 35.6907 18.0909 34.8184V32.5633H15.8371C14.9653 32.5633 14.2424 31.8613 14.2424 30.9677C14.2424 30.0955 14.9653 29.3721 15.8371 29.3721H18.0909V27.1383C18.0909 26.266 18.7926 25.5427 19.6856 25.5427C20.5574 25.5427 21.2803 26.266 21.2803 27.1383V29.3721H23.5129C24.3847 29.3721 25.1076 30.0955 25.1076 30.9677C25.1076 31.8613 24.3847 32.5633 23.5129 32.5633ZM32.5504 28.9672H32.763C33.6348 28.9672 34.3577 28.2651 34.3577 27.3716C34.3577 26.4993 33.6348 25.776 32.763 25.776H32.5504C31.6574 25.776 30.9557 26.4993 30.9557 27.3716C30.9557 28.2651 31.6574 28.9672 32.5504 28.9672ZM36.1853 36.2861H36.3979C37.2697 36.2861 37.9926 35.584 37.9926 34.6905C37.9926 33.8182 37.2697 33.0949 36.3979 33.0949H36.1853C35.2923 33.0949 34.5906 33.8182 34.5906 34.6905C34.5906 35.584 35.2923 36.2861 36.1853 36.2861Z" fill="white"/>
</svg>
