<svg width="51" height="52" viewBox="0 0 51 52" fill="none" xmlns="http://www.w3.org/2000/svg">
<path d="M46.7494 31.8544V34.8519C46.7494 35.3494 46.7282 35.8512 46.6857 36.3487C46.0894 43.1934 41.4263 47.6661 34.6979 47.6661H16.3011C12.8943 47.6661 10.0198 46.5385 7.95443 44.4945C7.14531 43.7364 6.46395 42.8459 5.93164 41.8249C6.63429 40.9537 7.42212 40.0002 8.18865 39.0444C9.48749 37.4587 10.7437 35.8926 11.5316 34.8738C12.7027 33.3966 15.7901 29.5083 20.0699 31.3331C20.9429 31.7023 21.7095 32.2236 22.412 32.6799C24.1367 33.8529 24.8607 34.2004 26.0745 33.527C27.4158 32.7884 28.2889 31.3331 29.2044 29.8125C29.6942 29.0067 30.1838 28.2267 30.7161 27.51C33.037 24.4255 36.6143 23.6 39.5952 25.4246C41.0857 26.3369 42.3632 27.4883 43.5556 28.659C43.8112 28.9198 44.0666 29.1608 44.3008 29.3997C44.6202 29.7256 45.6848 30.8118 46.7494 31.8544Z" fill="white"/>
<path opacity="0.4" d="M34.7197 4.3335H16.3016C9.08342 4.3335 4.25 9.48165 4.25 17.1474V34.8532C4.25 37.5227 4.84619 39.8926 5.93211 41.8259C6.63476 40.9549 7.4226 40.0014 8.18913 39.0433C9.48798 37.4599 10.7442 35.8936 11.5321 34.8748C12.7032 33.3978 15.7906 29.5095 20.0704 31.3341C20.9434 31.7035 21.7099 32.2248 22.4126 32.6809C24.1372 33.8539 24.8612 34.2014 26.0748 33.5259C27.4163 32.7896 28.2893 31.3341 29.2049 29.8113C29.6945 29.0077 30.1843 28.2279 30.7167 27.511C33.0376 24.4265 36.6148 23.601 39.5958 25.4258C41.0862 26.3379 42.3638 27.4893 43.5561 28.6602C43.8116 28.9208 44.0672 29.162 44.3014 29.401C44.6208 29.7244 45.6854 30.8106 46.75 31.8556V17.1474C46.75 9.48165 41.9167 4.3335 34.7197 4.3335Z" fill="white"/>
<path d="M24.3409 19.0588C24.3409 22.1107 21.8474 24.6522 18.8559 24.6522C15.8664 24.6522 13.373 22.1107 13.373 19.0588C13.373 16.009 15.8664 13.4653 18.8559 13.4653C21.8474 13.4653 24.3409 16.009 24.3409 19.0588Z" fill="white"/>
</svg>
