<svg width="51" height="52" viewBox="0 0 51 52" fill="none" xmlns="http://www.w3.org/2000/svg">
<path opacity="0.4" d="M23.0161 4.48183C10.7577 5.98019 3.0739 17.2629 4.40433 28.5786C4.82926 32.1927 6.30068 35.788 8.51482 38.9652C8.91817 39.4833 9.04384 40.188 8.89016 40.8833L8.0431 45.8749C7.8632 47.0753 8.93492 47.8172 9.9705 47.3414L14.0807 45.5297C15.1956 45.0007 16.1611 45.3846 17.3176 45.9197C20.6156 47.3932 24.5648 47.8707 28.025 47.4477C38.4901 46.1686 48.1552 36.6295 46.5946 23.3562C45.249 11.9114 35.0003 3.017 23.0161 4.48183Z" fill="white"/>
<path fill-rule="evenodd" clip-rule="evenodd" d="M25.4584 28.7952C23.9497 28.7736 22.7384 27.5386 22.7384 26.0002C22.7384 24.4836 23.9709 23.2269 25.4584 23.2486C26.9672 23.2486 28.1784 24.4836 28.1784 26.0219C28.1784 27.5386 26.9672 28.7952 25.4584 28.7952ZM15.6614 28.7952C14.1739 28.7952 12.9414 27.5386 12.9414 26.0219C12.9414 24.4836 14.1527 23.2486 15.6614 23.2486C17.1702 23.2486 18.3814 24.4836 18.3814 26.0219C18.3814 27.5386 17.1702 28.7736 15.6614 28.7952ZM32.5342 26.0219C32.5342 27.5386 33.7455 28.7952 35.2542 28.7952C36.763 28.7952 37.9742 27.5386 37.9742 26.0219C37.9742 24.4836 36.763 23.2486 35.2542 23.2486C33.7455 23.2486 32.5342 24.4836 32.5342 26.0219Z" fill="white"/>
</svg>
