<svg width="55" height="52" viewBox="0 0 55 52" fill="none" xmlns="http://www.w3.org/2000/svg">
<g clip-path="url(#clip0)">
<path d="M27.471 13.0006C28.0781 13.0006 28.6604 12.7724 29.0897 12.366C29.5191 11.9597 29.7603 11.4086 29.7603 10.834V6.50065C29.7603 5.92601 29.5191 5.37491 29.0897 4.96859C28.6604 4.56226 28.0781 4.33398 27.471 4.33398C26.8638 4.33398 26.2815 4.56226 25.8522 4.96859C25.4228 5.37491 25.1816 5.92601 25.1816 6.50065V10.834C25.1816 11.4086 25.4228 11.9597 25.8522 12.366C26.2815 12.7724 26.8638 13.0006 27.471 13.0006Z" fill="white" fill-opacity="0.6"/>
<path d="M48.075 23.834H43.4963C42.8892 23.834 42.3069 24.0623 41.8776 24.4686C41.4482 24.8749 41.207 25.426 41.207 26.0006C41.207 26.5753 41.4482 27.1264 41.8776 27.5327C42.3069 27.939 42.8892 28.1673 43.4963 28.1673H48.075C48.6821 28.1673 49.2644 27.939 49.6937 27.5327C50.1231 27.1264 50.3643 26.5753 50.3643 26.0006C50.3643 25.426 50.1231 24.8749 49.6937 24.4686C49.2644 24.0623 48.6821 23.834 48.075 23.834Z" fill="white" fill-opacity="0.6"/>
<path d="M11.446 23.834H6.86743C6.26027 23.834 5.67798 24.0623 5.24865 24.4686C4.81932 24.8749 4.57813 25.426 4.57812 26.0006C4.57813 26.5753 4.81932 27.1264 5.24865 27.5327C5.67798 27.939 6.26027 28.1673 6.86743 28.1673H11.446C12.0532 28.1673 12.6355 27.939 13.0648 27.5327C13.4942 27.1264 13.7354 26.5753 13.7354 26.0006C13.7354 25.426 13.4942 24.8749 13.0648 24.4686C12.6355 24.0623 12.0532 23.834 11.446 23.834Z" fill="white" fill-opacity="0.6"/>
<path d="M17.5355 13.9093L14.2389 10.8326C13.7926 10.4332 13.197 10.218 12.5831 10.2343C11.9691 10.2505 11.3871 10.4969 10.9652 10.9193C10.5432 11.3416 10.3158 11.9053 10.3329 12.4864C10.3501 13.0674 10.6105 13.6182 11.0567 14.0176L14.3533 17.0293C14.5746 17.2314 14.8366 17.3894 15.1237 17.4936C15.4108 17.5978 15.7172 17.6462 16.0245 17.6359C16.3329 17.6348 16.6379 17.5748 16.9211 17.4593C17.2044 17.3439 17.4601 17.1755 17.6728 16.9643C18.0815 16.5414 18.2965 15.9825 18.2707 15.4099C18.245 14.8374 17.9806 14.2978 17.5355 13.9093Z" fill="white" fill-opacity="0.6"/>
<path d="M43.9305 10.9421C43.5015 10.5385 42.9213 10.312 42.3165 10.312C41.7117 10.312 41.1315 10.5385 40.7026 10.9421L37.4059 13.9104C36.9796 14.3163 36.7402 14.8655 36.7402 15.4379C36.7402 16.0103 36.9796 16.5594 37.4059 16.9654C37.6187 17.1767 37.8744 17.345 38.1577 17.4605C38.4409 17.5759 38.7459 17.636 39.0542 17.6371C39.6437 17.6348 40.2095 17.4175 40.6339 17.0304L43.9305 14.0187C44.145 13.8173 44.3154 13.5777 44.4316 13.3136C44.5478 13.0496 44.6076 12.7664 44.6076 12.4804C44.6076 12.1944 44.5478 11.9112 44.4316 11.6471C44.3154 11.3831 44.145 11.1435 43.9305 10.9421Z" fill="white" fill-opacity="0.6"/>
<path fill-rule="evenodd" clip-rule="evenodd" d="M20.779 17.2109C22.728 15.8814 25.0695 15.166 27.4719 15.166C29.8744 15.166 32.2159 15.8814 34.1648 17.2109C36.1138 18.5404 37.5714 20.4165 38.3311 22.5735C39.0908 24.7306 39.1141 27.0592 38.3978 29.2295C37.6815 31.3998 36.2618 33.3018 34.3399 34.666V43.3327C34.3399 44.482 33.8575 45.5842 32.9988 46.3968C32.1402 47.2095 30.9756 47.666 29.7612 47.666H25.1826C23.9683 47.666 22.8037 47.2095 21.9451 46.3968C21.0864 45.5842 20.604 44.482 20.604 43.3327V34.666C18.6821 33.3018 17.2624 31.3998 16.5461 29.2295C15.8297 27.0592 15.8531 24.7306 16.6128 22.5735C17.3725 20.4165 18.8301 18.5404 20.779 17.2109ZM33.8818 25.9999C33.8818 29.3511 31.012 32.0666 27.4718 32.0666C23.9315 32.0666 21.0617 29.3511 21.0617 25.9999C21.0617 22.6499 23.9315 19.9332 27.4718 19.9332C31.012 19.9332 33.8818 22.6499 33.8818 25.9999ZM29.7621 28.3139C29.6781 28.3139 29.5935 28.2933 29.5159 28.2502L26.9993 26.8294C26.8545 26.7469 26.7654 26.5983 26.7654 26.4381V23.3763C26.7654 23.1251 26.9807 22.9213 27.2461 22.9213C27.5115 22.9213 27.7269 23.1251 27.7269 23.3763V26.1797L30.0089 27.4676C30.2364 27.5969 30.3114 27.8759 30.1755 28.0919C30.0851 28.2345 29.9255 28.3139 29.7621 28.3139Z" fill="white"/>
</g>
<defs>
<clipPath id="clip0">
<rect width="54.9434" height="52" fill="white"/>
</clipPath>
</defs>
</svg>
