<svg width="50" height="50" viewBox="0 0 50 50" fill="none" xmlns="http://www.w3.org/2000/svg">
<path opacity="0.4" d="M41.6513 39.4854H29.7882C28.6309 39.4854 27.6895 40.4416 27.6895 41.6174C27.6895 42.7953 28.6309 43.7495 29.7882 43.7495H41.6513C42.8088 43.7495 43.7501 42.7953 43.7501 41.6174C43.7501 40.4416 42.8088 39.4854 41.6513 39.4854Z" fill="white"/>
<path d="M21.4771 14.3802L32.7185 23.4636C32.9896 23.6809 33.036 24.0795 32.8244 24.3572L19.4974 41.7226C18.6596 42.7953 17.425 43.4022 16.1023 43.4247L8.827 43.5143C8.43898 43.5186 8.09948 43.2499 8.01129 42.8647L6.35781 35.6757C6.07123 34.3545 6.35781 32.9884 7.19559 31.9357L20.5887 14.4877C20.8047 14.2077 21.2038 14.1584 21.4771 14.3802Z" fill="white"/>
<path opacity="0.4" d="M37.7537 18.053L35.5864 20.7584C35.3682 21.0337 34.9758 21.0785 34.7047 20.8592C32.0701 18.7271 25.3239 13.2559 23.4522 11.7398C23.1789 11.5158 23.1414 11.1172 23.3618 10.8395L25.4518 8.24387C27.3478 5.80279 30.6547 5.57883 33.3222 7.70637L36.3868 10.1475C37.6435 11.1329 38.4812 12.4318 38.7678 13.7979C39.0985 15.3006 38.7457 16.7765 37.7537 18.053Z" fill="white"/>
</svg>
