<svg width="51" height="58" viewBox="0 0 51 58" fill="none" xmlns="http://www.w3.org/2000/svg">
<path d="M25.1277 36.7744H25.8709C29.9591 36.7744 33.4277 33.7967 34.6484 29.6676C34.8254 29.0665 34.4199 28.4469 33.8579 28.4469H31.5689C30.8401 28.4469 30.2514 27.7857 30.2514 26.9696C30.2514 26.1512 30.8401 25.4876 31.5689 25.4876H33.788C34.5228 25.4876 35.1178 24.8195 35.1178 23.9942C35.1178 23.1688 34.5228 22.5007 33.788 22.5007H31.5689C30.8401 22.5007 30.2514 21.8371 30.2514 21.021C30.2514 20.2026 30.8401 19.5391 31.5689 19.5391H33.788C34.5228 19.5391 35.1178 18.8709 35.1178 18.0456C35.1178 17.2202 34.5228 16.5521 33.788 16.5521H31.5689C30.8401 16.5521 30.2514 15.8886 30.2514 15.0702C30.2514 14.2541 30.8401 13.5905 31.5689 13.5905H33.9753C34.527 13.5905 34.9222 12.9987 34.774 12.3999C33.6809 8.0327 30.1094 4.83301 25.8709 4.83301H25.1277C20.0205 4.83301 15.8809 9.47996 15.8809 15.2181V26.3893C15.8809 32.1252 20.0205 36.7744 25.1277 36.7744Z" fill="white"/>
<path d="M41.504 23.7461C40.3677 23.7461 39.4455 24.7795 39.4455 26.058C39.4455 34.693 33.1896 41.7189 25.501 41.7189C17.8104 41.7189 11.5545 34.693 11.5545 26.058C11.5545 24.7795 10.6323 23.7461 9.49602 23.7461C8.35972 23.7461 7.4375 24.7795 7.4375 26.058C7.4375 36.4616 14.4488 45.0504 23.4425 46.204V50.8556C23.4425 52.1318 24.3627 53.1675 25.501 53.1675C26.6373 53.1675 27.5596 52.1318 27.5596 50.8556V46.204C36.5512 45.0504 43.5625 36.4616 43.5625 26.058C43.5625 24.7795 42.6403 23.7461 41.504 23.7461Z" fill="white" fill-opacity="0.6"/>
</svg>
