<svg width="56" height="56" viewBox="0 0 56 56" fill="none" xmlns="http://www.w3.org/2000/svg">
<path opacity="0.4" d="M19.2249 20.3212V17.1903C19.2486 12.531 23.1608 8.72524 27.9976 8.72524C31.6964 8.72524 35.0158 11.0212 36.2249 14.456C36.6279 15.5228 37.8135 16.0771 38.8805 15.7083C39.402 15.5436 39.8288 15.1726 40.0658 14.6856C40.3031 14.1985 40.3505 13.6419 40.1608 13.1317C38.3588 8.07819 33.4746 4.66667 27.9502 4.66667C20.8846 4.66667 15.1231 10.3046 15.0757 17.2367V20.792L19.2249 20.3212Z" fill="#8FADCF"/>
<path fill-rule="evenodd" clip-rule="evenodd" d="M18.127 20.3255H37.8726C43.3732 20.3255 47.8332 24.6878 47.8332 30.0685V41.59C47.8332 46.9707 43.3732 51.3331 37.8726 51.3331H18.127C12.6263 51.3331 8.1665 46.9707 8.1665 41.59V30.0685C8.1665 24.6878 12.6263 20.3255 18.127 20.3255ZM27.9879 40.4329C29.1497 40.4329 30.0744 39.5283 30.0744 38.392V33.2435C30.0744 32.1302 29.1497 31.2256 27.9879 31.2256C26.85 31.2256 25.9253 32.1302 25.9253 33.2435V38.392C25.9253 39.5283 26.85 40.4329 27.9879 40.4329Z" fill="#8FADCF"/>
</svg>
