<svg width="52" height="53" viewBox="0 0 52 53" fill="none" xmlns="http://www.w3.org/2000/svg">
<path d="M28.8282 12.9902V13.3944C27.765 13.3731 26.7019 13.3731 25.6388 13.3731V13.0115C25.6388 11.5435 24.4268 10.3521 22.9809 10.3521H20.8759C18.4733 10.3521 16.5171 8.39487 16.5171 6.0121C16.5171 5.13984 17.24 4.4165 18.1118 4.4165C19.0048 4.4165 19.7065 5.13984 19.7065 6.0121C19.7065 6.65035 20.2381 7.16094 20.8759 7.16094H22.9809C26.1916 7.18221 28.8069 9.799 28.8282 12.9902Z" fill="#8FADCF" fill-opacity="0.6"/>
<path fill-rule="evenodd" clip-rule="evenodd" d="M32.8555 13.4334C33.5382 13.443 34.2225 13.4525 34.9092 13.4597C42.2874 13.4597 47.6668 18.8209 47.6668 26.2245V35.7343C47.6668 43.1379 42.2874 48.4991 34.9092 48.4991C31.9537 48.5629 28.9982 48.5842 26.0214 48.5842C23.0447 48.5842 20.0466 48.5629 17.0911 48.4991C9.71295 48.4991 4.3335 43.1379 4.3335 35.7343V26.2245C4.3335 18.8209 9.71295 13.4597 17.1124 13.4597C19.8978 13.4172 22.747 13.3746 25.6387 13.3746C26.7018 13.3746 27.765 13.3746 28.8281 13.3959C30.1685 13.3959 31.5089 13.4146 32.8555 13.4334ZM23.5124 32.5634H21.2798V34.8185C21.2798 35.6908 20.5569 36.4141 19.6851 36.4141C18.7921 36.4141 18.0904 35.6908 18.0904 34.8185V32.5634H15.8366C14.9648 32.5634 14.2419 31.8614 14.2419 30.9678C14.2419 30.0956 14.9648 29.3722 15.8366 29.3722H18.0904V27.1384C18.0904 26.2661 18.7921 25.5428 19.6851 25.5428C20.5569 25.5428 21.2798 26.2661 21.2798 27.1384V29.3722H23.5124C24.3842 29.3722 25.1071 30.0956 25.1071 30.9678C25.1071 31.8614 24.3842 32.5634 23.5124 32.5634ZM32.5499 28.9673H32.7626C33.6343 28.9673 34.3573 28.2652 34.3573 27.3717C34.3573 26.4994 33.6343 25.7761 32.7626 25.7761H32.5499C31.6569 25.7761 30.9552 26.4994 30.9552 27.3717C30.9552 28.2652 31.6569 28.9673 32.5499 28.9673ZM36.1848 36.2862H36.3974C37.2692 36.2862 37.9921 35.5841 37.9921 34.6906C37.9921 33.8183 37.2692 33.095 36.3974 33.095H36.1848C35.2918 33.095 34.5901 33.8183 34.5901 34.6906C34.5901 35.5841 35.2918 36.2862 36.1848 36.2862Z" fill="#8FADCF"/>
</svg>
