<svg width="51" height="52" viewBox="0 0 51 52" fill="none" xmlns="http://www.w3.org/2000/svg">
<path d="M46.7485 31.8545V34.8521C46.7485 35.3496 46.7272 35.8514 46.6847 36.3489C46.0884 43.1936 41.4254 47.6662 34.697 47.6662H16.3001C12.8933 47.6662 10.0188 46.5387 7.95345 44.4946C7.14434 43.7365 6.46298 42.846 5.93066 41.8251C6.63332 40.9539 7.42114 40.0003 8.18767 39.0446C9.48651 37.4588 10.7428 35.8928 11.5306 34.874C12.7017 33.3968 15.7891 29.5085 20.0689 31.3332C20.9419 31.7024 21.7085 32.2237 22.4111 32.68C24.1357 33.8531 24.8597 34.2006 26.0735 33.5272C27.4148 32.7886 28.288 31.3332 29.2034 29.8127C29.6932 29.0069 30.1828 28.2269 30.7151 27.5101C33.0361 24.4257 36.6133 23.6002 39.5942 25.4247C41.0847 26.3371 42.3623 27.4885 43.5546 28.6591C43.8102 28.92 44.0657 29.1609 44.2998 29.3999C44.6192 29.7258 45.6838 30.8119 46.7485 31.8545Z" fill="#8FADCF"/>
<path opacity="0.4" d="M34.7197 4.33329H16.3016C9.08342 4.33329 4.25 9.48144 4.25 17.1472V34.853C4.25 37.5225 4.84619 39.8924 5.93211 41.8257C6.63476 40.9547 7.4226 40.0012 8.18913 39.0431C9.48798 37.4597 10.7442 35.8934 11.5321 34.8746C12.7032 33.3976 15.7906 29.5093 20.0704 31.3339C20.9434 31.7033 21.7099 32.2246 22.4126 32.6807C24.1372 33.8537 24.8612 34.2012 26.0748 33.5257C27.4163 32.7894 28.2893 31.3339 29.2049 29.8111C29.6945 29.0075 30.1843 28.2277 30.7167 27.5108C33.0376 24.4263 36.6148 23.6008 39.5958 25.4256C41.0862 26.3377 42.3638 27.4891 43.5561 28.66C43.8116 28.9206 44.0672 29.1618 44.3014 29.4008C44.6208 29.7242 45.6854 30.8104 46.75 31.8554V17.1472C46.75 9.48144 41.9167 4.33329 34.7197 4.33329Z" fill="#8FADCF"/>
<path d="M24.3404 19.059C24.3404 22.1109 21.8469 24.6524 18.8554 24.6524C15.8659 24.6524 13.3726 22.1109 13.3726 19.059C13.3726 16.0092 15.8659 13.4655 18.8554 13.4655C21.8469 13.4655 24.3404 16.0092 24.3404 19.059Z" fill="#8FADCF"/>
</svg>
