<svg width="51" height="52" viewBox="0 0 51 52" fill="none" xmlns="http://www.w3.org/2000/svg">
<path opacity="0.4" d="M23.0161 4.48188C10.7577 5.98024 3.0739 17.263 4.40433 28.5786C4.82926 32.1927 6.30068 35.788 8.51482 38.9653C8.91817 39.4833 9.04384 40.1881 8.89016 40.8833L8.0431 45.875C7.8632 47.0753 8.93492 47.8172 9.9705 47.3415L14.0807 45.5298C15.1956 45.0007 16.1611 45.3846 17.3176 45.9197C20.6156 47.3933 24.5648 47.8707 28.025 47.4478C38.4901 46.1686 48.1552 36.6295 46.5946 23.3562C45.249 11.9115 35.0003 3.01705 23.0161 4.48188Z" fill="#8FADCF"/>
<path fill-rule="evenodd" clip-rule="evenodd" d="M25.4579 28.7952C23.9492 28.7735 22.7379 27.5385 22.7379 26.0002C22.7379 24.4835 23.9704 23.2269 25.4579 23.2485C26.9667 23.2485 28.1779 24.4835 28.1779 26.0219C28.1779 27.5385 26.9667 28.7952 25.4579 28.7952ZM15.6609 28.7952C14.1734 28.7952 12.9409 27.5385 12.9409 26.0219C12.9409 24.4835 14.1522 23.2485 15.6609 23.2485C17.1697 23.2485 18.3809 24.4835 18.3809 26.0219C18.3809 27.5385 17.1697 28.7735 15.6609 28.7952ZM32.5338 26.0219C32.5338 27.5385 33.745 28.7952 35.2538 28.7952C36.7625 28.7952 37.9738 27.5385 37.9738 26.0219C37.9738 24.4835 36.7625 23.2485 35.2538 23.2485C33.745 23.2485 32.5338 24.4835 32.5338 26.0219Z" fill="#8FADCF"/>
</svg>
