<svg width="30" height="30" viewBox="0 0 30 30" fill="none" xmlns="http://www.w3.org/2000/svg">
<g clip-path="url(#clip0)">
<path d="M15 7.50049C15.3315 7.50049 15.6495 7.36879 15.8839 7.13437C16.1183 6.89995 16.25 6.58201 16.25 6.25049V3.75049C16.25 3.41897 16.1183 3.10102 15.8839 2.8666C15.6495 2.63218 15.3315 2.50049 15 2.50049C14.6685 2.50049 14.3505 2.63218 14.1161 2.8666C13.8817 3.10102 13.75 3.41897 13.75 3.75049V6.25049C13.75 6.58201 13.8817 6.89995 14.1161 7.13437C14.3505 7.36879 14.6685 7.50049 15 7.50049Z" fill="#8FADCF" fill-opacity="0.6"/>
<path d="M26.25 13.7505H23.75C23.4185 13.7505 23.1005 13.8822 22.8661 14.1166C22.6317 14.351 22.5 14.669 22.5 15.0005C22.5 15.332 22.6317 15.6499 22.8661 15.8844C23.1005 16.1188 23.4185 16.2505 23.75 16.2505H26.25C26.5815 16.2505 26.8995 16.1188 27.1339 15.8844C27.3683 15.6499 27.5 15.332 27.5 15.0005C27.5 14.669 27.3683 14.351 27.1339 14.1166C26.8995 13.8822 26.5815 13.7505 26.25 13.7505Z" fill="#8FADCF" fill-opacity="0.6"/>
<path d="M6.25 13.7505H3.75C3.41848 13.7505 3.10054 13.8822 2.86612 14.1166C2.6317 14.351 2.5 14.669 2.5 15.0005C2.5 15.332 2.6317 15.6499 2.86612 15.8844C3.10054 16.1188 3.41848 16.2505 3.75 16.2505H6.25C6.58152 16.2505 6.89946 16.1188 7.13388 15.8844C7.3683 15.6499 7.5 15.332 7.5 15.0005C7.5 14.669 7.3683 14.351 7.13388 14.1166C6.89946 13.8822 6.58152 13.7505 6.25 13.7505Z" fill="#8FADCF" fill-opacity="0.6"/>
<path d="M9.5748 8.02451L7.7748 6.24951C7.53113 6.0191 7.20592 5.89493 6.8707 5.9043C6.53547 5.91368 6.21771 6.05584 5.9873 6.29951C5.75689 6.54317 5.63272 6.86839 5.6421 7.20361C5.65147 7.53883 5.79363 7.8566 6.0373 8.08701L7.8373 9.82451C7.9581 9.94114 8.10115 10.0322 8.25793 10.0924C8.41471 10.1525 8.58199 10.1804 8.7498 10.1745C8.91818 10.1739 9.0847 10.1392 9.23936 10.0726C9.39401 10.006 9.53362 9.90888 9.6498 9.78701C9.87293 9.54303 9.99032 9.22059 9.97626 8.89027C9.9622 8.55995 9.81785 8.24865 9.5748 8.02451Z" fill="#8FADCF" fill-opacity="0.6"/>
<path d="M23.9875 6.31271C23.7533 6.0799 23.4365 5.94922 23.1063 5.94922C22.776 5.94922 22.4592 6.0799 22.225 6.31271L20.425 8.02521C20.1922 8.25941 20.0615 8.57623 20.0615 8.90646C20.0615 9.23669 20.1922 9.55351 20.425 9.78771C20.5412 9.90959 20.6808 10.0067 20.8355 10.0733C20.9901 10.1399 21.1566 10.1746 21.325 10.1752C21.6468 10.1739 21.9558 10.0486 22.1875 9.82521L23.9875 8.08771C24.1047 7.97151 24.1977 7.83325 24.2611 7.68093C24.3246 7.52861 24.3573 7.36522 24.3573 7.20021C24.3573 7.0352 24.3246 6.87181 24.2611 6.71949C24.1977 6.56716 24.1047 6.42891 23.9875 6.31271Z" fill="#8FADCF" fill-opacity="0.6"/>
<path fill-rule="evenodd" clip-rule="evenodd" d="M11.3456 9.92925C12.4097 9.16225 13.6882 8.74951 15 8.74951C16.3118 8.74951 17.5903 9.16225 18.6544 9.92925C19.7186 10.6963 20.5145 11.7786 20.9293 13.0231C21.3441 14.2675 21.3568 15.611 20.9657 16.8631C20.5746 18.1152 19.7994 19.2125 18.75 19.9995V24.9995C18.75 25.6626 18.4866 26.2984 18.0178 26.7673C17.5489 27.2361 16.913 27.4995 16.25 27.4995H13.75C13.087 27.4995 12.4511 27.2361 11.9822 26.7673C11.5134 26.2984 11.25 25.6626 11.25 24.9995V19.9995C10.2006 19.2125 9.42542 18.1152 9.03429 16.8631C8.64316 15.611 8.65591 14.2675 9.07073 13.0231C9.48555 11.7786 10.2814 10.6963 11.3456 9.92925ZM18.4999 14.9998C18.4999 16.9332 16.9329 18.4998 14.9999 18.4998C13.0668 18.4998 11.4999 16.9332 11.4999 14.9998C11.4999 13.0671 13.0668 11.4998 14.9999 11.4998C16.9329 11.4998 18.4999 13.0671 18.4999 14.9998ZM16.2505 16.3349C16.2046 16.3349 16.1584 16.323 16.1161 16.2981L14.742 15.4784C14.6629 15.4308 14.6142 15.3451 14.6142 15.2527V13.4862C14.6142 13.3413 14.7318 13.2237 14.8767 13.2237C15.0216 13.2237 15.1392 13.3413 15.1392 13.4862V15.1036L16.3852 15.8466C16.5095 15.9212 16.5504 16.0822 16.4762 16.2068C16.4269 16.289 16.3397 16.3349 16.2505 16.3349Z" fill="#8FADCF"/>
</g>
<defs>
<clipPath id="clip0">
<rect width="30" height="30" fill="white"/>
</clipPath>
</defs>
</svg>
