<svg width="55" height="52" viewBox="0 0 55 52" fill="none" xmlns="http://www.w3.org/2000/svg">
<g clip-path="url(#clip0)">
<path d="M27.4719 13.0007C28.0791 13.0007 28.6614 12.7725 29.0907 12.3661C29.52 11.9598 29.7612 11.4087 29.7612 10.8341V6.50074C29.7612 5.92611 29.52 5.37501 29.0907 4.96868C28.6614 4.56235 28.0791 4.33408 27.4719 4.33408C26.8648 4.33408 26.2825 4.56235 25.8531 4.96868C25.4238 5.37501 25.1826 5.92611 25.1826 6.50074V10.8341C25.1826 11.4087 25.4238 11.9598 25.8531 12.3661C26.2825 12.7725 26.8648 13.0007 27.4719 13.0007Z" fill="#8FADCF" fill-opacity="0.6"/>
<path d="M48.0754 23.8341H43.4968C42.8897 23.8341 42.3074 24.0623 41.878 24.4687C41.4487 24.875 41.2075 25.4261 41.2075 26.0007C41.2075 26.5754 41.4487 27.1265 41.878 27.5328C42.3074 27.9391 42.8897 28.1674 43.4968 28.1674H48.0754C48.6826 28.1674 49.2649 27.9391 49.6942 27.5328C50.1236 27.1265 50.3647 26.5754 50.3647 26.0007C50.3647 25.4261 50.1236 24.875 49.6942 24.4687C49.2649 24.0623 48.6826 23.8341 48.0754 23.8341Z" fill="#8FADCF" fill-opacity="0.6"/>
<path d="M11.4465 23.8341H6.86792C6.26076 23.8341 5.67846 24.0623 5.24914 24.4687C4.81981 24.875 4.57861 25.4261 4.57861 26.0007C4.57861 26.5754 4.81981 27.1265 5.24914 27.5328C5.67846 27.9391 6.26076 28.1674 6.86792 28.1674H11.4465C12.0537 28.1674 12.636 27.9391 13.0653 27.5328C13.4947 27.1265 13.7358 26.5754 13.7358 26.0007C13.7358 25.4261 13.4947 24.875 13.0653 24.4687C12.636 24.0623 12.0537 23.8341 11.4465 23.8341Z" fill="#8FADCF" fill-opacity="0.6"/>
<path d="M17.5365 13.9093L14.2399 10.8326C13.7936 10.4333 13.198 10.218 12.584 10.2343C11.9701 10.2505 11.3881 10.4969 10.9661 10.9193C10.5442 11.3417 10.3167 11.9054 10.3339 12.4864C10.3511 13.0675 10.6114 13.6183 11.0577 14.0176L14.3543 17.0293C14.5755 17.2315 14.8375 17.3894 15.1247 17.4936C15.4118 17.5979 15.7182 17.6463 16.0255 17.636C16.3339 17.6349 16.6389 17.5748 16.9221 17.4594C17.2054 17.3439 17.461 17.1756 17.6738 16.9643C18.0825 16.5414 18.2974 15.9825 18.2717 15.41C18.246 14.8374 17.9816 14.2978 17.5365 13.9093Z" fill="#8FADCF" fill-opacity="0.6"/>
<path d="M43.9314 10.942C43.5025 10.5385 42.9223 10.312 42.3175 10.312C41.7127 10.312 41.1325 10.5385 40.7035 10.942L37.4069 13.9104C36.9805 14.3163 36.7412 14.8655 36.7412 15.4379C36.7412 16.0103 36.9805 16.5594 37.4069 16.9654C37.6197 17.1766 37.8754 17.345 38.1586 17.4604C38.4419 17.5759 38.7468 17.6359 39.0552 17.637C39.6446 17.6348 40.2105 17.4175 40.6348 17.0304L43.9314 14.0187C44.146 13.8173 44.3163 13.5776 44.4326 13.3136C44.5488 13.0496 44.6086 12.7664 44.6086 12.4804C44.6086 12.1943 44.5488 11.9111 44.4326 11.6471C44.3163 11.3831 44.146 11.1435 43.9314 10.942Z" fill="#8FADCF" fill-opacity="0.6"/>
<path fill-rule="evenodd" clip-rule="evenodd" d="M20.779 17.2108C22.728 15.8813 25.0695 15.1659 27.4719 15.1659C29.8744 15.1659 32.2159 15.8813 34.1648 17.2108C36.1138 18.5403 37.5714 20.4164 38.3311 22.5735C39.0908 24.7305 39.1141 27.0591 38.3978 29.2294C37.6815 31.3997 36.2618 33.3017 34.3399 34.6659V43.3326C34.3399 44.4819 33.8575 45.5841 32.9988 46.3967C32.1402 47.2094 30.9756 47.6659 29.7612 47.6659H25.1826C23.9683 47.6659 22.8037 47.2094 21.9451 46.3967C21.0864 45.5841 20.604 44.4819 20.604 43.3326V34.6659C18.6821 33.3017 17.2624 31.3997 16.5461 29.2294C15.8297 27.0591 15.8531 24.7305 16.6128 22.5735C17.3725 20.4164 18.8301 18.5403 20.779 17.2108ZM33.8818 25.9998C33.8818 29.351 31.012 32.0665 27.4718 32.0665C23.9315 32.0665 21.0617 29.351 21.0617 25.9998C21.0617 22.6498 23.9315 19.9331 27.4718 19.9331C31.012 19.9331 33.8818 22.6498 33.8818 25.9998ZM29.7621 28.3138C29.6781 28.3138 29.5935 28.2932 29.5159 28.2501L26.9993 26.8293C26.8545 26.7468 26.7654 26.5982 26.7654 26.438V23.3762C26.7654 23.125 26.9807 22.9212 27.2461 22.9212C27.5115 22.9212 27.7269 23.125 27.7269 23.3762V26.1796L30.0089 27.4675C30.2364 27.5968 30.3114 27.8758 30.1755 28.0918C30.0851 28.2344 29.9255 28.3138 29.7621 28.3138Z" fill="#8FADCF"/>
</g>
<defs>
<clipPath id="clip0">
<rect width="54.9434" height="52" fill="white"/>
</clipPath>
</defs>
</svg>
