<svg width="50" height="50" viewBox="0 0 50 50" fill="none" xmlns="http://www.w3.org/2000/svg">
<path opacity="0.4" d="M41.6513 39.4856H29.7882C28.6309 39.4856 27.6895 40.4418 27.6895 41.6177C27.6895 42.7956 28.6309 43.7497 29.7882 43.7497H41.6513C42.8088 43.7497 43.7501 42.7956 43.7501 41.6177C43.7501 40.4418 42.8088 39.4856 41.6513 39.4856Z" fill="#8FADCF"/>
<path d="M21.4771 14.3804L32.7185 23.4639C32.9896 23.6811 33.036 24.0797 32.8244 24.3574L19.4974 41.7228C18.6596 42.7955 17.425 43.4024 16.1023 43.4249L8.827 43.5145C8.43898 43.5189 8.09948 43.2501 8.01129 42.8649L6.35781 35.6759C6.07123 34.3547 6.35781 32.9886 7.19559 31.9359L20.5887 14.4879C20.8047 14.2079 21.2038 14.1587 21.4771 14.3804Z" fill="#8FADCF"/>
<path opacity="0.4" d="M37.7532 18.053L35.5859 20.7584C35.3678 21.0337 34.9753 21.0785 34.7042 20.8592C32.0696 18.7271 25.3234 13.2559 23.4517 11.7398C23.1784 11.5158 23.1409 11.1172 23.3613 10.8395L25.4513 8.24387C27.3474 5.80279 30.6542 5.57883 33.3217 7.70637L36.3863 10.1475C37.643 11.1329 38.4807 12.4318 38.7673 13.7979C39.098 15.3006 38.7453 16.7765 37.7532 18.053Z" fill="#8FADCF"/>
</svg>
