<svg width="51" height="58" viewBox="0 0 51 58" fill="none" xmlns="http://www.w3.org/2000/svg">
<path d="M25.1282 36.7744H25.8714C29.9596 36.7744 33.4282 33.7966 34.6489 29.6676C34.8259 29.0665 34.4204 28.4469 33.8584 28.4469H31.5694C30.8406 28.4469 30.2519 27.7857 30.2519 26.9696C30.2519 26.1511 30.8406 25.4876 31.5694 25.4876H33.7884C34.5233 25.4876 35.1182 24.8195 35.1182 23.9941C35.1182 23.1688 34.5233 22.5006 33.7884 22.5006H31.5694C30.8406 22.5006 30.2519 21.8371 30.2519 21.021C30.2519 20.2026 30.8406 19.5391 31.5694 19.5391H33.7884C34.5233 19.5391 35.1182 18.8709 35.1182 18.0456C35.1182 17.2202 34.5233 16.5521 33.7884 16.5521H31.5694C30.8406 16.5521 30.2519 15.8885 30.2519 15.0701C30.2519 14.254 30.8406 13.5905 31.5694 13.5905H33.9758C34.5275 13.5905 34.9227 12.9987 34.7745 12.3999C33.6814 8.03267 30.1099 4.83298 25.8714 4.83298H25.1282C20.021 4.83298 15.8813 9.47992 15.8813 15.2181V26.3893C15.8813 32.1251 20.021 36.7744 25.1282 36.7744Z" fill="#8FADCF"/>
<path d="M41.504 23.746C40.3677 23.746 39.4455 24.7794 39.4455 26.0579C39.4455 34.6929 33.1896 41.7188 25.501 41.7188C17.8104 41.7188 11.5545 34.6929 11.5545 26.0579C11.5545 24.7794 10.6323 23.746 9.49602 23.746C8.35972 23.746 7.4375 24.7794 7.4375 26.0579C7.4375 36.4615 14.4488 45.0503 23.4425 46.2039V50.8555C23.4425 52.1317 24.3627 53.1674 25.501 53.1674C26.6373 53.1674 27.5596 52.1317 27.5596 50.8555V46.2039C36.5512 45.0503 43.5625 36.4615 43.5625 26.0579C43.5625 24.7794 42.6403 23.746 41.504 23.746Z" fill="#8FADCF" fill-opacity="0.6"/>
</svg>
