<svg width="106" height="109" viewBox="0 0 106 109" fill="none" xmlns="http://www.w3.org/2000/svg">
<path d="M59.3603 14.8394L65.7203 55.5434L53.2123 62.7514L40.2803 55.5434L46.6403 14.8394L52.5763 8.69141L59.3603 14.8394Z" fill="white"/>
<path d="M69.96 97.9447V102.185C69.96 104.525 68.0626 106.425 65.72 106.425H40.28C37.9374 106.425 36.04 104.525 36.04 102.185V97.9447L52.576 89.8887L69.96 97.9447Z" fill="white"/>
<path d="M69.9601 97.6504V97.943H36.0401V97.6504C19.3112 95.5601 6.36012 81.3179 6.36012 64.023C4.01752 64.023 2.12012 62.1234 2.12012 59.783C2.12012 57.4404 4.01752 55.543 6.36012 55.543H99.6401C101.983 55.543 103.88 57.4404 103.88 59.783C103.88 62.1234 101.983 64.023 99.6401 64.023C99.6401 81.3179 86.689 95.5601 69.9601 97.6504Z" fill="white"/>
<path d="M59.3603 2.11914C62.8731 2.11914 65.7203 4.9663 65.7203 8.47914C65.7203 11.992 62.8731 14.8391 59.3603 14.8391H46.6403C43.1274 14.8391 40.2803 11.992 40.2803 8.47914C40.2803 4.9663 43.1274 2.11914 46.6403 2.11914H59.3603Z" fill="white"/>
<path d="M99.64 53.424H67.5345L61.7817 16.6057C65.2809 15.561 67.84 12.3144 67.84 8.48C67.84 3.80413 64.0359 0 59.36 0H46.64C41.9641 0 38.16 3.80413 38.16 8.48C38.16 12.3144 40.7191 15.561 44.2183 16.6057L38.4655 53.424H6.36C2.8531 53.424 0 56.2771 0 59.784C0 62.564 1.7931 64.9333 4.28346 65.7959C5.10284 82.5168 17.4512 96.5412 33.92 99.474V102.184C33.92 105.691 36.7731 108.544 40.28 108.544H65.72C69.2269 108.544 72.08 105.691 72.08 102.184V99.474C88.5488 96.5414 100.897 82.5168 101.717 65.7959C104.207 64.9333 106 62.564 106 59.784C106 56.2771 103.147 53.424 99.64 53.424ZM42.4 8.48C42.4 6.14206 44.3021 4.24 46.64 4.24H59.36C61.6979 4.24 63.6 6.14206 63.6 8.48C63.6 10.8179 61.6979 12.72 59.36 12.72H46.64C44.3021 12.72 42.4 10.8179 42.4 8.48ZM48.4545 16.96H57.5457L63.2432 53.424H42.757L48.4545 16.96ZM65.72 104.304H40.28C39.111 104.304 38.16 103.353 38.16 102.184V100.064H67.84V102.184C67.84 103.353 66.889 104.304 65.72 104.304ZM99.64 61.904C98.4691 61.904 97.52 62.8531 97.52 64.024C97.52 80.0135 85.8216 93.63 69.96 95.612C69.6662 95.6487 69.324 95.824 68.889 95.824H37.111C36.888 95.824 36.3338 95.6487 36.04 95.612C20.1784 93.63 8.48 80.0135 8.48 64.024C8.48 62.8531 7.53088 61.904 6.36 61.904C5.19103 61.904 4.24 60.953 4.24 59.784C4.24 58.615 5.19103 57.664 6.36 57.664H99.64C100.809 57.664 101.76 58.615 101.76 59.784C101.76 60.953 100.809 61.904 99.64 61.904Z" fill="url(#paint0_linear)"/>
<path d="M30.3006 48.5622C30.7146 48.976 31.2571 49.1831 31.7996 49.1831C32.3421 49.1831 32.8848 48.976 33.2987 48.5622C34.1265 47.7343 34.1265 46.3919 33.2987 45.5639L29.0587 41.3239C28.2308 40.4962 26.8884 40.4962 26.0603 41.3239C25.2325 42.1517 25.2325 43.4941 26.0603 44.3222L30.3006 48.5622Z" fill="url(#paint1_linear)"/>
<path d="M74.2002 49.1831C74.7427 49.1831 75.2855 48.976 75.6993 48.5622L79.9393 44.3222C80.7671 43.4943 80.7671 42.1519 79.9393 41.3239C79.1114 40.4962 77.769 40.4962 76.941 41.3239L72.701 45.5639C71.8731 46.3917 71.8731 47.7341 72.701 48.5622C73.115 48.976 73.6577 49.1831 74.2002 49.1831Z" fill="url(#paint2_linear)"/>
<defs>
<linearGradient id="paint0_linear" x1="3.99497" y1="1.30391e-06" x2="84.2237" y2="110.631" gradientUnits="userSpaceOnUse">
<stop stop-color="#F6BF4A"/>
<stop offset="0.375" stop-color="#EC622D"/>
<stop offset="0.6875" stop-color="#DC395E"/>
<stop offset="1" stop-color="#C04D95"/>
</linearGradient>
<linearGradient id="paint1_linear" x1="25.7591" y1="40.7031" x2="31.9793" y2="49.4865" gradientUnits="userSpaceOnUse">
<stop stop-color="#F6BF4A"/>
<stop offset="0.375" stop-color="#EC622D"/>
<stop offset="0.6875" stop-color="#DC395E"/>
<stop offset="1" stop-color="#C04D95"/>
</linearGradient>
<linearGradient id="paint2_linear" x1="72.3997" y1="40.7031" x2="78.6199" y2="49.4865" gradientUnits="userSpaceOnUse">
<stop stop-color="#F6BF4A"/>
<stop offset="0.375" stop-color="#EC622D"/>
<stop offset="0.6875" stop-color="#DC395E"/>
<stop offset="1" stop-color="#C04D95"/>
</linearGradient>
</defs>
</svg>
