<svg width="109" height="110" viewBox="0 0 109 110" fill="none" xmlns="http://www.w3.org/2000/svg">
<path d="M32.9638 103.144C27.9749 108.133 19.8861 108.133 14.897 103.144L5.86374 94.1105C0.874847 89.1216 0.874847 81.0328 5.86374 76.0437L25.8943 56.0132C30.8832 51.0243 38.9715 51.0243 43.9606 56.0128C37.7364 62.2377 14.897 85.077 14.897 85.077L23.9303 94.1103C23.9303 94.1103 42.5147 75.5259 52.9943 65.0463C57.9832 70.0354 57.9832 78.1242 52.9943 83.113C51.4102 84.6974 32.2231 103.885 32.9638 103.144Z" fill="white"/>
<path d="M103.136 32.9726C108.125 27.9837 108.125 19.8949 103.136 14.9058L94.1027 5.87253C89.1138 0.883636 81.025 0.883636 76.0359 5.87253L56.0054 25.903C51.0165 30.8919 51.0165 38.9803 56.005 43.9694C62.6987 37.2765 85.0692 14.9058 85.0692 14.9058L94.1025 23.9391C94.1025 23.9391 71.732 46.3098 65.0385 53.0031C70.0276 57.992 78.1163 57.992 83.1052 53.0029C84.1179 51.9907 103.433 32.6754 103.136 32.9726Z" fill="white"/>
<path d="M37.9389 74.081L34.9278 71.07C33.2649 69.4071 33.2649 66.7107 34.9278 65.0478L65.039 34.9366C66.7019 33.2737 69.3983 33.2737 71.0612 34.9366L74.0723 37.9477C75.7352 39.6106 75.7352 42.307 74.0723 43.9699L43.9611 74.081C42.298 75.7439 39.6018 75.7439 37.9389 74.081Z" fill="white"/>
<path d="M104.642 13.402L95.6083 4.36869C89.7835 -1.45591 80.3559 -1.45655 74.5304 4.36869L54.4999 24.3992C49.1612 29.7381 48.7419 38.0588 53.1017 43.8642L43.8518 53.1142C38.0185 48.7471 29.6887 49.2108 24.3887 54.5106L4.35823 74.5411C-1.45274 80.3523 -1.45274 89.8078 4.35823 95.6189L13.3917 104.652C19.2027 110.463 28.6582 110.464 34.4696 104.652L54.5001 84.6217C59.8388 79.2828 60.2581 70.9621 55.8983 65.1567L65.1482 55.9069C71.0151 60.2994 79.3375 59.7843 84.6112 54.5106L104.642 34.48C110.453 28.6689 110.453 19.2134 104.642 13.402ZM66.5445 36.4438C67.3742 35.6136 68.7254 35.6134 69.5558 36.4438L72.5669 39.4551C73.3968 40.2848 73.397 41.6347 72.5679 42.4651C72.5675 42.4655 72.5662 42.4668 72.566 42.4673C68.4075 46.6258 45.4076 69.6256 42.4559 72.5773C41.6241 73.4094 40.2772 73.4096 39.4449 72.5773L36.4335 69.5662C35.6036 68.7365 35.6034 67.3866 36.4325 66.5562C36.4329 66.5558 36.4342 66.5545 36.4344 66.5541C40.5929 62.3954 63.5926 39.3957 66.5445 36.4438ZM76.8244 38.2082C76.5203 37.5699 76.1056 36.9716 75.578 36.4438L72.5669 33.4325C72.0391 32.9047 71.4405 32.4899 70.8022 32.1858L85.0695 17.9186L91.0916 23.9408L76.8244 38.2082ZM32.1756 70.8129C32.4796 71.4512 32.8944 72.0495 33.422 72.5773L36.4333 75.5884C36.9543 76.1094 37.5497 76.5287 38.1952 76.8376L23.9308 91.1023L17.9084 85.0801L32.1756 70.8129ZM51.4888 81.6106L31.4583 101.641C27.3085 105.791 20.5541 105.792 16.4028 101.641L7.36932 92.6079C3.21869 88.457 3.21869 81.703 7.36932 77.5522L27.3998 57.5217C31.035 53.8861 36.6671 53.4349 40.7984 56.1675C39.3569 57.609 14.8125 82.1533 13.3915 83.5744C12.9923 83.9736 12.7679 84.5152 12.7679 85.0799C12.7679 85.6446 12.9923 86.1862 13.3915 86.5855L22.425 95.6187C23.2567 96.4502 24.6044 96.4502 25.4363 95.6187C26.8569 94.1981 51.4028 69.6523 52.8442 68.2108C55.5604 72.3018 55.1648 77.9348 51.4888 81.6106ZM81.6002 51.4993C77.9282 55.1715 72.2958 55.5739 68.2003 52.8547C72.7638 48.2912 88.6693 32.3858 95.6085 25.4466C96.4395 24.6153 96.4397 23.2667 95.6085 22.4352L86.575 13.402C85.7433 12.5705 84.3956 12.5705 83.5637 13.402C82.1433 14.8226 57.5972 39.3687 56.1558 40.8101C53.4396 36.7193 53.8352 31.0861 57.5112 27.4105L77.5417 7.37999C81.6926 3.22915 88.4468 3.22936 92.5972 7.37999L101.631 16.4133C105.781 20.5641 105.781 27.3181 101.631 31.469L81.6002 51.4993Z" fill="url(#paint0_linear)"/>
<defs>
<linearGradient id="paint0_linear" x1="4.10804" y1="1.30952e-06" x2="84.0725" y2="112.902" gradientUnits="userSpaceOnUse">
<stop stop-color="#F6BF4A"/>
<stop offset="0.375" stop-color="#EC622D"/>
<stop offset="0.6875" stop-color="#DC395E"/>
<stop offset="1" stop-color="#C04D95"/>
</linearGradient>
</defs>
</svg>
