<svg width="82" height="82" viewBox="0 0 82 82" fill="none" xmlns="http://www.w3.org/2000/svg">
<path fill-rule="evenodd" clip-rule="evenodd" d="M25.6007 26.9258H54.5139C62.5683 26.9258 69.099 33.3123 69.099 41.189V58.0568C69.099 65.9336 62.5683 72.3203 54.5139 72.3203H25.6007C17.5461 72.3203 11.0156 65.9336 11.0156 58.0568V41.189C11.0156 33.3123 17.5461 26.9258 25.6007 26.9258ZM40.0399 56.3625C41.741 56.3625 43.0951 55.0385 43.0951 53.3746V45.8374C43.0951 44.2077 41.741 42.8834 40.0399 42.8834C38.3736 42.8834 37.0195 44.2077 37.0195 45.8374V53.3746C37.0195 55.0385 38.3736 56.3625 40.0399 56.3625Z" fill="white"/>
<path opacity="0.4" d="M59.8675 25.2682V30.2932C58.6522 29.9536 57.3679 29.7839 56.0483 29.7839H53.7916V25.2682C53.7916 18.3759 48.0633 12.7737 41.0157 12.7737C33.9678 12.7737 28.2393 18.3419 28.2046 25.2003V29.7839H25.9826C24.6286 29.7839 23.344 29.9536 22.1289 30.3271V25.2682C22.1636 15.0825 30.6001 6.83203 40.946 6.83203C51.4311 6.83203 59.8675 15.0825 59.8675 25.2682Z" fill="white"/>
</svg>
