<svg id="ei3arlsnqbuo1" xmlns="http://www.w3.org/2000/svg" xmlns:xlink="http://www.w3.org/1999/xlink" viewBox="0 0 82 82" shape-rendering="geometricPrecision" text-rendering="geometricPrecision"><style><![CDATA[#ei3arlsnqbuo3_to {animation: ei3arlsnqbuo3_to__to 3000ms linear infinite normal forwards}@keyframes ei3arlsnqbuo3_to__to { 0% {transform: translate(22.130701px,18.579566px);animation-timing-function: cubic-bezier(1,0,0,1)} 25.333333% {transform: translate(40.057301px,18.579566px);animation-timing-function: cubic-bezier(1,0,0,1)} 90% {transform: translate(22.130000px,18.579566px)} 100% {transform: translate(22.130000px,18.579566px)} }]]></style><path id="ei3arlsnqbuo2" d="M25.600700,26.925800L54.513900,26.925800C62.568300,26.925800,69.099000,33.312300,69.099000,41.189000L69.099000,58.056800C69.099000,65.933600,62.568300,72.320300,54.513900,72.320300L25.600700,72.320300C17.546100,72.320300,11.015600,65.933600,11.015600,58.056800L11.015600,41.189000C11.015600,33.312300,17.546100,26.925800,25.600700,26.925800ZM40.039900,56.362500C41.741000,56.362500,43.095100,55.038500,43.095100,53.374600L43.095100,45.837400C43.095100,44.207700,41.741000,42.883400,40.039900,42.883400C38.373600,42.883400,37.019500,44.207700,37.019500,45.837400L37.019500,53.374600C37.019500,55.038500,38.373600,56.362500,40.039900,56.362500Z" clip-rule="evenodd" fill="rgb(255,255,255)" fill-rule="evenodd" stroke="none" stroke-width="1"/><g id="ei3arlsnqbuo3_to" transform="translate(22.130701,18.579566)"><path id="ei3arlsnqbuo3" d="M59.867500,25.268200L59.867500,30.293200C58.652200,29.953600,57.367900,29.783900,56.048300,29.783900L53.791600,29.783900L53.791600,25.268200C53.791600,18.375900,48.063300,12.773700,41.015700,12.773700C33.967800,12.773700,28.239300,18.341900,28.204600,25.200300L28.204600,29.783900L25.982600,29.783900C24.628600,29.783900,23.344000,29.953600,22.128900,30.327100L22.128900,25.268200C22.163600,15.082500,30.600100,6.832030,40.946000,6.832030C51.431100,6.832030,59.867500,15.082500,59.867500,25.268200Z" transform="translate(-40.998201,-18.579566)" opacity="0.4000000059604645" fill="rgb(255,255,255)" stroke="none" stroke-width="1"/></g></svg>