<svg width="96" height="85" viewBox="0 0 96 85" fill="none" xmlns="http://www.w3.org/2000/svg">
<path d="M17.2187 0.518951C16.5111 0.990695 12.4659 3.66785 3.44374 9.61183L0 11.888L0.0235872 15.6384L0.0589681 19.3887L4.00983 22.0069C6.17986 23.434 8.97495 25.2738 10.2015 26.0875C11.4398 26.9013 13.7042 28.3873 15.2374 29.4015C16.7705 30.4158 18.056 31.2413 18.0914 31.2413C18.1386 31.2413 18.1622 29.26 18.1622 26.8305V22.4079L16.1337 21.1578C15.0133 20.462 12.5838 18.976 10.7322 17.8438C8.8806 16.7116 7.33563 15.7445 7.28846 15.6973C7.24128 15.6502 9.67077 14.1052 12.6899 12.2654L18.1622 8.91601V4.45802C18.1622 1.99315 18.1268 -0.0117623 18.0796 3.1285e-05C18.0207 3.1285e-05 17.6433 0.235904 17.2187 0.518951Z" fill="white"/>
<path d="M45.4055 17.6318V20.5331L45.0399 20.2146C43.6129 19.0235 41.3131 18.7876 39.544 19.6486C38.8246 20.0024 37.775 21.052 37.3976 21.795C36.7136 23.1277 36.4777 25.6043 36.8551 27.4088C37.1971 29.0363 38.1878 30.6166 39.3082 31.3242C40.4286 32.0318 42.516 32.138 43.8015 31.5601C44.1789 31.3832 44.745 30.9704 45.1106 30.6166L45.7475 29.968L45.7829 30.8171L45.8183 31.6545L47.9529 31.6898L50.0876 31.7134L50.1701 31.3478C50.2055 31.1473 50.2409 27.3262 50.2409 22.8564V14.7306H47.8232H45.4055V17.6318ZM44.1907 22.88C45.146 23.34 45.606 24.649 45.3937 26.3119C45.2758 27.279 45.0635 27.7036 44.521 28.1282C43.4477 28.9419 42.0561 28.4702 41.5726 27.1257C41.3485 26.4653 41.3367 24.8613 41.5726 24.0947C41.9382 22.8446 43.0468 22.3257 44.1907 22.88Z" fill="white"/>
<path d="M26.1347 19.271C24.7549 19.5423 23.5755 20.1438 22.632 21.0873C21.3937 22.3374 20.8748 23.6465 20.8748 25.5806C20.8748 27.2317 21.1932 28.2224 22.1013 29.4254C22.9386 30.5457 24.0355 31.2652 25.4861 31.6661C26.5593 31.9728 29.3662 31.9728 30.3686 31.6661C32.6212 30.9939 34.3195 29.272 34.7912 27.1728C34.9682 26.418 34.9682 24.6253 34.7912 23.8706C34.2959 21.7005 32.5623 19.9904 30.2507 19.389C29.2011 19.1177 27.2433 19.0587 26.1347 19.271ZM28.9534 22.6676C29.8969 23.2101 30.2389 24.0946 30.1681 25.8755C30.1092 27.1964 29.8851 27.7978 29.2482 28.3285C28.576 28.8946 27.3141 28.9064 26.5947 28.3639C25.9106 27.8332 25.6748 27.2317 25.6158 25.8519C25.5568 24.5546 25.663 24.0357 26.1465 23.3045C26.7008 22.4435 28.0217 22.1369 28.9534 22.6676Z" fill="white"/>
<path d="M57.7298 19.2709C56.2084 19.5539 55.3121 20.0021 54.286 20.9927C53.0123 22.2311 52.3991 23.9294 52.517 25.9343C52.6113 27.7859 53.2246 29.1893 54.4629 30.3805C55.6541 31.5362 56.8452 31.8901 59.6757 31.8783C62.5652 31.8783 63.7327 31.5244 65.0772 30.2507C65.7258 29.6375 66.4688 28.6822 66.3627 28.576C66.2919 28.5053 62.9661 28.1751 62.2821 28.1751C61.8575 28.1751 61.6924 28.2458 61.315 28.576C59.8762 29.8851 57.6708 29.095 57.3524 27.1844L57.2816 26.7598L61.9873 26.7362L66.6929 26.7009L66.6693 25.6041C66.575 21.9362 64.7706 19.778 61.3622 19.2709C59.9824 19.0586 58.8502 19.0586 57.7298 19.2709ZM60.9376 22.3372C61.3976 22.691 61.775 23.4222 61.8222 24.0591L61.8575 24.4601L59.5696 24.4955L57.2816 24.519L57.3642 24.0355C57.4585 23.4694 57.7887 22.7736 58.1072 22.4905C58.8266 21.8301 60.1711 21.7593 60.9376 22.3372Z" fill="white"/>
<path d="M48.4127 36.0061C47.481 36.301 46.738 36.8553 46.3842 37.5393C46.1719 37.9521 45.8889 39.4616 45.8771 40.2282V40.7943H44.9926H44.108V42.5044V44.2145H44.9926H45.8771V48.6371V53.0597H48.2358H50.5945V48.6371V44.2145H51.7149H52.8353V42.5044V40.8061L51.7503 40.7707L50.6535 40.7354L50.6653 40.1811C50.6771 39.0725 51.1134 38.7422 52.5051 38.8012L53.366 38.8484L53.6137 37.4921C53.7552 36.7491 53.8613 36.1241 53.8496 36.1123C53.8378 36.1005 53.3778 36.0297 52.8353 35.9707C51.5026 35.7938 49.0024 35.8174 48.4127 36.0061Z" fill="white"/>
<path d="M58.4491 40.7353C55.5243 41.4783 53.6609 43.8842 53.6609 46.9505C53.6609 48.7431 54.2152 50.1702 55.371 51.3495C56.9159 52.9181 59.1803 53.6021 61.7631 53.2955C63.6972 53.0596 64.9238 52.5053 66.0324 51.3613C67.3886 49.9343 67.9901 48.0001 67.7071 45.9481C67.3651 43.5304 65.9498 41.7731 63.6855 40.9594C62.8953 40.6763 62.6004 40.6409 60.9729 40.6055C59.652 40.582 58.9562 40.6173 58.4491 40.7353ZM61.657 43.9667C62.624 44.4621 63.0014 45.2994 63.0014 46.9151C63.0014 48.2006 62.8009 48.9201 62.2938 49.439C61.8103 49.9461 61.4093 50.1112 60.6427 50.1112C60.053 50.1112 59.8761 50.0522 59.4515 49.7456C58.7439 49.2385 58.4609 48.5544 58.4019 47.1982C58.3665 46.3962 58.4019 45.9599 58.5552 45.4763C59.0034 44.0611 60.454 43.3535 61.657 43.9667Z" fill="white"/>
<path d="M76.2457 40.7589C75.7386 41.0184 75.3848 41.3604 74.9366 42.0326L74.5357 42.6223V41.7024V40.7943H72.2949H70.0541V46.927V53.0597L72.4482 53.0361L74.8305 53.0007L74.9013 49.6985C74.972 46.0425 75.0664 45.5118 75.7268 44.7452C76.2221 44.1791 76.7764 44.0494 77.661 44.2734C78.0384 44.3796 78.3568 44.4385 78.3686 44.4268C78.4629 44.2616 79.7248 41.2543 79.7248 41.1717C79.7248 41.1245 79.3946 40.9594 78.9936 40.8179C78.0973 40.4995 76.7764 40.4759 76.2457 40.7589Z" fill="white"/>
<path d="M77.9793 52.7766L78.0147 57.2464L80.0786 58.5083C81.2108 59.2041 83.6403 60.6901 85.4683 61.8105C87.3081 62.9309 88.8059 63.8862 88.8059 63.9216C88.8059 63.9687 86.4708 65.4193 83.6167 67.1648C80.7626 68.9102 78.3213 70.4198 78.1916 70.5142C77.9557 70.6911 77.9557 70.7972 77.9793 75.1491L78.0147 79.6071L79.253 78.7933C79.9371 78.3451 82.8855 76.3992 85.7985 74.4768C88.7233 72.5427 92.2025 70.2429 93.5469 69.3584L96 67.7427V63.9569V60.1594L91.9076 57.4704C89.655 55.9844 86.7656 54.0739 85.4801 53.2365C84.1946 52.3874 82.0246 50.9604 80.6447 50.0523C79.2648 49.1442 78.0973 48.3776 78.0383 48.3658C77.9911 48.3422 77.9675 50.3235 77.9793 52.7766Z" fill="white"/>
<path d="M55.147 60.8437C53.4841 61.1385 50.9484 62.2825 50.0639 63.1435C49.0615 64.1223 49.1086 65.1012 50.1819 65.7852C50.8069 66.1862 52.517 66.6226 54.6045 66.9292C56.7627 67.2476 58.1897 67.5897 58.2369 67.8255C58.2841 68.0732 57.1637 68.6275 55.9018 68.9813C54.1091 69.4766 51.4202 69.7479 51.4202 69.4177C51.4202 69.3469 51.774 69.0049 52.1986 68.6865C53.2836 67.8609 53.7789 67.4363 53.7789 67.3302C53.7789 67.2712 53.6964 67.1415 53.5784 67.0354C53.319 66.7759 52.9534 66.8585 51.715 67.4363C50.748 67.8845 49.7455 68.7336 49.5922 69.229C49.5332 69.3941 49.4389 69.4177 49.1322 69.3705C48.8256 69.3233 48.3774 69.4649 47.0448 70.0427C45.2639 70.8211 44.403 71.0334 44.2143 70.7386C44.1553 70.6442 44.1082 70.1725 44.1082 69.6653C44.1082 68.8988 44.1907 68.5096 44.6978 66.9764C45.4526 64.7238 45.5234 64.2639 45.1814 63.9218C44.8865 63.627 44.3912 63.6034 44.0964 63.8629C43.9784 63.969 43.6128 64.9125 43.2708 65.9621C42.6339 67.9671 42.3863 68.5449 41.8792 69.2054C41.5136 69.7007 40.4993 70.5145 40.2634 70.5145C40.004 70.5145 40.0512 69.4649 40.405 67.2359C40.5701 66.1626 40.6762 65.1602 40.629 65.0069C40.5347 64.6295 40.0983 64.429 39.7563 64.6059C38.9897 65.0186 38.2585 70.4673 38.8364 71.5405C39.0487 71.9415 39.5676 72.2835 39.945 72.2835C40.287 72.2717 41.1715 71.8354 41.8202 71.3283C42.1504 71.0806 42.4688 70.8683 42.5278 70.8683C42.5868 70.8801 42.7519 71.1396 42.9052 71.4462C43.259 72.2246 43.7425 72.4486 44.804 72.3661C46.1249 72.2599 48.401 71.1278 49.1794 70.1843C49.3681 69.9484 49.545 69.7833 49.5568 69.8187C49.5804 69.8423 49.6747 70.0192 49.7927 70.2196C50.1583 70.8801 50.6064 71.0452 52.0688 71.0334C56.2556 70.998 60.3008 69.2054 59.9823 67.5071C59.7936 66.5518 58.4964 66.0211 54.8993 65.4432C52.1514 64.9951 50.9484 64.6766 50.9484 64.3936C50.9484 64.1931 52.0217 63.4383 52.9534 63.0019C54.7578 62.141 55.3003 61.9759 56.3381 61.9759C57.1755 61.9759 57.3288 61.9523 57.3878 61.7636C57.6118 61.0206 56.5622 60.596 55.147 60.8437Z" fill="#B23B35"/>
<path d="M65.49 60.8435C62.7421 61.4096 60.7254 64.3344 61.3269 66.8701C61.551 67.7782 62.4001 68.6037 63.5087 68.9929C65.5962 69.7123 70.573 69.0401 71.7052 67.8843C72.1062 67.4715 72.1416 67.3064 71.8821 67.0941C71.6227 66.8818 71.1391 66.9172 69.7003 67.2592C67.8959 67.6838 66.634 67.8371 65.4075 67.7782C63.7564 67.6956 62.9308 67.2357 62.7775 66.3511C62.7185 65.9619 62.7421 65.9266 63.0488 65.8558C65.0419 65.4194 67.3298 64.0042 67.8251 62.9074C68.0964 62.3295 68.0964 62.1054 67.8723 61.6219C67.5539 60.9379 66.5632 60.6194 65.49 60.8435ZM66.351 62.3885C66.3863 62.4592 66.2448 62.6951 66.0325 62.9192C65.4664 63.5089 63.2964 64.7354 63.1313 64.5703C63.037 64.4759 63.2846 64.0278 63.6856 63.5325C64.2989 62.7895 66.1151 62.0111 66.351 62.3885Z" fill="#B23B35"/>
<path d="M19.5538 63.5442C16.1573 64.2872 13.032 65.8322 11.2039 67.6956C9.64718 69.2641 8.85701 70.8563 8.84521 72.3894C8.84521 73.4391 9.04571 74.0288 9.62359 74.5949C10.343 75.3143 11.0506 75.5148 12.6074 75.4322C14.1877 75.3496 15.6737 74.9369 18.6693 73.7457C21.5352 72.6135 22.7853 72.012 23.2216 71.5639C23.658 71.1275 23.6816 70.9388 23.3042 70.6794C23.033 70.5143 22.9504 70.5143 22.2074 70.7265C21.771 70.8563 20.5799 71.3162 19.5774 71.7408C14.2231 74.0288 11.1568 74.5713 10.4845 73.3329C10.4138 73.1796 10.3784 72.7433 10.402 72.2951C10.4845 70.8445 11.5577 69.158 13.1853 67.9197C14.7656 66.7167 18.3509 65.1482 20.6153 64.6764C21.7357 64.4523 23.3514 64.4405 23.8939 64.6764C24.2713 64.8297 24.3303 64.8297 24.4954 64.6646C24.6605 64.4995 24.6605 64.4523 24.4482 64.1693C24.3303 63.9924 24.0118 63.7447 23.7524 63.615C23.0919 63.2848 20.9573 63.2494 19.5538 63.5442Z" fill="#B23B35"/>
<path d="M33.4467 65.3724C33.0929 65.7615 33.0457 65.7733 32.6093 65.679C31.9725 65.5375 31.1233 65.7144 30.0737 66.2215C28.4108 67.0353 26.6536 69.1935 26.6536 70.42C26.6536 71.4225 27.314 72.0122 28.3165 71.8942C29.2364 71.7881 31.1941 70.6677 32.3263 69.6063C32.6447 69.3114 32.9042 69.1109 32.9042 69.1699C32.9042 69.2289 32.9277 69.8539 32.9513 70.5733C32.9867 71.9296 33.1046 72.4014 33.5174 72.8377C33.7887 73.1326 34.2486 73.1915 34.4019 72.9557C34.4491 72.8849 34.4963 71.7763 34.5081 70.5144C34.5199 68.9694 34.5906 67.8608 34.7086 67.1532C34.968 65.7733 34.9562 65.4903 34.6732 65.2072C34.3194 64.8534 33.883 64.9124 33.4467 65.3724ZM32.3145 67.2593C32.3145 67.5778 30.7223 69.0638 29.7199 69.6652C28.3283 70.5262 27.9744 70.479 28.6113 69.5119C29.2835 68.4977 30.227 67.7193 31.2413 67.3183C31.9017 67.0588 32.3145 67.0353 32.3145 67.2593Z" fill="#B23B35"/>
<path d="M69.0989 74.3829C68.0257 74.9372 68.2969 75.4679 69.6414 75.4679C70.3844 75.4679 70.7736 74.89 70.3844 74.3829C70.1014 74.0291 69.7594 74.0291 69.0989 74.3829Z" fill="#B23B35"/>
<path d="M64.4049 75.0074C64.2516 75.0664 62.0579 75.3848 59.5105 75.7033C52.9887 76.5406 47.9174 77.2718 43.7543 77.9559C33.8594 79.5834 21.2638 82.8266 20.2968 84.006C20.0727 84.2654 20.2378 84.7608 20.5916 84.9259C20.8393 85.0438 21.2638 84.9377 23.5636 84.2065C27.0899 83.0743 27.0073 83.0979 29.1891 82.5554C38.624 80.2202 44.5326 79.1706 58.1425 77.4133C65.4899 76.4699 65.254 76.5052 65.5371 76.2104C65.8673 75.8802 65.8791 75.5853 65.5606 75.1844C65.3012 74.8659 64.9238 74.7952 64.4049 75.0074Z" fill="#B23B35"/>
</svg>
