<svg width="138" height="138" viewBox="0 0 138 138" fill="none" xmlns="http://www.w3.org/2000/svg">
<path d="M69.0043 117.434C95.7973 117.434 117.517 95.7143 117.517 68.9213C117.517 42.1283 95.7973 20.4082 69.0043 20.4082C42.2113 20.4082 20.4912 42.1283 20.4912 68.9213C20.4912 95.7143 42.2113 117.434 69.0043 117.434Z" fill="white"/>
<path d="M42.0536 61.05C41.9358 56.487 45.5999 52.751 50.1364 52.751H66.3074C70.7728 52.751 74.3929 49.1311 74.3929 44.6655C74.3929 40.2001 70.7731 36.58 66.3074 36.58H60.9171C56.5234 36.58 52.7284 33.0776 52.8294 28.685C52.872 26.8369 52.2917 25.1274 51.2875 23.7461C33.256 30.8223 20.4893 48.3808 20.4893 68.922H33.6517C38.0893 68.922 42.1679 65.4859 42.0536 61.05Z" fill="white"/>
<path d="M90.5635 77.0093C90.5635 81.475 86.9436 85.0949 82.4779 85.0949H60.9166C56.4512 85.0949 52.8311 88.715 52.8311 93.1804C52.8311 97.646 56.4512 101.266 60.9166 101.266H77.0876C81.5532 101.266 85.1731 104.886 85.1731 109.351C85.1731 111.88 84.012 114.138 82.1939 115.621C102.576 109.874 117.515 91.1442 117.515 68.9238H98.649C94.1836 68.9238 90.5635 72.5437 90.5635 77.0093Z" fill="white"/>
<path d="M105.163 36.5801H98.65C94.1846 36.5801 90.5645 40.2002 90.5645 44.6656C90.5645 49.1312 94.1846 52.7511 98.65 52.7511H114.756L105.163 36.5801Z" fill="white"/>
<path d="M116.02 111.014C113.648 113.646 111.048 116.107 108.293 118.328C107.134 119.262 106.952 120.959 107.886 122.118C108.822 123.279 110.519 123.457 111.676 122.524C114.653 120.124 117.461 117.466 120.024 114.623C121.02 113.517 120.932 111.813 119.826 110.816C118.721 109.82 117.016 109.908 116.02 111.014Z" fill="url(#paint0_linear)"/>
<path d="M129.414 88.2494C128.293 91.5766 126.872 94.8537 125.191 97.989C124.488 99.3007 124.981 100.935 126.293 101.638C127.61 102.344 129.241 101.843 129.942 100.536C131.765 97.1365 133.306 93.5818 134.523 89.9703C134.998 88.5599 134.24 87.031 132.829 86.5558C131.418 86.0806 129.89 86.8391 129.414 88.2494Z" fill="url(#paint1_linear)"/>
<path d="M134.589 59.1214C133.111 59.2912 132.049 60.6274 132.219 62.1063C132.478 64.3605 132.609 66.6527 132.609 68.9191C132.609 70.1705 132.569 71.4375 132.49 72.6845C132.396 74.1701 133.524 75.4506 135.01 75.5447C136.493 75.6387 137.776 74.5129 137.87 73.0252C137.956 71.6652 138 70.2837 138 68.9189C137.999 66.4479 137.856 63.949 137.574 61.4915C137.405 60.0124 136.068 58.9516 134.589 59.1214Z" fill="url(#paint2_linear)"/>
<path d="M105.863 17.6409C108.714 19.7305 111.423 22.0699 113.915 24.5931C114.959 25.6493 116.665 25.6655 117.727 24.6168C118.786 23.5708 118.797 21.8645 117.751 20.8053C115.058 18.0789 112.131 15.5513 109.05 13.293C107.849 12.4133 106.163 12.6726 105.282 13.8736C104.402 15.0743 104.662 16.7609 105.863 17.6409Z" fill="url(#paint3_linear)"/>
<path d="M69.1109 132.526H69.0015C65.4867 132.526 61.9369 132.211 58.4512 131.589C56.987 131.327 55.5857 132.304 55.3246 133.77C55.0631 135.235 56.0393 136.635 57.5047 136.896C61.3019 137.574 65.1698 137.917 69.0012 137.917H69.1287C70.6172 137.912 71.8198 136.701 71.815 135.213C71.8099 133.727 70.6043 132.527 69.1201 132.527C69.1171 132.526 69.1139 132.526 69.1109 132.526Z" fill="url(#paint4_linear)"/>
<path d="M94.7859 126.752C91.5633 128.249 88.2132 129.476 84.8286 130.397C83.3923 130.789 82.5449 132.27 82.9363 133.706C83.3276 135.144 84.8105 135.989 86.2446 135.599C89.9222 134.597 93.5604 133.265 97.0579 131.64C98.4076 131.012 98.9936 129.41 98.3661 128.06C97.7384 126.71 96.1362 126.124 94.7859 126.752Z" fill="url(#paint5_linear)"/>
<path d="M133.384 44.7464C131.994 41.2006 130.285 37.726 128.306 34.419C127.542 33.1418 125.887 32.7259 124.609 33.4903C123.332 34.2546 122.916 35.9097 123.681 37.187C125.507 40.2395 127.084 43.4449 128.366 46.7147C128.909 48.1005 130.473 48.7832 131.859 48.2399C133.245 47.696 133.928 46.132 133.384 44.7464Z" fill="url(#paint6_linear)"/>
<path d="M31.6204 17.9284C34.48 15.8148 37.5177 13.9247 40.6487 12.31C41.9718 11.6279 42.4911 10.0024 41.809 8.67934C41.1268 7.35602 39.5011 6.83693 38.1783 7.51907C34.7918 9.26528 31.5075 11.309 28.4167 13.5935C27.2198 14.4783 26.9664 16.1657 27.851 17.3626C28.7369 18.5617 30.4254 18.8118 31.6204 17.9284Z" fill="url(#paint7_linear)"/>
<path d="M55.5676 6.83752C59.022 6.0481 62.5511 5.56001 66.0567 5.38671C67.5433 5.3134 68.689 4.04856 68.6155 2.5619C68.5422 1.07524 67.2913 -0.0675096 65.7904 0.00310385C61.9713 0.191766 58.1277 0.723254 54.3669 1.58274C52.9158 1.91425 52.0081 3.3594 52.3399 4.81048C52.6738 6.27126 54.1265 7.16741 55.5676 6.83752Z" fill="url(#paint8_linear)"/>
<path d="M11.6741 102.046C10.4311 102.865 10.0867 104.536 10.9055 105.779C13.0021 108.963 15.3805 112.013 17.9741 114.845C18.9808 115.945 20.686 116.016 21.7818 115.012C22.8796 114.007 22.9545 112.302 21.949 111.205C19.5481 108.583 17.3472 105.76 15.4075 102.815C14.589 101.572 12.918 101.227 11.6741 102.046Z" fill="url(#paint9_linear)"/>
<path d="M19.6735 25.0559C18.5323 24.0996 16.8328 24.2484 15.8765 25.3893C13.4064 28.3348 11.1648 31.4874 9.21351 34.7601C8.45132 36.0387 8.87015 37.693 10.1485 38.4552C11.4273 39.2174 13.0814 38.7988 13.8438 37.5202C15.6477 34.4944 17.7214 31.5782 20.0066 28.8528C20.9631 27.7125 20.8138 26.0124 19.6735 25.0559Z" fill="url(#paint10_linear)"/>
<path d="M5.63562 48.7313C4.20664 48.3112 2.70974 49.1289 2.28983 50.5568C1.19991 54.2637 0.435017 58.0701 0.0164573 61.8703C-0.146601 63.3497 0.920418 64.6814 2.40034 64.8444C3.88349 65.008 5.21167 63.9362 5.37419 62.4605C5.75825 58.9746 6.46034 55.4811 7.46106 52.0777C7.88097 50.6492 7.06379 49.1513 5.63562 48.7313Z" fill="url(#paint11_linear)"/>
<path d="M34.0286 121.612C32.794 120.781 31.1189 121.108 30.2877 122.343C29.4566 123.577 29.7837 125.252 31.0187 126.083C34.2111 128.232 37.5846 130.128 41.0455 131.719C42.3953 132.339 43.9967 131.751 44.6201 130.395C45.2416 129.043 44.649 127.442 43.2965 126.821C40.099 125.352 36.9809 123.599 34.0286 121.612Z" fill="url(#paint12_linear)"/>
<path d="M2.68207 76.0616C1.2124 76.2977 0.212488 77.6803 0.448585 79.15C1.05365 82.9176 2.00181 86.6776 3.26612 90.325C3.75206 91.727 5.28507 92.4779 6.69545 91.9887C8.10179 91.5012 8.84647 89.966 8.35918 88.5594C7.19702 85.2071 6.32621 81.7538 5.77074 78.2951C5.53464 76.8257 4.15013 75.8266 2.68207 76.0616Z" fill="url(#paint13_linear)"/>
<path d="M91.9777 9.86386C93.3584 10.4266 94.93 9.76118 95.4908 8.38529C96.0525 7.00698 95.3906 5.43408 94.0123 4.87214C90.4377 3.41567 86.7353 2.26267 83.0071 1.44577C81.5536 1.12747 80.116 2.04733 79.7974 3.50137C79.4788 4.95542 80.3992 6.39248 81.8533 6.71105C85.2813 7.4622 88.6877 8.52302 91.9777 9.86386Z" fill="url(#paint14_linear)"/>
<path d="M69.0032 120.129C97.0661 120.129 120.211 97.3272 120.211 68.9211C120.211 40.7334 97.2844 17.7129 69.0032 17.7129C38.3982 17.7129 17.7949 42.8855 17.7949 68.9211C17.7949 97.1574 40.7667 120.129 69.0032 120.129ZM87.7807 110.712C87.8373 110.263 87.8694 109.808 87.8694 109.349C87.8694 103.404 83.0332 98.568 77.0887 98.568H60.9177C57.9454 98.568 55.5273 96.1499 55.5273 93.1777C55.5273 90.2055 57.9454 87.7873 60.9177 87.7873H82.479C88.4235 87.7873 93.2597 82.9511 93.2597 77.0067C93.2597 74.0344 95.6778 71.6163 98.6501 71.6136H114.74C113.724 89.0379 102.932 103.877 87.7807 110.712ZM103.906 39.2743C106.661 42.513 108.977 46.1367 110.754 50.0549H98.6501C95.6778 50.0549 93.2597 47.6368 93.2597 44.6646C93.2597 41.6924 95.6778 39.2743 98.6501 39.2743H103.906ZM98.4962 33.8877C92.6228 33.9707 87.8694 38.7716 87.8694 44.6646C87.8694 50.6091 92.7056 55.4453 98.6501 55.4453H112.798C113.858 58.8849 114.522 62.4964 114.74 66.226H98.6501C92.7056 66.226 87.8694 71.0622 87.8694 77.0067C87.8694 79.9789 85.4513 82.397 82.479 82.397H60.9177C54.9732 82.397 50.137 87.2332 50.137 93.1777C50.137 99.1222 54.9732 103.958 60.9177 103.958H77.0887C80.0609 103.958 82.479 106.376 82.479 109.349C82.479 110.798 81.9031 112.164 80.8851 113.173C77.0941 114.192 73.1114 114.739 69.0032 114.739C44.6439 114.739 24.6668 95.6306 23.2667 71.6163H33.6525C39.6153 71.6163 44.9021 66.937 44.7488 60.9796C44.6704 57.9407 47.1025 55.4453 50.137 55.4453H66.308C72.2525 55.4453 77.0887 50.6091 77.0887 44.6646C77.0887 38.7201 72.2525 33.8839 66.308 33.8839H60.9177C58.0266 33.8839 55.4583 31.61 55.5243 28.7458C55.5518 27.5535 55.388 26.3881 55.0427 25.2807C59.4464 23.8687 64.1365 23.1032 69.0029 23.1032C80.2278 23.1032 90.5203 27.1627 98.4962 33.8877ZM49.989 27.2392C50.0952 27.6866 50.1464 28.1497 50.1356 28.6221C49.9998 34.5135 54.9931 39.2743 60.9177 39.2743H66.308C69.2802 39.2743 71.6983 41.6924 71.6983 44.6646C71.6983 47.6368 69.2802 50.0549 66.308 50.0549H50.137C44.0677 50.0549 39.2037 55.0461 39.3601 61.1184C39.4353 64.0238 36.5627 66.226 33.6525 66.226H23.2667C24.2771 48.8955 34.9624 34.1211 49.989 27.2392Z" fill="url(#paint15_linear)"/>
<defs>
<linearGradient id="paint0_linear" x1="107.795" y1="110.123" x2="117.223" y2="123.876" gradientUnits="userSpaceOnUse">
<stop stop-color="#F6BF4A"/>
<stop offset="0.375" stop-color="#EC622D"/>
<stop offset="0.6875" stop-color="#DC395E"/>
<stop offset="1" stop-color="#C04D95"/>
</linearGradient>
<linearGradient id="paint1_linear" x1="125.24" y1="86.4141" x2="137.246" y2="97.0944" gradientUnits="userSpaceOnUse">
<stop stop-color="#F6BF4A"/>
<stop offset="0.375" stop-color="#EC622D"/>
<stop offset="0.6875" stop-color="#DC395E"/>
<stop offset="1" stop-color="#C04D95"/>
</linearGradient>
<linearGradient id="paint2_linear" x1="132.42" y1="59.1035" x2="142.624" y2="64.1837" gradientUnits="userSpaceOnUse">
<stop stop-color="#F6BF4A"/>
<stop offset="0.375" stop-color="#EC622D"/>
<stop offset="0.6875" stop-color="#DC395E"/>
<stop offset="1" stop-color="#C04D95"/>
</linearGradient>
<linearGradient id="paint3_linear" x1="105.28" y1="12.7715" x2="114.246" y2="26.581" gradientUnits="userSpaceOnUse">
<stop stop-color="#F6BF4A"/>
<stop offset="0.375" stop-color="#EC622D"/>
<stop offset="0.6875" stop-color="#DC395E"/>
<stop offset="1" stop-color="#C04D95"/>
</linearGradient>
<linearGradient id="paint4_linear" x1="55.9053" y1="131.547" x2="58.4212" y2="140.767" gradientUnits="userSpaceOnUse">
<stop stop-color="#F6BF4A"/>
<stop offset="0.375" stop-color="#EC622D"/>
<stop offset="0.6875" stop-color="#DC395E"/>
<stop offset="1" stop-color="#C04D95"/>
</linearGradient>
<linearGradient id="paint5_linear" x1="83.4354" y1="126.5" x2="88.4776" y2="138.718" gradientUnits="userSpaceOnUse">
<stop stop-color="#F6BF4A"/>
<stop offset="0.375" stop-color="#EC622D"/>
<stop offset="0.6875" stop-color="#DC395E"/>
<stop offset="1" stop-color="#C04D95"/>
</linearGradient>
<linearGradient id="paint6_linear" x1="123.685" y1="33.1074" x2="135.58" y2="44.3709" gradientUnits="userSpaceOnUse">
<stop stop-color="#F6BF4A"/>
<stop offset="0.375" stop-color="#EC622D"/>
<stop offset="0.6875" stop-color="#DC395E"/>
<stop offset="1" stop-color="#C04D95"/>
</linearGradient>
<linearGradient id="paint7_linear" x1="27.8805" y1="7.21875" x2="35.1743" y2="20.7701" gradientUnits="userSpaceOnUse">
<stop stop-color="#F6BF4A"/>
<stop offset="0.375" stop-color="#EC622D"/>
<stop offset="0.6875" stop-color="#DC395E"/>
<stop offset="1" stop-color="#C04D95"/>
</linearGradient>
<linearGradient id="paint8_linear" x1="52.8876" y1="8.29577e-08" x2="55.8368" y2="9.85789" gradientUnits="userSpaceOnUse">
<stop stop-color="#F6BF4A"/>
<stop offset="0.375" stop-color="#EC622D"/>
<stop offset="0.6875" stop-color="#DC395E"/>
<stop offset="1" stop-color="#C04D95"/>
</linearGradient>
<linearGradient id="paint9_linear" x1="10.9206" y1="101.602" x2="21.6861" y2="114.733" gradientUnits="userSpaceOnUse">
<stop stop-color="#F6BF4A"/>
<stop offset="0.375" stop-color="#EC622D"/>
<stop offset="0.6875" stop-color="#DC395E"/>
<stop offset="1" stop-color="#C04D95"/>
</linearGradient>
<linearGradient id="paint10_linear" x1="9.27787" y1="24.4258" x2="20.3658" y2="37.2506" gradientUnits="userSpaceOnUse">
<stop stop-color="#F6BF4A"/>
<stop offset="0.375" stop-color="#EC622D"/>
<stop offset="0.6875" stop-color="#DC395E"/>
<stop offset="1" stop-color="#C04D95"/>
</linearGradient>
<linearGradient id="paint11_linear" x1="0.285348" y1="48.6211" x2="11.8852" y2="56.2574" gradientUnits="userSpaceOnUse">
<stop stop-color="#F6BF4A"/>
<stop offset="0.375" stop-color="#EC622D"/>
<stop offset="0.6875" stop-color="#DC395E"/>
<stop offset="1" stop-color="#C04D95"/>
</linearGradient>
<linearGradient id="paint12_linear" x1="30.3949" y1="121.152" x2="37.1951" y2="134.507" gradientUnits="userSpaceOnUse">
<stop stop-color="#F6BF4A"/>
<stop offset="0.375" stop-color="#EC622D"/>
<stop offset="0.6875" stop-color="#DC395E"/>
<stop offset="1" stop-color="#C04D95"/>
</linearGradient>
<linearGradient id="paint13_linear" x1="0.719128" y1="76.0273" x2="12.5438" y2="84.4161" gradientUnits="userSpaceOnUse">
<stop stop-color="#F6BF4A"/>
<stop offset="0.375" stop-color="#EC622D"/>
<stop offset="0.6875" stop-color="#DC395E"/>
<stop offset="1" stop-color="#C04D95"/>
</linearGradient>
<linearGradient id="paint14_linear" x1="80.3357" y1="1.38281" x2="84.8653" y2="13.1389" gradientUnits="userSpaceOnUse">
<stop stop-color="#F6BF4A"/>
<stop offset="0.375" stop-color="#EC622D"/>
<stop offset="0.6875" stop-color="#DC395E"/>
<stop offset="1" stop-color="#C04D95"/>
</linearGradient>
<linearGradient id="paint15_linear" x1="21.6548" y1="17.7129" x2="96.7798" y2="123.793" gradientUnits="userSpaceOnUse">
<stop stop-color="#F6BF4A"/>
<stop offset="0.375" stop-color="#EC622D"/>
<stop offset="0.6875" stop-color="#DC395E"/>
<stop offset="1" stop-color="#C04D95"/>
</linearGradient>
</defs>
</svg>
