<svg width="173" height="119" viewBox="0 0 173 119" fill="none" xmlns="http://www.w3.org/2000/svg">
<path d="M14.6446 109.811C17.9619 109.811 20.8747 108.878 23.3424 107.052C25.8101 105.226 27.5497 102.67 28.4801 99.3436H22.0478C21.4006 100.845 20.4296 101.981 19.0946 102.751C17.7596 103.522 16.2628 103.928 14.6446 103.928C12.2173 103.928 10.1946 103.076 8.61686 101.413C7.03913 99.7493 6.23003 97.5991 6.23003 95.0432C6.23003 92.4873 7.03913 90.3777 8.61686 88.6738C10.1946 87.0104 12.2173 86.1585 14.6446 86.1585C16.3033 86.1585 17.8001 86.5642 19.1351 87.3755C20.4701 88.1869 21.441 89.3229 22.0478 90.7834H28.4801C27.5497 87.4567 25.8101 84.8602 23.3424 83.0346C20.8747 81.2089 17.9619 80.3164 14.6446 80.3164C10.3564 80.3164 6.83685 81.7363 4.12638 84.5357C1.37546 87.335 0 90.8646 0 95.0432C0 99.2625 1.37546 102.792 4.12638 105.591C6.83685 108.391 10.3564 109.811 14.6446 109.811Z" fill="white"/>
<path d="M41.0736 109.77C44.3504 109.77 47.0609 108.715 49.205 106.565C51.3491 104.415 52.4009 101.778 52.4009 98.5728C52.4009 95.3678 51.3491 92.6902 49.205 90.54C47.0609 88.3898 44.3504 87.335 41.0736 87.335C37.7967 87.335 35.0863 88.3898 32.9422 90.54C30.7981 92.6902 29.7058 95.3678 29.7058 98.5728C29.7058 101.778 30.7576 104.415 32.9017 106.565C35.0458 108.715 37.7563 109.77 41.0736 109.77ZM37.2304 102.549C36.219 101.494 35.6931 100.155 35.6931 98.5728C35.6931 96.95 36.219 95.6112 37.2304 94.5564C38.2417 93.5016 39.4958 92.9742 41.0736 92.9742C42.6513 92.9742 43.9054 93.5016 44.9168 94.5564C45.9282 95.6112 46.4136 96.95 46.4136 98.5728C46.4136 100.155 45.9282 101.494 44.9168 102.549C43.9054 103.603 42.6513 104.131 41.0736 104.131C39.4958 104.131 38.2417 103.603 37.2304 102.549Z" fill="white"/>
<path d="M68.5367 118.574C70.7617 118.574 72.5417 118.046 73.7958 116.951C75.0499 115.856 75.6567 114.192 75.6567 111.961V87.8624H69.7908V90.0532H69.3458C68.8603 89.5257 68.4153 89.12 68.0108 88.7549C67.5658 88.4304 66.9589 88.1058 66.1094 87.7812C65.2598 87.4973 64.3294 87.335 63.2775 87.335C60.5266 87.335 58.2207 88.4304 56.4002 90.5806C54.5393 92.7308 53.6089 95.4084 53.6089 98.5322C53.6089 101.737 54.5798 104.374 56.5216 106.524C58.423 108.675 60.7694 109.77 63.5607 109.77C66.0285 109.77 67.9298 108.918 69.3053 107.255H69.7503V111.677C69.7503 112.651 69.3053 113.137 68.4153 113.137H58.9084V118.574H68.5367ZM64.7339 104.171C63.318 104.171 62.1044 103.644 61.1334 102.589C60.1221 101.534 59.6366 100.196 59.6366 98.5322C59.6366 96.9094 60.1221 95.5706 61.1334 94.5158C62.1044 93.5016 63.318 92.9742 64.7339 92.9742C66.1903 92.9742 67.4039 93.461 68.3748 94.4753C69.3458 95.4895 69.8312 96.8689 69.8312 98.5322C69.8312 100.114 69.3458 101.453 68.4153 102.549C67.4444 103.644 66.2307 104.171 64.7339 104.171Z" fill="white"/>
<path d="M84.3902 109.243V96.8283C84.3902 95.7329 84.7543 94.8404 85.442 94.1101C86.1297 93.4204 86.9793 93.0553 88.0311 93.0553C89.0425 93.0553 89.892 93.4204 90.5798 94.1101C91.227 94.7998 91.5507 95.6924 91.5507 96.7877V109.243H97.4571V94.881C97.4571 92.7308 96.7693 90.9457 95.3939 89.4852C93.978 88.0652 92.1979 87.335 89.9729 87.335C87.667 87.335 85.9679 88.1464 84.7947 89.8097H84.3902V87.8624H78.4838V109.243H84.3902Z" fill="white"/>
<path d="M110.649 109.77C113.926 109.77 116.637 108.715 118.781 106.565C120.925 104.415 121.977 101.778 121.977 98.5728C121.977 95.3678 120.925 92.6902 118.781 90.54C116.637 88.3898 113.926 87.335 110.649 87.335C107.373 87.335 104.662 88.3898 102.518 90.54C100.374 92.6902 99.2816 95.3678 99.2816 98.5728C99.2816 101.778 100.333 104.415 102.478 106.565C104.622 108.715 107.332 109.77 110.649 109.77ZM106.806 102.549C105.795 101.494 105.269 100.155 105.269 98.5728C105.269 96.95 105.795 95.6112 106.806 94.5564C107.818 93.5016 109.072 92.9742 110.649 92.9742C112.227 92.9742 113.481 93.5016 114.493 94.5564C115.504 95.6112 115.989 96.95 115.989 98.5728C115.989 100.155 115.504 101.494 114.493 102.549C113.481 103.603 112.227 104.131 110.649 104.131C109.072 104.131 107.818 103.603 106.806 102.549Z" fill="white"/>
<path d="M158.057 109.243L148.55 80.8438H140.054L130.467 109.243H136.939L138.76 103.563H149.885L151.705 109.243H158.057ZM144.059 86.9293H144.504L148.105 98.0454H140.499L144.059 86.9293Z" fill="white"/>
<path d="M173 109.243V103.725H169.116V86.3613H173V80.8438H159.286V86.3613H163.089V103.725H159.286V109.243H173Z" fill="white"/>
<circle cx="86.5008" cy="35.4423" r="34.7684" fill="white"/>
<path d="M97.0011 55.2458C99.7898 52.5982 101.184 49.0161 101.184 44.6553C101.184 40.4503 99.7898 36.8682 97.0011 33.9091C94.0574 31.1058 90.494 29.7041 86.3109 29.7041C81.9728 29.7041 78.4094 31.1058 75.6206 33.9091C72.8319 36.8682 71.4375 40.4503 71.4375 44.6553C71.4375 49.0161 72.8319 52.5982 75.6206 55.2458C78.4094 58.0491 81.9728 59.4508 86.3109 59.4508C90.6489 59.4508 94.2123 58.0491 97.0011 55.2458Z" fill="url(#paint0_linear)" fill-opacity="0.6"/>
<path d="M97.0011 15.5189C99.7898 18.1665 101.184 21.7485 101.184 26.1093C101.184 30.3144 99.7898 33.8964 97.0011 36.8555C94.0574 39.6589 90.494 41.0605 86.3109 41.0605C81.9728 41.0605 78.4094 39.6589 75.6206 36.8555C72.8319 33.8964 71.4375 30.3144 71.4375 26.1093C71.4375 21.7485 72.8319 18.1665 75.6206 15.5189C78.4094 12.7155 81.9728 11.3138 86.3109 11.3138C90.6489 11.3138 94.2123 12.7155 97.0011 15.5189Z" fill="url(#paint1_linear)"/>
<path d="M68.265 24.6337C70.9126 21.8449 74.4946 20.4506 78.8554 20.4506C83.0604 20.4506 86.6425 21.8449 89.6016 24.6337C92.405 27.5774 93.8066 31.1408 93.8066 35.3239C93.8066 39.662 92.405 43.2254 89.6016 46.0141C86.6425 48.8029 83.0604 50.1973 78.8554 50.1973C74.4946 50.1973 70.9126 48.8029 68.265 46.0141C65.4616 43.2254 64.0599 39.662 64.0599 35.3239C64.0599 30.9858 65.4616 27.4224 68.265 24.6337Z" fill="url(#paint2_linear)" fill-opacity="0.6"/>
<path d="M104.475 24.6337C101.828 21.8449 98.2456 20.4506 93.8848 20.4506C89.6798 20.4506 86.0977 21.8449 83.1386 24.6337C80.3353 27.5774 78.9336 31.1408 78.9336 35.3239C78.9336 39.662 80.3353 43.2254 83.1386 46.0141C86.0977 48.8029 89.6798 50.1973 93.8848 50.1973C98.2456 50.1973 101.828 48.8029 104.475 46.0141C107.279 43.2254 108.68 39.662 108.68 35.3239C108.68 30.9858 107.279 27.4224 104.475 24.6337Z" fill="url(#paint3_linear)" fill-opacity="0.6"/>
<defs>
<linearGradient id="paint0_linear" x1="86.3109" y1="29.7041" x2="86.3109" y2="59.4508" gradientUnits="userSpaceOnUse">
<stop stop-color="#373DCB"/>
<stop offset="1" stop-color="#2146C8" stop-opacity="0.47"/>
</linearGradient>
<linearGradient id="paint1_linear" x1="86.3109" y1="41.0605" x2="86.3109" y2="11.3138" gradientUnits="userSpaceOnUse">
<stop stop-color="#005DCA"/>
<stop offset="1" stop-color="#37D4F7"/>
</linearGradient>
<linearGradient id="paint2_linear" x1="93.8066" y1="35.3239" x2="64.0599" y2="35.3239" gradientUnits="userSpaceOnUse">
<stop stop-color="#373DCB"/>
<stop offset="1" stop-color="#2163E2" stop-opacity="0.63"/>
</linearGradient>
<linearGradient id="paint3_linear" x1="78.9336" y1="35.3239" x2="108.68" y2="35.3239" gradientUnits="userSpaceOnUse">
<stop stop-color="#373DCB"/>
<stop offset="1" stop-color="#2163E2" stop-opacity="0.63"/>
</linearGradient>
</defs>
</svg>
