<svg width="184" height="156" viewBox="0 0 184 156" fill="none" xmlns="http://www.w3.org/2000/svg">
<path d="M156.71 134.807C161.517 127.483 163.987 118.529 163.078 108.971C161.307 90.3482 146.127 74.952 127.284 72.7413C120.555 71.9519 114.1 72.7696 108.263 74.8569L83.8193 98.7176C81.9296 103.7 81.0084 109.148 81.2816 114.84C82.3283 136.632 101.583 153.303 123.716 153.303H163.264C155.698 150.507 152.32 141.494 156.71 134.807Z" fill="white"/>
<path d="M35.2886 83.057C39.678 89.7443 36.3003 98.7567 28.7344 101.553H68.2826C90.4155 101.553 109.67 84.882 110.717 63.0896C111.837 39.7771 92.9153 20.5455 69.4758 20.6962C46.9452 20.8409 28.5881 39.1445 28.7355 61.3938C28.7882 69.3763 31.1882 76.8096 35.2886 83.057Z" fill="white"/>
<path d="M165.8 108.719C163.909 88.8288 147.71 72.423 127.606 70.0643C122.411 69.4544 117.301 69.722 112.352 70.8551C112.953 68.3666 113.324 65.8134 113.449 63.217C114.642 38.3606 94.5709 18 69.7553 18C45.5242 18.0003 25.8434 37.5828 26.0014 61.4114C26.0558 69.6444 28.4738 77.6356 32.9934 84.521C34.5593 86.9071 34.9246 89.866 33.996 92.6389C33.0021 95.6061 30.7345 97.9354 27.7746 99.0297C26.5368 99.487 25.8084 100.752 26.0441 102.034C26.2801 103.316 27.4126 104.249 28.7347 104.249H68.2831C72.1669 104.249 75.995 103.769 79.6891 102.843C78.7353 106.782 78.3514 110.841 78.5497 114.966C79.6645 138.165 100.06 155.998 123.715 155.998H163.264C164.586 155.998 165.718 155.065 165.954 153.783C166.19 152.501 165.462 151.236 164.224 150.779C158.182 148.546 155.625 141.421 159.005 136.271C164.385 128.074 166.734 118.547 165.8 108.719ZM36.79 98.8582C37.8208 97.5079 38.6348 95.9837 39.1891 94.3291C40.6396 89.9983 40.0548 85.3563 37.5846 81.5931C37.5846 81.5928 37.5846 81.5928 37.5846 81.5928C33.6321 75.5713 31.5177 68.5806 31.4701 61.3761C31.3325 40.5923 48.512 23.3908 69.7539 23.3908C91.4054 23.3908 109.034 41.1519 107.986 62.9623C107.035 82.7553 89.2248 98.8582 68.2831 98.8582H36.79ZM155.208 150.607H123.715C102.773 150.607 84.9628 134.505 84.0123 114.712C83.7823 109.926 84.4443 105.246 85.9769 100.782C96.6837 96.4031 105.778 87.9672 110.345 76.9996C115.671 75.2805 121.253 74.7471 126.96 75.4169C144.645 77.492 158.69 91.709 160.355 109.222C161.174 117.832 159.119 126.173 154.413 133.342C150.848 138.774 151.416 145.639 155.208 150.607Z" fill="url(#paint0_linear)"/>
<path d="M146.858 112.873H97.6406C96.1307 112.873 94.9062 114.08 94.9062 115.568C94.9062 117.057 96.1307 118.264 97.6406 118.264H146.858C148.368 118.264 149.592 117.057 149.592 115.568C149.592 114.08 148.368 112.873 146.858 112.873Z" fill="url(#paint1_linear)"/>
<path d="M119.516 102.092H135.922C137.431 102.092 138.656 100.885 138.656 99.3964C138.656 97.9081 137.431 96.7012 135.922 96.7012H119.516C118.006 96.7012 116.781 97.9081 116.781 99.3964C116.781 100.885 118.006 102.092 119.516 102.092Z" fill="url(#paint2_linear)"/>
<path d="M135.921 129.045H108.578C107.068 129.045 105.844 130.252 105.844 131.74C105.844 133.229 107.068 134.435 108.578 134.435H135.921C137.431 134.435 138.656 133.229 138.656 131.74C138.656 130.252 137.431 129.045 135.921 129.045Z" fill="url(#paint3_linear)"/>
<path d="M77.5 60.5H72.8125V53.9961C75.5501 55.0332 77.5 57.5645 77.5 60.5Z" fill="#F29C3F"/>
<path d="M72.8125 72.5203V67.0103C75.5595 65.9667 77.5 63.4508 77.5 60.5H67.1875V53.9961C64.45 55.0333 62.5 57.5645 62.5 60.5C62.5 63.4508 64.4405 65.9668 67.1875 67.0103V72.5203" fill="#F29C3F"/>
<path d="M88.3939 57.1176C87.9059 54.7808 86.9287 52.6069 85.557 50.6993L87.8987 47.449L83.9212 43.72L80.4541 45.9154C78.4194 44.6294 76.1006 43.7133 73.608 43.2558L72.8126 38.8789H67.1875L66.3921 43.2558C63.8995 43.7133 61.5807 44.6294 59.546 45.9154L56.0789 43.72L52.1014 47.449L54.443 50.6993C53.0714 52.6069 52.0942 54.7808 51.6062 57.1176L46.9375 57.8633V63.1368L51.6062 63.8825C52.0942 66.2193 53.0714 68.3932 54.443 70.3007L52.1014 73.5511L56.0789 77.2801L59.546 75.0847C61.5807 76.3707 63.8995 77.2867 66.3921 77.7443L67.1875 82.1212H72.8126L73.608 77.7443C76.1006 77.2867 78.4194 76.3707 80.4541 75.0847L83.9212 77.2801L87.8987 73.5511L85.557 70.3007C86.9287 68.3932 87.9059 66.2193 88.3939 63.8825L93.0626 63.1368V57.8633L88.3939 57.1176ZM70 73.6397C62.2717 73.6397 55.9844 67.7453 55.9844 60.5C55.9844 53.2548 62.2717 47.3604 70 47.3604C77.7283 47.3604 84.0157 53.2548 84.0157 60.5C84.0157 67.7453 77.7283 73.6397 70 73.6397Z" fill="white"/>
<path d="M70 47.3164C62.246 47.3164 55.9375 53.2306 55.9375 60.5C55.9375 67.398 61.8239 73.6836 70 73.6836C77.6936 73.6836 84.0626 67.8244 84.0626 60.5C84.0626 53.2306 77.7541 47.3164 70 47.3164ZM68.125 71.7906V67.0103C68.125 66.6524 67.8935 66.3302 67.5396 66.1956C65.0477 65.2491 63.4375 63.0134 63.4375 60.5C63.4375 58.4901 64.5258 56.6038 66.25 55.4688V60.4991C66.25 60.9845 66.6697 61.3781 67.1875 61.3781C67.8222 61.3781 74.9989 61.3789 76.4961 61.3789C76.1692 63.5244 74.6575 65.3612 72.4605 66.1957C72.1066 66.3302 71.875 66.6523 71.875 67.0104V71.7907C71.2637 71.8795 70.6375 71.9259 70 71.9259C69.3625 71.9259 68.7364 71.8795 68.125 71.7906ZM73.75 61.3787V55.4688C75.6536 56.3722 76.6822 59.6408 76.4961 61.3789L73.75 61.3787ZM73.75 71.3717V67.5784C76.6178 66.2483 78.4375 63.5315 78.4375 60.5C78.4375 57.245 76.2971 54.3684 73.1638 53.1813C72.875 53.0718 72.5468 53.1041 72.2883 53.2674C72.0299 53.4308 71.875 53.704 71.875 53.9961V59.6211H68.125V53.9961C68.125 53.704 67.9701 53.4308 67.7117 53.2674C67.4534 53.1043 67.1254 53.0717 66.8362 53.1813C63.7116 54.3652 61.5625 57.2358 61.5625 60.5C61.5625 63.5315 63.3823 66.2483 66.25 67.5784V71.3717C61.3591 69.8854 57.8125 65.574 57.8125 60.5C57.8125 54.1997 63.2798 49.0742 70 49.0742C76.7203 49.0742 82.1876 54.1997 82.1876 60.5C82.1876 65.574 78.641 69.8854 73.75 71.3717Z" fill="url(#paint4_linear)"/>
<path d="M93.2201 56.997L89.1785 56.3512C88.6859 54.3419 87.8483 52.4486 86.682 50.7084L88.6757 47.9409C88.9271 47.5921 88.8793 47.1252 88.5617 46.8275L84.5841 43.0985C84.2665 42.8009 83.7686 42.7562 83.3965 42.9917L80.4445 44.8608C78.5882 43.7675 76.5687 42.9822 74.4254 42.5203L73.7366 38.7313C73.66 38.3089 73.2696 38 72.8126 38H67.1875C66.7305 38 66.3401 38.3089 66.2634 38.7313L65.5748 42.5202C63.4313 42.9821 61.4118 43.7673 59.5556 44.8608L56.6036 42.9916C56.2316 42.756 55.7335 42.8009 55.416 43.0985L51.4384 46.8275C51.121 47.1252 51.0732 47.5921 51.3244 47.9409L53.3182 50.7084C52.152 52.4485 51.3143 54.3418 50.8217 56.3512L46.78 56.997C46.3295 57.0689 46 57.4349 46 57.8633V63.1368C46 63.5652 46.3295 63.9312 46.78 64.0031L50.8217 64.6488C51.3143 66.6583 52.1519 68.5515 53.3182 70.2917L51.3244 73.0592C51.0731 73.408 51.121 73.8749 51.4384 74.1726L55.416 77.9015C55.7335 78.199 56.2314 78.244 56.6036 78.0084L59.5556 76.1392C61.4118 77.2326 63.4313 78.0179 65.5748 78.4798L66.2634 82.2687C66.3401 82.6912 66.7305 83 67.1875 83H72.8126C73.2696 83 73.66 82.6911 73.7366 82.2687L74.4254 78.4798C76.5687 78.0179 78.5882 77.2327 80.4445 76.1392L83.3965 78.0084C83.7685 78.2441 84.2665 78.1991 84.5841 77.9015L88.5616 74.1726C88.8792 73.8749 88.9269 73.408 88.6756 73.0592L86.6819 70.2917C87.8481 68.5515 88.6858 66.6582 89.1784 64.6488L93.22 64.0031C93.6706 63.9312 94 63.5652 94 63.1368V57.8633C94.0001 57.4349 93.6706 57.0689 93.2201 56.997ZM92.1251 62.395L88.2364 63.0162C87.8523 63.0774 87.5488 63.3552 87.4739 63.7137C87.015 65.9104 86.1086 67.9614 84.7797 69.8094C84.566 70.1067 84.5662 70.4957 84.7801 70.7927L86.689 73.4423L83.805 76.146L80.9788 74.3565C80.6621 74.156 80.247 74.1557 79.93 74.356C77.9587 75.6019 75.771 76.4517 73.4278 76.8818C73.0455 76.9521 72.7493 77.2366 72.6838 77.5967L72.0213 81.2423H67.9788L67.3163 77.5966C67.2508 77.2366 66.9547 76.952 66.5722 76.8817C64.229 76.4515 62.0413 75.6018 60.07 74.3559C59.7531 74.1556 59.338 74.1559 59.0212 74.3564L56.1951 76.1459L53.3111 73.4422L55.22 70.7926C55.4339 70.4956 55.4341 70.1065 55.2204 69.8093C53.8915 67.9614 52.985 65.9104 52.5261 63.7136C52.4513 63.3552 52.1477 63.0774 51.7636 63.0161L47.875 62.395V58.6051L51.7637 57.9839C52.1478 57.9226 52.4513 57.6449 52.5262 57.2864C52.9851 55.0896 53.8916 53.0386 55.2205 51.1907C55.4342 50.8935 55.434 50.5044 55.22 50.2074L53.3112 47.5578L56.1951 44.8541L59.0213 46.6436C59.3382 46.8441 59.7532 46.8444 60.0701 46.6441C62.0415 45.3982 64.2292 44.5484 66.5723 44.1183C66.9547 44.048 67.2508 43.7634 67.3164 43.4034L67.9788 39.7578H72.0212L72.6838 43.4034C72.7492 43.7635 73.0454 44.0481 73.4278 44.1183C75.771 44.5486 77.9587 45.3983 79.93 46.6441C80.247 46.8445 80.6621 46.8442 80.9788 46.6437L83.805 44.8542L86.689 47.5579L84.7801 50.2075C84.5662 50.5045 84.566 50.8935 84.7797 51.1907C86.1086 53.0388 87.015 55.0898 87.4739 57.2865C87.5488 57.6449 87.8523 57.9226 88.2364 57.984L92.1251 58.6051V62.395Z" fill="url(#paint5_linear)"/>
<defs>
<linearGradient id="paint0_linear" x1="31.2764" y1="18" x2="132.009" y2="162.302" gradientUnits="userSpaceOnUse">
<stop stop-color="#F6BF4A"/>
<stop offset="0.375" stop-color="#EC622D"/>
<stop offset="0.6875" stop-color="#DC395E"/>
<stop offset="1" stop-color="#C04D95"/>
</linearGradient>
<linearGradient id="paint1_linear" x1="96.9673" y1="112.873" x2="97.5497" y2="121.216" gradientUnits="userSpaceOnUse">
<stop stop-color="#F6BF4A"/>
<stop offset="0.375" stop-color="#EC622D"/>
<stop offset="0.6875" stop-color="#DC395E"/>
<stop offset="1" stop-color="#C04D95"/>
</linearGradient>
<linearGradient id="paint2_linear" x1="117.606" y1="96.7012" x2="119.026" y2="104.837" gradientUnits="userSpaceOnUse">
<stop stop-color="#F6BF4A"/>
<stop offset="0.375" stop-color="#EC622D"/>
<stop offset="0.6875" stop-color="#DC395E"/>
<stop offset="1" stop-color="#C04D95"/>
</linearGradient>
<linearGradient id="paint3_linear" x1="107.08" y1="129.045" x2="108.043" y2="137.317" gradientUnits="userSpaceOnUse">
<stop stop-color="#F6BF4A"/>
<stop offset="0.375" stop-color="#EC622D"/>
<stop offset="0.6875" stop-color="#DC395E"/>
<stop offset="1" stop-color="#C04D95"/>
</linearGradient>
<linearGradient id="paint4_linear" x1="56.9975" y1="47.3164" x2="75.894" y2="75.7779" gradientUnits="userSpaceOnUse">
<stop stop-color="#F6BF4A"/>
<stop offset="0.375" stop-color="#EC622D"/>
<stop offset="0.6875" stop-color="#DC395E"/>
<stop offset="1" stop-color="#C04D95"/>
</linearGradient>
<linearGradient id="paint5_linear" x1="47.809" y1="38" x2="80.059" y2="86.5742" gradientUnits="userSpaceOnUse">
<stop stop-color="#F6BF4A"/>
<stop offset="0.375" stop-color="#EC622D"/>
<stop offset="0.6875" stop-color="#DC395E"/>
<stop offset="1" stop-color="#C04D95"/>
</linearGradient>
</defs>
</svg>
