<svg width="251" height="51" viewBox="0 0 251 51" fill="none" xmlns="http://www.w3.org/2000/svg">
<g clip-path="url(#clip0)">
<path d="M64.8008 10.5142H78.2582C81.5204 10.4305 84.758 11.0692 87.7147 12.3797C90.2732 13.5509 92.3928 15.4375 93.7885 17.7863C95.2509 20.3619 95.9781 23.256 95.8983 26.1812C95.9805 29.121 95.2599 32.0311 93.8072 34.6279C92.4221 36.9789 90.3074 38.8669 87.7513 40.0344C84.7816 41.346 81.5318 41.9847 78.2582 41.9H64.8008V10.5142ZM77.658 35.3361C78.9693 35.4344 80.2879 35.2834 81.5367 34.8919C82.7858 34.5004 83.9405 33.8763 84.9323 33.056C85.7995 32.1158 86.4591 31.0197 86.8711 29.8328C87.2831 28.6459 87.4403 27.3923 87.3328 26.1466C87.446 24.9006 87.2913 23.6458 86.8784 22.4581C86.4656 21.2705 85.8036 20.1747 84.9323 19.2373C83.9356 18.4256 82.7801 17.8093 81.5318 17.4238C80.283 17.0384 78.9666 16.8916 77.658 16.9917H73.3663V35.3361H77.658ZM121.776 32.486H107.519C107.635 33.6708 108.22 34.7696 109.156 35.5606C110.225 36.2485 111.505 36.5769 112.793 36.4934C115.126 36.4646 117.395 35.7662 119.303 34.4897L121.413 39.6718C120.143 40.5275 118.728 41.1702 117.23 41.5718C115.65 42.0254 114.008 42.2582 112.357 42.2627C109.976 42.3197 107.617 41.8465 105.464 40.8809C103.588 40.0121 102.029 38.628 100.99 36.908C99.9103 35.0551 99.3704 32.9622 99.4266 30.845C99.3875 28.7896 99.894 26.758 100.9 24.9375C101.842 23.2395 103.273 21.8314 105.027 20.8783C106.85 19.8972 108.915 19.3963 111.011 19.4273C112.469 19.3751 113.922 19.6211 115.27 20.1486C116.619 20.6761 117.833 21.4727 118.83 22.4847C120.874 24.7697 121.916 27.7131 121.74 30.7068L121.776 32.486ZM107.428 28.6685H114.703C114.52 26.0551 113.308 24.7475 111.065 24.7475C108.823 24.7475 107.61 26.0551 107.428 28.6685ZM140.835 20.0318H149L138.708 41.9173H131.815L121.686 20.0318H130.415L135.489 32.365L140.835 20.0318ZM163.622 20.0318H169.077V25.8702H163.622V41.9518H155.202V25.8357H150.964V20.0318H155.202C155.183 18.7328 155.455 17.4449 156.001 16.2536C156.546 15.0623 157.353 13.995 158.366 13.1225C160.927 11.3696 164.012 10.4433 167.168 10.4796L170.024 10.3069L170.496 16.059L168.296 16.1453C167.035 16.1031 165.784 16.3646 164.658 16.9053C164.288 17.1839 163.999 17.5472 163.818 17.9612C163.636 18.3753 163.569 18.8262 163.622 19.2718V20.0318ZM176.443 40.8809C174.577 39.996 173.027 38.6081 171.988 36.8907C170.907 35.0379 170.367 32.9449 170.423 30.8278C170.365 28.7157 170.905 26.6276 171.988 24.782C173.027 23.0838 174.57 21.714 176.425 20.8437C178.532 19.933 180.82 19.4618 183.135 19.4618C185.45 19.4618 187.738 19.933 189.846 20.8437C191.7 21.714 193.243 23.0838 194.283 24.782C195.366 26.6276 195.906 28.7157 195.847 30.8278C195.903 32.9449 195.363 35.0379 194.283 36.8907C193.223 38.6169 191.646 40.0054 189.754 40.8809C187.658 41.8042 185.374 42.2826 183.063 42.2826C180.751 42.2826 178.467 41.8042 176.37 40.8809H176.443ZM187.591 30.8278C187.591 27.1433 186.105 25.3002 183.135 25.3002C180.165 25.3002 178.679 27.1433 178.679 30.8278C178.679 34.5122 180.165 36.3552 183.135 36.3552C186.105 36.3552 187.591 34.5122 187.591 30.8278ZM199.648 41.9173V10.5142H207.941V41.9173H199.648ZM212.633 9.0459H221.362V16.2144H212.633V9.0459ZM212.814 41.8655V20.0318H221.161V41.9173L212.814 41.8655ZM230.964 40.8809C229.097 39.996 227.548 38.6081 226.508 36.8907C225.428 35.0379 224.888 32.9449 224.944 30.8278C224.885 28.7157 225.425 26.6276 226.508 24.782C227.548 23.0838 229.091 21.714 230.945 20.8437C233.052 19.933 235.341 19.4618 237.656 19.4618C239.971 19.4618 242.26 19.933 244.366 20.8437C246.221 21.714 247.764 23.0838 248.804 24.782C249.886 26.6276 250.427 28.7157 250.367 30.8278C250.424 32.9449 249.884 35.0379 248.804 36.8907C247.753 38.6118 246.19 39.9999 244.312 40.8809C242.215 41.8042 239.931 42.2826 237.62 42.2826C235.308 42.2826 233.024 41.8042 230.927 40.8809H230.964ZM242.111 30.8278C242.111 27.1433 240.625 25.3002 237.656 25.3002C234.686 25.3002 233.201 27.1433 233.201 30.8278C233.201 34.5122 234.686 36.3552 237.656 36.3552C240.625 36.3552 242.106 34.5122 242.093 30.8278H242.111Z" fill="white"/>
<path d="M49.9277 28.106C49.9778 33.603 47.859 38.9186 43.9886 43.0058C40.1183 47.0929 34.7769 49.6554 29.0167 50.1885C29.0167 50.1885 14.0045 50.5528 9.03696 50.1885C8.12734 50.0847 7.26284 49.754 6.53143 49.2299C5.80003 48.7059 5.22783 48.0071 4.87305 47.2048C5.57185 47.4972 6.32042 47.6676 7.08286 47.7078C8.70823 47.8467 11.4842 47.916 15.356 47.916C21.0358 47.916 27.2269 47.7599 27.2817 47.7599H27.3913C33.5799 47.2607 39.3347 44.537 43.4809 40.1447C47.0372 36.4221 49.2897 31.743 49.9277 26.7529V28.106Z" fill="white"/>
<path d="M48.1005 23.2665C48.1452 28.766 46.0192 34.0818 42.1417 38.1662C38.2642 42.2505 32.9166 44.8069 27.1529 45.3316C27.1529 45.3316 12.1407 45.6959 7.17324 45.3316C5.83165 45.1339 4.6117 44.4792 3.74123 43.4895C2.87078 42.5 2.40935 41.2432 2.44314 39.9541V6.35337C2.42639 5.05758 2.90928 3.80073 3.80077 2.81975C4.69227 1.83877 5.93077 1.20144 7.28282 1.02791C12.2686 0.628933 27.2624 1.02791 27.2624 1.02791C33.0382 1.57943 38.3852 4.17118 42.2445 8.28981C46.1037 12.4084 48.1937 17.7536 48.1005 23.2665Z" fill="white"/>
</g>
<defs>
<clipPath id="clip0">
<rect width="250.8" height="49.5" fill="white" transform="translate(0 0.850586)"/>
</clipPath>
</defs>
</svg>
