<svg width="237" height="56" viewBox="0 0 237 56" fill="none" xmlns="http://www.w3.org/2000/svg">
<path d="M30.0598 1.02776L48.0548 11.1287C50.5659 12.5382 52.1187 15.1818 52.1187 18.0473V37.9527C52.1187 40.8182 50.5659 43.4618 48.0548 44.8713L30.0598 54.9722C27.6185 56.3425 24.6335 56.3425 22.192 54.9722L4.19713 44.8713C1.68608 43.4618 0.133301 40.8182 0.133301 37.9527V18.0473C0.133301 15.1818 1.68608 12.5382 4.19713 11.1287L22.192 1.02776C24.6335 -0.342586 27.6185 -0.342586 30.0598 1.02776ZM3.13246 18.1279V37.9527C3.13246 39.7316 4.09817 41.3758 5.66485 42.2552L23.4042 52.2125C23.6339 52.3016 23.8788 52.3477 24.1266 52.3477C25.2308 52.3477 26.126 51.4522 26.126 50.3477V34.3239C26.126 31.7124 24.6728 29.3181 22.3566 28.1133L21.0361 27.4266C20.7246 27.2938 20.4171 27.1486 20.1144 26.9905L3.13246 18.1279ZM21.7368 25.2174C24.9242 26.8807 27.3364 26.8807 30.5237 25.2174L47.7516 15.5429C47.3274 14.5713 46.5916 13.7422 45.629 13.2019L28.5923 3.64398C27.0626 2.78535 25.1894 2.78535 23.6597 3.64398L6.65532 13.2019C5.69267 13.7422 4.95695 14.5713 4.5327 15.5429L21.7368 25.2174ZM26.126 7C29.8749 7 32.9354 8.843 33.1156 11.1588L33.124 15.125C33.124 17.5413 29.991 19.4999 26.126 19.4999C22.261 19.4999 19.128 17.5413 19.128 15.125V11.1588C19.3166 8.843 22.3771 7 26.126 7ZM26.1267 14C29.3733 14 32.0051 12.6837 32.0051 11.06C32.0051 9.43628 29.3733 8.12 26.1267 8.12C22.8802 8.12 20.2484 9.43628 20.2484 11.06C20.2484 12.6837 22.8802 14 26.1267 14Z" fill="white"/>
<path fill-rule="evenodd" clip-rule="evenodd" d="M79.6862 29.5031C79.6862 31.7461 80.2629 33.5485 81.4161 34.9103C82.5692 36.2722 84.0909 36.953 85.9809 36.953C87.8067 36.953 89.2963 36.2641 90.4496 34.8864C91.6028 33.5084 92.1795 31.6981 92.1795 29.4551C92.1795 27.244 91.6189 25.4817 90.4977 24.168C89.3765 22.8542 87.887 22.1973 86.0289 22.1973C84.1709 22.1973 82.6495 22.8622 81.4641 24.192C80.2789 25.5219 79.6862 27.2922 79.6862 29.5031ZM97.5611 6.4804V41.2788H94.4118C93.578 41.2788 92.8145 40.8108 92.4359 40.0677C92.2328 39.6691 92.1313 39.2816 92.1313 38.9051C91.4845 39.6447 90.9702 40.2657 89.7529 40.9387C88.5355 41.6116 86.9259 41.8556 85.3563 41.8556C82.0247 41.8556 79.3178 40.6861 77.2356 38.347C75.1536 36.0077 74.1124 33.0598 74.1124 29.5031C74.1124 26.0746 75.1616 23.1747 77.2597 20.8035C79.358 18.4323 82.0247 17.2468 85.2602 17.2468C87.1181 17.2468 88.6157 17.5832 89.7529 18.2561C90.89 18.929 91.6829 19.7141 92.1313 20.6112V6.4804H97.5611ZM117.45 17.5832V23.2548H116.733C112.537 23.2548 110.439 25.5458 110.439 30.1279V41.2788H104.865V17.8716H108.479C109.121 17.8716 109.689 18.2851 109.886 18.8954L110.439 20.6039C110.705 20.0494 111.444 18.8181 112.738 18.2006C114.031 17.5832 115.532 17.5832 117.07 17.5832H117.45ZM120.574 34.9343C120.574 32.9476 121.222 31.3535 122.52 30.1519C123.817 28.9504 125.523 28.1893 127.637 27.869L133.643 26.9556C134.797 26.7955 135.373 26.2347 135.373 25.2734C135.373 24.2161 135.005 23.359 134.268 22.7021C133.531 22.0452 132.426 21.7167 130.952 21.7167C129.543 21.7167 128.422 22.1092 127.589 22.8943C126.756 23.6793 126.276 24.6966 126.148 25.9463L121.124 25.8984C121.349 23.7834 122.287 20.8755 124.081 19.3856C125.875 17.8956 128.15 17.1506 130.905 17.1506C134.3 17.1506 136.807 17.9677 138.424 19.6019C140.042 21.236 140.851 23.3349 140.851 25.8984V37.5298C140.851 39.0679 140.947 40.3174 141.139 41.2788H138.142C137.825 41.2788 137.511 41.2205 137.215 41.1072C136.221 40.7259 135.724 40.1052 135.724 39.2454C134.616 41.094 131.769 41.9997 128.502 41.9997C126.132 41.9997 124.217 41.3028 122.76 39.909C121.302 38.5152 120.574 36.8568 120.574 34.9343ZM129.559 37.6259C131.289 37.6259 132.69 37.1532 133.763 36.208C134.837 35.2627 135.373 33.7167 135.373 31.5699V30.5124L129.271 31.4258C127.188 31.7782 126.148 32.8355 126.148 34.598C126.148 35.4311 126.452 36.1439 127.06 36.7368C127.669 37.3295 128.502 37.6259 129.559 37.6259ZM157.957 11.9782C157.028 11.9782 156.219 12.2425 155.53 12.7713C154.842 13.3 154.497 14.2212 154.497 15.5349V17.8716H159.927V22.7261H154.497V41.2788H148.875V22.7261H144.791V17.8716H146.395C147.765 17.8716 148.875 16.7609 148.875 15.3907C148.875 12.7953 149.628 10.7446 151.134 9.23853C152.639 7.73253 154.609 6.97953 157.044 6.97953H159.927V11.9782H157.957ZM173.041 10.8062V17.9677H177.894V22.9182H173.041V33.7807C173.041 34.8061 173.281 35.5511 173.762 36.0157C174.242 36.4803 174.995 36.7127 176.02 36.7127H176.785V41.6633H174.531C172.352 41.6633 170.639 41.0465 169.389 39.8129C168.14 38.5792 167.515 36.8729 167.515 34.6941V22.9182H163.191V17.9677H164.392C165.577 17.9677 166.474 17.6313 167.083 16.9584C167.691 16.2855 167.996 15.4043 167.996 14.3148V10.8062H173.041ZM182.411 6.36949H187.84V20.6926C188.29 19.7953 189.221 19.0583 190.358 18.3855C191.496 17.7126 193.304 17.2763 195.163 17.2763C198.399 17.2763 200.983 18.3214 203.083 20.6926C205.18 23.0638 205.882 26.0486 205.882 29.4771C205.882 33.0341 205.188 35.8968 203.105 38.2359C201.024 40.575 198.124 41.863 194.793 41.863C193.224 41.863 191.806 41.5007 190.589 40.8278C189.372 40.1548 188.488 39.5336 187.84 38.7942C187.84 39.1707 187.739 39.5583 187.536 39.9568C187.157 40.6999 186.394 41.1679 185.56 41.1679H182.411V6.36949ZM198.544 34.9343C199.729 33.5885 200.323 31.7782 200.323 29.5031C200.323 27.228 199.746 25.4418 198.593 24.1439C197.44 22.8462 195.919 22.1973 194.028 22.1973C192.201 22.1973 190.697 22.8462 189.512 24.1439C188.325 25.4418 187.734 27.228 187.734 29.5031C187.734 31.7461 188.325 33.5405 189.512 34.8864C190.697 36.232 192.201 36.905 194.028 36.905C195.887 36.905 197.391 36.2481 198.544 34.9343ZM211.326 23.3767H209.023V17.8309H214.567V17.8716H216.853V41.2788H211.326V23.3767ZM211.518 12.2C210.814 11.4951 210.461 10.646 210.461 9.65264C210.461 8.65931 210.814 7.80217 211.518 7.08121C212.223 6.36025 213.072 5.99976 214.065 5.99976C215.09 5.99976 215.955 6.35222 216.661 7.05717C217.364 7.76211 217.717 8.62726 217.717 9.65264C217.717 10.646 217.364 11.4951 216.661 12.2C215.955 12.905 215.09 13.2574 214.065 13.2574C213.072 13.2574 212.223 12.905 211.518 12.2ZM231.123 10.71V17.8716H235.975V22.8221H231.123V33.6846C231.123 34.71 231.364 35.455 231.844 35.9196C232.325 36.3844 233.077 36.6166 234.102 36.6166H234.867V41.5672H232.613C230.435 41.5672 228.72 40.9504 227.471 39.7167C226.221 38.4831 225.598 36.7767 225.598 34.598V22.8221H221.272V17.8716H222.474C223.659 17.8716 224.556 17.5351 225.165 16.8622C225.773 16.1893 226.077 15.3082 226.077 14.2187V10.71H231.123Z" fill="white"/>
</svg>
