<svg width="142" height="116" viewBox="0 0 142 116" fill="none" xmlns="http://www.w3.org/2000/svg">
<path d="M70.7045 2.76172L2.76172 24.8569L32.0379 34.3772V57.9997C32.0379 67.1526 49.3494 74.5711 70.7045 74.5711C92.0595 74.5711 109.371 67.1526 109.371 57.9997V34.3772L138.647 24.8569L70.7045 2.76172Z" fill="white"/>
<path d="M138.647 93.9048V96.6667C138.647 105.836 131.245 113.238 122.076 113.238H116.552C120.087 109.703 122.076 104.897 122.076 99.9258V93.9048C122.076 89.3201 125.777 85.6191 130.361 85.6191C134.946 85.6191 138.647 89.3201 138.647 93.9048Z" fill="white"/>
<path d="M133.124 83.2069V29.5578L139.502 27.4836C140.639 27.1138 141.409 26.0535 141.409 24.857C141.409 23.6609 140.639 22.6006 139.502 22.2305L71.5589 0.135264C71.0035 -0.045088 70.4058 -0.045088 69.8504 0.135264L1.90764 22.2305C0.770294 22.6006 0 23.6611 0 24.8573C0 26.0538 0.770294 27.1138 1.90764 27.4839L29.2761 36.3841V58.0001C29.2761 63.6012 33.8927 68.6644 42.2753 72.2568C49.9142 75.5304 60.0106 77.3334 70.7046 77.3334C81.3987 77.3334 91.4951 75.5304 99.1343 72.2568C107.517 68.6644 112.133 63.6012 112.133 58.0001V36.3841L127.6 31.3544V83.2069C122.84 84.4365 119.314 88.7666 119.314 93.9048V99.9257C119.314 104.148 117.596 108.289 114.599 111.285C113.81 112.075 113.573 113.263 114 114.295C114.428 115.327 115.435 116 116.552 116H122.076C132.736 116 141.409 107.327 141.409 96.6667V93.9048C141.409 88.7663 137.883 84.4365 133.124 83.2069ZM70.7046 5.66652L129.716 24.8573L70.7046 44.0481L11.6928 24.8573L70.7046 5.66652ZM106.609 58.0001C106.609 64.5317 91.8638 71.8096 70.7046 71.8096C49.5454 71.8096 34.7999 64.5317 34.7999 58.0001V38.1804L69.8504 49.5791C70.128 49.6694 70.4163 49.7144 70.7046 49.7144C70.993 49.7144 71.2813 49.6691 71.5589 49.5791L106.609 38.1804V58.0001ZM135.885 96.6667C135.885 104.281 129.691 110.476 122.076 110.476H122.066C123.86 107.27 124.838 103.622 124.838 99.9257V93.9048C124.838 90.859 127.316 88.381 130.362 88.381C133.408 88.381 135.885 90.859 135.885 93.9048V96.6667Z" fill="url(#paint0_linear)"/>
<defs>
<linearGradient id="paint0_linear" x1="5.32949" y1="1.39348e-06" x2="83.69" y2="134.885" gradientUnits="userSpaceOnUse">
<stop stop-color="#F6BF4A"/>
<stop offset="0.375" stop-color="#EC622D"/>
<stop offset="0.6875" stop-color="#DC395E"/>
<stop offset="1" stop-color="#C04D95"/>
</linearGradient>
</defs>
</svg>
