<svg width="239" height="50" viewBox="0 0 239 50" fill="none" xmlns="http://www.w3.org/2000/svg">
<path d="M24.0814 49.9765C14.0596 49.9897 5.7949 42.0471 5.29599 31.9279V31.8912C3.46662 31.6583 1.96521 30.316 1.51272 28.5088C0.987625 26.4294 0.276352 23.3235 0.191988 20.3382C0.137258 18.6114 1.12233 17.023 2.68362 16.3206C4.21672 15.625 6.4029 15.0559 9.15926 14.625C10.7011 11.0221 12.5207 7.88971 14.4451 5.52941C17.4429 1.86029 20.6851 0 24.0814 0C27.4778 0 30.7171 1.86029 33.7105 5.53088C35.6262 7.89118 37.4531 11.0191 38.992 14.6147C41.7294 15.0324 43.9127 15.6044 45.488 16.3132C47.0484 17.0129 48.0342 18.5985 47.9811 20.3235C47.8967 23.325 47.1869 26.4324 46.6618 28.5074C46.2101 30.318 44.7055 31.6628 42.8727 31.8941V31.9279C42.3598 42.0456 34.0931 49.9812 24.0727 49.975L24.08 49.9765H24.0814Z" fill="white"/>
<path d="M24.0698 3.16174C32.7724 3.16174 39.8284 22.0735 39.8284 30.8735C39.8284 39.6735 32.7738 46.8073 24.0684 46.8073C15.3658 46.8073 8.30981 39.675 8.30981 30.8735C8.31127 22.0735 15.3673 3.16174 24.0698 3.16174Z" fill="#FCFBFA"/>
<path d="M44.0523 18.425L37.6233 20.7177C37.6233 20.7177 38.6182 23.7765 38.6269 23.7986C38.6371 23.8221 45.0327 22.9648 45.0327 22.9648L44.0523 18.425ZM4.08726 18.425L10.5163 20.7177C10.5163 20.7177 9.52289 23.7765 9.51271 23.7986C9.50398 23.8221 3.1098 22.9648 3.1098 22.9648L4.08871 18.425H4.08726Z" fill="#252526"/>
<path d="M17.4545 17.8824C18.4569 17.8586 19.3224 18.5873 19.4807 19.5883C19.6843 20.6942 19.8196 21.8133 19.8836 22.9383C19.8897 23.2532 19.8614 23.5679 19.7993 23.8765C19.7249 23.1214 19.6191 22.3697 19.4822 21.6236C19.3238 20.6226 18.4583 19.8939 17.456 19.9177C15.0414 19.9427 12.6269 20.128 10.2356 20.4736C10.4625 19.7618 10.7054 19.0471 10.9658 18.3412C13.1178 18.0579 15.2845 17.9047 17.4545 17.8824ZM39.7993 30.1662C34.1236 29.8706 29.2756 28.0339 28.1818 27.378C27.328 26.9662 26.24 26.0912 25.9273 23.9045C25.7178 26.3133 26.1673 28.5074 28.4043 29.5912C28.5687 29.6912 32.8509 31.8339 39.7614 32.2015C39.8172 31.5246 39.8299 30.8448 39.7993 30.1662ZM8.35781 30.1662C14.0334 29.8706 18.8814 28.0339 19.9753 27.378C20.8291 26.9662 21.9171 26.0912 22.2298 23.9045C22.4393 26.3133 21.9898 28.5074 19.7527 29.5912C19.5883 29.6912 15.3062 31.8339 8.39562 32.2015C8.33983 31.5246 8.3272 30.8448 8.35781 30.1662ZM30.6691 17.8824C29.6667 17.8586 28.8012 18.5873 28.6429 19.5883C28.4393 20.6942 28.3054 21.8133 28.2414 22.9383C28.2346 23.2532 28.2629 23.568 28.3258 23.8765C28.4058 23.0662 28.5164 22.2942 28.6414 21.6236C28.801 20.6233 29.6657 19.8952 30.6676 19.9177C33.0836 19.9427 35.4967 20.128 37.888 20.4736C37.6606 19.7573 37.4172 19.0463 37.1578 18.3412C35.0063 18.058 32.8401 17.9048 30.6705 17.8824H30.6691Z" fill="#E0E0E0"/>
<path d="M10.2851 16.1588C11.8327 12.3647 13.6887 9.08087 15.6524 6.66322C18.3273 3.38381 21.1578 1.72205 24.0655 1.72205C26.9745 1.72205 29.8051 3.38381 32.4785 6.66028C34.4495 9.07499 36.3127 12.3588 37.8458 16.1573L37.9215 16.3515L37.7295 16.3235C37.1825 16.25 36.7389 16.197 36.1964 16.1294H36.128L36.1018 16.0676C34.3607 11.9588 31.3891 6.59263 27.5505 4.35146C26.499 3.70416 25.2963 3.35094 24.0655 3.32793C22.8351 3.3512 21.6329 3.70441 20.5818 4.35146C16.752 6.58969 13.7891 11.9309 12.0335 16.0618L12.0073 16.1235H11.9404C11.3935 16.1823 10.9484 16.2368 10.4058 16.3176L10.2153 16.3456L10.2851 16.1588ZM39.9796 28.1823C39.552 28.1706 39.1215 28.1529 38.6967 28.1279H38.5658L38.5484 27.9941C38.1644 24.9735 37.3062 21.4353 36.1135 18.0368L36.0364 17.7823L36.2953 17.8176C36.7825 17.8838 37.2538 17.9573 37.7135 18.0353L37.808 18.05L37.8385 18.1412C38.9876 21.5353 39.8022 25.0368 40.1513 28.0015L40.1731 28.1956L39.9796 28.1809V28.1823Z" fill="#56555C"/>
<path d="M38.5745 20.5294C38.3429 19.7289 38.0941 18.9336 37.8283 18.1441L37.7992 18.0529L37.7047 18.0368C37.2523 17.9588 36.7738 17.8853 36.2865 17.8191L36.0363 17.7823L36.1236 18.0323C36.3869 18.7853 36.6341 19.5441 36.8654 20.3059C37.6829 20.4015 38.1454 20.4676 38.5745 20.5294Z" fill="#252526"/>
<path d="M8.10471 27.9338C8.4538 24.9691 9.27562 21.4677 10.4174 18.0736L10.448 17.9824L10.5425 17.9647C10.9949 17.8883 11.4734 17.8133 11.9607 17.7486L12.2196 17.7133L12.1323 17.9618C10.9425 21.3603 10.0785 24.8956 9.6989 27.9177L9.68144 28.053H9.55053C9.12435 28.078 8.69235 28.0956 8.26762 28.1059H8.07562L8.10471 27.9338Z" fill="#56555C"/>
<path d="M10.5425 17.9647L10.448 17.9794L10.4189 18.0721C10.1531 18.8631 9.90431 19.6598 9.67273 20.4618C10.4727 20.3588 10.704 20.3706 11.3731 20.2986C11.6087 19.5236 11.8618 18.7338 12.1396 17.9603L12.2269 17.7133L11.9665 17.7486C11.4909 17.8139 11.0162 17.8859 10.5425 17.9647Z" fill="#252526"/>
<path d="M24.0698 48.2382C17.011 48.2388 10.6698 43.8749 8.08146 37.2353C7.21169 34.9854 6.80964 32.5785 6.90037 30.1647V30.0559H7.008C7.568 30.0412 7.95055 30.0264 8.34909 30.0059H8.47418V30.1309C8.16564 36.6987 11.9188 42.7713 17.8929 45.37C23.867 47.9686 30.8088 46.5484 35.3135 41.8059C36.7409 40.309 37.8585 38.5391 38.6007 36.6C39.392 34.5412 39.7455 32.3382 39.6422 30.1338V30.0073H39.7673C40.3244 30.0367 40.7084 30.0485 41.1084 30.0573H41.216V30.1662C41.3148 32.5766 40.9222 34.9818 40.0626 37.2323C37.48 43.8775 31.136 48.2457 24.0742 48.2412H24.0698V48.2382Z" fill="#56555C"/>
<path d="M8.52796 32.203C8.47269 31.5118 8.45815 30.8162 8.48578 30.1221V29.9956H8.36069C7.95924 30.0177 7.57524 30.0324 7.0196 30.0471H6.91196V30.1544C6.88869 30.8515 6.90324 31.5485 6.95851 32.2427H7.00942C7.52724 32.2427 8.03342 32.2191 8.51487 32.1956L8.52796 32.203ZM41.2291 30.0544H41.1214C40.7156 30.0544 40.3316 30.0324 39.7803 30.0044H39.6552V30.1294C39.6843 30.8177 39.6698 31.5059 39.616 32.1912L41.1869 32.2603C41.2421 31.5647 41.2567 30.8691 41.2334 30.1721L41.2291 30.0544Z" fill="#252526"/>
<path d="M42.1149 30.4089C38.8294 30.4213 35.5567 29.9961 32.3811 29.1442C31.0138 28.7809 29.6829 28.2912 28.4043 27.6868L28.3738 27.6633C25.6902 26.3662 25.5913 23.7662 25.8414 21.3957C25.904 20.7971 25.6873 20.0045 25.0633 19.5839C24.4679 19.1823 23.692 19.1823 23.0967 19.5839C22.4713 20.0015 22.2545 20.7927 22.3171 21.3898C22.5673 23.7618 22.4625 26.3618 19.7862 27.6589L19.7556 27.6736C18.4763 28.2857 17.1448 28.7794 15.7774 29.1486C12.6018 30.0004 9.32907 30.4257 6.04362 30.4133H6.02907C4.66584 30.3966 3.48492 29.4532 3.15343 28.1162C2.64434 26.1265 1.96507 23.1457 1.88652 20.3486C1.85123 19.229 2.48933 18.1992 3.50107 17.7427C7.19562 16.0854 14.6749 15.4618 17.8647 15.5045C18.9774 15.4957 20.0465 15.9427 20.8291 16.7427C21.8497 16.2591 22.9602 15.9999 24.0873 15.9824C25.2141 15.9989 26.3246 16.257 27.3454 16.7398C28.1217 15.945 29.1818 15.4998 30.2865 15.5045C32.2036 15.4751 40.4451 15.8354 44.6618 17.7324C45.6722 18.1849 46.3107 19.2113 46.2763 20.328C46.1978 23.1295 45.5098 26.1265 45.0167 28.1118C44.6852 29.4488 43.5043 30.3922 42.1411 30.4089H42.1149ZM30.688 18.0059C29.7416 17.9847 28.9244 18.6716 28.7723 19.6162C28.5687 20.7192 28.4349 21.8324 28.3694 22.9515C28.3549 24.2309 28.8087 25.1059 29.7105 25.5545C33.0909 27.078 37.0182 27.8309 41.7178 27.8545C42.0781 27.8526 42.3923 27.6066 42.4843 27.2545C42.9309 25.4898 43.5331 22.8648 43.6029 20.4515C43.6103 20.2203 43.4779 20.0078 43.2683 19.9148C40.0625 18.4574 33.1927 17.9589 30.688 17.9986V18.0059ZM4.8698 19.9104C4.66086 20.0038 4.52904 20.2163 4.53671 20.4471C4.60652 22.8545 5.20871 25.4868 5.65525 27.2501C5.74543 27.603 6.06107 27.8501 6.4218 27.8515C11.1258 27.828 15.0473 27.0751 18.4378 25.5486C19.3425 25.103 19.7949 24.2251 19.7803 22.9412C19.7151 21.8234 19.5801 20.7109 19.376 19.6104C19.2238 18.6652 18.4058 17.9781 17.4589 18.0001C16 17.9765 8.5018 18.2751 4.87125 19.9118L4.8698 19.9104Z" fill="#252526"/>
<path d="M68.8438 22.978C71.0654 22.978 72.5864 24.5845 72.689 26.9258H64.9131C65.084 24.6357 66.6562 22.978 68.8438 22.978ZM72.7573 32.3945C72.2959 33.7959 70.8945 34.7017 69.0659 34.7017C66.5195 34.7017 64.8618 32.9072 64.8618 30.2925V29.9849H77.4912V28.4639C77.4912 22.8926 74.1245 19.2866 68.7925 19.2866C63.375 19.2866 59.957 23.0806 59.957 28.9253C59.957 34.7871 63.3408 38.3931 68.9805 38.3931C73.5093 38.3931 76.7905 35.9834 77.3374 32.3945H72.7573ZM88.5312 34.1035C86.0532 34.1035 84.5151 32.1553 84.5151 28.8057C84.5151 25.4731 86.0703 23.3882 88.5312 23.3882C91.0264 23.3882 92.6157 25.5073 92.6157 28.8057C92.6157 32.1211 91.0264 34.1035 88.5312 34.1035ZM88.4458 44.9043C93.9316 44.9043 97.5889 42.1187 97.5889 37.7437V19.6797H92.667V22.8755H92.5815C91.6245 20.7734 89.5566 19.3892 86.9248 19.3892C82.2764 19.3892 79.4053 22.9609 79.4053 28.7715C79.4053 34.4966 82.3618 37.9487 86.8394 37.9487C89.4883 37.9487 91.6416 36.6157 92.4961 34.6675H92.5986V37.8804C92.5986 39.9995 91.1631 41.4351 88.5825 41.4351C86.6855 41.4351 85.25 40.5635 84.8569 39.2988H79.9692C80.3623 42.563 83.6265 44.9043 88.4458 44.9043ZM109.312 34.1035C106.834 34.1035 105.296 32.1553 105.296 28.8057C105.296 25.4731 106.852 23.3882 109.312 23.3882C111.808 23.3882 113.397 25.5073 113.397 28.8057C113.397 32.1211 111.808 34.1035 109.312 34.1035ZM109.227 44.9043C114.713 44.9043 118.37 42.1187 118.37 37.7437V19.6797H113.448V22.8755H113.363C112.406 20.7734 110.338 19.3892 107.706 19.3892C103.058 19.3892 100.187 22.9609 100.187 28.7715C100.187 34.4966 103.143 37.9487 107.621 37.9487C110.27 37.9487 112.423 36.6157 113.277 34.6675H113.38V37.8804C113.38 39.9995 111.944 41.4351 109.364 41.4351C107.467 41.4351 106.031 40.5635 105.638 39.2988H100.75C101.144 42.563 104.408 44.9043 109.227 44.9043ZM121.754 38H126.744V27.541C126.744 25.1313 128.128 23.4736 130.487 23.4736C132.76 23.4736 133.922 24.9092 133.922 27.2676V38H138.912V26.208C138.912 21.9697 136.588 19.3379 132.521 19.3379C129.735 19.3379 127.735 20.6367 126.761 22.9438H126.659V13.3394H121.754V38ZM150.328 22.978C152.55 22.978 154.071 24.5845 154.173 26.9258H146.397C146.568 24.6357 148.141 22.978 150.328 22.978ZM154.242 32.3945C153.78 33.7959 152.379 34.7017 150.55 34.7017C148.004 34.7017 146.346 32.9072 146.346 30.2925V29.9849H158.976V28.4639C158.976 22.8926 155.609 19.2866 150.277 19.2866C144.859 19.2866 141.441 23.0806 141.441 28.9253C141.441 34.7871 144.825 38.3931 150.465 38.3931C154.994 38.3931 158.275 35.9834 158.822 32.3945H154.242ZM168.631 34.6846C166.939 34.6846 165.812 33.8301 165.812 32.4629C165.812 31.1641 166.871 30.3267 168.734 30.1899L172.596 29.9507V31.2837C172.596 33.2661 170.802 34.6846 168.631 34.6846ZM166.991 38.2905C169.281 38.2905 171.554 37.1455 172.579 35.1973H172.682V38H177.501V25.4048C177.501 21.7134 174.442 19.2866 169.742 19.2866C164.889 19.2866 161.864 21.7305 161.676 25.2852H166.239C166.478 23.9351 167.657 23.0122 169.52 23.0122C171.4 23.0122 172.596 24.0034 172.596 25.7124V26.9258L167.982 27.1992C163.419 27.4727 160.855 29.4038 160.855 32.7363C160.855 36.0347 163.504 38.2905 166.991 38.2905ZM187.533 38.2905C190.233 38.2905 192.352 36.8721 193.241 34.8555H193.326V38H198.248V13.3394H193.258V22.8242H193.155C192.267 20.7905 190.216 19.3892 187.567 19.3892C182.97 19.3892 180.064 22.9951 180.064 28.8057C180.064 34.6675 182.953 38.2905 187.533 38.2905ZM189.225 23.3882C191.703 23.3882 193.292 25.5073 193.292 28.8398C193.292 32.1895 191.703 34.2744 189.225 34.2744C186.712 34.2744 185.174 32.2065 185.174 28.8398C185.174 25.4902 186.712 23.3882 189.225 23.3882ZM204.828 38.2051C206.349 38.2051 207.579 36.9746 207.579 35.4536C207.579 33.9155 206.349 32.7021 204.828 32.7021C203.29 32.7021 202.076 33.9155 202.076 35.4536C202.076 36.9746 203.29 38.2051 204.828 38.2051ZM211.407 38H216.397V19.6797H211.407V38ZM213.885 17.2017C215.338 17.2017 216.483 16.0396 216.483 14.6382C216.483 13.2197 215.338 12.0747 213.885 12.0747C212.433 12.0747 211.288 13.2197 211.288 14.6382C211.288 16.0396 212.433 17.2017 213.885 17.2017ZM228.138 38.3931C233.675 38.3931 237.213 34.8555 237.213 28.8228C237.213 22.8755 233.624 19.2866 228.138 19.2866C222.652 19.2866 219.063 22.8926 219.063 28.8228C219.063 34.8384 222.601 38.3931 228.138 38.3931ZM228.138 34.582C225.677 34.582 224.122 32.5142 224.122 28.8398C224.122 25.1997 225.711 23.0977 228.138 23.0977C230.565 23.0977 232.137 25.1997 232.137 28.8398C232.137 32.5142 230.582 34.582 228.138 34.582Z" fill="white"/>
</svg>
