<svg id="e0z9zxp8md9t1" xmlns="http://www.w3.org/2000/svg" xmlns:xlink="http://www.w3.org/1999/xlink" viewBox="0 0 100 100" shape-rendering="geometricPrecision" text-rendering="geometricPrecision"><style><![CDATA[#e0z9zxp8md9t2_to {animation: e0z9zxp8md9t2_to__to 3000ms linear infinite normal forwards}@keyframes e0z9zxp8md9t2_to__to { 0% {transform: translate(43.600300px,33.752078px)} 13.333333% {transform: translate(43.600300px,33.752078px);animation-timing-function: cubic-bezier(1,0,0,1)} 26.666667% {transform: translate(43.600300px,17.766050px)} 100% {transform: translate(43.600300px,17.766050px)} }#e0z9zxp8md9t2_ts {animation: e0z9zxp8md9t2_ts__ts 3000ms linear infinite normal forwards}@keyframes e0z9zxp8md9t2_ts__ts { 0% {transform: scale(0,0)} 13.333333% {transform: scale(0,0)} 16.666667% {transform: scale(1,1)} 100% {transform: scale(1,1)} }#e0z9zxp8md9t3_tr {animation: e0z9zxp8md9t3_tr__tr 3000ms linear infinite normal forwards}@keyframes e0z9zxp8md9t3_tr__tr { 0% {transform: translate(49.999655px,58.452398px) rotate(0deg)} 26.666667% {transform: translate(49.999655px,58.452398px) rotate(0deg)} 33.333333% {transform: translate(49.999655px,58.452398px) rotate(-6deg)} 100% {transform: translate(49.999655px,58.452398px) rotate(-6deg)} }#e0z9zxp8md9t3_ts {animation: e0z9zxp8md9t3_ts__ts 3000ms linear infinite normal forwards}@keyframes e0z9zxp8md9t3_ts__ts { 0% {transform: scale(0,0);animation-timing-function: cubic-bezier(1,0,0,1)} 18% {transform: scale(1,1)} 100% {transform: scale(1,1)} }]]></style><g id="e0z9zxp8md9t2_to" transform="translate(43.600300,33.752078)"><g id="e0z9zxp8md9t2_ts" transform="scale(0,0)"><path id="e0z9zxp8md9t2" d="M55.437900,24.510300L55.437900,25.273000C53.393400,25.232800,51.348900,25.232800,49.304400,25.232800L49.304400,24.550400C49.304400,21.780700,46.973700,19.532800,44.193200,19.532800L40.145100,19.532800C35.524600,19.532800,31.762700,15.839800,31.762700,11.344100C31.762700,9.698290,33.152900,8.333500,34.829400,8.333500C36.546800,8.333500,37.896200,9.698290,37.896200,11.344100C37.896200,12.548300,38.918400,13.511700,40.145100,13.511700L44.193200,13.511700C50.367500,13.551800,55.397000,18.489100,55.437900,24.510300Z" transform="translate(-43.600300,-16.803250)" fill="rgb(255,255,255)" fill-opacity="0.6000000238418579" stroke="none" stroke-width="1"/></g></g><g id="e0z9zxp8md9t3_tr" transform="translate(49.999655,58.452398) rotate(0)"><g id="e0z9zxp8md9t3_ts" transform="scale(0,0)"><path id="e0z9zxp8md9t3" d="M63.183000,25.346800C64.495900,25.364900,65.811900,25.382900,67.132500,25.396400C81.321200,25.396400,91.666300,35.511900,91.666300,49.480900L91.666300,67.423900C91.666300,81.393000,81.321200,91.508500,67.132500,91.508500C61.448800,91.628900,55.765100,91.669000,50.040600,91.669000C44.316000,91.669000,38.550500,91.628900,32.866900,91.508500C18.678100,91.508500,8.333010,81.393000,8.333010,67.423900L8.333010,49.480900C8.333010,35.511900,18.678100,25.396400,32.907800,25.396400C38.264300,25.316100,43.743500,25.235800,49.304500,25.235800C51.349000,25.235800,53.393500,25.235800,55.438000,25.276000C58.015700,25.276000,60.593400,25.311300,63.183000,25.346800ZM45.216100,61.441000L40.922700,61.441000L40.922700,65.695900C40.922700,67.341700,39.532400,68.706500,37.856000,68.706500C36.138600,68.706500,34.789200,67.341700,34.789200,65.695900L34.789200,61.441000L30.454900,61.441000C28.778400,61.441000,27.388200,60.116300,27.388200,58.430400C27.388200,56.784600,28.778400,55.419900,30.454900,55.419900L34.789200,55.419900L34.789200,51.205100C34.789200,49.559300,36.138600,48.194500,37.856000,48.194500C39.532400,48.194500,40.922700,49.559300,40.922700,51.205100L40.922700,55.419900L45.216100,55.419900C46.892600,55.419900,48.282800,56.784600,48.282800,58.430400C48.282800,60.116300,46.892600,61.441000,45.216100,61.441000ZM62.595300,54.655600L63.004200,54.655600C64.680700,54.655600,66.071000,53.330900,66.071000,51.645000C66.071000,49.999200,64.680700,48.634500,63.004200,48.634500L62.595300,48.634500C60.878000,48.634500,59.528600,49.999200,59.528600,51.645000C59.528600,53.330900,60.878000,54.655600,62.595300,54.655600ZM69.586700,68.465100L69.995600,68.465100C71.672000,68.465100,73.062300,67.140400,73.062300,65.454500C73.062300,63.808700,71.672000,62.443900,69.995600,62.443900L69.586700,62.443900C67.869300,62.443900,66.519900,63.808700,66.519900,65.454500C66.519900,67.140400,67.869300,68.465100,69.586700,68.465100Z" transform="translate(-49.999655,-58.452398)" clip-rule="evenodd" fill="rgb(255,255,255)" fill-rule="evenodd" stroke="none" stroke-width="1"/></g></g></svg>