<svg width="312" height="40" viewBox="0 0 312 40" fill="none" xmlns="http://www.w3.org/2000/svg">
<g clip-path="url(#clip0)">
<path d="M76.4271 19.2004C76.3718 18.6911 76.2847 18.1856 76.1661 17.6872L45.4401 17.6603C45.5775 16.4753 45.8834 15.3156 46.3483 14.217C46.9826 12.6999 47.9139 11.325 49.0873 10.173C50.2427 9.05539 51.6082 8.17806 53.1051 7.59198C55.5108 6.55524 58.1794 6.29195 60.7413 6.83856C63.3033 7.38517 65.632 8.71492 67.4051 10.6432L72.2572 5.8952C70.5371 4.04066 68.4489 2.56549 66.1261 1.56415C63.5601 0.484983 60.7976 -0.0476349 58.0143 0.000182709C55.3868 -0.0157552 52.7813 0.479774 50.3431 1.45917C48.0094 2.39202 45.882 3.77477 44.0821 5.52899C42.2887 7.29924 40.8538 9.39905 39.8561 11.7131C39.0367 13.6001 38.5344 15.6097 38.3693 17.6603H38.1691C38.0037 15.6095 37.5006 13.5998 36.68 11.7131C35.6832 9.39856 34.2484 7.29859 32.4542 5.52899C30.6548 3.77426 28.5273 2.39143 26.1932 1.45917C21.1125 -0.524344 15.4654 -0.488466 10.4103 1.55926C8.08786 2.56122 5.99968 4.03631 4.27917 5.89032L9.13219 10.6384C10.9545 8.78445 13.2815 7.50648 15.8238 6.96405C18.3662 6.42162 21.012 6.63837 23.4322 7.5871C24.929 8.17282 26.2943 9.0502 27.4491 10.1682C28.6231 11.3198 29.5547 12.6948 30.1891 14.2121C30.6541 15.3107 30.9601 16.4699 31.0973 17.655L0.371207 17.6823C0.252672 18.1807 0.165515 18.6857 0.110221 19.195C0.0419025 19.7835 0.00841298 20.3755 0.0101232 20.968C-0.00343122 23.2744 0.368448 25.5672 1.11022 27.7512C1.83916 29.8704 3.01297 31.8092 4.55309 33.4372C6.23819 35.2213 8.28342 36.6268 10.5531 37.5602C13.0909 38.5718 15.8047 39.068 18.5362 39.0202C21.1631 39.0362 23.7679 38.5403 26.2052 37.5602C28.5398 36.6291 30.6675 35.2456 32.4662 33.4899C34.2611 31.7209 35.6963 29.6213 36.6923 27.3063C37.2027 26.1404 37.589 24.9237 37.8451 23.6769H38.7162C38.9724 24.9234 39.3581 26.1401 39.8671 27.3063C40.8639 29.6208 42.299 31.7203 44.0931 33.4899C45.8922 35.2451 48.0198 36.6285 50.3541 37.5602C52.7921 38.5402 55.3977 39.0361 58.0253 39.0202C60.7561 39.0682 63.4692 38.5719 66.0062 37.5602C68.2763 36.6275 70.3217 35.222 72.0062 33.4372C73.5469 31.8092 74.7215 29.8705 75.4513 27.7512C76.1928 25.5671 76.5645 23.2744 76.5511 20.968C76.5441 20.3767 76.5027 19.7868 76.4271 19.2004ZM30.1822 24.8083C29.5455 26.3304 28.6041 27.7063 27.4161 28.8513C26.2484 29.9659 24.8753 30.8431 23.3732 31.4343C20.1717 32.6326 16.648 32.6507 13.4342 31.486C12.1378 30.9617 10.9452 30.2108 9.91222 29.2682C9.1765 28.5896 8.567 27.7858 8.11217 26.8942C7.58669 25.879 7.19243 24.801 6.93908 23.6862H30.5973C30.4792 24.0675 30.3413 24.4424 30.1842 24.8093L30.1822 24.8083ZM68.4181 26.8942C67.9631 27.7857 67.3539 28.5895 66.6183 29.2682C65.5854 30.2109 64.3925 30.9618 63.0961 31.486C59.8822 32.6507 56.3586 32.6326 53.1571 31.4343C51.6548 30.8427 50.2815 29.9655 49.1132 28.8513C47.9252 27.7064 46.9844 26.3305 46.3483 24.8083C46.1903 24.4405 46.0517 24.0647 45.9332 23.6823H57.8531H69.5922C69.3389 24.7987 68.9446 25.8782 68.4191 26.8952L68.4181 26.8942Z" fill="#2F8D46"/>
</g>
<g clip-path="url(#clip1)">
<path d="M162.41 31.2556L155.2 24.0667V31.2556H151.882V8.70703H155.2V22.0103L161.734 15.5805H165.931L158.427 22.9997L166.664 31.262L162.41 31.2556Z" fill="white"/>
<path d="M212.608 31.2895V15.6145H215.926V18.3303C216.202 17.5026 216.749 16.7893 217.48 16.3025C218.189 15.8005 219.038 15.5296 219.909 15.5274C220.345 15.5192 220.78 15.5591 221.206 15.6463L220.455 18.8315C220.161 18.7508 219.855 18.7213 219.551 18.7444C219.059 18.742 218.573 18.8495 218.129 19.0587C217.685 19.2679 217.294 19.5734 216.986 19.9526C216.233 20.9063 215.857 22.0994 215.931 23.3076V31.2863L212.608 31.2895Z" fill="white"/>
<path d="M169.492 30.1764C168.442 29.4865 167.634 28.4911 167.181 27.3278L170.047 26.0846C170.354 26.8034 170.868 27.4171 171.525 27.8491C172.175 28.2586 172.933 28.4699 173.703 28.4564C174.4 28.4786 175.092 28.3348 175.721 28.0371C175.968 27.9312 176.178 27.7552 176.324 27.5311C176.47 27.3071 176.545 27.0453 176.54 26.7789C176.547 26.5243 176.485 26.2725 176.362 26.0489C176.239 25.8252 176.058 25.6376 175.838 25.5049C175.167 25.1175 174.436 24.8437 173.673 24.6948L171.889 24.2605C170.784 24.0162 169.764 23.4873 168.933 22.7275C168.551 22.3728 168.249 21.9419 168.047 21.4633C167.846 20.9847 167.749 20.4693 167.764 19.9511C167.75 19.1241 168.024 18.3176 168.539 17.6663C169.089 16.9867 169.811 16.4629 170.631 16.148C171.542 15.7865 172.516 15.6062 173.498 15.6172C174.767 15.5906 176.023 15.8736 177.155 16.4411C178.171 16.9521 178.977 17.795 179.437 18.8267L176.628 20.0413C176.346 19.4808 175.899 19.0178 175.345 18.7131C174.792 18.4084 174.158 18.2763 173.527 18.3341C172.894 18.3124 172.267 18.4626 171.713 18.7684C171.499 18.872 171.317 19.0321 171.188 19.2312C171.059 19.4302 170.988 19.6606 170.982 19.8969C170.979 20.1087 171.028 20.3181 171.125 20.5071C171.221 20.696 171.364 20.8586 171.539 20.9809C172.035 21.317 172.591 21.5573 173.177 21.6891L175.371 22.2391C176.608 22.4896 177.755 23.0637 178.691 23.9017C179.058 24.2571 179.347 24.6831 179.541 25.1533C179.735 25.6235 179.829 26.128 179.818 26.6356C179.832 27.5154 179.549 28.3748 179.014 29.0775C178.44 29.8094 177.677 30.374 176.805 30.7115C175.82 31.1062 174.766 31.3029 173.704 31.2902C172.218 31.3531 170.748 30.9644 169.492 30.1764V30.1764Z" fill="white"/>
<path d="M202.312 15.6306C200.746 15.6306 199.215 16.0898 197.913 16.95C196.611 17.8103 195.596 19.0331 194.997 20.4636C194.397 21.8942 194.241 23.4684 194.546 24.987C194.852 26.5057 195.606 27.9007 196.713 28.9956C197.821 30.0905 199.231 30.8362 200.768 31.1383C202.304 31.4403 203.896 31.2853 205.343 30.6928C206.789 30.1002 208.026 29.0967 208.896 27.8092C209.766 26.5217 210.231 25.0081 210.231 23.4597C210.231 21.3833 209.397 19.3919 207.912 17.9237C206.427 16.4555 204.412 15.6306 202.312 15.6306V15.6306ZM202.312 27.8742C201.414 27.8742 200.537 27.611 199.79 27.1177C199.043 26.6245 198.461 25.9234 198.118 25.1032C197.774 24.2829 197.684 23.3804 197.859 22.5096C198.035 21.6389 198.467 20.839 199.102 20.2112C199.737 19.5834 200.546 19.1559 201.427 18.9827C202.307 18.8095 203.22 18.8984 204.05 19.2381C204.879 19.5779 205.589 20.1533 206.087 20.8915C206.586 21.6297 206.853 22.4975 206.853 23.3853C206.853 24.5759 206.374 25.7176 205.523 26.5595C204.671 27.4013 203.516 27.8742 202.312 27.8742Z" fill="white"/>
<path d="M131.52 24.1237C131.539 23.8774 131.549 23.629 131.546 23.3805C131.541 22.7775 131.465 22.1771 131.319 21.5915C130.855 19.7255 129.714 18.093 128.113 17.0047C126.511 15.9164 124.561 15.4484 122.633 15.6897C120.705 15.931 118.934 16.8647 117.657 18.3132C116.38 19.7617 115.687 21.6238 115.708 23.5451C115.708 23.7956 115.727 24.0441 115.751 24.2883C115.844 25.1659 116.088 26.0214 116.474 26.8173C117.122 28.1682 118.148 29.3073 119.431 30.0999C120.714 30.8924 122.199 31.3052 123.711 31.2894C125.223 31.2737 126.7 30.83 127.965 30.0109C129.23 29.1919 130.232 28.0317 130.851 26.6676L127.343 26.7037C126.723 27.3979 125.916 27.904 125.016 28.1634C124.117 28.4228 123.161 28.4248 122.261 28.1692C121.36 27.9136 120.551 27.4109 119.927 26.7194C119.304 26.0278 118.891 25.1757 118.738 24.2618L131.52 24.1237ZM118.995 21.7179C119.349 20.797 119.975 20.0028 120.792 19.4391C121.609 18.8754 122.579 18.5684 123.575 18.5581C124.572 18.5477 125.548 18.8346 126.377 19.3812C127.206 19.9279 127.849 20.7089 128.222 21.6223L118.995 21.7179Z" fill="white"/>
<path d="M149.189 24.1241C149.207 23.8778 149.218 23.6293 149.216 23.3809C149.21 22.3493 148.998 21.329 148.592 20.3787C148.187 19.4283 147.595 18.5666 146.851 17.8431C146.108 17.1195 145.227 16.5483 144.259 16.1624C143.292 15.7764 142.256 15.5833 141.213 15.5942C140.17 15.605 139.139 15.8196 138.18 16.2255C137.221 16.6315 136.352 17.2208 135.624 17.9597C134.896 18.6986 134.323 19.5724 133.937 20.531C133.552 21.4895 133.362 22.5139 133.378 23.5454C133.378 23.796 133.396 24.0444 133.421 24.2886C133.513 25.1662 133.757 26.0217 134.142 26.8176C134.791 28.1685 135.817 29.3075 137.1 30.0999C138.382 30.8924 139.868 31.3052 141.38 31.2894C142.893 31.2737 144.369 30.8301 145.634 30.0111C146.899 29.1921 147.901 28.032 148.521 26.6679L145.012 26.704C144.391 27.3986 143.585 27.9051 142.685 28.1648C141.785 28.4244 140.83 28.4266 139.929 28.1709C139.028 27.9153 138.219 27.4124 137.595 26.7205C136.972 26.0287 136.559 25.1763 136.406 24.2621L149.189 24.1241ZM136.665 21.7182C137.018 20.7973 137.645 20.0031 138.462 19.4394C139.279 18.8758 140.249 18.5687 141.245 18.5584C142.241 18.5481 143.218 18.8349 144.046 19.3816C144.875 19.9282 145.518 20.7093 145.891 21.6227L136.665 21.7182Z" fill="white"/>
<path d="M189.383 12.5258C189.926 12.09 190.619 11.881 191.316 11.943C191.923 11.9229 192.528 12.0243 193.095 12.2413V9.3195C192.297 9.06949 191.462 8.94863 190.625 8.96167C189.255 8.91044 187.921 9.39842 186.915 10.3185C186.419 10.8118 186.034 11.4027 185.784 12.0528C185.535 12.7029 185.427 13.3976 185.466 14.0919V15.5963H182.329V18.5181H185.466V31.2968H188.786V18.517H193.098V15.5952H188.786V14.473C188.751 14.1256 188.786 13.7747 188.888 13.4406C188.99 13.1065 189.159 12.7956 189.383 12.5258V12.5258Z" fill="white"/>
<path d="M113.845 19.9976C113.846 22.6368 112.912 25.1931 111.205 27.2224C109.499 29.2517 107.127 30.6259 104.502 31.1065C101.878 31.5871 99.1655 31.1436 96.8371 29.8531C94.5086 28.5626 92.7108 26.5066 91.7559 24.0421C90.801 21.5776 90.7492 18.8602 91.6096 16.3619C92.47 13.8636 94.1882 11.742 96.4659 10.3657C98.7435 8.98945 101.437 8.44526 104.078 8.82775C106.719 9.21024 109.141 10.4952 110.924 12.4595L108.794 14.5638C107.564 13.156 105.892 12.1964 104.046 11.8384C102.199 11.4804 100.284 11.7446 98.6076 12.5889C96.9307 13.4331 95.5884 14.8087 94.7951 16.4958C94.0018 18.1829 93.8033 20.0843 94.2313 21.896C94.6593 23.7078 95.6892 25.3254 97.1563 26.4906C98.6234 27.6557 100.443 28.301 102.325 28.3235C104.206 28.346 106.041 27.7444 107.536 26.6147C109.031 25.4849 110.101 23.8924 110.573 22.0914H103.181V19.0644H113.807C113.832 19.3702 113.845 19.6813 113.845 19.9976Z" fill="white"/>
<path d="M294.59 31.2556L287.38 24.0667V31.2556H284.062V8.70703H287.38V22.0103L293.914 15.5805H298.111L290.607 22.9997L298.842 31.262L294.59 31.2556Z" fill="white"/>
<path d="M301.673 30.1764C300.623 29.4865 299.815 28.4911 299.362 27.3278L302.229 26.0846C302.535 26.8033 303.049 27.417 303.706 27.8491C304.356 28.2588 305.114 28.47 305.886 28.4564C306.583 28.4787 307.275 28.3349 307.904 28.037C308.152 27.9311 308.361 27.755 308.507 27.531C308.653 27.307 308.729 27.0453 308.724 26.7789C308.73 26.5243 308.668 26.2725 308.545 26.0489C308.422 25.8252 308.241 25.6376 308.021 25.5049C307.351 25.1174 306.619 24.8436 305.857 24.6948L304.072 24.2605C302.968 24.0161 301.949 23.4872 301.118 22.7275C300.735 22.3729 300.433 21.9421 300.231 21.4635C300.029 20.9849 299.933 20.4694 299.947 19.9511C299.933 19.1241 300.207 18.3176 300.723 17.6663C301.272 16.9868 301.994 16.4631 302.814 16.148C303.726 15.7866 304.7 15.6062 305.682 15.6172C306.95 15.5906 308.206 15.8736 309.338 16.4411C310.354 16.9521 311.16 17.795 311.62 18.8267L308.812 20.0413C308.529 19.4808 308.082 19.0179 307.528 18.7133C306.975 18.4086 306.341 18.2765 305.711 18.3341C305.077 18.3124 304.45 18.4626 303.897 18.7684C303.682 18.8721 303.5 19.0322 303.371 19.2312C303.242 19.4303 303.171 19.6606 303.166 19.8969C303.162 20.1087 303.211 20.3181 303.308 20.507C303.405 20.6959 303.547 20.8586 303.722 20.9809C304.218 21.317 304.774 21.5573 305.36 21.6891L307.554 22.2391C308.792 22.4897 309.938 23.0639 310.875 23.9017C311.241 24.2571 311.53 24.6831 311.724 25.1533C311.918 25.6235 312.012 26.128 312.001 26.6356C312.016 27.5154 311.733 28.3749 311.197 29.0775C310.623 29.8092 309.86 30.3738 308.988 30.7115C308.003 31.1063 306.949 31.3031 305.887 31.2901C304.4 31.3533 302.929 30.9646 301.673 30.1764V30.1764Z" fill="white"/>
<path d="M263.702 24.1241C263.721 23.8778 263.731 23.6293 263.729 23.3809C263.723 22.3493 263.512 21.329 263.106 20.3787C262.7 19.4283 262.108 18.5666 261.365 17.8431C260.621 17.1195 259.74 16.5483 258.773 16.1624C257.805 15.7764 256.77 15.5833 255.727 15.5942C254.683 15.605 253.652 15.8196 252.693 16.2255C251.734 16.6315 250.866 17.2208 250.137 17.9597C249.409 18.6986 248.836 19.5724 248.451 20.531C248.065 21.4895 247.875 22.5139 247.891 23.5454C247.891 23.796 247.91 24.0444 247.934 24.2886C248.027 25.1663 248.271 26.0218 248.657 26.8176C249.306 28.1682 250.332 29.3069 251.614 30.0992C252.897 30.8914 254.382 31.304 255.894 31.2883C257.406 31.2725 258.882 30.8291 260.147 30.0103C261.413 29.1915 262.415 28.0317 263.034 26.6679L259.525 26.704C258.905 27.3986 258.098 27.9051 257.198 28.1648C256.299 28.4244 255.343 28.4265 254.442 28.1709C253.541 27.9153 252.732 27.4124 252.109 26.7205C251.485 26.0287 251.073 25.1763 250.919 24.2621L263.702 24.1241ZM251.178 21.7182C251.532 20.7977 252.159 20.0041 252.976 19.4407C253.793 18.8774 254.762 18.5705 255.758 18.5602C256.754 18.5499 257.73 18.8366 258.559 19.3829C259.388 19.9291 260.031 20.7097 260.405 21.6227L251.178 21.7182Z" fill="white"/>
<path d="M281.368 24.1241C281.386 23.8778 281.397 23.6293 281.394 23.3809C281.388 22.3493 281.176 21.329 280.77 20.3787C280.365 19.4283 279.773 18.5666 279.029 17.8431C278.286 17.1195 277.405 16.5483 276.437 16.1624C275.47 15.7764 274.434 15.5833 273.391 15.5942C272.348 15.605 271.317 15.8196 270.358 16.2255C269.399 16.6315 268.53 17.2208 267.802 17.9597C267.074 18.6986 266.501 19.5724 266.115 20.531C265.73 21.4895 265.539 22.5139 265.556 23.5454C265.556 23.796 265.574 24.0444 265.599 24.2886C265.691 25.1663 265.936 26.0217 266.321 26.8176C266.97 28.1682 267.996 29.3069 269.279 30.0992C270.561 30.8914 272.046 31.304 273.559 31.2883C275.071 31.2725 276.547 30.8291 277.812 30.0103C279.077 29.1915 280.079 28.0317 280.699 26.6679L277.19 26.704C276.569 27.3986 275.762 27.9051 274.863 28.1648C273.963 28.4244 273.007 28.4265 272.107 28.1709C271.206 27.9153 270.397 27.4124 269.773 26.7205C269.15 26.0287 268.737 25.1763 268.584 24.2621L281.368 24.1241ZM268.844 21.7182C269.197 20.7973 269.824 20.0031 270.641 19.4394C271.458 18.8757 272.428 18.5687 273.424 18.5584C274.42 18.5481 275.397 18.8349 276.225 19.3816C277.054 19.9282 277.697 20.7092 278.07 21.6227L268.844 21.7182Z" fill="white"/>
<path d="M246.026 19.9962C246.027 22.6351 245.093 25.191 243.386 27.2201C241.68 29.2491 239.309 30.6232 236.684 31.1036C234.06 31.5841 231.348 31.1407 229.02 29.8503C226.692 28.5599 224.894 26.5041 223.939 24.0398C222.984 21.5756 222.933 18.8585 223.793 16.3605C224.653 13.8624 226.371 11.7411 228.648 10.3649C230.926 8.98871 233.619 8.44459 236.26 8.82697C238.9 9.20935 241.323 10.4941 243.105 12.4581L240.976 14.5624C239.745 13.1546 238.074 12.195 236.227 11.837C234.38 11.479 232.466 11.7432 230.789 12.5875C229.112 13.4317 227.77 14.8073 226.976 16.4944C226.183 18.1815 225.985 20.0828 226.413 21.8946C226.841 23.7063 227.87 25.324 229.337 26.4891C230.804 27.6543 232.624 28.2996 234.506 28.3221C236.387 28.3446 238.222 27.7429 239.718 26.6132C241.213 25.4835 242.282 23.8909 242.754 22.09H235.362V19.063H245.987C246.013 19.3688 246.026 19.6798 246.026 19.9962Z" fill="white"/>
</g>
<defs>
<clipPath id="clip0">
<rect width="76.533" height="39.026" fill="white"/>
</clipPath>
<clipPath id="clip1">
<rect width="221" height="30" fill="white" transform="translate(91 5)"/>
</clipPath>
</defs>
</svg>
