<svg width="210" height="39" viewBox="0 0 210 39" fill="none" xmlns="http://www.w3.org/2000/svg">
<path d="M191.416 0.03125H18.5841C8.32037 0.03125 0 8.1526 0 18.1708V20.8299C0 30.8481 8.32037 38.9695 18.5841 38.9695H191.416C201.68 38.9695 210 30.8481 210 20.8299V18.1708C210 8.1526 201.68 0.03125 191.416 0.03125Z" fill="white"/>
<path d="M59.3345 19.3365C59.3036 19.0583 59.2548 18.7821 59.1884 18.5099L41.9914 18.4952C42.0682 17.8478 42.2395 17.2143 42.4997 16.6141C42.8547 15.7853 43.3759 15.0342 44.0327 14.4048C44.6794 13.7943 45.4436 13.315 46.2814 12.9949C47.6279 12.4285 49.1214 12.2846 50.5554 12.5833C51.9892 12.8819 53.2926 13.6083 54.285 14.6617L57.0007 12.0678C56.038 11.0547 54.8692 10.2488 53.5692 9.70181C52.133 9.11228 50.5868 8.82128 49.0291 8.8474C47.5585 8.8387 46.1001 9.10937 44.7356 9.64449C43.4294 10.154 42.2387 10.9095 41.2314 11.8679C40.2276 12.8349 39.4245 13.982 38.866 15.2462C38.4074 16.2771 38.1264 17.3749 38.0339 18.4952H37.9218C37.8293 17.3748 37.5477 16.2769 37.0884 15.2462C36.5305 13.9817 35.7275 12.8345 34.7233 11.8679C33.7162 10.9092 32.5254 10.1538 31.219 9.64449C28.3755 8.56085 25.2148 8.58045 22.3855 9.69909C21.0857 10.2465 19.9169 11.0524 18.954 12.0652L21.6702 14.6591C22.6901 13.6463 23.9925 12.9482 25.4154 12.6518C26.8384 12.3554 28.3192 12.4739 29.6738 12.9921C30.5115 13.3121 31.2756 13.7915 31.922 14.4022C32.5791 15.0314 33.1005 15.7825 33.4555 16.6114C33.7158 17.2116 33.8871 17.8448 33.9638 18.4922L16.7668 18.5072C16.7004 18.7795 16.6516 19.0554 16.6207 19.3336C16.5824 19.6551 16.5636 19.9785 16.5647 20.3022C16.557 21.5622 16.7652 22.8147 17.1803 24.0078C17.5884 25.1656 18.2453 26.2248 19.1073 27.1141C20.0504 28.0889 21.1952 28.8566 22.4655 29.3666C23.8858 29.9191 25.4047 30.1903 26.9335 30.1642C28.4037 30.1729 29.8616 29.902 31.2258 29.3666C32.5325 28.8579 33.7233 28.1021 34.73 27.143C35.7346 26.1766 36.5379 25.0295 37.0953 23.7648C37.3809 23.1279 37.5972 22.4632 37.7406 21.7821H38.2281C38.3715 22.4631 38.5873 23.1277 38.8722 23.7648C39.4301 25.0293 40.2333 26.1762 41.2375 27.143C42.2444 28.1018 43.4352 28.8575 44.7417 29.3666C46.1063 29.9019 47.5646 30.1728 49.0352 30.1642C50.5637 30.1904 52.0821 29.9192 53.5021 29.3666C54.7726 28.8571 55.9174 28.0891 56.8602 27.1141C57.7225 26.2248 58.3799 25.1657 58.7884 24.0078C59.2034 22.8147 59.4114 21.5622 59.4039 20.3022C59.4 19.9791 59.3769 19.6569 59.3345 19.3365ZM33.4517 22.4001C33.0954 23.2317 32.5684 23.9833 31.9035 24.6089C31.25 25.2177 30.4814 25.697 29.6407 26.02C27.8489 26.6746 25.8768 26.6845 24.0779 26.0483C23.3524 25.7617 22.6849 25.3516 22.1067 24.8366C21.695 24.4659 21.3539 24.0268 21.0993 23.5397C20.8052 22.985 20.5845 22.3961 20.4427 21.7872H33.684C33.6179 21.9954 33.5407 22.2002 33.4527 22.4007L33.4517 22.4001ZM54.8519 23.5397C54.5973 24.0268 54.2563 24.4659 53.8446 24.8366C53.2665 25.3516 52.5989 25.7618 51.8733 26.0483C50.0745 26.6845 48.1024 26.6746 46.3105 26.02C45.4697 25.6968 44.7011 25.2176 44.0471 24.6089C43.3823 23.9834 42.8557 23.2317 42.4997 22.4001C42.4113 22.1992 42.3337 21.9939 42.2674 21.785H48.9388H55.5091C55.3674 22.3949 55.1467 22.9847 54.8525 23.5403L54.8519 23.5397Z" fill="#2F8D46"/>
<path d="M107.46 25.9218L103.425 21.9945V25.9218H101.568V13.6035H103.425V20.8711L107.082 17.3585H109.431L105.231 21.4116L109.841 25.9253L107.46 25.9218Z" fill="#162B3A"/>
<path d="M135.555 25.9396V17.3762H137.411V18.8599C137.566 18.4077 137.872 18.018 138.281 17.7521C138.678 17.4779 139.153 17.3299 139.64 17.3287C139.885 17.3242 140.128 17.3459 140.367 17.3937L139.946 19.1337C139.782 19.0896 139.611 19.0736 139.44 19.0861C139.165 19.0848 138.892 19.1435 138.644 19.2579C138.396 19.3721 138.177 19.539 138.005 19.7462C137.583 20.2672 137.373 20.919 137.414 21.579V25.9378L135.555 25.9396Z" fill="#162B3A"/>
<path d="M111.423 25.3316C110.836 24.9548 110.385 24.4109 110.131 23.7754L111.735 23.0963C111.907 23.489 112.194 23.8242 112.562 24.0602C112.926 24.284 113.35 24.3993 113.781 24.3921C114.171 24.4041 114.559 24.3256 114.911 24.1629C115.049 24.1051 115.166 24.0089 115.248 23.8865C115.33 23.7642 115.372 23.6212 115.369 23.4756C115.372 23.3365 115.338 23.199 115.268 23.0768C115.2 22.9546 115.098 22.8521 114.976 22.7796C114.6 22.568 114.191 22.4183 113.764 22.3371L112.765 22.0998C112.147 21.9664 111.577 21.6774 111.111 21.2623C110.897 21.0686 110.728 20.8331 110.615 20.5717C110.503 20.3102 110.449 20.0286 110.457 19.7456C110.449 19.2938 110.602 18.8532 110.891 18.4974C111.199 18.1261 111.602 17.8399 112.062 17.6679C112.572 17.4704 113.116 17.3719 113.666 17.3779C114.376 17.3634 115.079 17.518 115.713 17.828C116.281 18.1072 116.733 18.5677 116.989 19.1313L115.418 19.7948C115.26 19.4886 115.009 19.2356 114.7 19.0692C114.39 18.9028 114.035 18.8306 113.682 18.8622C113.328 18.8503 112.977 18.9324 112.668 19.0994C112.547 19.156 112.445 19.2435 112.373 19.3523C112.301 19.461 112.261 19.5868 112.258 19.716C112.256 19.8316 112.284 19.9461 112.338 20.0493C112.392 20.1524 112.472 20.2413 112.569 20.3081C112.847 20.4917 113.158 20.6231 113.486 20.695L114.715 20.9955C115.407 21.1323 116.049 21.446 116.573 21.9038C116.777 22.098 116.94 22.3306 117.048 22.5876C117.157 22.8444 117.21 23.12 117.203 23.3973C117.211 23.8779 117.052 24.3475 116.753 24.7313C116.432 25.1312 116.004 25.4396 115.517 25.6239C114.965 25.8396 114.376 25.9471 113.782 25.9401C112.95 25.9745 112.127 25.7622 111.423 25.3316Z" fill="#162B3A"/>
<path d="M129.793 17.3848C128.916 17.3848 128.059 17.6356 127.331 18.1056C126.602 18.5755 126.034 19.2436 125.698 20.0251C125.363 20.8066 125.276 21.6666 125.447 22.4962C125.618 23.3259 126.039 24.088 126.659 24.6861C127.279 25.2843 128.069 25.6917 128.928 25.8567C129.788 26.0217 130.679 25.937 131.489 25.6133C132.299 25.2896 132.991 24.7413 133.478 24.038C133.965 23.3346 134.225 22.5077 134.225 21.6618C134.225 20.5275 133.758 19.4396 132.927 18.6375C132.096 17.8354 130.969 17.3848 129.793 17.3848ZM129.793 24.0735C129.291 24.0735 128.799 23.9297 128.381 23.6602C127.964 23.3908 127.638 23.0078 127.445 22.5597C127.253 22.1116 127.203 21.6185 127.301 21.1428C127.399 20.6671 127.641 20.2301 127.996 19.8872C128.351 19.5442 128.805 19.3106 129.297 19.216C129.791 19.1214 130.302 19.17 130.765 19.3556C131.23 19.5412 131.627 19.8556 131.906 20.2588C132.185 20.6621 132.334 21.1362 132.334 21.6213C132.334 22.2716 132.066 22.8954 131.59 23.3552C131.114 23.8151 130.467 24.0735 129.793 24.0735Z" fill="#162B3A"/>
<path d="M90.1725 22.0262C90.1827 21.8916 90.1887 21.7559 90.187 21.6201C90.184 21.2907 90.1412 20.9627 90.0595 20.6429C89.8002 19.6234 89.1617 18.7315 88.2653 18.137C87.3689 17.5425 86.2772 17.2868 85.1982 17.4187C84.1191 17.5504 83.1279 18.0605 82.4132 18.8519C81.6986 19.6432 81.3104 20.6605 81.3225 21.71C81.3225 21.8469 81.3328 21.9827 81.3466 22.1161C81.3986 22.5955 81.5353 23.0629 81.7511 23.4977C82.1139 24.2357 82.6883 24.858 83.4061 25.291C84.124 25.7239 84.9553 25.9494 85.8017 25.9408C86.6481 25.9322 87.4742 25.6898 88.1825 25.2424C88.8907 24.7949 89.4513 24.1611 89.798 23.4159L87.8345 23.4356C87.4872 23.8148 87.0356 24.0914 86.5322 24.2331C86.0287 24.3747 85.4939 24.3759 84.9898 24.2362C84.4857 24.0966 84.0328 23.822 83.6839 23.4442C83.3349 23.0664 83.1041 22.6009 83.0181 22.1016L90.1725 22.0262ZM83.1623 20.7119C83.3602 20.2088 83.7107 19.7749 84.1679 19.467C84.6253 19.159 85.1681 18.9913 85.7258 18.9856C86.2834 18.98 86.8297 19.1368 87.2937 19.4353C87.7576 19.734 88.1173 20.1606 88.3261 20.6597L83.1623 20.7119Z" fill="#162B3A"/>
<path d="M100.06 22.0254C100.071 21.8908 100.077 21.7551 100.076 21.6194C100.073 21.0559 99.9536 20.4984 99.7269 19.9793C99.5002 19.46 99.1684 18.9893 98.7522 18.5941C98.3359 18.1988 97.8434 17.8867 97.3017 17.6759C96.7599 17.4651 96.181 17.3596 95.5966 17.3655C95.013 17.3715 94.436 17.4886 93.8989 17.7104C93.3618 17.9321 92.8761 18.2541 92.4686 18.6578C92.0611 19.0614 91.7403 19.5388 91.5245 20.0625C91.3089 20.5861 91.2024 21.1457 91.2115 21.7093C91.2115 21.8461 91.2217 21.9819 91.2355 22.1153C91.2871 22.5947 91.4238 23.0621 91.6394 23.4969C92.0024 24.2349 92.5768 24.8571 93.2949 25.29C94.0123 25.723 94.8439 25.9485 95.6904 25.9398C96.5369 25.9312 97.363 25.6889 98.071 25.2415C98.7791 24.7941 99.3403 24.1604 99.6869 23.4151L97.7226 23.4349C97.376 23.8143 96.9244 24.091 96.4208 24.2328C95.9172 24.3747 95.3819 24.3759 94.8783 24.2362C94.3737 24.0966 93.9212 23.8218 93.5718 23.4438C93.2225 23.0659 92.992 22.6002 92.9063 22.1008L100.06 22.0254ZM93.0515 20.7111C93.2494 20.2079 93.5997 19.7741 94.0569 19.4662C94.5141 19.1582 95.0567 18.9905 95.6142 18.9849C96.1727 18.9793 96.7191 19.1359 97.1827 19.4346C97.6464 19.7332 98.006 20.1599 98.2151 20.6589L93.0515 20.7111Z" fill="#162B3A"/>
<path d="M122.557 15.6893C122.86 15.4513 123.249 15.3371 123.639 15.3709C123.979 15.3599 124.317 15.4153 124.634 15.5339V13.9377C124.187 13.8011 123.721 13.7351 123.253 13.7422C122.486 13.7142 121.739 13.9809 121.176 14.4835C120.898 14.753 120.682 15.0758 120.543 15.4309C120.404 15.7861 120.342 16.1656 120.365 16.5449V17.3668H118.609V18.963H120.365V25.944H122.223V18.9623H124.636V17.3662H122.223V16.7531C122.204 16.5633 122.223 16.3717 122.28 16.1891C122.337 16.0066 122.431 15.8367 122.557 15.6893Z" fill="#162B3A"/>
<path d="M80.2781 19.7708C80.2787 21.2126 79.7561 22.6091 78.8009 23.7177C77.8456 24.8264 76.5183 25.5771 75.0493 25.8397C73.5802 26.1022 72.0624 25.8599 70.7592 25.1549C69.456 24.4499 68.4497 23.3267 67.9152 21.9804C67.3808 20.634 67.3519 19.1494 67.8334 17.7846C68.3149 16.4198 69.2766 15.2608 70.5514 14.5089C71.8262 13.757 73.3335 13.4597 74.8117 13.6687C76.29 13.8776 77.6456 14.5796 78.6434 15.6528L77.4516 16.8024C76.763 16.0332 75.8272 15.509 74.7938 15.3135C73.7602 15.1178 72.6887 15.2622 71.7501 15.7234C70.8116 16.1846 70.0602 16.9361 69.6162 17.8578C69.1723 18.7795 69.0611 19.8181 69.3007 20.8079C69.5402 21.7977 70.1166 22.6815 70.9378 23.3179C71.7589 23.9544 72.7773 24.307 73.8305 24.3193C74.8836 24.3316 75.9106 24.0029 76.7474 23.3857C77.5843 22.7685 78.1826 21.8986 78.4468 20.9147H74.31V19.261H80.2571C80.2711 19.4281 80.2781 19.598 80.2781 19.7708Z" fill="#162B3A"/>
<path d="M181.439 25.9218L177.404 21.9945V25.9218H175.547V13.6035H177.404V20.8711L181.061 17.3585H183.41L179.21 21.4116L183.82 25.9253L181.439 25.9218Z" fill="#162B3A"/>
<path d="M185.405 25.3316C184.817 24.9548 184.365 24.4109 184.111 23.7754L185.716 23.0963C185.887 23.4889 186.174 23.8242 186.542 24.0602C186.906 24.2841 187.331 24.3994 187.762 24.3921C188.152 24.4042 188.54 24.3256 188.892 24.1629C189.031 24.105 189.148 24.0088 189.229 23.8864C189.311 23.7641 189.353 23.6212 189.351 23.4756C189.354 23.3365 189.32 23.199 189.251 23.0768C189.182 22.9546 189.081 22.8521 188.958 22.7796C188.582 22.568 188.173 22.4183 187.746 22.3371L186.747 22.0998C186.129 21.9663 185.559 21.6773 185.094 21.2623C184.88 21.0686 184.711 20.8333 184.597 20.5718C184.485 20.3103 184.43 20.0287 184.438 19.7456C184.431 19.2938 184.584 18.8532 184.872 18.4974C185.18 18.1261 185.584 17.84 186.043 17.6679C186.553 17.4705 187.099 17.3719 187.648 17.3779C188.358 17.3634 189.061 17.518 189.694 17.828C190.264 18.1072 190.714 18.5677 190.972 19.1313L189.4 19.7948C189.241 19.4886 188.992 19.2357 188.681 19.0693C188.372 18.9029 188.018 18.8307 187.665 18.8622C187.31 18.8504 186.958 18.9324 186.649 19.0994C186.529 19.1561 186.427 19.2435 186.354 19.3523C186.283 19.461 186.243 19.5868 186.24 19.716C186.238 19.8316 186.265 19.946 186.319 20.0492C186.374 20.1524 186.453 20.2413 186.551 20.3081C186.829 20.4917 187.14 20.623 187.469 20.695L188.696 20.9955C189.388 21.1324 190.03 21.446 190.554 21.9038C190.76 22.098 190.921 22.3306 191.03 22.5876C191.139 22.8444 191.191 23.12 191.185 23.3973C191.193 23.878 191.035 24.3475 190.735 24.7313C190.414 25.1311 189.987 25.4395 189.499 25.6239C188.948 25.8397 188.358 25.9472 187.763 25.9401C186.931 25.9746 186.107 25.7623 185.405 25.3316Z" fill="#162B3A"/>
<path d="M164.151 22.0254C164.161 21.8908 164.167 21.7551 164.166 21.6194C164.163 21.0559 164.044 20.4984 163.817 19.9793C163.59 19.4601 163.259 18.9893 162.843 18.5941C162.426 18.1988 161.933 17.8867 161.392 17.6759C160.85 17.4651 160.271 17.3596 159.687 17.3655C159.103 17.3715 158.526 17.4886 157.989 17.7104C157.452 17.9321 156.966 18.2541 156.558 18.6578C156.151 19.0614 155.83 19.5388 155.614 20.0625C155.399 20.5861 155.293 21.1457 155.301 21.7093C155.301 21.8461 155.311 21.9819 155.325 22.1153C155.377 22.5947 155.514 23.0621 155.731 23.4969C156.093 24.2347 156.667 24.8568 157.385 25.2896C158.103 25.7224 158.934 25.9478 159.781 25.9392C160.627 25.9306 161.453 25.6883 162.162 25.2411C162.87 24.7938 163.43 24.1602 163.777 23.4151L161.813 23.4349C161.466 23.8143 161.014 24.091 160.51 24.2328C160.007 24.3747 159.472 24.3759 158.968 24.2362C158.464 24.0966 158.011 23.8218 157.662 23.4438C157.313 23.0659 157.083 22.6002 156.996 22.1008L164.151 22.0254ZM157.141 20.7111C157.34 20.2082 157.69 19.7746 158.147 19.4668C158.605 19.1591 159.147 18.9915 159.705 18.9859C160.262 18.9802 160.809 19.1368 161.272 19.4353C161.736 19.7337 162.097 20.1601 162.306 20.6589L157.141 20.7111Z" fill="#162B3A"/>
<path d="M174.04 22.0254C174.05 21.8908 174.056 21.7551 174.055 21.6194C174.051 21.0559 173.933 20.4984 173.705 19.9793C173.479 19.4601 173.148 18.9893 172.731 18.5941C172.315 18.1988 171.822 17.8867 171.28 17.6759C170.738 17.4651 170.159 17.3596 169.575 17.3655C168.991 17.3715 168.414 17.4886 167.877 17.7104C167.341 17.9321 166.855 18.2541 166.447 18.6578C166.039 19.0614 165.719 19.5388 165.503 20.0625C165.288 20.5861 165.181 21.1457 165.19 21.7093C165.19 21.8461 165.2 21.9819 165.214 22.1153C165.266 22.5947 165.403 23.0621 165.618 23.4969C165.982 24.2347 166.556 24.8568 167.274 25.2896C167.992 25.7224 168.823 25.9478 169.669 25.9392C170.515 25.9306 171.341 25.6883 172.049 25.2411C172.758 24.7938 173.319 24.1602 173.665 23.4151L171.702 23.4349C171.354 23.8143 170.903 24.091 170.399 24.2328C169.896 24.3747 169.36 24.3759 168.857 24.2362C168.352 24.0966 167.9 23.8218 167.55 23.4438C167.202 23.0659 166.97 22.6002 166.885 22.1008L174.04 22.0254ZM167.031 20.7111C167.229 20.2079 167.579 19.7741 168.036 19.4662C168.493 19.1582 169.036 18.9905 169.594 18.9849C170.151 18.9793 170.698 19.1359 171.162 19.4346C171.626 19.7332 171.985 20.1599 172.194 20.6589L167.031 20.7111Z" fill="#162B3A"/>
<path d="M154.26 19.7704C154.26 21.2121 153.737 22.6084 152.782 23.7169C151.827 24.8253 150.5 25.576 149.031 25.8385C147.562 26.101 146.045 25.8587 144.742 25.1537C143.438 24.4488 142.432 23.3257 141.897 21.9795C141.363 20.6333 141.334 19.1489 141.816 17.7842C142.297 16.4195 143.259 15.2606 144.534 14.5088C145.808 13.757 147.316 13.4597 148.793 13.6687C150.271 13.8775 151.627 14.5794 152.625 15.6523L151.433 16.8019C150.744 16.0328 149.809 15.5086 148.775 15.313C147.741 15.1175 146.67 15.2618 145.731 15.723C144.793 16.1843 144.041 16.9357 143.598 17.8574C143.154 18.779 143.042 19.8177 143.282 20.8075C143.522 21.7973 144.098 22.681 144.919 23.3175C145.74 23.9541 146.759 24.3066 147.812 24.3188C148.865 24.3312 149.892 24.0025 150.729 23.3853C151.566 22.7682 152.164 21.8981 152.428 20.9142H148.29V19.2606H154.238C154.252 19.4277 154.26 19.5976 154.26 19.7704Z" fill="#162B3A"/>
</svg>
