<svg width="279" height="53" viewBox="0 0 279 53" fill="none" xmlns="http://www.w3.org/2000/svg">
<rect width="279" height="53" rx="20" fill="white"/>
<g clip-path="url(#clip0)">
<path d="M78.831 26.2772C78.7899 25.8985 78.7251 25.5226 78.6369 25.152L55.7893 25.132C55.8915 24.2509 56.119 23.3885 56.4646 22.5716C56.9364 21.4435 57.6288 20.4212 58.5013 19.5645C59.3605 18.7335 60.3759 18.0811 61.489 17.6453C63.2778 16.8744 65.2621 16.6786 67.1672 17.0851C69.0722 17.4915 70.8038 18.4803 72.1223 19.9142L75.7303 16.3836C74.4512 15.0046 72.8984 13.9077 71.1712 13.1631C69.2632 12.3606 67.209 11.9646 65.1394 12.0001C63.1856 11.9883 61.2482 12.3567 59.4352 13.085C57.6998 13.7787 56.1179 14.8069 54.7796 16.1113C53.446 17.4276 52.379 18.989 51.6371 20.7097C51.0278 22.1129 50.6543 23.6072 50.5315 25.132H50.3827C50.2597 23.6071 49.8856 22.1127 49.2755 20.7097C48.5342 18.9887 47.4673 17.4271 46.1332 16.1113C44.7951 14.8065 43.2132 13.7782 41.4776 13.085C37.6996 11.6101 33.5005 11.6368 29.7415 13.1594C28.0146 13.9045 26.4619 15.0013 25.1825 16.38L28.7912 19.9106C30.1462 18.532 31.8765 17.5817 33.767 17.1784C35.6575 16.775 37.6248 16.9362 39.4245 17.6417C40.5375 18.0772 41.5527 18.7296 42.4114 19.5609C43.2844 20.4173 43.9772 21.4397 44.4488 22.568C44.7947 23.3848 45.0222 24.2468 45.1242 25.128L22.2766 25.1484C22.1884 25.519 22.1236 25.8945 22.0825 26.2732C22.0317 26.7108 22.0068 27.151 22.0081 27.5915C21.998 29.3066 22.2745 31.0115 22.8261 32.6355C23.3681 34.2113 24.241 35.6529 25.3862 36.8635C26.6392 38.1902 28.16 39.2353 29.8477 39.9294C31.7348 40.6816 33.7528 41.0506 35.7839 41.015C37.7372 41.0269 39.6741 40.6582 41.4865 39.9294C43.2225 39.237 44.8046 38.2083 46.1421 36.9027C47.4768 35.5874 48.5439 34.0261 49.2845 32.3047C49.6641 31.4377 49.9513 30.533 50.1418 29.6059H50.7895C50.98 30.5328 51.2668 31.4375 51.6453 32.3047C52.3865 34.0257 53.4536 35.5869 54.7878 36.9027C56.1255 38.2079 57.7076 39.2365 59.4434 39.9294C61.2562 40.6581 63.1937 41.0268 65.1475 41.015C67.1782 41.0507 69.1956 40.6816 71.0821 39.9294C72.7701 39.2358 74.291 38.1907 75.5436 36.8635C76.6892 35.653 77.5627 34.2113 78.1054 32.6355C78.6568 31.0114 78.9331 29.3066 78.9232 27.5915C78.918 27.1519 78.8872 26.7133 78.831 26.2772ZM44.4438 30.4472C43.9703 31.579 43.2703 32.6021 42.3869 33.4535C41.5186 34.2823 40.4976 34.9346 39.3806 35.3742C37 36.2652 34.3799 36.2787 31.9901 35.4127C31.0261 35.0228 30.1393 34.4645 29.3712 33.7636C28.8241 33.2589 28.3709 32.6612 28.0327 31.9983C27.6419 31.2433 27.3488 30.4417 27.1604 29.6128H44.7524C44.6646 29.8963 44.562 30.1751 44.4452 30.4479L44.4438 30.4472ZM72.8755 31.9983C72.5372 32.6612 72.0842 33.2589 71.5372 33.7636C70.7691 34.4645 69.8821 35.0228 68.9181 35.4127C66.5284 36.2787 63.9082 36.2652 61.5276 35.3742C60.4106 34.9343 59.3894 34.282 58.5206 33.4535C57.6373 32.6022 56.9376 31.5791 56.4646 30.4472C56.3472 30.1737 56.2441 29.8942 56.156 29.6099H65.0196H73.7486C73.5602 30.44 73.2671 31.2428 72.8763 31.999L72.8755 31.9983Z" fill="#2F8D46"/>
</g>
<g clip-path="url(#clip1)">
<path d="M142.767 35.2415L137.406 29.8959V35.2415H134.938V18.4746H137.406V28.3668L142.264 23.5857H145.385L139.805 29.1025L145.93 35.2462L142.767 35.2415Z" fill="#162B3A"/>
<path d="M180.094 35.2667V23.6109H182.561V25.6304C182.766 25.0149 183.173 24.4845 183.716 24.1225C184.243 23.7493 184.875 23.5478 185.523 23.5462C185.847 23.5401 186.17 23.5697 186.487 23.6346L185.928 26.003C185.71 25.9431 185.482 25.9211 185.256 25.9383C184.89 25.9366 184.529 26.0164 184.199 26.172C183.869 26.3275 183.578 26.5548 183.349 26.8367C182.789 27.5459 182.51 28.433 182.564 29.3314V35.2643L180.094 35.2667Z" fill="#162B3A"/>
<path d="M148.033 34.4389C147.252 33.9259 146.652 33.1857 146.314 32.3207L148.446 31.3963C148.674 31.9308 149.056 32.3871 149.544 32.7084C150.028 33.0129 150.591 33.17 151.164 33.16C151.683 33.1765 152.197 33.0695 152.665 32.8481C152.849 32.7694 153.005 32.6385 153.113 32.4719C153.222 32.3054 153.278 32.1107 153.274 31.9126C153.279 31.7233 153.233 31.536 153.141 31.3697C153.05 31.2034 152.915 31.0639 152.752 30.9652C152.253 30.6771 151.709 30.4735 151.142 30.3629L149.815 30.04C148.994 29.8583 148.235 29.465 147.618 28.9C147.333 28.6362 147.109 28.3158 146.959 27.96C146.809 27.6041 146.737 27.2208 146.748 26.8355C146.738 26.2206 146.941 25.6208 147.325 25.1365C147.733 24.6312 148.27 24.2417 148.88 24.0076C149.558 23.7388 150.282 23.6046 151.012 23.6128C151.955 23.5931 152.889 23.8035 153.731 24.2255C154.487 24.6055 155.086 25.2322 155.428 25.9994L153.34 26.9026C153.129 26.4858 152.797 26.1415 152.385 25.9149C151.974 25.6884 151.503 25.5901 151.034 25.6331C150.563 25.617 150.096 25.7286 149.685 25.956C149.525 26.0331 149.39 26.1521 149.294 26.3002C149.198 26.4482 149.145 26.6195 149.141 26.7952C149.139 26.9527 149.175 27.1084 149.247 27.2489C149.319 27.3894 149.425 27.5103 149.555 27.6013C149.924 27.8512 150.337 28.0298 150.773 28.1279L152.405 28.5368C153.325 28.7231 154.177 29.15 154.873 29.7731C155.146 30.0374 155.361 30.3542 155.505 30.7038C155.649 31.0535 155.719 31.4286 155.711 31.806C155.722 32.4603 155.511 33.0993 155.113 33.6218C154.687 34.166 154.119 34.5859 153.471 34.8368C152.739 35.1303 151.955 35.2766 151.165 35.2671C150.06 35.3139 148.967 35.0249 148.033 34.4389V34.4389Z" fill="#162B3A"/>
<path d="M172.438 23.6228C171.273 23.6228 170.135 23.9642 169.167 24.6039C168.198 25.2436 167.444 26.1528 166.998 27.2166C166.552 28.2803 166.436 29.4509 166.663 30.5801C166.89 31.7094 167.451 32.7467 168.274 33.5609C169.098 34.375 170.147 34.9295 171.289 35.1541C172.431 35.3788 173.615 35.2635 174.691 34.8229C175.767 34.3822 176.687 33.636 177.334 32.6787C177.981 31.7213 178.326 30.5958 178.326 29.4444C178.326 27.9004 177.706 26.4197 176.601 25.3279C175.497 24.2361 173.999 23.6228 172.438 23.6228V23.6228ZM172.438 32.727C171.77 32.727 171.117 32.5313 170.562 32.1645C170.007 31.7977 169.574 31.2764 169.319 30.6665C169.063 30.0566 168.996 29.3854 169.127 28.738C169.257 28.0905 169.579 27.4957 170.051 27.0289C170.523 26.562 171.124 26.2441 171.779 26.1154C172.434 25.9866 173.113 26.0527 173.73 26.3053C174.347 26.5579 174.874 26.9858 175.245 27.5347C175.616 28.0836 175.814 28.729 175.814 29.3891C175.814 30.2744 175.458 31.1234 174.825 31.7494C174.192 32.3754 173.333 32.727 172.438 32.727Z" fill="#162B3A"/>
<path d="M119.797 29.9384C119.811 29.7553 119.819 29.5705 119.816 29.3858C119.813 28.9374 119.756 28.4909 119.647 28.0555C119.303 26.6679 118.454 25.454 117.263 24.6448C116.072 23.8356 114.622 23.4875 113.188 23.667C111.755 23.8464 110.438 24.5407 109.489 25.6178C108.539 26.6948 108.023 28.0795 108.039 29.5081C108.039 29.6944 108.053 29.8792 108.071 30.0608C108.14 30.7134 108.322 31.3495 108.609 31.9413C109.091 32.9459 109.854 33.7929 110.808 34.3822C111.761 34.9715 112.866 35.2785 113.99 35.2668C115.115 35.255 116.212 34.9251 117.153 34.3161C118.094 33.7071 118.839 32.8444 119.3 31.83L116.691 31.8568C116.23 32.373 115.63 32.7494 114.961 32.9423C114.292 33.1351 113.581 33.1367 112.912 32.9466C112.242 32.7566 111.64 32.3828 111.177 31.8685C110.713 31.3542 110.406 30.7206 110.292 30.0411L119.797 29.9384ZM110.484 28.1495C110.747 27.4647 111.212 26.8741 111.82 26.455C112.427 26.0358 113.149 25.8075 113.889 25.7998C114.63 25.7922 115.356 26.0055 115.972 26.4119C116.589 26.8184 117.067 27.3992 117.344 28.0784L110.484 28.1495Z" fill="#162B3A"/>
<path d="M132.935 29.9385C132.949 29.7554 132.957 29.5706 132.955 29.3859C132.951 28.6188 132.794 27.8602 132.492 27.1535C132.19 26.4468 131.75 25.8061 131.197 25.268C130.644 24.73 129.989 24.3052 129.27 24.0183C128.55 23.7313 127.781 23.5877 127.005 23.5958C126.229 23.6038 125.462 23.7634 124.749 24.0653C124.036 24.3671 123.39 24.8053 122.849 25.3548C122.307 25.9042 121.881 26.5539 121.594 27.2667C121.308 27.9795 121.166 28.7412 121.178 29.5082C121.178 29.6945 121.192 29.8793 121.21 30.0609C121.279 30.7135 121.461 31.3496 121.747 31.9414C122.229 32.9459 122.992 33.7928 123.946 34.3821C124.9 34.9714 126.004 35.2783 127.129 35.2666C128.253 35.2549 129.351 34.925 130.292 34.316C131.233 33.7071 131.978 32.8444 132.439 31.8301L129.829 31.8569C129.368 32.3734 128.768 32.7501 128.099 32.9431C127.43 33.1362 126.719 33.1378 126.05 32.9477C125.38 32.7576 124.778 32.3837 124.314 31.8692C123.851 31.3548 123.544 30.7209 123.43 30.0412L132.935 29.9385ZM123.623 28.1496C123.886 27.4648 124.351 26.8742 124.959 26.4551C125.566 26.0359 126.288 25.8076 127.028 25.7999C127.769 25.7923 128.495 26.0056 129.111 26.412C129.728 26.8185 130.206 27.3993 130.483 28.0785L123.623 28.1496Z" fill="#162B3A"/>
<path d="M162.823 21.3141C163.227 20.9901 163.743 20.8346 164.261 20.8807C164.712 20.8658 165.162 20.9412 165.584 21.1025V18.9299C164.99 18.744 164.37 18.6542 163.747 18.6639C162.729 18.6258 161.737 18.9886 160.988 19.6728C160.62 20.0396 160.333 20.479 160.148 20.9624C159.962 21.4458 159.882 21.9624 159.911 22.4786V23.5973H157.578V25.7699H159.911V35.272H162.379V25.7691H165.586V23.5965H162.379V22.7621C162.353 22.5037 162.379 22.2428 162.456 21.9944C162.532 21.7459 162.657 21.5147 162.823 21.3141V21.3141Z" fill="#162B3A"/>
<path d="M106.654 26.8701C106.655 28.8326 105.96 30.7333 104.691 32.2423C103.422 33.7513 101.659 34.7732 99.7072 35.1305C97.7555 35.4879 95.7388 35.1581 94.0074 34.1985C92.276 33.2389 90.9392 31.7101 90.2291 29.8775C89.519 28.0449 89.4805 26.0243 90.1203 24.1666C90.7601 22.3088 92.0377 20.7313 93.7313 19.7079C95.425 18.6845 97.4276 18.2798 99.3915 18.5643C101.355 18.8487 103.157 19.8042 104.482 21.2648L102.899 22.8296C101.984 21.7827 100.741 21.0692 99.3677 20.803C97.9946 20.5368 96.5708 20.7332 95.3239 21.361C94.077 21.9888 93.0788 23.0117 92.489 24.2662C91.8991 25.5207 91.7515 26.9345 92.0697 28.2817C92.388 29.6289 93.1538 30.8318 94.2447 31.6981C95.3356 32.5645 96.6887 33.0444 98.0879 33.0611C99.487 33.0779 100.851 32.6305 101.963 31.7904C103.075 30.9504 103.87 29.7662 104.221 28.427H98.725V26.1762H106.626C106.645 26.4035 106.654 26.6348 106.654 26.8701Z" fill="#162B3A"/>
<path d="M241.054 35.2415L235.693 29.8959V35.2415H233.226V18.4746H235.693V28.3668L240.551 23.5857H243.672L238.092 29.1025L244.216 35.2462L241.054 35.2415Z" fill="#162B3A"/>
<path d="M246.321 34.4389C245.54 33.9259 244.94 33.1857 244.603 32.3207L246.734 31.3963C246.962 31.9307 247.344 32.387 247.832 32.7084C248.316 33.013 248.88 33.1701 249.453 33.16C249.972 33.1765 250.487 33.0696 250.955 32.8481C251.138 32.7694 251.294 32.6384 251.403 32.4718C251.511 32.3053 251.567 32.1107 251.564 31.9126C251.568 31.7233 251.523 31.536 251.431 31.3697C251.339 31.2034 251.205 31.0639 251.042 30.9652C250.543 30.6771 249.999 30.4735 249.432 30.3628L248.105 30.04C247.284 29.8582 246.526 29.4649 245.908 28.9C245.624 28.6363 245.399 28.316 245.249 27.9601C245.099 27.6042 245.027 27.2209 245.038 26.8355C245.027 26.2206 245.231 25.6208 245.614 25.1365C246.023 24.6313 246.56 24.2418 247.17 24.0076C247.847 23.7388 248.572 23.6047 249.302 23.6128C250.245 23.5931 251.179 23.8035 252.02 24.2255C252.776 24.6055 253.376 25.2322 253.717 25.9994L251.629 26.9026C251.419 26.4858 251.086 26.1416 250.675 25.9151C250.263 25.6885 249.792 25.5903 249.323 25.6331C248.852 25.617 248.386 25.7287 247.975 25.956C247.815 26.0332 247.68 26.1522 247.584 26.3002C247.488 26.4482 247.435 26.6195 247.431 26.7952C247.428 26.9527 247.465 27.1084 247.537 27.2488C247.609 27.3893 247.714 27.5103 247.844 27.6013C248.213 27.8512 248.627 28.0298 249.063 28.1279L250.694 28.5368C251.614 28.7232 252.467 29.1501 253.163 29.7731C253.436 30.0374 253.651 30.3542 253.795 30.7038C253.939 31.0535 254.009 31.4286 254.001 31.806C254.012 32.4603 253.801 33.0993 253.403 33.6218C252.976 34.1659 252.409 34.5857 251.76 34.8368C251.028 35.1304 250.244 35.2767 249.454 35.2671C248.349 35.3141 247.255 35.025 246.321 34.4389V34.4389Z" fill="#162B3A"/>
<path d="M218.087 29.9385C218.1 29.7554 218.108 29.5706 218.107 29.3859C218.103 28.6188 217.945 27.8602 217.643 27.1535C217.342 26.4468 216.902 25.8061 216.349 25.268C215.796 24.73 215.141 24.3052 214.421 24.0183C213.702 23.7313 212.932 23.5877 212.156 23.5958C211.38 23.6038 210.614 23.7634 209.901 24.0653C209.187 24.3671 208.541 24.8053 208 25.3548C207.459 25.9042 207.032 26.5539 206.746 27.2667C206.459 27.9795 206.318 28.7412 206.33 29.5082C206.33 29.6945 206.343 29.8793 206.362 30.0609C206.431 30.7135 206.612 31.3496 206.899 31.9414C207.382 32.9457 208.145 33.7924 209.098 34.3815C210.052 34.9706 211.156 35.2774 212.281 35.2657C213.405 35.254 214.503 34.9243 215.443 34.3155C216.384 33.7066 217.129 32.8442 217.59 31.8301L214.981 31.8569C214.519 32.3735 213.919 32.7501 213.25 32.9431C212.581 33.1362 211.871 33.1378 211.201 32.9477C210.531 32.7576 209.929 32.3837 209.466 31.8692C209.002 31.3548 208.696 30.7209 208.582 30.0412L218.087 29.9385ZM208.774 28.1496C209.037 27.4651 209.503 26.8749 210.111 26.456C210.718 26.0372 211.439 25.809 212.18 25.8013C212.92 25.7936 213.646 26.0068 214.262 26.413C214.879 26.8192 215.357 27.3996 215.635 28.0785L208.774 28.1496Z" fill="#162B3A"/>
<path d="M231.222 29.9385C231.236 29.7554 231.244 29.5706 231.242 29.3859C231.237 28.6188 231.08 27.8602 230.778 27.1535C230.476 26.4468 230.036 25.8061 229.483 25.268C228.93 24.73 228.275 24.3052 227.556 24.0183C226.836 23.7313 226.067 23.5877 225.291 23.5958C224.515 23.6038 223.749 23.7634 223.035 24.0653C222.322 24.3671 221.676 24.8053 221.135 25.3548C220.593 25.9042 220.167 26.5539 219.881 27.2667C219.594 27.9795 219.453 28.7412 219.465 29.5082C219.465 29.6945 219.478 29.8793 219.497 30.0609C219.566 30.7135 219.747 31.3496 220.034 31.9414C220.516 32.9457 221.279 33.7924 222.233 34.3815C223.187 34.9706 224.291 35.2774 225.415 35.2657C226.54 35.254 227.637 34.9243 228.578 34.3155C229.519 33.7066 230.264 32.8442 230.725 31.8301L228.116 31.8569C227.654 32.3735 227.054 32.7501 226.385 32.9431C225.716 33.1362 225.006 33.1378 224.336 32.9477C223.666 32.7576 223.064 32.3837 222.601 31.8692C222.137 31.3548 221.83 30.7209 221.716 30.0412L231.222 29.9385ZM221.91 28.1496C222.173 27.4648 222.638 26.8742 223.246 26.4551C223.853 26.0359 224.575 25.8076 225.315 25.7999C226.056 25.7923 226.782 26.0056 227.399 26.412C228.015 26.8185 228.493 27.3993 228.77 28.0785L221.91 28.1496Z" fill="#162B3A"/>
<path d="M204.943 26.8691C204.943 28.8313 204.249 30.7319 202.98 32.2407C201.711 33.7495 199.948 34.7712 197.996 35.1284C196.045 35.4857 194.028 35.156 192.297 34.1965C190.566 33.237 189.229 31.7083 188.519 29.8759C187.809 28.0435 187.771 26.0231 188.41 24.1656C189.05 22.308 190.327 20.7306 192.021 19.7073C193.714 18.684 195.717 18.2794 197.68 18.5637C199.644 18.8481 201.445 19.8034 202.771 21.2638L201.187 22.8286C200.272 21.7817 199.029 21.0682 197.656 20.802C196.283 20.5358 194.859 20.7322 193.612 21.36C192.365 21.9878 191.367 23.0106 190.777 24.2652C190.188 25.5197 190.04 26.9335 190.358 28.2807C190.676 29.6279 191.442 30.8308 192.533 31.6971C193.624 32.5635 194.977 33.0434 196.376 33.0601C197.775 33.0768 199.14 32.6295 200.252 31.7894C201.363 30.9494 202.158 29.7652 202.51 28.426H197.013V26.1752H204.914C204.933 26.4025 204.943 26.6338 204.943 26.8691Z" fill="#162B3A"/>
</g>
<defs>
<clipPath id="clip0">
<rect width="56.9092" height="29.0193" fill="white" transform="translate(22 12)"/>
</clipPath>
<clipPath id="clip1">
<rect width="164.333" height="22.3077" fill="white" transform="translate(89.667 15.718)"/>
</clipPath>
</defs>
</svg>
