<svg width="226" height="43" viewBox="0 0 226 43" fill="none" xmlns="http://www.w3.org/2000/svg">
<rect y="0.0341797" width="226" height="42.9319" rx="20" fill="white"/>
<g clip-path="url(#clip0)">
<path d="M63.8559 21.3195C63.8226 21.0127 63.7701 20.7082 63.6987 20.4081L45.1914 20.3919C45.2741 19.6781 45.4584 18.9796 45.7384 18.3178C46.1205 17.404 46.6814 16.5759 47.3882 15.882C48.0842 15.2088 48.9067 14.6804 49.8083 14.3274C51.2574 13.7029 52.8647 13.5443 54.4079 13.8736C55.951 14.2028 57.3537 15.0037 58.4217 16.1652L61.3443 13.3053C60.3082 12.1883 59.0504 11.2997 57.6513 10.6966C56.1057 10.0466 54.4417 9.72576 52.7653 9.75456C51.1827 9.74496 49.6132 10.0434 48.1447 10.6334C46.739 11.1952 45.4576 12.0281 44.3735 13.0848C43.2932 14.151 42.4289 15.4158 41.8279 16.8096C41.3344 17.9463 41.0319 19.1567 40.9324 20.3919H40.8118C40.7122 19.1566 40.4092 17.9461 39.9149 16.8096C39.3145 15.4155 38.4503 14.1506 37.3696 13.0848C36.2857 12.0278 35.0042 11.1949 33.5983 10.6334C30.5381 9.43862 27.1366 9.46023 24.0917 10.6936C22.6929 11.2972 21.4351 12.1857 20.3988 13.3024L23.3219 16.1623C24.4196 15.0456 25.8212 14.2759 27.3525 13.9491C28.8839 13.6224 30.4775 13.753 31.9353 14.3244C32.8369 14.6772 33.6592 15.2057 34.3548 15.8791C35.062 16.5728 35.6231 17.4009 36.0052 18.3149C36.2853 18.9766 36.4696 19.6748 36.5522 20.3886L18.0449 20.4051C17.9735 20.7053 17.921 21.0095 17.8877 21.3163C17.8465 21.6707 17.8263 22.0273 17.8274 22.3842C17.8192 23.7734 18.0432 25.1544 18.49 26.4699C18.9291 27.7464 19.6361 28.9142 20.5638 29.8948C21.5787 30.9695 22.8107 31.816 24.1778 32.3783C25.7063 32.9875 27.341 33.2865 28.9863 33.2577C30.5685 33.2673 32.1375 32.9686 33.6056 32.3783C35.0118 31.8174 36.2934 30.9841 37.3768 29.9266C38.4579 28.8611 39.3224 27.5964 39.9223 26.202C40.2297 25.4997 40.4624 24.7668 40.6167 24.0159H41.1414C41.2957 24.7667 41.528 25.4995 41.8346 26.202C42.435 27.5961 43.2994 28.8607 44.3801 29.9266C45.4637 30.9838 46.7452 31.817 48.1513 32.3783C49.6198 32.9685 51.1892 33.2672 52.7719 33.2577C54.4168 33.2866 56.0509 32.9876 57.5791 32.3783C58.9464 31.8165 60.1784 30.9698 61.1931 29.8948C62.1211 28.9142 62.8286 27.7465 63.2682 26.4699C63.7148 25.1544 63.9387 23.7734 63.9306 22.3842C63.9264 22.028 63.9015 21.6727 63.8559 21.3195ZM36.0011 24.6973C35.6176 25.6142 35.0505 26.4429 34.3349 27.1326C33.6316 27.8039 32.8045 28.3323 31.8997 28.6884C29.9714 29.4102 27.849 29.4211 25.9131 28.7196C25.1323 28.4037 24.4139 27.9515 23.7917 27.3837C23.3486 26.975 22.9815 26.4908 22.7075 25.9538C22.391 25.3422 22.1535 24.6929 22.0009 24.0215H36.2511C36.1799 24.2511 36.0969 24.4769 36.0022 24.6979L36.0011 24.6973ZM59.0318 25.9538C58.7578 26.4908 58.3908 26.9749 57.9477 27.3837C57.3256 27.9515 56.6071 28.4038 55.8262 28.7196C53.8904 29.4211 51.768 29.4102 49.8396 28.6884C48.9347 28.3321 48.1076 27.8037 47.4038 27.1326C46.6883 26.443 46.1216 25.6142 45.7384 24.6973C45.6433 24.4758 45.5598 24.2494 45.4884 24.0191H52.6682H59.739C59.5865 24.6915 59.349 25.3418 59.0324 25.9544L59.0318 25.9538Z" fill="#2F8D46"/>
</g>
<g clip-path="url(#clip1)">
<path d="M115.647 28.581L111.304 24.2509V28.581H109.306V14.9993H111.304V23.0123L115.24 19.1394H117.768L113.248 23.6082L118.209 28.5849L115.647 28.581Z" fill="#162B3A"/>
<path d="M145.883 28.6016V19.16H147.881V20.7958C148.048 20.2973 148.377 19.8676 148.817 19.5744C149.244 19.2721 149.755 19.1089 150.28 19.1076C150.543 19.1026 150.805 19.1266 151.062 19.1792L150.609 21.0977C150.432 21.0491 150.248 21.0314 150.064 21.0452C149.768 21.0438 149.475 21.1085 149.208 21.2346C148.941 21.3606 148.705 21.5446 148.52 21.773C148.066 22.3475 147.84 23.0661 147.884 23.7938V28.5997L145.883 28.6016Z" fill="#162B3A"/>
<path d="M119.912 27.9309C119.28 27.5154 118.794 26.9158 118.521 26.2151L120.247 25.4663C120.432 25.8993 120.741 26.2689 121.137 26.5291C121.529 26.7758 121.985 26.903 122.449 26.895C122.869 26.9083 123.286 26.8217 123.665 26.6423C123.814 26.5786 123.94 26.4725 124.028 26.3376C124.116 26.2027 124.161 26.045 124.158 25.8845C124.162 25.7312 124.125 25.5795 124.05 25.4448C123.976 25.3101 123.867 25.1971 123.735 25.1171C123.331 24.8838 122.89 24.7188 122.431 24.6292L121.356 24.3676C120.691 24.2205 120.077 23.9019 119.576 23.4442C119.346 23.2306 119.164 22.971 119.042 22.6828C118.921 22.3945 118.863 22.084 118.872 21.7719C118.863 21.2738 119.028 20.788 119.339 20.3957C119.67 19.9863 120.104 19.6708 120.599 19.4812C121.148 19.2634 121.734 19.1548 122.326 19.1614C123.09 19.1454 123.846 19.3159 124.528 19.6577C125.14 19.9655 125.626 20.4732 125.902 21.0947L124.211 21.8262C124.041 21.4886 123.771 21.2097 123.438 21.0262C123.105 20.8427 122.723 20.7631 122.343 20.7979C121.962 20.7848 121.584 20.8753 121.251 21.0595C121.121 21.1219 121.012 21.2184 120.934 21.3383C120.856 21.4582 120.813 21.5969 120.81 21.7393C120.808 21.8668 120.838 21.993 120.896 22.1068C120.954 22.2205 121.04 22.3185 121.145 22.3922C121.444 22.5946 121.779 22.7394 122.132 22.8187L123.454 23.15C124.199 23.3009 124.89 23.6467 125.454 24.1515C125.674 24.3656 125.849 24.6221 125.965 24.9054C126.082 25.1886 126.139 25.4924 126.132 25.7982C126.141 26.3281 125.97 26.8458 125.648 27.269C125.302 27.7099 124.842 28.05 124.317 28.2532C123.724 28.491 123.09 28.6095 122.45 28.6018C121.555 28.6397 120.669 28.4056 119.912 27.9309V27.9309Z" fill="#162B3A"/>
<path d="M139.681 19.1694C138.737 19.1694 137.815 19.446 137.031 19.9642C136.246 20.4823 135.635 21.2189 135.274 22.0805C134.913 22.9422 134.819 23.8904 135.003 24.8051C135.187 25.7199 135.641 26.5601 136.308 27.2196C136.975 27.8791 137.825 28.3283 138.75 28.5102C139.675 28.6922 140.634 28.5988 141.506 28.2419C142.377 27.885 143.122 27.2805 143.646 26.505C144.171 25.7295 144.45 24.8178 144.45 23.8851C144.45 22.6345 143.948 21.435 143.053 20.5506C142.159 19.6663 140.946 19.1694 139.681 19.1694V19.1694ZM139.681 26.5442C139.14 26.5442 138.611 26.3856 138.161 26.0885C137.712 25.7914 137.361 25.3691 137.154 24.8751C136.947 24.381 136.893 23.8374 136.999 23.3129C137.104 22.7884 137.365 22.3066 137.747 21.9285C138.129 21.5503 138.617 21.2928 139.147 21.1885C139.678 21.0842 140.228 21.1377 140.727 21.3424C141.227 21.547 141.654 21.8936 141.955 22.3382C142.255 22.7829 142.415 23.3056 142.415 23.8404C142.415 24.5575 142.127 25.2452 141.614 25.7522C141.102 26.2593 140.406 26.5442 139.681 26.5442Z" fill="#162B3A"/>
<path d="M97.0411 24.2852C97.0521 24.1368 97.0586 23.9872 97.0567 23.8375C97.0535 23.4743 97.0075 23.1126 96.9195 22.76C96.6405 21.636 95.9533 20.6526 94.9886 19.9971C94.0239 19.3416 92.8491 19.0597 91.6878 19.2051C90.5265 19.3504 89.4598 19.9128 88.6907 20.7853C87.9216 21.6578 87.5038 22.7794 87.5169 23.9366C87.5169 24.0875 87.5279 24.2372 87.5428 24.3843C87.5987 24.9129 87.7459 25.4282 87.9781 25.9076C88.3686 26.7213 88.9867 27.4074 89.7592 27.8848C90.5318 28.3622 91.4264 28.6108 92.3373 28.6013C93.2482 28.5918 94.1373 28.3246 94.8995 27.8313C95.6617 27.3379 96.265 26.6391 96.6381 25.8174L94.525 25.8392C94.1512 26.2573 93.6653 26.5622 93.1235 26.7184C92.5816 26.8746 92.0061 26.8759 91.4636 26.7219C90.9211 26.568 90.4337 26.2652 90.0582 25.8486C89.6826 25.4321 89.4342 24.9188 89.3416 24.3683L97.0411 24.2852ZM89.4968 22.8361C89.7098 22.2814 90.087 21.803 90.5791 21.4635C91.0713 21.1239 91.6555 20.939 92.2556 20.9328C92.8557 20.9266 93.4437 21.0994 93.943 21.4286C94.4422 21.7579 94.8294 22.2283 95.0541 22.7785L89.4968 22.8361Z" fill="#162B3A"/>
<path d="M107.683 24.2856C107.694 24.1372 107.701 23.9875 107.7 23.8379C107.696 23.2166 107.568 22.602 107.324 22.0296C107.08 21.4571 106.723 20.9381 106.275 20.5023C105.827 20.0665 105.297 19.7224 104.714 19.49C104.131 19.2575 103.508 19.1412 102.879 19.1477C102.251 19.1543 101.63 19.2835 101.052 19.528C100.474 19.7725 99.9513 20.1275 99.5127 20.5726C99.0742 21.0176 98.7289 21.5439 98.4967 22.1213C98.2646 22.6987 98.15 23.3157 98.1598 23.937C98.1598 24.0879 98.1708 24.2376 98.1857 24.3847C98.2412 24.9133 98.3883 25.4286 98.6203 25.908C99.011 26.7217 99.6291 27.4077 100.402 27.885C101.174 28.3624 102.069 28.611 102.98 28.6015C103.891 28.592 104.78 28.3248 105.542 27.8315C106.304 27.3382 106.908 26.6395 107.281 25.8178L105.167 25.8396C104.794 26.2579 104.308 26.563 103.766 26.7194C103.224 26.8758 102.648 26.8771 102.106 26.7231C101.563 26.5692 101.076 26.2662 100.7 25.8495C100.324 25.4328 100.076 24.9193 99.9838 24.3687L107.683 24.2856ZM100.14 22.8365C100.353 22.2817 100.73 21.8034 101.222 21.4639C101.714 21.1243 102.298 20.9394 102.898 20.9332C103.499 20.927 104.087 21.0997 104.586 21.429C105.085 21.7583 105.472 22.2287 105.697 22.7789L100.14 22.8365Z" fill="#162B3A"/>
<path d="M131.893 17.2994C132.22 17.0369 132.638 16.911 133.058 16.9483C133.424 16.9362 133.788 16.9973 134.129 17.128V15.3681C133.648 15.2175 133.146 15.1447 132.642 15.1526C131.817 15.1217 131.013 15.4157 130.407 15.9699C130.108 16.267 129.876 16.6229 129.726 17.0145C129.576 17.4061 129.51 17.8245 129.534 18.2427V19.1489H127.645V20.9088H129.534V28.6058H131.534V20.9081H134.131V19.1482H131.534V18.4723C131.513 18.263 131.534 18.0517 131.595 17.8504C131.657 17.6492 131.758 17.4619 131.893 17.2994V17.2994Z" fill="#162B3A"/>
<path d="M86.3939 21.7998C86.3945 23.3895 85.8321 24.9292 84.8041 26.1515C83.7761 27.3739 82.3476 28.2016 80.7667 28.4911C79.1857 28.7806 77.5522 28.5134 76.1497 27.7361C74.7472 26.9588 73.6643 25.7204 73.0891 24.236C72.5139 22.7515 72.4828 21.1147 73.001 19.6099C73.5192 18.1051 74.5542 16.8272 75.9261 15.9982C77.298 15.1692 78.9202 14.8414 80.511 15.0718C82.1019 15.3022 83.5608 16.0762 84.6346 17.2594L83.352 18.5269C82.611 17.6789 81.6039 17.1009 80.4917 16.8853C79.3794 16.6696 78.2262 16.8288 77.2161 17.3373C76.2061 17.8458 75.3975 18.6744 74.9197 19.6906C74.4419 20.7068 74.3223 21.852 74.5801 22.9433C74.8379 24.0346 75.4582 25.009 76.3419 25.7107C77.2256 26.4125 78.3216 26.8013 79.455 26.8148C80.5884 26.8284 81.6936 26.466 82.5942 25.7855C83.4948 25.105 84.1387 24.1458 84.4231 23.061H79.9711V21.2377H86.3713C86.3864 21.4219 86.3939 21.6093 86.3939 21.7998Z" fill="#162B3A"/>
<path d="M195.263 28.581L190.921 24.2509V28.581H188.922V14.9993H190.921V23.0123L194.856 19.1394H197.384L192.864 23.6082L197.825 28.5849L195.263 28.581Z" fill="#162B3A"/>
<path d="M199.53 27.9309C198.897 27.5154 198.411 26.9158 198.138 26.2151L199.865 25.4663C200.049 25.8992 200.358 26.2689 200.754 26.5291C201.146 26.7759 201.603 26.9031 202.067 26.895C202.487 26.9084 202.904 26.8217 203.283 26.6423C203.432 26.5785 203.558 26.4724 203.646 26.3375C203.734 26.2026 203.779 26.045 203.777 25.8845C203.78 25.7312 203.743 25.5795 203.669 25.4448C203.595 25.3101 203.486 25.1971 203.354 25.1171C202.949 24.8838 202.509 24.7188 202.05 24.6292L200.975 24.3676C200.309 24.2204 199.696 23.9018 199.195 23.4442C198.965 23.2306 198.783 22.9712 198.661 22.6829C198.54 22.3946 198.481 22.0841 198.49 21.7719C198.482 21.2738 198.647 20.788 198.957 20.3957C199.288 19.9864 199.723 19.6709 200.217 19.4812C200.766 19.2635 201.353 19.1548 201.944 19.1614C202.708 19.1454 203.465 19.3159 204.146 19.6577C204.759 19.9655 205.244 20.4732 205.521 21.0947L203.83 21.8262C203.659 21.4886 203.39 21.2098 203.056 21.0263C202.723 20.8428 202.342 20.7632 201.962 20.7979C201.58 20.7849 201.202 20.8753 200.869 21.0595C200.74 21.122 200.63 21.2184 200.552 21.3383C200.475 21.4582 200.432 21.5969 200.429 21.7393C200.427 21.8668 200.456 21.9929 200.514 22.1067C200.573 22.2205 200.658 22.3185 200.764 22.3922C201.063 22.5946 201.397 22.7393 201.751 22.8187L203.072 23.15C203.817 23.301 204.508 23.6468 205.072 24.1515C205.293 24.3656 205.467 24.6221 205.584 24.9054C205.701 25.1886 205.757 25.4924 205.751 25.7982C205.759 26.3282 205.589 26.8458 205.266 27.269C204.921 27.7098 204.461 28.0498 203.936 28.2532C203.343 28.4911 202.708 28.6096 202.068 28.6018C201.172 28.6398 200.286 28.4057 199.53 27.9309V27.9309Z" fill="#162B3A"/>
<path d="M176.658 24.2856C176.669 24.1372 176.675 23.9875 176.674 23.8379C176.671 23.2166 176.543 22.602 176.299 22.0296C176.054 21.4572 175.698 20.9381 175.25 20.5023C174.802 20.0665 174.271 19.7224 173.689 19.49C173.106 19.2575 172.482 19.1412 171.854 19.1477C171.225 19.1543 170.605 19.2835 170.027 19.528C169.449 19.7725 168.926 20.1275 168.487 20.5726C168.049 21.0176 167.703 21.5439 167.471 22.1213C167.239 22.6987 167.125 23.3157 167.134 23.937C167.134 24.0879 167.145 24.2376 167.16 24.3847C167.216 24.9133 167.363 25.4286 167.596 25.908C167.986 26.7215 168.604 27.4074 169.377 27.8846C170.149 28.3618 171.044 28.6103 171.955 28.6008C172.866 28.5913 173.755 28.3242 174.517 27.8311C175.279 27.3379 175.882 26.6393 176.256 25.8178L174.142 25.8396C173.768 26.2579 173.282 26.563 172.74 26.7194C172.198 26.8758 171.623 26.8771 171.08 26.7231C170.538 26.5692 170.05 26.2662 169.675 25.8495C169.299 25.4328 169.051 24.9193 168.958 24.3687L176.658 24.2856ZM169.114 22.8365C169.328 22.282 169.705 21.8039 170.197 21.4646C170.689 21.1253 171.273 20.9405 171.873 20.9343C172.473 20.928 173.061 21.1007 173.56 21.4298C174.059 21.7588 174.447 22.229 174.672 22.7789L169.114 22.8365Z" fill="#162B3A"/>
<path d="M187.299 24.2856C187.31 24.1372 187.317 23.9875 187.315 23.8379C187.311 23.2166 187.184 22.602 186.939 22.0296C186.695 21.4572 186.339 20.9381 185.891 20.5023C185.443 20.0665 184.912 19.7224 184.329 19.49C183.746 19.2575 183.123 19.1412 182.494 19.1477C181.866 19.1543 181.245 19.2835 180.667 19.528C180.09 19.7725 179.567 20.1275 179.128 20.5726C178.689 21.0176 178.344 21.5439 178.112 22.1213C177.88 22.6987 177.765 23.3157 177.775 23.937C177.775 24.0879 177.786 24.2376 177.801 24.3847C177.857 24.9133 178.004 25.4286 178.236 25.908C178.627 26.7215 179.245 27.4074 180.018 27.8846C180.79 28.3618 181.685 28.6103 182.595 28.6008C183.506 28.5913 184.395 28.3242 185.157 27.8311C185.92 27.3379 186.523 26.6393 186.896 25.8178L184.783 25.8396C184.409 26.2579 183.923 26.563 183.381 26.7194C182.839 26.8758 182.263 26.8771 181.721 26.7231C181.178 26.5692 180.691 26.2662 180.315 25.8495C179.94 25.4328 179.691 24.9193 179.599 24.3687L187.299 24.2856ZM179.756 22.8365C179.969 22.2817 180.346 21.8034 180.838 21.4639C181.33 21.1243 181.914 20.9394 182.514 20.9332C183.114 20.927 183.703 21.0997 184.202 21.429C184.701 21.7583 185.088 22.2287 185.313 22.7789L179.756 22.8365Z" fill="#162B3A"/>
<path d="M166.011 21.7992C166.011 23.3887 165.449 24.9282 164.421 26.1504C163.393 27.3725 161.965 28.2002 160.384 28.4896C158.803 28.779 157.17 28.5119 155.768 27.7346C154.365 26.9574 153.282 25.7191 152.707 24.2348C152.132 22.7505 152.101 21.1139 152.619 19.6092C153.137 18.1046 154.172 16.8268 155.544 15.9979C156.915 15.169 158.538 14.8412 160.128 15.0716C161.719 15.3019 163.178 16.0757 164.252 17.2587L162.969 18.5262C162.228 17.6782 161.221 17.1002 160.109 16.8846C158.996 16.669 157.843 16.8281 156.833 17.3366C155.823 17.8452 155.014 18.6737 154.537 19.6899C154.059 20.7061 153.939 21.8513 154.197 22.9426C154.455 24.0339 155.075 25.0083 155.959 25.7101C156.842 26.4119 157.939 26.8006 159.072 26.8141C160.205 26.8277 161.311 26.4653 162.211 25.7848C163.112 25.1044 163.756 24.1451 164.04 23.0603H159.587V21.2371H165.988C166.003 21.4213 166.011 21.6086 166.011 21.7992Z" fill="#162B3A"/>
</g>
<defs>
<clipPath id="clip0">
<rect width="46.0985" height="23.5067" fill="white" transform="translate(17.8203 9.75464)"/>
</clipPath>
<clipPath id="clip1">
<rect width="133.116" height="18.07" fill="white" transform="translate(72.6338 12.7664)"/>
</clipPath>
</defs>
</svg>
