<svg width="63" height="60" viewBox="0 0 63 125" fill="none" xmlns="http://www.w3.org/2000/svg">
<path d="M60.5607 50.8825L31.4996 42.8867L2.43837 50.8825C2.42868 51.1442 2.42383 51.4059 2.42383 51.67V94.4961L30.7727 101.28L60.5753 94.4961C60.5753 94.4961 60.5704 51.1442 60.5607 50.8825Z" fill="white"/>
<path d="M46.0376 16.9616V31.4995L30.7729 37.0723L16.9619 31.4995V16.9616L30.5306 11.1465L46.0376 16.9616Z" fill="white"/>
<path d="M50.8839 7.26978V16.9617H12.1162V7.26978C12.1162 4.59239 14.2848 2.42383 16.9622 2.42383H46.0379C48.7153 2.42383 50.8839 4.59239 50.8839 7.26978Z" fill="white"/>
<path d="M60.5753 94.4961V116.787C60.5753 119.465 58.4067 121.633 55.7293 121.633H7.26978C4.59239 121.633 2.42383 119.465 2.42383 116.787V94.4961H60.5753Z" fill="white"/>
<path d="M46.0375 31.5C54.4695 34.3107 60.2362 42.0569 60.5609 50.8838H2.43848C2.76316 42.0569 8.52984 34.3107 16.9618 31.5H46.0375Z" fill="white"/>
<path d="M38.7689 65.4219C42.7911 65.4219 46.0379 68.6687 46.0379 72.6908C46.0379 76.7129 42.7911 79.9597 38.7689 79.9597H31.5V65.4219H38.7689Z" fill="#F29C3F"/>
<path d="M62.9826 50.7934C62.6434 41.5759 56.8827 33.3591 48.4607 29.8239V19.3838H50.8837C52.2217 19.3838 53.3067 18.2991 53.3067 16.9608V7.26893C53.3067 3.26084 50.0458 0 46.0377 0H16.962C12.9539 0 9.69307 3.26084 9.69307 7.26893V16.9608C9.69307 18.2991 10.7781 19.3838 12.116 19.3838H14.539V29.8242C6.117 33.3593 0.356612 41.5759 0.0171531 50.7929C0.0161839 50.8222 0.0164253 50.853 0.0154561 50.8823V50.8828C-0.0124081 51.7194 0.00721861 47.2607 0.000918866 116.788C0.000918866 120.796 3.26176 124.057 7.26985 124.057H55.7294C59.7375 124.057 62.9983 120.796 62.9983 116.788C62.9954 102.302 63.0109 51.5704 62.9826 50.7934ZM4.84711 53.3055H58.1526V92.0731H4.84711V53.3055ZM19.385 29.0757V19.3838H43.6148V29.0757H19.385ZM14.539 7.26893C14.539 5.9329 15.626 4.84595 16.962 4.84595H46.0377C47.3738 4.84595 48.4607 5.9329 48.4607 7.26893V14.5379H14.539V7.26893ZM17.3783 33.9217H45.6217C52.0436 36.2058 56.717 41.839 57.8723 48.4595H5.12746C6.28273 41.8392 10.9562 36.2058 17.3783 33.9217ZM55.7296 119.21H7.27009C5.93406 119.21 4.84711 118.124 4.84711 116.788V96.9191H58.1526V116.788C58.1526 118.124 57.0657 119.21 55.7296 119.21Z" fill="url(#paint0_linear)"/>
<path d="M38.7688 62.9961H24.231C18.8869 62.9961 14.5391 67.3439 14.5391 72.688C14.5391 78.0321 18.8869 82.3799 24.231 82.3799H38.7688C44.113 82.3799 48.4607 78.0321 48.4607 72.688C48.4607 67.3439 44.113 62.9961 38.7688 62.9961ZM19.385 72.688C19.385 70.0159 21.5589 67.842 24.231 67.842H29.0769V77.534H24.231C21.5589 77.534 19.385 75.3601 19.385 72.688ZM38.7688 77.534H33.9229V67.842H38.7688C41.4409 67.842 43.6148 70.0159 43.6148 72.688C43.6148 75.3601 41.4409 77.534 38.7688 77.534Z" fill="url(#paint1_linear)"/>
<defs>
<linearGradient id="paint0_linear" x1="2.37437" y1="1.49026e-06" x2="93.7441" y2="65.5194" gradientUnits="userSpaceOnUse">
<stop stop-color="#F6BF4A"/>
<stop offset="0.375" stop-color="#EC622D"/>
<stop offset="0.6875" stop-color="#DC395E"/>
<stop offset="1" stop-color="#C04D95"/>
</linearGradient>
<linearGradient id="paint1_linear" x1="15.8175" y1="62.9961" x2="26.3005" y2="88.9004" gradientUnits="userSpaceOnUse">
<stop stop-color="#F6BF4A"/>
<stop offset="0.375" stop-color="#EC622D"/>
<stop offset="0.6875" stop-color="#DC395E"/>
<stop offset="1" stop-color="#C04D95"/>
</linearGradient>
</defs>
</svg>
