<svg  class="hoverable" width="141" height="176" viewBox="0 0 141 176" fill="none" xmlns="http://www.w3.org/2000/svg">
            <path d="M9.20215 150.308H0L11.7097 106.598L19.0715 113.5L9.20215 150.308Z" fill="white"/>
            <path d="M32.2075 150.308H11.5027L21.372 113.5H51.279L48.8174 122.702H28.1126L23.1664 141.106H34.6691L35.9114 136.505H31.3103L36.0724 127.303H47.5751L41.4097 150.308L30.3671 157.21L32.2075 150.308Z" fill="white"/>
            <path d="M64.4151 150.308L71.8228 122.702H60.3201L52.9124 150.308H43.7102L53.5795 113.5H83.4865L73.6172 150.308H64.4151Z" fill="white"/>
            <path d="M85.1199 150.308H75.9178L87.6275 106.598L94.9892 113.5L85.1199 150.308Z" fill="white"/>
            <path d="M109.782 122.702L102.374 150.308L91.3314 157.21L100.58 122.702H93.6779L98.44 113.5H119.145L114.383 122.702H109.782Z" fill="white"/>
            <path d="M120.295 113.5H141L138.538 122.702H127.036L125.793 127.303H137.296L132.534 136.505H123.332L122.09 141.106H133.592L131.131 150.308H110.426L120.295 113.5Z" fill="white"/>
            <path d="M97.7039 161.591L98.9347 156.99H111.588L109.736 163.892L106.814 166.192L108.505 168.504L106.653 175.394H94L95.2308 170.793H103.283L103.904 168.493H99.3027L100.534 163.892H105.135L105.756 161.591H97.7039Z" fill="white"/>
            <path d="M113.635 170.793L112.404 175.394H107.803L109.034 170.793H113.635Z" fill="white"/>
            <path d="M113.555 175.394L118.489 156.99H131.142L126.208 175.394H113.555ZM121.86 161.591L119.386 170.793H122.837L125.31 161.591H121.86Z" fill="white"/>
            <path d="M41.8924 45.4547V81.0066L65.7154 98.8454" fill="white"/>
            <path d="M67.9485 62.8672L57.7655 74.99L67.9485 98.5761" fill="white"/>
            <path d="M83.3274 47.8563L70.5872 63.1364L70.1901 98.389" fill="white"/>
            <path d="M80.5222 66.3043L72.1834 98.7931L86.012 80.9543" fill="white"/>
            <path d="M97.7008 67.5333L74.4749 98.8454L97.7008 84.4299" fill="white"/>
            <path d="M105.58 53.055L100.174 65.1464V82.7968" fill="white"/>
            <path d="M106.66 61.7232L104.146 74.9897L109.021 70.1218" fill="white"/>
            <path d="M102.543 39.833L99.8401 62.3827L104.761 48.9408" fill="white"/>
            <path d="M94.4279 32.7973L90.8136 48.1235L96.0308 52.7717" fill="white"/>
            <path d="M89.3495 50.1991V73.3435L98.6202 59.3545" fill="white"/>
            <path d="M86.7354 47.3391L82.3668 63.1364L87.4582 77.6775" fill="white"/>
            <path d="M76.0724 30.3079L69.9752 59.5157L82.2832 45.4547" fill="white"/>
            <path d="M39.3367 53.055L34.4023 68.4755L39.3367 73.4691" fill="white"/>
            <path d="M45.3592 45.2124L53.9079 63.1768V35.7277" fill="white"/>
            <path d="M60.9832 35.7022L55.1571 66.3043L64.4278 48.1235" fill="white"/>
            <path d="M64.4278 54.1924L56.8249 70.896L65.7154 60.808" fill="white"/>
            <path d="M60.9779 18.5619L69.9665 46.3251L73.3294 30.3079" fill="white"/>
            <path d="M72.1577 0L62.1319 16.1428L68.8891 22.4869" fill="white"/>
            <path d="M75.3139 24.7573L89.834 40.8373L92.8512 32.7973" fill="white"/>
            </svg>