<svg width="141" height="176" viewBox="0 0 141 176" fill="none" xmlns="http://www.w3.org/2000/svg">
<path fill-rule="evenodd" clip-rule="evenodd" d="M76.2571 43.9998H74.9713L75.7513 46.485L76.2571 43.9998ZM65.5045 43.9998H69.2105L70.3637 48.2897L65.2345 58.6664H62.7978L65.5045 43.9998ZM53.0113 43.9998H60.1308V58.6664H57.9496L51.8154 45.3685L53.0113 43.9998ZM45.9572 58.6664H44.2734L45.9572 53.2382V58.6664ZM54.0898 58.6664H48.4432V45.6116L54.0898 58.6664ZM71.1725 58.6664H68.4722L70.3637 54.3795L71.1725 58.6664ZM76.6548 58.6664H75.9733L78.9412 43.9998H87.0913L87.732 45.6116L76.6548 58.6664ZM86.065 58.6664H80.1441L88.7476 48.0215L86.065 58.6664ZM92.3205 58.6664H89.07L92.0627 47.5025L92.3205 58.6664ZM102.747 58.6664H94.6054V50.3724L102.747 58.6664ZM106.205 58.6664H105.267L106.971 43.9998H108.39L109.597 49.1098L106.205 58.6664ZM109.437 58.6664H108.04L110.393 53.2382L109.437 58.6664ZM97.0103 43.9998H100.408L101.104 52.9539L96.0297 48.2897L97.0103 43.9998Z" fill="white"/>
<path fill-rule="evenodd" clip-rule="evenodd" d="M66.7757 88H57.1328L71.6141 99.1863L66.7757 88ZM88.178 88H97.6057L80.1347 99.1863L88.178 88ZM80.6758 88H86.2722L77.9056 99.1338L80.6758 88ZM69.2178 88H73.7863V98.9162L69.2178 88ZM76.0839 88H78.6704L75.9668 98.7284L76.0839 88Z" fill="white"/>
<path fill-rule="evenodd" clip-rule="evenodd" d="M17.7264 146.667H8.77441L12.5832 132H21.5385L17.7264 146.667ZM49.0547 146.667H19.9642L23.7762 132H32.7275L30.2283 141.593H41.4172L42.6256 136.976H38.15L40.6464 132H52.865L49.0547 146.667ZM60.2449 146.667H51.293L55.105 132H64.0599L60.2449 146.667ZM80.384 146.667H71.4338L75.2488 132H84.196L80.384 146.667ZM91.5729 146.667H82.6208L86.4296 132H95.3849L91.5729 146.667ZM108.357 146.667H99.4135L103.224 132H112.172L108.357 146.667ZM136.326 146.667H116.188L120 132H139.108L136.612 136.976H127.661L126.452 141.593H137.641L136.326 146.667Z" fill="white"/>
<path fill-rule="evenodd" clip-rule="evenodd" d="M74.0354 0L64.2832 16.1985L70.856 22.5645L74.0354 0ZM71.124 43.9998L63.1606 18.626L75.1751 30.4125L72.4098 43.9998H71.124ZM72.1259 58.6665L71.9125 59.7212L72.8074 58.6665H72.1259ZM75.0938 43.9998H83.244L77.8433 30.4125L75.0938 43.9998ZM93.163 43.9998L95.698 32.9105L96.5606 43.9998H93.163ZM101.419 58.6665L100.963 62.598L102.358 58.6665H101.419ZM103.124 43.9998H104.543L103.592 39.9705L103.124 43.9998ZM44.5959 81.2862L44.5959 58.6665H50.2425L62.9303 87.9999H53.2876L67.7686 99.186L67.7689 99.1866L44.5959 81.2862ZM3.84766 150.827H12.7987L13.88 146.667H4.92906L8.73783 132H17.6921L22.3988 113.891L15.2379 106.966L3.84766 150.827ZM15.0365 150.827H35.1764L33.3862 157.752L44.1275 150.827L45.2083 146.667H16.1188L19.9309 132H28.8812L31.1932 123.125H51.3331L53.7276 113.891H24.6365L15.0365 150.827ZM26.383 141.593L26.383 141.593H37.5718L38.7802 136.976H38.7792L37.5709 141.593H26.383ZM34.3048 136.976L36.801 132H49.0186L50.1248 127.742H38.9359L34.3037 136.976H34.3048ZM73.7109 123.125H62.522L60.2135 132H51.2597L47.4476 146.667H56.3985L55.3164 150.827H46.3653L55.9653 113.891H85.0564L80.3497 132H71.4034L67.5884 146.667H76.5376L75.4563 150.827H66.5052L73.7109 123.125ZM77.6941 150.827H86.6452L87.7265 146.667H78.7755L82.5843 132H91.5385L96.2452 113.891L89.0843 106.966L77.6941 150.827ZM103.428 150.827L92.6872 157.752L101.683 123.125H94.9697L99.6019 113.891H119.742L115.11 123.125H110.634L108.326 132H99.3784L95.5682 146.667H104.511L103.428 150.827ZM141.001 113.891H120.861L111.261 150.827H131.401L132.479 146.667H112.343L116.155 132H135.262L137.398 127.742H126.209L127.417 123.125H138.606L141.001 113.891ZM122.607 141.593L122.607 141.593H133.795L133.795 141.593H122.607ZM98.8829 162.149L100.08 157.532H112.388L110.586 164.458L107.745 166.766L109.389 169.086L107.588 176H95.2801L96.4773 171.383H104.31L104.914 169.075H100.438L101.635 164.458H106.111L106.715 162.149H98.8829ZM113.182 176L114.38 171.383H109.904L108.707 176H113.182ZM119.101 157.532H131.409L126.609 176H114.301L119.101 157.532ZM119.974 171.383H123.331L125.736 162.149H122.38L119.974 171.383ZM69.941 63.0842L60.0359 75.2489L69.941 98.9164V98.916L65.3725 87.9999H69.941V63.0842ZM82.2177 58.6665H76.2967L72.5077 63.3544L72.2386 87.9999H74.8252L82.2177 58.6665ZM82.1717 66.5331L76.8306 87.9999H82.427L74.0604 99.1337V99.1341L87.5117 81.2337L82.1717 66.5331ZM76.2894 99.1866L76.2899 99.1859L93.7605 87.9999H84.333L98.8816 67.7664V84.7213L76.2894 99.1866ZM104.193 58.6665L101.287 65.3713V83.0826L105.589 58.6665H104.193ZM105.151 75.2486L107.596 61.9362L109.893 70.3638L105.151 75.2486ZM90.7581 58.6665V73.5966L99.7759 59.5594L98.8994 58.6665H90.7581ZM88.4732 58.6665L88.9185 77.9457L83.9659 63.3544L85.2226 58.6665H88.4732ZM42.1099 58.6665V73.7227L37.3102 68.7119L40.4261 58.6665H42.1099ZM54.1023 58.6665L56.2835 63.3948V58.6665H54.1023ZM56.2835 35.851L49.1639 43.9998H56.2835V35.851ZM61.6572 43.9998L63.1657 35.8254L65.3632 43.9998H61.6572ZM57.4986 66.5331L58.9504 58.6665H61.3871L57.4986 66.5331ZM64.6249 58.6665L59.1209 71.1407L67.7689 61.0179L67.3252 58.6665H64.6249ZM91.2294 40.9782L77.1055 24.8427L94.1643 32.9105L91.2294 40.9782Z" fill="white"/>
<path fill-rule="evenodd" clip-rule="evenodd" d="M72.4095 43.9998H71.1237L71.9037 46.485L72.4095 43.9998ZM61.6569 43.9998H65.3629L66.5161 48.2897L61.3868 58.6664H58.9501L61.6569 43.9998ZM49.1636 43.9998H56.2832V58.6664H54.102L47.9678 45.3684L49.1636 43.9998ZM42.1095 58.6664H40.4258L42.1095 53.2382V58.6664ZM50.2422 58.6664H44.5956V45.6116L50.2422 58.6664ZM67.3249 58.6664H64.6246L66.5161 54.3795L67.3249 58.6664ZM72.8071 58.6664H72.1256L75.0935 43.9998H83.2437L83.8844 45.6116L72.8071 58.6664ZM82.2174 58.6664H76.2964L84.9 48.0215L82.2174 58.6664ZM88.4729 58.6664H85.2223L88.215 47.5025L88.4729 58.6664ZM98.8991 58.6664H90.7578V50.3724L98.8991 58.6664ZM102.358 58.6664H101.419L103.123 43.9998H104.543L105.749 49.1097L102.358 58.6664ZM105.589 58.6664H104.193L106.545 53.2382L105.589 58.6664ZM93.1627 43.9998H96.5603L97.2568 52.9538L92.182 48.2897L93.1627 43.9998Z" fill="white"/>
<path fill-rule="evenodd" clip-rule="evenodd" d="M62.93 88H53.2871L67.7684 99.1863L62.93 88ZM84.3323 88H93.76L76.289 99.1863L84.3323 88ZM76.8301 88H82.4265L74.0599 99.1338L76.8301 88ZM65.3721 88H69.9406V98.9162L65.3721 88ZM72.2382 88H74.8247L72.1211 98.7284L72.2382 88Z" fill="white"/>
<path fill-rule="evenodd" clip-rule="evenodd" d="M13.8807 146.667H4.92871L8.73748 132H17.6928L13.8807 146.667ZM45.209 146.667H16.1185L19.9305 132H28.8818L26.3826 141.593H37.5715L38.7799 136.976H34.3043L36.8007 132H49.0193L45.209 146.667ZM56.3992 146.667H47.4473L51.2593 132H60.2142L56.3992 146.667ZM76.5383 146.667H67.5881L71.4031 132H80.3503L76.5383 146.667ZM87.7272 146.667H78.7751L82.5839 132H91.5392L87.7272 146.667ZM104.511 146.667H95.5678L99.3781 132H108.326L104.511 146.667ZM132.48 146.667H112.343L116.155 132H135.263L132.766 136.976H123.815L122.607 141.593H133.796L132.48 146.667Z" fill="white"/>
<path fill-rule="evenodd" clip-rule="evenodd" d="M70.1877 0L60.4355 16.1985L67.0083 22.5645L70.1877 0ZM67.2764 43.9998L59.3129 18.626L71.3275 30.4125L68.5621 43.9998H67.2764ZM68.2783 58.6665L68.0648 59.7212L68.9598 58.6665H68.2783ZM71.2462 43.9998H79.3963L73.9957 30.4125L71.2462 43.9998ZM89.3154 43.9998L91.8504 32.9105L92.713 43.9998H89.3154ZM97.5717 58.6665L97.1149 62.598L98.5102 58.6665H97.5717ZM99.2759 43.9998H100.695L99.7441 39.9705L99.2759 43.9998ZM40.7482 81.2862L40.7482 58.6665H46.3949L59.0826 87.9999H49.4409L63.9205 99.1849L63.9212 99.1866L40.7482 81.2862ZM0 150.827H8.95108L10.0324 146.667H1.08043L0 150.827ZM13.8445 132L18.5511 113.891L11.3903 106.966L4.8892 132H13.8445ZM11.1889 150.827H31.3288L29.5386 157.752L40.2799 150.827L41.3607 146.667H12.2702L11.1889 150.827ZM16.0823 132L20.7889 113.891H49.8799L47.4855 123.125H27.3456L25.0336 132H16.0823ZM22.5344 141.593V141.593H33.7232V141.593H22.5344ZM32.9524 132H45.171L46.2771 127.742H35.0882L32.9524 132ZM69.8632 123.125H58.6744L56.3659 132H47.411L52.1177 113.891H81.2087L76.5021 132H67.5548L69.8632 123.125ZM63.7398 146.667L62.6576 150.827H71.6087L72.69 146.667H63.7398ZM43.599 146.667L42.5176 150.827H51.4687L52.5509 146.667H43.599ZM73.8464 150.827H82.7975L83.8789 146.667H74.9269L73.8464 150.827ZM87.6909 132L92.3976 113.891L85.2367 106.966L78.7356 132H87.6909ZM99.5808 150.827L88.8395 157.752L91.7195 146.667H100.663L99.5808 150.827ZM104.478 132L106.786 123.125H111.262L115.894 113.891H95.7542L91.122 123.125H97.8353L95.5298 132H104.478ZM137.153 113.891H117.013L112.306 132H131.414L133.55 127.742H122.361L123.57 123.125H134.759L137.153 113.891ZM118.758 141.593V141.593H129.947V141.593H118.758ZM128.632 146.667H108.494L107.413 150.827H127.553L128.632 146.667ZM95.0353 162.149L96.2325 157.532H108.54L106.739 164.458L103.897 166.766L105.542 169.086L103.74 176H91.4325L92.6297 171.383H100.462L101.066 169.075H96.5905L97.7877 164.458H102.263L102.867 162.149H95.0353ZM109.335 176L110.532 171.383H106.056L104.859 176H109.335ZM115.254 157.532H127.561L122.761 176H110.454L115.254 157.532ZM116.126 171.383H119.483L121.889 162.149H118.532L116.126 171.383ZM66.0934 63.0842L56.1883 75.2489L66.0934 98.9164V98.9137L61.5258 87.9999H66.0934V63.0842ZM78.37 58.6665H72.449L68.6601 63.3544L68.2739 98.7286L68.2749 98.7246L68.392 87.9999H70.9776L78.37 58.6665ZM78.324 66.5331L70.2127 99.1341L70.2141 99.1323L72.9839 87.9999H78.5796L83.6641 81.2337L78.324 66.5331ZM72.4418 99.1866L95.0339 67.7664V84.7213L89.9134 87.9999H80.4861L72.4431 99.1857L72.4418 99.1866ZM100.345 58.6665L97.4397 65.3713V83.0826L101.742 58.6665H100.345ZM101.303 75.2486L103.748 61.9362L106.045 70.3638L101.303 75.2486ZM86.9105 58.6665V73.5966L95.9282 59.5594L95.0517 58.6665H86.9105ZM84.6255 58.6665L85.0708 77.9457L80.1183 63.3544L81.375 58.6665H84.6255ZM38.2622 58.6665V73.7227L33.4625 68.7119L36.5784 58.6665H38.2622ZM50.2547 58.6665L52.4358 63.3948V58.6665H50.2547ZM52.4358 35.851L45.3163 43.9998H52.4358V35.851ZM57.8095 43.9998L59.3181 35.8254L61.5155 43.9998H57.8095ZM53.651 66.5331L55.1028 58.6665H57.5395L53.651 66.5331ZM60.7772 58.6665L55.2733 71.1407L63.9212 61.0179L63.4776 58.6665H60.7772ZM87.3818 40.9782L73.2578 24.8427L90.3166 32.9105L87.3818 40.9782Z" fill="white"/>
<path fill-rule="evenodd" clip-rule="evenodd" d="M76.2571 43.9998H74.9713L75.7513 46.485L76.2571 43.9998ZM65.5045 43.9998H69.2105L70.3637 48.2897L65.2345 58.6664H62.7978L65.5045 43.9998ZM53.0113 43.9998H60.1308V58.6664H57.9496L51.8154 45.3685L53.0113 43.9998ZM45.9572 58.6664H44.2734L45.9572 53.2382V58.6664ZM54.0898 58.6664H48.4432V45.6116L54.0898 58.6664ZM71.1725 58.6664H68.4722L70.3637 54.3795L71.1725 58.6664ZM76.6548 58.6664H75.9733L78.9412 43.9998H87.0913L87.732 45.6116L76.6548 58.6664ZM86.065 58.6664H80.1441L88.7476 48.0215L86.065 58.6664ZM92.3205 58.6664H89.07L92.0627 47.5025L92.3205 58.6664ZM102.747 58.6664H94.6054V50.3724L102.747 58.6664ZM106.205 58.6664H105.267L106.971 43.9998H108.39L109.597 49.1098L106.205 58.6664ZM109.437 58.6664H108.04L110.393 53.2382L109.437 58.6664ZM97.0103 43.9998H100.408L101.104 52.9539L96.0297 48.2897L97.0103 43.9998Z" fill="#B34FFF" style="mix-blend-mode:multiply"/>
<path fill-rule="evenodd" clip-rule="evenodd" d="M66.7757 88H57.1328L71.6141 99.1863L66.7757 88ZM88.178 88H97.6057L80.1347 99.1863L88.178 88ZM80.6758 88H86.2722L77.9056 99.1338L80.6758 88ZM69.2178 88H73.7863V98.9162L69.2178 88ZM76.0839 88H78.6704L75.9668 98.7284L76.0839 88Z" fill="#B34FFF" style="mix-blend-mode:multiply"/>
<path fill-rule="evenodd" clip-rule="evenodd" d="M17.7264 146.667H8.77441L12.5832 132H21.5385L17.7264 146.667ZM49.0547 146.667H19.9642L23.7762 132H32.7275L30.2283 141.593H41.4172L42.6256 136.976H38.15L40.6464 132H52.865L49.0547 146.667ZM60.2449 146.667H51.293L55.105 132H64.0599L60.2449 146.667ZM80.384 146.667H71.4338L75.2488 132H84.196L80.384 146.667ZM91.5729 146.667H82.6208L86.4296 132H95.3849L91.5729 146.667ZM108.357 146.667H99.4135L103.224 132H112.172L108.357 146.667ZM136.326 146.667H116.188L120 132H139.108L136.612 136.976H127.661L126.452 141.593H137.641L136.326 146.667Z" fill="#B34FFF" style="mix-blend-mode:multiply"/>
<path fill-rule="evenodd" clip-rule="evenodd" d="M74.0354 0L64.2832 16.1985L70.856 22.5645L74.0354 0ZM71.124 43.9998L63.1606 18.626L75.1751 30.4125L72.4098 43.9998H71.124ZM72.1259 58.6665L71.9125 59.7212L72.8074 58.6665H72.1259ZM75.0938 43.9998H83.244L77.8433 30.4125L75.0938 43.9998ZM93.163 43.9998L95.698 32.9105L96.5606 43.9998H93.163ZM101.419 58.6665L100.963 62.598L102.358 58.6665H101.419ZM103.124 43.9998H104.543L103.592 39.9705L103.124 43.9998ZM44.5959 81.2862L44.5959 58.6665H50.2425L62.9303 87.9999H53.2876L67.7686 99.186L67.7689 99.1866L44.5959 81.2862ZM3.84766 150.827H12.7987L13.88 146.667H4.92906L8.73783 132H17.6921L22.3988 113.891L15.2379 106.966L3.84766 150.827ZM15.0365 150.827H35.1764L33.3862 157.752L44.1275 150.827L45.2083 146.667H16.1188L19.9309 132H28.8812L31.1932 123.125H51.3331L53.7276 113.891H24.6365L15.0365 150.827ZM26.383 141.593L26.383 141.593H37.5718L38.7802 136.976H38.7792L37.5709 141.593H26.383ZM34.3048 136.976L36.801 132H49.0186L50.1248 127.742H38.9359L34.3037 136.976H34.3048ZM73.7109 123.125H62.522L60.2135 132H51.2597L47.4476 146.667H56.3985L55.3164 150.827H46.3653L55.9653 113.891H85.0564L80.3497 132H71.4034L67.5884 146.667H76.5376L75.4563 150.827H66.5052L73.7109 123.125ZM77.6941 150.827H86.6452L87.7265 146.667H78.7755L82.5843 132H91.5385L96.2452 113.891L89.0843 106.966L77.6941 150.827ZM103.428 150.827L92.6872 157.752L101.683 123.125H94.9697L99.6019 113.891H119.742L115.11 123.125H110.634L108.326 132H99.3784L95.5682 146.667H104.511L103.428 150.827ZM141.001 113.891H120.861L111.261 150.827H131.401L132.479 146.667H112.343L116.155 132H135.262L137.398 127.742H126.209L127.417 123.125H138.606L141.001 113.891ZM122.607 141.593L122.607 141.593H133.795L133.795 141.593H122.607ZM98.8829 162.149L100.08 157.532H112.388L110.586 164.458L107.745 166.766L109.389 169.086L107.588 176H95.2801L96.4773 171.383H104.31L104.914 169.075H100.438L101.635 164.458H106.111L106.715 162.149H98.8829ZM113.182 176L114.38 171.383H109.904L108.707 176H113.182ZM119.101 157.532H131.409L126.609 176H114.301L119.101 157.532ZM119.974 171.383H123.331L125.736 162.149H122.38L119.974 171.383ZM69.941 63.0842L60.0359 75.2489L69.941 98.9164V98.916L65.3725 87.9999H69.941V63.0842ZM82.2177 58.6665H76.2967L72.5077 63.3544L72.2386 87.9999H74.8252L82.2177 58.6665ZM82.1717 66.5331L76.8306 87.9999H82.427L74.0604 99.1337V99.1341L87.5117 81.2337L82.1717 66.5331ZM76.2894 99.1866L76.2899 99.1859L93.7605 87.9999H84.333L98.8816 67.7664V84.7213L76.2894 99.1866ZM104.193 58.6665L101.287 65.3713V83.0826L105.589 58.6665H104.193ZM105.151 75.2486L107.596 61.9362L109.893 70.3638L105.151 75.2486ZM90.7581 58.6665V73.5966L99.7759 59.5594L98.8994 58.6665H90.7581ZM88.4732 58.6665L88.9185 77.9457L83.9659 63.3544L85.2226 58.6665H88.4732ZM42.1099 58.6665V73.7227L37.3102 68.7119L40.4261 58.6665H42.1099ZM54.1023 58.6665L56.2835 63.3948V58.6665H54.1023ZM56.2835 35.851L49.1639 43.9998H56.2835V35.851ZM61.6572 43.9998L63.1657 35.8254L65.3632 43.9998H61.6572ZM57.4986 66.5331L58.9504 58.6665H61.3871L57.4986 66.5331ZM64.6249 58.6665L59.1209 71.1407L67.7689 61.0179L67.3252 58.6665H64.6249ZM91.2294 40.9782L77.1055 24.8427L94.1643 32.9105L91.2294 40.9782Z" fill="#B34FFF" style="mix-blend-mode:multiply"/>
<path fill-rule="evenodd" clip-rule="evenodd" d="M72.4095 43.9998H71.1237L71.9037 46.485L72.4095 43.9998ZM61.6569 43.9998H65.3629L66.5161 48.2897L61.3868 58.6664H58.9501L61.6569 43.9998ZM49.1636 43.9998H56.2832V58.6664H54.102L47.9678 45.3684L49.1636 43.9998ZM42.1095 58.6664H40.4258L42.1095 53.2382V58.6664ZM50.2422 58.6664H44.5956V45.6116L50.2422 58.6664ZM67.3249 58.6664H64.6246L66.5161 54.3795L67.3249 58.6664ZM72.8071 58.6664H72.1256L75.0935 43.9998H83.2437L83.8844 45.6116L72.8071 58.6664ZM82.2174 58.6664H76.2964L84.9 48.0215L82.2174 58.6664ZM88.4729 58.6664H85.2223L88.215 47.5025L88.4729 58.6664ZM98.8991 58.6664H90.7578V50.3724L98.8991 58.6664ZM102.358 58.6664H101.419L103.123 43.9998H104.543L105.749 49.1097L102.358 58.6664ZM105.589 58.6664H104.193L106.545 53.2382L105.589 58.6664ZM93.1627 43.9998H96.5603L97.2568 52.9538L92.182 48.2897L93.1627 43.9998Z" fill="#4DE6FF" style="mix-blend-mode:multiply"/>
<path fill-rule="evenodd" clip-rule="evenodd" d="M62.93 88H53.2871L67.7684 99.1863L62.93 88ZM84.3323 88H93.76L76.289 99.1863L84.3323 88ZM76.8301 88H82.4265L74.0599 99.1338L76.8301 88ZM65.3721 88H69.9406V98.9162L65.3721 88ZM72.2382 88H74.8247L72.1211 98.7284L72.2382 88Z" fill="#4DE6FF" style="mix-blend-mode:multiply"/>
<path fill-rule="evenodd" clip-rule="evenodd" d="M13.8807 146.667H4.92871L8.73748 132H17.6928L13.8807 146.667ZM45.209 146.667H16.1185L19.9305 132H28.8818L26.3826 141.593H37.5715L38.7799 136.976H34.3043L36.8007 132H49.0193L45.209 146.667ZM56.3992 146.667H47.4473L51.2593 132H60.2142L56.3992 146.667ZM76.5383 146.667H67.5881L71.4031 132H80.3503L76.5383 146.667ZM87.7272 146.667H78.7751L82.5839 132H91.5392L87.7272 146.667ZM104.511 146.667H95.5678L99.3781 132H108.326L104.511 146.667ZM132.48 146.667H112.343L116.155 132H135.263L132.766 136.976H123.815L122.607 141.593H133.796L132.48 146.667Z" fill="#4DE6FF" style="mix-blend-mode:multiply"/>
<path fill-rule="evenodd" clip-rule="evenodd" d="M70.1877 0L60.4355 16.1985L67.0083 22.5645L70.1877 0ZM67.2764 43.9998L59.3129 18.626L71.3275 30.4125L68.5621 43.9998H67.2764ZM68.2783 58.6665L68.0648 59.7212L68.9598 58.6665H68.2783ZM71.2462 43.9998H79.3963L73.9957 30.4125L71.2462 43.9998ZM89.3154 43.9998L91.8504 32.9105L92.713 43.9998H89.3154ZM97.5717 58.6665L97.1149 62.598L98.5102 58.6665H97.5717ZM99.2759 43.9998H100.695L99.7441 39.9705L99.2759 43.9998ZM40.7482 81.2862L40.7482 58.6665H46.3949L59.0826 87.9999H49.4409L63.9205 99.1849L63.9212 99.1866L40.7482 81.2862ZM0 150.827H8.95108L10.0324 146.667H1.08043L0 150.827ZM13.8445 132L18.5511 113.891L11.3903 106.966L4.8892 132H13.8445ZM11.1889 150.827H31.3288L29.5386 157.752L40.2799 150.827L41.3607 146.667H12.2702L11.1889 150.827ZM16.0823 132L20.7889 113.891H49.8799L47.4855 123.125H27.3456L25.0336 132H16.0823ZM22.5344 141.593V141.593H33.7232V141.593H22.5344ZM32.9524 132H45.171L46.2771 127.742H35.0882L32.9524 132ZM69.8632 123.125H58.6744L56.3659 132H47.411L52.1177 113.891H81.2087L76.5021 132H67.5548L69.8632 123.125ZM63.7398 146.667L62.6576 150.827H71.6087L72.69 146.667H63.7398ZM43.599 146.667L42.5176 150.827H51.4687L52.5509 146.667H43.599ZM73.8464 150.827H82.7975L83.8789 146.667H74.9269L73.8464 150.827ZM87.6909 132L92.3976 113.891L85.2367 106.966L78.7356 132H87.6909ZM99.5808 150.827L88.8395 157.752L91.7195 146.667H100.663L99.5808 150.827ZM104.478 132L106.786 123.125H111.262L115.894 113.891H95.7542L91.122 123.125H97.8353L95.5298 132H104.478ZM137.153 113.891H117.013L112.306 132H131.414L133.55 127.742H122.361L123.57 123.125H134.759L137.153 113.891ZM118.758 141.593V141.593H129.947V141.593H118.758ZM128.632 146.667H108.494L107.413 150.827H127.553L128.632 146.667ZM95.0353 162.149L96.2325 157.532H108.54L106.739 164.458L103.897 166.766L105.542 169.086L103.74 176H91.4325L92.6297 171.383H100.462L101.066 169.075H96.5905L97.7877 164.458H102.263L102.867 162.149H95.0353ZM109.335 176L110.532 171.383H106.056L104.859 176H109.335ZM115.254 157.532H127.561L122.761 176H110.454L115.254 157.532ZM116.126 171.383H119.483L121.889 162.149H118.532L116.126 171.383ZM66.0934 63.0842L56.1883 75.2489L66.0934 98.9164V98.9137L61.5258 87.9999H66.0934V63.0842ZM78.37 58.6665H72.449L68.6601 63.3544L68.2739 98.7286L68.2749 98.7246L68.392 87.9999H70.9776L78.37 58.6665ZM78.324 66.5331L70.2127 99.1341L70.2141 99.1323L72.9839 87.9999H78.5796L83.6641 81.2337L78.324 66.5331ZM72.4418 99.1866L95.0339 67.7664V84.7213L89.9134 87.9999H80.4861L72.4431 99.1857L72.4418 99.1866ZM100.345 58.6665L97.4397 65.3713V83.0826L101.742 58.6665H100.345ZM101.303 75.2486L103.748 61.9362L106.045 70.3638L101.303 75.2486ZM86.9105 58.6665V73.5966L95.9282 59.5594L95.0517 58.6665H86.9105ZM84.6255 58.6665L85.0708 77.9457L80.1183 63.3544L81.375 58.6665H84.6255ZM38.2622 58.6665V73.7227L33.4625 68.7119L36.5784 58.6665H38.2622ZM50.2547 58.6665L52.4358 63.3948V58.6665H50.2547ZM52.4358 35.851L45.3163 43.9998H52.4358V35.851ZM57.8095 43.9998L59.3181 35.8254L61.5155 43.9998H57.8095ZM53.651 66.5331L55.1028 58.6665H57.5395L53.651 66.5331ZM60.7772 58.6665L55.2733 71.1407L63.9212 61.0179L63.4776 58.6665H60.7772ZM87.3818 40.9782L73.2578 24.8427L90.3166 32.9105L87.3818 40.9782Z" fill="#4DE6FF" style="mix-blend-mode:multiply"/>
</svg>
