<svg width="93" height="93" viewBox="0 0 93 93" fill="none" xmlns="http://www.w3.org/2000/svg">
<path d="M85.2469 56.9705V62.3315C85.2469 63.2212 85.2082 64.1187 85.1307 65.0084C84.0433 77.2499 75.54 85.2491 63.2706 85.2491H29.7235C23.5111 85.2491 18.2693 83.2325 14.5031 79.5768C13.0276 78.221 11.7851 76.6283 10.8145 74.8025C12.0958 73.2443 13.5324 71.5389 14.9302 69.8297C17.2986 66.9935 19.5895 64.1927 21.0261 62.3707C23.1616 59.7287 28.7916 52.7746 36.596 56.0381C38.1879 56.6985 39.5859 57.6308 40.8669 58.4469C44.0119 60.5448 45.3321 61.1663 47.5455 59.962C49.9914 58.641 51.5836 56.0381 53.253 53.3187C54.1462 51.8776 55.039 50.4826 56.0097 49.2007C60.2419 43.6843 66.7651 42.2079 72.201 45.471C74.9189 47.1028 77.2485 49.162 79.4228 51.2556C79.889 51.7222 80.3547 52.1531 80.7818 52.5805C81.3642 53.1633 83.3055 55.1058 85.2469 56.9705Z" fill="white"/>
<path opacity="0.4" d="M63.3125 7.75H29.7264C16.5639 7.75 7.75 16.9573 7.75 30.6672V62.3333C7.75 67.1076 8.83717 71.3461 10.8174 74.8038C12.0987 73.246 13.5353 71.5406 14.9331 69.8271C17.3016 66.9953 19.5924 64.194 21.029 62.372C23.1646 59.7304 28.7946 52.7763 36.5989 56.0395C38.1909 56.7002 39.5886 57.6325 40.87 58.4482C44.015 60.5461 45.3352 61.1677 47.5482 59.9594C49.9945 58.6427 51.5863 56.0395 53.2561 53.3161C54.1489 51.8789 55.042 50.4843 56.0127 49.202C60.245 43.6856 66.7682 42.2092 72.204 45.4727C74.922 47.1041 77.2516 49.1633 79.4259 51.2573C79.8916 51.7235 80.3578 52.1548 80.7848 52.5822C81.3672 53.1607 83.3086 55.1033 85.25 56.9722V30.6672C85.25 16.9573 76.4363 7.75 63.3125 7.75Z" fill="white"/>
<path d="M44.3849 34.0862C44.3849 39.5444 39.838 44.0898 34.3829 44.0898C28.9315 44.0898 24.3848 39.5444 24.3848 34.0862C24.3848 28.6318 28.9315 24.0825 34.3829 24.0825C39.838 24.0825 44.3849 28.6318 44.3849 34.0862Z" fill="white"/>
</svg>
