<svg id="ebs6jbwvlq31" xmlns="http://www.w3.org/2000/svg" xmlns:xlink="http://www.w3.org/1999/xlink" viewBox="0 0 85 85" shape-rendering="geometricPrecision" text-rendering="geometricPrecision"><style><![CDATA[#ebs6jbwvlq34_to {animation: ebs6jbwvlq34_to__to 3000ms linear infinite normal forwards}@keyframes ebs6jbwvlq34_to__to { 0% {transform: translate(24.692611px,51.643100px)} 3.333333% {transform: translate(24.692611px,51.643100px);animation-timing-function: cubic-bezier(0.420000,0,0.580000,1)} 66.666667% {transform: translate(63.049051px,16.226350px)} 100% {transform: translate(63.049051px,16.226350px)} }#ebs6jbwvlq34 {animation: ebs6jbwvlq34_c_o 3000ms linear infinite normal forwards}@keyframes ebs6jbwvlq34_c_o { 0% {opacity: 0} 33.333333% {opacity: 1} 66.333333% {opacity: 0} 100% {opacity: 0} }]]></style><path id="ebs6jbwvlq32" d="M77.914400,52.069900L77.914400,56.969800C77.914400,57.782900,77.879000,58.603200,77.808200,59.416300C76.814400,70.604800,69.042600,77.915900,57.828600,77.915900L27.167200,77.915900C21.489200,77.915900,16.698400,76.072800,13.256100,72.731600C11.907600,71.492400,10.772000,70.036700,9.884770,68.367900C11.055900,66.943800,12.368900,65.385100,13.646400,63.822900C15.811200,61.230700,17.904900,58.670800,19.218000,57.005500C21.169800,54.590800,26.315500,48.234900,33.448500,51.217700C34.903500,51.821200,36.181200,52.673400,37.352100,53.419200C40.226500,55.336700,41.433200,55.904800,43.456200,54.804000C45.691700,53.596700,47.146900,51.217700,48.672700,48.732200C49.489000,47.415000,50.305000,46.140000,51.192200,44.968500C55.060400,39.926500,61.022500,38.577200,65.990700,41.559600C68.474800,43.051000,70.604100,44.933000,72.591300,46.846600C73.017400,47.273000,73.443100,47.666900,73.833400,48.057500C74.365700,48.590200,76.140100,50.365600,77.914400,52.069900Z" fill="rgb(255,255,255)" stroke="none" stroke-width="1"/><path id="ebs6jbwvlq33" d="M57.865900,7.083250L27.169000,7.083250C15.138700,7.083250,7.083010,15.498500,7.083010,28.029100L7.083010,56.971200C7.083010,61.334900,8.076660,65.208700,9.886520,68.369000C11.057600,66.945200,12.370700,65.386500,13.648200,63.820400C15.813000,61.232200,17.906700,58.671900,19.219800,57.006600C21.171600,54.592200,26.317300,48.236400,33.450300,51.218800C34.905300,51.822700,36.182800,52.674800,37.354000,53.420300C40.228400,55.337800,41.435100,55.905800,43.457700,54.801500C45.693600,53.598100,47.148500,51.218800,48.674600,48.729700C49.490600,47.416100,50.306900,46.141500,51.194100,44.969500C55.062300,39.927600,61.024400,38.578200,65.992600,41.561000C68.476700,43.052100,70.606000,44.934100,72.593200,46.848000C73.018900,47.274100,73.445000,47.668300,73.835300,48.058900C74.367600,48.587700,76.142000,50.363100,77.916300,52.071300L77.916300,28.029100C77.916300,15.498500,69.860800,7.083250,57.865900,7.083250Z" opacity="0.4000000059604645" fill="rgb(255,255,255)" stroke="none" stroke-width="1"/><g id="ebs6jbwvlq34_to" transform="translate(24.692611,51.643100)"><path id="ebs6jbwvlq34" d="M40.567200,31.154200C40.567200,36.142800,36.411400,40.297200,31.425500,40.297200C26.443100,40.297200,22.287500,36.142800,22.287500,31.154200C22.287500,26.168900,26.443100,22.011000,31.425500,22.011000C36.411400,22.011000,40.567200,26.168900,40.567200,31.154200Z" transform="translate(-31.427350,-31.154100)" opacity="0" fill="rgb(255,255,255)" stroke="none" stroke-width="1"/></g></svg>