<svg width="117" height="116" viewBox="0 0 117 116" fill="none" xmlns="http://www.w3.org/2000/svg">
<path d="M100.109 34.1919C99.0544 23.9114 89.7139 15.8594 79.0664 15.8594C78.9094 15.8594 78.7641 15.9017 78.6078 15.9054C74.4534 7.81731 65.9967 2.26562 56.2148 2.26562C46.433 2.26562 37.9763 7.81731 33.8219 15.9054C33.6661 15.9008 33.5203 15.8594 33.3633 15.8594C24.5289 15.8594 16.6816 22.9598 16.6816 31.7188C16.6816 32.5645 16.8041 33.3779 16.9328 34.1876C9.07001 35.1881 2.28516 41.7759 2.28516 49.8438C2.28516 58.6027 10.1324 65.7031 18.9668 65.7031H98.0332C106.868 65.7031 114.715 58.6027 114.715 49.8438C114.715 41.7899 107.952 35.2103 100.109 34.1919Z" fill="#F9F9F9"/>
<path d="M19.6523 100.141C23.4385 100.141 26.5078 97.0976 26.5078 93.3438C26.5078 89.5899 23.4385 86.5469 19.6523 86.5469C15.8662 86.5469 12.7969 89.5899 12.7969 93.3438C12.7969 97.0976 15.8662 100.141 19.6523 100.141Z" fill="#F9F9F9"/>
<path d="M97.3477 100.141C101.134 100.141 104.203 97.0976 104.203 93.3438C104.203 89.5899 101.134 86.5469 97.3477 86.5469C93.5615 86.5469 90.4922 89.5899 90.4922 93.3438C90.4922 97.0976 93.5615 100.141 97.3477 100.141Z" fill="#F9F9F9"/>
<path d="M58.5 113.734C62.2862 113.734 65.3555 110.691 65.3555 106.938C65.3555 103.184 62.2862 100.141 58.5 100.141C54.7138 100.141 51.6445 103.184 51.6445 106.938C51.6445 110.691 54.7138 113.734 58.5 113.734Z" fill="#F9F9F9"/>
<path d="M18.9668 67.9688H42.5039V88.8125C42.5039 90.0618 41.4788 91.0781 40.2188 91.0781H28.5037C27.4863 87.1738 23.9036 84.2812 19.6523 84.2812C14.6122 84.2812 10.5117 88.3467 10.5117 93.3438C10.5117 98.3408 14.6122 102.406 19.6523 102.406C23.9036 102.406 27.4863 99.5137 28.5037 95.6094H40.2188C43.9989 95.6094 47.0742 92.5603 47.0742 88.8125V67.9688H56.2148V98.1618C52.2768 99.1705 49.3594 102.723 49.3594 106.938C49.3594 111.935 53.4599 116 58.5 116C63.5401 116 67.6406 111.935 67.6406 106.938C67.6406 102.723 64.7232 99.1705 60.7852 98.1618V67.9688H69.9258V88.8125C69.9258 92.5603 73.0011 95.6094 76.7812 95.6094H88.4963C89.5137 99.5137 93.0964 102.406 97.3477 102.406C102.388 102.406 106.488 98.3408 106.488 93.3438C106.488 88.3467 102.388 84.2812 97.3477 84.2812C93.0964 84.2812 89.5137 87.1738 88.4963 91.0781H76.7812C75.5212 91.0781 74.4961 90.0618 74.4961 88.8125V67.9688H98.0332C108.314 67.9688 117 59.6684 117 49.8438C117 41.3615 110.459 34.1174 102.137 32.2512C100.223 21.9369 90.8761 14.0176 79.9512 13.6103C75.0512 5.17899 66.0844 0 56.2148 0C46.3434 0 37.3758 5.18035 32.476 13.6144C22.5879 14.0752 14.3965 22.1782 14.3965 31.7188C14.3965 31.9349 14.4029 32.1479 14.4143 32.3579C6.17289 34.4099 0 41.7097 0 49.8438C0 59.6684 8.68588 67.9688 18.9668 67.9688ZM19.6523 97.875C17.1323 97.875 15.082 95.8423 15.082 93.3438C15.082 90.8452 17.1323 88.8125 19.6523 88.8125C22.1724 88.8125 24.2227 90.8452 24.2227 93.3438C24.2227 95.8423 22.1724 97.875 19.6523 97.875ZM63.0703 106.938C63.0703 109.436 61.0201 111.469 58.5 111.469C55.9799 111.469 53.9297 109.436 53.9297 106.938C53.9297 104.439 55.9799 102.406 58.5 102.406C61.0201 102.406 63.0703 104.439 63.0703 106.938ZM97.3477 88.8125C99.8677 88.8125 101.918 90.8452 101.918 93.3438C101.918 95.8423 99.8677 97.875 97.3477 97.875C94.8276 97.875 92.7773 95.8423 92.7773 93.3438C92.7773 90.8452 94.8276 88.8125 97.3477 88.8125ZM17.2235 36.4349C18.4993 36.2724 19.3905 35.097 19.1901 33.8353C19.0637 33.0385 18.9668 32.3767 18.9668 31.7188C18.9668 24.3759 25.5133 18.1683 33.2815 18.1252C34.552 18.3099 35.4348 17.758 35.8582 16.9335C39.7875 9.28362 47.5877 4.53125 56.2148 4.53125C64.842 4.53125 72.6421 9.28362 76.5715 16.9335C77.0013 17.7702 77.8873 18.3103 79.151 18.1252C88.7022 18.1669 96.9009 25.3097 97.836 34.4212C97.9432 35.4668 98.7615 36.3019 99.8124 36.4383C106.887 37.3572 112.43 43.2456 112.43 49.8438C112.43 57.2122 105.837 63.4375 98.0332 63.4375H18.9668C11.1632 63.4375 4.57031 57.2122 4.57031 49.8438C4.57031 43.2274 10.1283 37.3375 17.2235 36.4349Z" fill="url(#paint0_linear)"/>
<defs>
<linearGradient id="paint0_linear" x1="4.40954" y1="1.39348e-06" x2="89.2534" y2="120.836" gradientUnits="userSpaceOnUse">
<stop stop-color="#F6BF4A"/>
<stop offset="0.375" stop-color="#EC622D"/>
<stop offset="0.6875" stop-color="#DC395E"/>
<stop offset="1" stop-color="#C04D95"/>
</linearGradient>
</defs>
</svg>
