<svg width="250" height="61" viewBox="0 0 250 61" fill="none" xmlns="http://www.w3.org/2000/svg">
<g clip-path="url(#clip0)">
<path fill-rule="evenodd" clip-rule="evenodd" d="M162.568 43.3733C165.211 43.3733 167.436 42.5003 169.194 40.7898C170.952 38.9951 171.837 36.808 171.837 34.1572C171.837 31.5083 170.952 29.3192 169.194 27.5919C167.436 25.8159 165.211 24.9429 162.568 24.9429C159.939 24.9429 157.715 25.8141 155.959 27.5919C154.201 29.3192 153.332 31.5083 153.332 34.1572C153.332 36.8062 154.201 38.9951 155.957 40.7898C157.715 42.5003 159.939 43.3733 162.568 43.3733ZM171.837 19.761H178.161V48.5571H171.837V44.409C169.427 47.7028 166.031 49.3143 161.58 49.3143C157.548 49.3143 154.135 47.8655 151.273 44.9361C148.411 41.9918 147.006 38.3558 147.006 34.1572C147.006 29.895 148.411 26.3263 151.275 23.3801C154.135 20.4508 157.548 19.002 161.58 19.002C166.031 19.002 169.427 20.6153 171.837 23.84V19.761ZM202.673 25.7487H195.412V39.5729C195.412 43.2593 197.872 43.1919 202.673 42.962V48.5571C193.002 49.7087 189.088 47.1083 189.088 39.5729V25.7487H183.7V19.7591H189.088L189.076 11.6945H195.412V19.7591H202.673V25.7487ZM208.462 48.5571H214.788V19.7591H208.464V48.5571H208.462ZM208.747 14.2967C207.158 12.6834 207.158 10.2477 208.747 8.69978C209.118 8.3176 209.563 8.01331 210.056 7.80538C210.549 7.59745 211.08 7.49023 211.616 7.49023C212.154 7.49023 212.684 7.59745 213.178 7.80538C213.671 8.01331 214.116 8.3176 214.486 8.69978C216.058 10.2477 216.058 12.6816 214.419 14.2967C212.849 15.8428 210.387 15.8428 208.747 14.2967ZM224.876 44.9361C221.949 41.99 220.477 38.4194 220.477 34.1572C220.477 29.8315 221.949 26.2758 224.878 23.3801C227.874 20.4508 231.553 19.002 235.938 19.002C241.626 19.002 246.664 21.8995 249.004 26.4422L243.568 29.551C242.212 26.7843 239.403 25.1243 235.888 25.1243C233.311 25.1243 231.152 25.9786 229.378 27.7078C227.689 29.4351 226.803 31.5755 226.803 34.1572C226.803 36.7407 227.689 38.8811 229.378 40.6084C231.152 42.3376 233.311 43.1919 235.888 43.1919C239.352 43.1919 242.261 41.4815 243.667 38.7652L249.121 41.8105C246.613 46.4167 241.628 49.3143 235.938 49.3143C231.553 49.3143 227.874 47.8655 224.878 44.9361" fill="white"/>
<path fill-rule="evenodd" clip-rule="evenodd" d="M30.7109 25.3134L39.201 43.8204L51.8373 36.6606L51.8468 36.6569V22.3262L30.7109 25.3134Z" fill="#2BBDF7"/>
<path fill-rule="evenodd" clip-rule="evenodd" d="M68.166 11.5805L60.2789 8.66045L51.8496 7.99121V52.5257L64.4953 59.6893L74.4766 39.612L68.1813 20.1983L68.166 11.5805Z" fill="#2891F9"/>
<path fill-rule="evenodd" clip-rule="evenodd" d="M67.4249 7.99512L64.496 15.1568H64.4922V59.6857L77.1399 52.5241V7.99512H67.4249Z" fill="#2BBDF7"/>
<path fill-rule="evenodd" clip-rule="evenodd" d="M64.4953 0.828125L51.8477 7.99538L64.4953 15.1607L77.143 7.99538L64.4953 0.828125Z" fill="#2B6DEF"/>
<path fill-rule="evenodd" clip-rule="evenodd" d="M39.2069 29.4835V29.4798L26.561 15.5716L1.26758 7.98926V52.5183L13.9114 59.6836L17.5251 35.0413L26.561 36.6545V36.6471L39.2087 43.8106V29.4835H39.2069Z" fill="#2891F9"/>
<path fill-rule="evenodd" clip-rule="evenodd" d="M134.592 11.6963L122.178 31.8539L109.814 11.6963H102.551V48.557H109.294V23.2136L120.459 41.427H123.89L135.062 23.2772V48.555H141.863V11.6963H134.592Z" fill="white"/>
<path fill-rule="evenodd" clip-rule="evenodd" d="M13.9152 0.826172L1.26367 7.99155L39.1992 29.4934L44.9315 26.2462L51.8449 22.3261L13.9152 0.826172Z" fill="#2B6DEF"/>
<path fill-rule="evenodd" clip-rule="evenodd" d="M13.916 29.4854H13.9141V59.6835L26.5617 52.5201V36.6508L13.916 29.4854Z" fill="#2BBDF7"/>
</g>
<defs>
<clipPath id="clip0">
<rect width="249.15" height="59.4" fill="white" transform="translate(0.849609 0.650391)"/>
</clipPath>
</defs>
</svg>
