<svg width="89" height="89" viewBox="0 0 89 89" fill="none" xmlns="http://www.w3.org/2000/svg">
<path opacity="0.4" d="M40.1648 7.67099C18.7726 10.2355 5.36369 29.5463 7.68542 48.9135C8.42696 55.0992 10.9947 61.2527 14.8586 66.6906C15.5625 67.5773 15.7818 68.7835 15.5136 69.9735L14.0354 78.5168C13.7215 80.5713 15.5917 81.8411 17.3989 81.0268L24.5717 77.926C26.5173 77.0205 28.2021 77.6776 30.2204 78.5934C35.9757 81.1155 42.8674 81.9327 48.9058 81.2088C67.1684 79.0195 84.035 62.6929 81.3116 39.9751C78.9634 20.387 61.0784 5.16387 40.1648 7.67099Z" fill="white"/>
<path fill-rule="evenodd" clip-rule="evenodd" d="M44.4274 49.2839C41.7945 49.2468 39.6807 47.133 39.6807 44.5001C39.6807 41.9043 41.8316 39.7534 44.4274 39.7905C47.0603 39.7905 49.1741 41.9043 49.1741 44.5372C49.1741 47.133 47.0603 49.2839 44.4274 49.2839ZM27.3307 49.2839C24.7348 49.2839 22.584 47.133 22.584 44.5372C22.584 41.9043 24.6977 39.7905 27.3307 39.7905C29.9636 39.7905 32.0773 41.9043 32.0773 44.5372C32.0773 47.133 29.9636 49.2468 27.3307 49.2839ZM56.7754 44.5372C56.7754 47.133 58.8892 49.2839 61.5221 49.2839C64.155 49.2839 66.2687 47.133 66.2687 44.5372C66.2687 41.9043 64.155 39.7905 61.5221 39.7905C58.8892 39.7905 56.7754 41.9043 56.7754 44.5372Z" fill="white"/>
</svg>
