<svg id="ea759sq5aj8a1" xmlns="http://www.w3.org/2000/svg" xmlns:xlink="http://www.w3.org/1999/xlink" viewBox="0 0 137 137" shape-rendering="geometricPrecision" text-rendering="geometricPrecision"><style><![CDATA[#ea759sq5aj8a2_tr {animation: ea759sq5aj8a2_tr__tr 3000ms linear infinite normal forwards}@keyframes ea759sq5aj8a2_tr__tr { 0% {transform: translate(68.500149px,49.139900px) rotate(0deg)} 13.333333% {transform: translate(68.500149px,49.139900px) rotate(0deg);animation-timing-function: cubic-bezier(1,0,0,1)} 33.333333% {transform: translate(68.500149px,49.139900px) rotate(-11.585292deg)} 100% {transform: translate(68.500149px,49.139900px) rotate(-11.585292deg)} }#ea759sq5aj8a2_ts {animation: ea759sq5aj8a2_ts__ts 3000ms linear infinite normal forwards}@keyframes ea759sq5aj8a2_ts__ts { 0% {transform: scale(0,0)} 13.333333% {transform: scale(0,0)} 23.333333% {transform: scale(1,1)} 100% {transform: scale(1,1)} }#ea759sq5aj8a3_ts {animation: ea759sq5aj8a3_ts__ts 3000ms linear infinite normal forwards}@keyframes ea759sq5aj8a3_ts__ts { 0% {transform: translate(68.500251px,113.513312px) scale(0,0);animation-timing-function: cubic-bezier(1,0,0,1)} 16.666667% {transform: translate(68.500251px,113.513312px) scale(1,1)} 100% {transform: translate(68.500251px,113.513312px) scale(1,1)} }]]></style><g id="ea759sq5aj8a2_tr" transform="translate(68.500149,49.139900) rotate(0)"><g id="ea759sq5aj8a2_ts" transform="scale(0,0)"><path id="ea759sq5aj8a2" d="M67.502000,86.863800L69.498300,86.863800C80.480400,86.863800,89.798000,79.830200,93.077100,70.077000C93.552700,68.657200,92.463300,67.193700,90.953700,67.193700L84.804600,67.193700C82.847100,67.193700,81.265600,65.631800,81.265600,63.704100C81.265600,61.771000,82.847100,60.203700,84.804600,60.203700L90.765700,60.203700C92.739800,60.203700,94.337900,58.625500,94.337900,56.676000C94.337900,54.726400,92.739800,53.148200,90.765700,53.148200L84.804600,53.148200C82.847100,53.148200,81.265600,51.580900,81.265600,49.653200C81.265600,47.720100,82.847100,46.152800,84.804600,46.152800L90.765700,46.152800C92.739800,46.152800,94.337900,44.574600,94.337900,42.625100C94.337900,40.675500,92.739800,39.097300,90.765700,39.097300L84.804600,39.097300C82.847100,39.097300,81.265600,37.530000,81.265600,35.596900C81.265600,33.669200,82.847100,32.101900,84.804600,32.101900L91.268900,32.101900C92.750900,32.101900,93.812600,30.703900,93.414400,29.289500C90.478100,18.973900,80.884000,11.416000,69.498300,11.416000L67.502000,11.416000C53.782700,11.416000,42.662400,22.392400,42.662400,35.946400L42.662400,62.333500C42.662400,75.881900,53.782700,86.863800,67.502000,86.863800Z" transform="translate(-68.500149,-49.139900)" fill="rgb(255,255,255)" stroke="none" stroke-width="1"/></g></g><g id="ea759sq5aj8a3_ts" transform="translate(68.500251,113.513312) scale(0,0)"><path id="ea759sq5aj8a3" d="M111.491000,56.089800C108.439000,56.089800,105.962000,58.530900,105.962000,61.550700C105.962000,81.947200,89.156700,98.542900,68.503100,98.542900C47.843900,98.542900,31.039000,81.947200,31.039000,61.550700C31.039000,58.530900,28.561700,56.089800,25.509200,56.089800C22.456800,56.089800,19.979500,58.530900,19.979500,61.550700C19.979500,86.124800,38.813800,106.412000,62.973300,109.137000L62.973300,120.124000C62.973300,123.139000,65.445100,125.585000,68.503100,125.585000C71.555500,125.585000,74.032800,123.139000,74.032800,120.124000L74.032800,109.137000C98.186800,106.412000,117.021000,86.124800,117.021000,61.550700C117.021000,58.530900,114.544000,56.089800,111.491000,56.089800Z" transform="translate(-68.500250,-113.513313)" fill="rgb(255,255,255)" fill-opacity="0.6000000238418579" stroke="none" stroke-width="1"/></g></svg>