<svg width="138" height="138" viewBox="0 0 138 138" fill="none" xmlns="http://www.w3.org/2000/svg">
<g clip-path="url(#clip0)">
<path d="M72.0042 31.7571C71.2072 32.5542 70.1262 33.0019 68.999 33.0019C67.8719 33.0019 66.7908 32.5542 65.9938 31.7571C65.1968 30.9601 64.749 29.8791 64.749 28.7519V17.252C64.749 16.1248 65.1968 15.0438 65.9938 14.2467C66.7908 13.4497 67.8719 13.002 68.999 13.002C70.1262 13.002 71.2072 13.4497 72.0042 14.2467C72.8013 15.0438 73.249 16.1248 73.249 17.252V28.7519C73.249 29.8791 72.8013 30.9601 72.0042 31.7571Z" fill="white" stroke="url(#paint0_linear)" stroke-width="3"/>
<path d="M109.25 64.752H120.75C121.877 64.752 122.958 65.1997 123.755 65.9967C124.552 66.7938 125 67.8748 125 69.0019C125 70.1291 124.552 71.2101 123.755 72.0071C122.958 72.8042 121.877 73.2519 120.75 73.2519H109.25C108.123 73.2519 107.042 72.8042 106.245 72.0071C105.448 71.2101 105 70.1291 105 69.0019C105 67.8748 105.448 66.7938 106.245 65.9968C107.042 65.1997 108.123 64.752 109.25 64.752Z" fill="white" stroke="url(#paint1_linear)" stroke-width="3"/>
<path d="M17.249 64.752H28.749C29.8762 64.752 30.9572 65.1997 31.7542 65.9967C32.5513 66.7938 32.999 67.8748 32.999 69.0019C32.999 70.1291 32.5513 71.2101 31.7542 72.0071C30.9572 72.8042 29.8762 73.2519 28.749 73.2519H17.249C16.1219 73.2519 15.0408 72.8042 14.2438 72.0071L13.1832 73.0678L14.2438 72.0071C13.4468 71.2101 12.999 70.1291 12.999 69.0019C12.999 67.8748 13.4468 66.7938 14.2438 65.9967C15.0408 65.1997 16.1219 64.752 17.249 64.752Z" fill="white" stroke="url(#paint2_linear)" stroke-width="3"/>
<path d="M42.9926 37.9815L43.0105 37.9991L43.0289 38.0161C43.8553 38.7782 44.3461 39.8366 44.3939 40.9597C44.4415 42.0776 44.0462 43.169 43.2944 43.9971C42.9015 44.4063 42.4307 44.7327 41.9096 44.957C41.3838 45.1834 40.8176 45.3012 40.2451 45.3034L40.2214 45.3035L40.1978 45.3044C39.6272 45.3246 39.0585 45.2296 38.5254 45.0251C37.9924 44.8207 37.506 44.5109 37.0953 44.1144L37.0951 44.1142L28.8151 36.1217L28.8095 36.1163L28.8039 36.111C27.9721 35.3245 27.4868 34.2397 27.4548 33.0954C27.4228 31.951 27.8467 30.8408 28.6332 30.009C29.4198 29.1772 30.5045 28.6919 31.6489 28.6599C32.7884 28.628 33.894 29.0482 34.7247 29.8283L42.9926 37.9815Z" fill="white" stroke="url(#paint3_linear)" stroke-width="3"/>
<path d="M109.284 30.1031L109.285 30.1042C109.684 30.4993 110 30.9694 110.216 31.4873C110.431 32.0052 110.543 32.5607 110.543 33.1217C110.543 33.6828 110.431 34.2383 110.216 34.7562C110.001 35.2712 109.687 35.7389 109.292 36.1326L101.021 44.1168C101.021 44.1168 101.021 44.1169 101.021 44.117C100.234 44.8749 99.1861 45.3009 98.094 45.3067C97.5236 45.3038 96.9595 45.186 96.4355 44.9603L95.8784 46.2543L96.4355 44.9603C95.9097 44.7339 95.435 44.4036 95.04 43.9893L95.0292 43.9779L95.0181 43.9667C94.2265 43.1705 93.7822 42.0933 93.7822 40.9705C93.7822 39.8541 94.2214 38.7829 95.0045 37.988L103.268 30.126L103.28 30.1147L103.292 30.1031C104.088 29.3115 105.165 28.8672 106.288 28.8672C107.411 28.8672 108.488 29.3115 109.284 30.1031Z" fill="white" stroke="url(#paint4_linear)" stroke-width="3"/>
<mask id="path-6-inside-1" fill="white">
<path fill-rule="evenodd" clip-rule="evenodd" d="M52.1906 45.6748C57.0857 42.1466 62.9669 40.248 69.001 40.248C75.0351 40.248 80.9163 42.1466 85.8114 45.6748C90.7065 49.203 94.3675 54.182 96.2756 59.9065C98.1838 65.631 98.2424 71.8107 96.4432 77.5704C94.6441 83.33 91.0783 88.3776 86.251 91.9981V114.998C86.251 118.048 85.0394 120.973 82.8827 123.13C80.726 125.286 77.801 126.498 74.751 126.498H63.251C60.201 126.498 57.2759 125.286 55.1193 123.13C52.9626 120.973 51.751 118.048 51.751 114.998V91.9981C46.9237 88.3776 43.3579 83.33 41.5587 77.5704C39.7595 71.8107 39.8182 65.631 41.7263 59.9065C43.6345 54.182 47.2954 49.203 52.1906 45.6748ZM85.1 69.0001C85.1 77.8937 77.892 85.1001 69 85.1001C60.108 85.1001 52.9 77.8937 52.9 69.0001C52.9 60.1097 60.108 52.9001 69 52.9001C77.892 52.9001 85.1 60.1097 85.1 69.0001ZM74.7534 75.1414C74.5425 75.1414 74.33 75.0867 74.1352 74.9724L67.8143 71.2017C67.4504 70.9828 67.2266 70.5883 67.2266 70.1633V62.0376C67.2266 61.3711 67.7676 60.8301 68.4341 60.8301C69.1007 60.8301 69.6416 61.3711 69.6416 62.0376V69.4774L75.3733 72.8955C75.9448 73.2384 76.1332 73.979 75.7919 74.5522C75.5648 74.9305 75.164 75.1414 74.7534 75.1414Z"/>
</mask>
<path fill-rule="evenodd" clip-rule="evenodd" d="M52.1906 45.6748C57.0857 42.1466 62.9669 40.248 69.001 40.248C75.0351 40.248 80.9163 42.1466 85.8114 45.6748C90.7065 49.203 94.3675 54.182 96.2756 59.9065C98.1838 65.631 98.2424 71.8107 96.4432 77.5704C94.6441 83.33 91.0783 88.3776 86.251 91.9981V114.998C86.251 118.048 85.0394 120.973 82.8827 123.13C80.726 125.286 77.801 126.498 74.751 126.498H63.251C60.201 126.498 57.2759 125.286 55.1193 123.13C52.9626 120.973 51.751 118.048 51.751 114.998V91.9981C46.9237 88.3776 43.3579 83.33 41.5587 77.5704C39.7595 71.8107 39.8182 65.631 41.7263 59.9065C43.6345 54.182 47.2954 49.203 52.1906 45.6748ZM85.1 69.0001C85.1 77.8937 77.892 85.1001 69 85.1001C60.108 85.1001 52.9 77.8937 52.9 69.0001C52.9 60.1097 60.108 52.9001 69 52.9001C77.892 52.9001 85.1 60.1097 85.1 69.0001ZM74.7534 75.1414C74.5425 75.1414 74.33 75.0867 74.1352 74.9724L67.8143 71.2017C67.4504 70.9828 67.2266 70.5883 67.2266 70.1633V62.0376C67.2266 61.3711 67.7676 60.8301 68.4341 60.8301C69.1007 60.8301 69.6416 61.3711 69.6416 62.0376V69.4774L75.3733 72.8955C75.9448 73.2384 76.1332 73.979 75.7919 74.5522C75.5648 74.9305 75.164 75.1414 74.7534 75.1414Z" fill="white"/>
<path d="M52.1906 45.6748L50.4364 43.2411V43.2411L52.1906 45.6748ZM85.8114 45.6748L87.5655 43.2411L85.8114 45.6748ZM96.2756 59.9065L93.4296 60.8552L96.2756 59.9065ZM96.4432 77.5704L99.3068 78.4649L96.4432 77.5704ZM86.251 91.9981L84.451 89.5981L83.251 90.4981V91.9981H86.251ZM55.1193 123.13L52.9979 125.251H52.9979L55.1193 123.13ZM51.751 91.9981H54.751V90.4981L53.551 89.5981L51.751 91.9981ZM41.5587 77.5704L38.6952 78.4649L38.6952 78.4649L41.5587 77.5704ZM41.7263 59.9065L44.5724 60.8552L41.7263 59.9065ZM74.1352 74.9724L72.5982 77.5488L72.6075 77.5543L72.6169 77.5598L74.1352 74.9724ZM67.8143 71.2017L66.2674 73.7722L66.2774 73.7782L67.8143 71.2017ZM69.6416 69.4774H66.6416V71.1813L68.1051 72.0541L69.6416 69.4774ZM75.3733 72.8955L76.9167 70.323L76.9098 70.3188L75.3733 72.8955ZM75.7919 74.5522L78.3643 76.0957L78.3694 76.0871L75.7919 74.5522ZM69.001 37.248C62.3372 37.248 55.8424 39.3447 50.4364 43.2411L53.9447 48.1086C58.329 44.9485 63.5965 43.248 69.001 43.248V37.248ZM87.5655 43.2411C82.1596 39.3447 75.6647 37.248 69.001 37.248V43.248C74.4055 43.248 79.6729 44.9485 84.0573 48.1086L87.5655 43.2411ZM99.1217 58.9578C97.0144 52.636 92.9715 47.1375 87.5655 43.2411L84.0573 48.1086C88.4416 51.2686 91.7205 55.7281 93.4296 60.8552L99.1217 58.9578ZM99.3068 78.4649C101.294 72.1042 101.229 65.2796 99.1217 58.9578L93.4296 60.8552C95.1386 65.9823 95.1911 71.5172 93.5797 76.6759L99.3068 78.4649ZM88.051 94.3981C93.382 90.3998 97.3199 84.8255 99.3068 78.4649L93.5797 76.6759C91.9683 81.8345 88.7746 86.3554 84.451 89.5981L88.051 94.3981ZM89.251 114.998V91.9981H83.251V114.998H89.251ZM85.004 125.251C87.7233 122.532 89.251 118.844 89.251 114.998H83.251C83.251 117.252 82.3554 119.414 80.7614 121.008L85.004 125.251ZM74.751 129.498C78.5966 129.498 82.2848 127.97 85.004 125.251L80.7614 121.008C79.1673 122.603 77.0053 123.498 74.751 123.498V129.498ZM63.251 129.498H74.751V123.498H63.251V129.498ZM52.9979 125.251C55.7172 127.97 59.4053 129.498 63.251 129.498V123.498C60.9966 123.498 58.8346 122.603 57.2406 121.008L52.9979 125.251ZM48.751 114.998C48.751 118.844 50.2787 122.532 52.9979 125.251L57.2406 121.008C55.6465 119.414 54.751 117.252 54.751 114.998H48.751ZM48.751 91.9981V114.998H54.751V91.9981H48.751ZM38.6952 78.4649C40.6821 84.8255 44.62 90.3998 49.951 94.3981L53.551 89.5981C49.2274 86.3554 46.0337 81.8345 44.4223 76.6759L38.6952 78.4649ZM38.8803 58.9578C36.773 65.2796 36.7083 72.1042 38.6952 78.4649L44.4223 76.6759C42.8108 71.5172 42.8633 65.9823 44.5724 60.8552L38.8803 58.9578ZM50.4364 43.2411C45.0305 47.1375 40.9876 52.636 38.8803 58.9578L44.5724 60.8552C46.2814 55.7281 49.5603 51.2686 53.9447 48.1086L50.4364 43.2411ZM69 88.1001C79.5487 88.1001 88.1 79.5508 88.1 69.0001H82.1C82.1 76.2367 76.2354 82.1001 69 82.1001V88.1001ZM49.9 69.0001C49.9 79.5508 58.4513 88.1001 69 88.1001V82.1001C61.7646 82.1001 55.9 76.2367 55.9 69.0001H49.9ZM69 49.9001C58.4509 49.9001 49.9 58.453 49.9 69.0001H55.9C55.9 61.7663 61.765 55.9001 69 55.9001V49.9001ZM88.1 69.0001C88.1 58.453 79.5491 49.9001 69 49.9001V55.9001C76.235 55.9001 82.1 61.7663 82.1 69.0001H88.1ZM72.6169 77.5598C73.2799 77.9489 74.0179 78.1414 74.7534 78.1414V72.1414C75.0671 72.1414 75.3801 72.2245 75.6534 72.3849L72.6169 77.5598ZM66.2774 73.7782L72.5982 77.5488L75.6721 72.396L69.3512 68.6253L66.2774 73.7782ZM64.2266 70.1633C64.2266 71.6441 65.0048 73.0124 66.2675 73.7722L69.3611 68.6313C69.8961 68.9532 70.2266 69.5326 70.2266 70.1633H64.2266ZM64.2266 62.0376V70.1633H70.2266V62.0376H64.2266ZM68.4341 57.8301C66.1108 57.8301 64.2266 59.7142 64.2266 62.0376H70.2266C70.2266 63.0279 69.4245 63.8301 68.4341 63.8301V57.8301ZM72.6416 62.0376C72.6416 59.7142 70.7575 57.8301 68.4341 57.8301V63.8301C67.4438 63.8301 66.6416 63.0279 66.6416 62.0376H72.6416ZM72.6416 69.4774V62.0376H66.6416V69.4774H72.6416ZM76.9098 70.3188L71.1782 66.9008L68.1051 72.0541L73.8367 75.4721L76.9098 70.3188ZM78.3694 76.0871C79.5604 74.0872 78.8992 71.5125 76.9167 70.323L73.8298 75.468C72.9904 74.9643 72.706 73.8708 73.2143 73.0172L78.3694 76.0871ZM74.7534 78.1414C76.1816 78.1414 77.5768 77.4082 78.3643 76.0956L73.2194 73.0087C73.5529 72.4529 74.1463 72.1414 74.7534 72.1414V78.1414Z" fill="url(#paint5_linear)" mask="url(#path-6-inside-1)"/>
</g>
<defs>
<linearGradient id="paint0_linear" x1="63.6824" y1="11.502" x2="80.5362" y2="23.4011" gradientUnits="userSpaceOnUse">
<stop stop-color="#F6BF4A"/>
<stop offset="0.375" stop-color="#EC622D"/>
<stop offset="0.6875" stop-color="#DC395E"/>
<stop offset="1" stop-color="#C04D95"/>
</linearGradient>
<linearGradient id="paint1_linear" x1="104.367" y1="63.252" x2="109.994" y2="79.1446" gradientUnits="userSpaceOnUse">
<stop stop-color="#F6BF4A"/>
<stop offset="0.375" stop-color="#EC622D"/>
<stop offset="0.6875" stop-color="#DC395E"/>
<stop offset="1" stop-color="#C04D95"/>
</linearGradient>
<linearGradient id="paint2_linear" x1="12.3659" y1="63.252" x2="17.9934" y2="79.1446" gradientUnits="userSpaceOnUse">
<stop stop-color="#F6BF4A"/>
<stop offset="0.375" stop-color="#EC622D"/>
<stop offset="0.6875" stop-color="#DC395E"/>
<stop offset="1" stop-color="#C04D95"/>
</linearGradient>
<linearGradient id="paint3_linear" x1="26.7048" y1="27.1582" x2="41.0449" y2="47.7119" gradientUnits="userSpaceOnUse">
<stop stop-color="#F6BF4A"/>
<stop offset="0.375" stop-color="#EC622D"/>
<stop offset="0.6875" stop-color="#DC395E"/>
<stop offset="1" stop-color="#C04D95"/>
</linearGradient>
<linearGradient id="paint4_linear" x1="93.027" y1="27.3672" x2="107.207" y2="47.721" gradientUnits="userSpaceOnUse">
<stop stop-color="#F6BF4A"/>
<stop offset="0.375" stop-color="#EC622D"/>
<stop offset="0.6875" stop-color="#DC395E"/>
<stop offset="1" stop-color="#C04D95"/>
</linearGradient>
<linearGradient id="paint5_linear" x1="42.4181" y1="40.248" x2="109.366" y2="103.27" gradientUnits="userSpaceOnUse">
<stop stop-color="#F6BF4A"/>
<stop offset="0.375" stop-color="#EC622D"/>
<stop offset="0.6875" stop-color="#DC395E"/>
<stop offset="1" stop-color="#C04D95"/>
</linearGradient>
<clipPath id="clip0">
<rect width="138" height="138" fill="white"/>
</clipPath>
</defs>
</svg>
