<svg width="252" height="56" viewBox="0 0 252 56" fill="none" xmlns="http://www.w3.org/2000/svg">
<path d="M98.2555 17.8383C99.7964 18.7836 101.1 20.083 101.93 21.8552C102.878 23.6274 103.352 25.754 103.352 28.1168C103.352 30.4797 102.878 32.4881 101.811 34.2604C100.863 36.0325 99.4403 37.3321 97.6623 38.159C95.8851 39.1042 93.751 39.5768 91.4996 39.5768C90.1959 39.5768 89.0103 39.3405 87.8255 38.8679C86.64 38.5135 85.5733 37.8047 84.7436 36.9776V49.2645H77.8691V16.8932H83.7953L84.3881 19.4923C86.9955 17.3659 89.8398 16.3025 92.8034 16.3025C94.8185 16.3025 96.7146 16.7751 98.2555 17.8383ZM94.4624 32.4881C95.648 31.4249 96.2404 30.0071 96.2404 28.235C96.2404 26.4628 95.648 25.0451 94.5814 23.8637C93.5148 22.6823 92.092 22.2097 90.5511 22.2097C89.2474 22.2097 88.0618 22.446 87.1141 23.0367C86.1658 23.5093 85.4548 24.3363 84.8621 25.3995V30.7159C85.2177 31.7792 85.9288 32.6064 86.7584 33.1971C87.7065 33.7878 88.7731 34.1421 90.0769 34.1421C91.8549 34.1421 93.2776 33.5514 94.4624 32.4881Z" fill="white"/>
<path d="M107.383 21.9707C108.449 20.3167 109.871 18.899 111.768 17.9539C113.664 17.0086 115.798 16.418 118.168 16.418C120.538 16.418 122.672 16.8906 124.569 17.9539C126.347 18.899 127.768 20.3167 128.835 22.0888C129.902 23.861 130.376 25.7512 130.376 27.996C130.376 30.2408 129.902 32.131 128.835 33.9032C127.768 35.6753 126.465 37.0931 124.569 38.0382C122.791 38.9833 120.538 39.5741 118.168 39.5741C115.798 39.5741 113.664 39.1015 111.768 38.1565C109.871 37.2112 108.449 35.9117 107.383 34.1395C106.434 32.3674 105.842 30.3588 105.842 27.996C105.842 25.7512 106.434 23.7429 107.383 21.9707ZM114.376 32.2491C115.323 33.4305 116.627 33.9032 118.168 33.9032C119.709 33.9032 121.013 33.3125 121.961 32.2491C122.909 31.186 123.383 29.6501 123.383 27.996C123.383 26.2238 122.909 24.8062 121.961 23.7429C120.894 22.5614 119.709 21.9707 118.05 21.9707C116.509 21.9707 115.323 22.5614 114.257 23.6248C113.309 24.8062 112.835 26.2238 112.835 27.996C112.835 29.6501 113.309 31.0677 114.376 32.2491Z" fill="white"/>
<path d="M141.517 0.115479V38.9847H134.643V0.115479H141.517Z" fill="white"/>
<path d="M169.725 17.4824L155.74 49.381H149.102L154.317 37.9212L144.361 17.4824H152.184L157.873 30.2418L163.562 17.4824H169.725Z" fill="white"/>
<path d="M196.037 17.4813V38.9833C196.037 40.9917 195.445 42.8822 194.26 44.536C193.073 46.19 191.533 47.4897 189.518 48.4348C187.504 49.38 185.372 49.8526 183 49.8526C181.222 49.8526 179.682 49.6163 178.378 49.2619C177.073 48.7893 176.007 48.3167 175.178 47.8441C174.229 47.2534 173.28 46.5446 172.214 45.5993L176.244 40.8736C177.192 41.8189 178.26 42.5277 179.208 43.0003C180.155 43.4729 181.46 43.8272 182.881 43.8272C184.659 43.8272 186.082 43.3546 187.267 42.5277C188.452 41.7007 189.045 40.401 189.045 38.8652V35.7934C188.334 36.8567 187.386 37.8019 185.963 38.5108C184.541 39.2196 182.881 39.5741 180.984 39.5741C179.089 39.5741 177.192 39.1015 175.532 38.0382C173.874 37.0931 172.57 35.6753 171.504 33.9032C170.555 32.131 169.963 30.2408 169.963 28.1141C169.963 25.9877 170.436 23.9791 171.504 22.207C172.57 20.4348 173.874 19.0172 175.651 17.9539C177.31 16.8906 179.089 16.418 180.984 16.418C182.763 16.418 184.304 16.6542 185.726 17.1267C187.148 17.5993 188.215 18.3083 188.927 19.1353L189.637 17.4813H196.037ZM189.045 30.7134V25.397C188.57 24.3336 187.859 23.5065 186.794 22.9158C185.726 22.3251 184.541 21.9707 183.118 21.9707C181.46 21.9707 180.038 22.5614 178.851 23.6248C177.667 24.6879 177.073 26.1057 177.073 27.8779C177.073 29.5319 177.667 31.0677 178.851 32.2491C180.038 33.4305 181.46 34.0212 183.118 34.0212C185.845 33.9032 187.859 32.8398 189.045 30.7134Z" fill="white"/>
<path d="M201.726 21.9733C202.794 20.2011 204.217 18.9016 206.112 17.8383C208.009 16.8932 210.142 16.3025 212.513 16.3025C214.884 16.3025 217.016 16.7751 218.912 17.8383C220.69 18.7836 222.112 20.2011 223.18 21.9733C224.128 23.7454 224.721 25.6359 224.721 27.8807C224.721 30.1252 224.245 32.0157 223.18 33.7878C222.231 35.5599 220.809 36.9776 218.912 37.9228C217.135 38.8679 214.884 39.4586 212.513 39.4586C210.142 39.4586 208.009 38.9861 206.112 38.0409C204.217 37.0957 202.794 35.7962 201.726 34.024C200.66 32.2518 200.186 30.2435 200.186 27.7624C200.186 25.754 200.66 23.7454 201.726 21.9733ZM208.601 32.2518C209.55 33.4333 210.854 33.9059 212.394 33.9059C213.934 33.9059 215.238 33.3152 216.187 32.2518C217.135 31.1885 217.609 29.6528 217.609 27.9987C217.609 26.2266 217.135 24.8088 216.187 23.7454C215.238 22.6823 213.934 22.0916 212.394 22.0916C210.854 22.0916 209.669 22.6823 208.601 23.7454C207.534 24.8088 207.06 26.3447 207.06 27.9987C207.179 29.6528 207.653 31.0704 208.601 32.2518Z" fill="white"/>
<path d="M249.02 18.19C250.441 19.3715 251.034 20.9074 251.152 22.7977V38.9833H244.159V25.397C244.04 23.2703 242.974 22.207 240.958 22.207C239.419 22.207 238.114 22.9158 237.166 24.4517C236.219 25.9877 235.744 27.8779 235.744 30.1227V38.9833H228.869V17.4813H235.152L235.625 20.9074C236.455 19.4897 237.522 18.4264 238.944 17.5993C240.367 16.7724 242.026 16.418 243.924 16.418C245.938 16.418 247.716 17.0086 249.02 18.19Z" fill="white"/>
<path d="M48.4761 17.1296C47.291 16.4208 45.7502 16.4208 44.4463 17.1296L35.2014 22.5641L28.9198 26.1085L19.6748 31.5432C18.4897 32.252 16.9488 32.252 15.6451 31.5432L8.29665 27.2899C7.11142 26.5811 6.28176 25.2815 6.28176 23.8637V15.4756C6.28176 14.0579 6.99289 12.7583 8.29665 12.0494L15.5266 7.91441C16.7118 7.20553 18.2526 7.20553 19.5564 7.91441L26.7863 12.0494C27.9715 12.7583 28.8013 14.0579 28.8013 15.4756V20.9101L35.083 17.2477V11.8131C35.083 10.3954 34.3718 9.09587 33.068 8.38698L19.6748 0.589507C18.4897 -0.119354 16.9488 -0.119354 15.6451 0.589507L2.0149 8.38698C0.711142 9.09587 0 10.3954 0 11.8131V27.5263C0 28.9439 0.711142 30.2435 2.0149 30.9525L15.6451 38.7499C16.8304 39.4587 18.3712 39.4587 19.6748 38.7499L28.9198 33.4334L35.2014 29.7711L44.4463 24.4544C45.6315 23.7456 47.1724 23.7456 48.4761 24.4544L55.7061 28.5896C56.8913 29.2984 57.721 30.5979 57.721 32.0156V40.4039C57.721 41.8216 57.0098 43.1211 55.7061 43.83L48.4761 48.0832C47.291 48.792 45.7502 48.792 44.4463 48.0832L37.2164 43.9482C36.0313 43.2393 35.2014 41.9397 35.2014 40.522V35.0875L28.9198 38.7499V44.1844C28.9198 45.6023 29.631 46.9017 30.9348 47.6106L44.5648 55.4081C45.7502 56.117 47.291 56.117 48.5946 55.4081L62.2248 47.6106C63.4102 46.9017 64.2398 45.6023 64.2398 44.1844V28.4713C64.2398 27.0537 63.5286 25.7541 62.2248 25.0451L48.4761 17.1296Z" fill="white"/>
</svg>
