<svg width="224" height="78" fill="none" xmlns="http://www.w3.org/2000/svg"><path d="M71.0523 72.4687h-7.0308V24.3746h7.0308v3.4049c2.7804-2.8483 5.9123-4.2561 9.4277-4.2561 4.1866 0 7.6382 1.5715 10.3226 4.7473 2.7487 3.1429 4.1226 7.0716 4.1226 11.8516 0 4.6817-1.3739 8.5449-4.0905 11.6552-2.5572 3.012-6.328 4.7144-10.2269 4.649-3.5474 0-6.7432-1.4733-9.5555-4.3871v20.4293zm16.7144-32.3464c0-2.9793-.7992-5.4021-2.3651-7.3009-1.4701-1.8334-3.7072-2.8811-6.0401-2.8483-2.5886 0-4.6659.9167-6.2639 2.7501-1.5979 1.8334-2.3968 4.2561-2.3968 7.2354 0 2.9137.7989 5.3365 2.3968 7.2353 1.598 1.8989 3.6752 2.7829 6.2319 2.7829 2.333.0654 4.538-.9822 6.0082-2.8156 1.5979-1.8661 2.429-4.2233 2.429-7.0389zM100.933 39.7299c-.063-4.3217 1.63-8.5123 4.698-11.4916 3.036-3.1102 7.191-4.8127 11.474-4.7472 4.537 0 8.373 1.6043 11.536 4.78 3.164 3.1757 4.666 7.0717 4.666 11.6879 0 4.6817-1.565 8.5777-4.698 11.7207-3.131 3.1429-7.03 4.7144-11.632 4.7144-4.602 0-8.374-1.6042-11.442-4.7799-3.068-3.1757-4.602-7.1372-4.602-11.8843zm7.191.1309c0 3.1102.799 5.5657 2.429 7.3991 1.63 1.8334 3.867 2.7501 6.584 2.7501 2.716 0 4.953-.9167 6.583-2.7174s2.461-4.2234 2.461-7.2681c0-3.0448-.831-5.4348-2.461-7.2682-1.63-1.8333-3.867-2.75-6.583-2.75-2.717 0-4.858.9167-6.52 2.75-1.662 1.8334-2.493 4.1907-2.493 7.1045zM138.868 24.3754h7.032v2.7829c1.278-1.3751 2.428-2.3246 3.419-2.8483 1.118-.5566 2.364-.8185 3.611-.7858 1.853 0 3.771.622 5.817 1.8661l-3.228 6.5806c-1.343-.9821-2.621-1.4733-3.899-1.4733-3.835 0-5.753 2.9466-5.753 8.8724v16.1406h-7.031l.032-31.1352zM171.945 31.0868v24.4235h-7.031V31.0868h-3.004v-6.7116h3.004v-11.426h7.031v11.426h5.465v6.7116h-5.465zM181.117 11.4107c0-1.2441.479-2.42269 1.341-3.27393 1.79-1.8334 4.698-1.8334 6.488 0 .895.85124 1.375 2.06253 1.343 3.30663.032 1.2441-.48 2.4555-1.343 3.3395-.831.9167-2.013 1.4077-3.227 1.375-1.215.0327-2.397-.4911-3.261-1.375-.894-.884-1.373-2.0954-1.341-3.3722zm8.085 12.9647v31.1352h-7.031V24.3754h7.031zM215.762 29.6787l-5.817 3.1757c-.927-1.9316-2.046-2.881-3.388-2.881-.607 0-1.214.2291-1.661.6547-.448.4256-.704 1.0477-.671 1.6697 0 1.1787 1.341 2.39 4.058 3.5358 3.739 1.6371 6.232 3.143 7.51 4.5508 1.279 1.4078 1.95 3.2412 1.95 5.5985.063 2.881-1.15 5.6311-3.26 7.53-2.077 1.9316-4.794 2.9465-7.606 2.8811-5.113 0-8.693-2.5537-10.834-7.6283l6.008-2.8483c.831 1.5059 1.471 2.4554 1.918 2.8483.831.7857 1.918 1.2441 3.068 1.2114 2.365 0 3.547-1.1132 3.547-3.3394 0-1.2769-.926-2.4882-2.748-3.5687-.703-.3601-1.406-.7202-2.109-1.0476-.704-.3274-1.439-.6875-2.142-1.0476-2.046-1.015-3.483-2.0299-4.314-3.0776-1.054-1.3095-1.598-2.9793-1.598-5.0091 0-2.7174.895-4.9436 2.716-6.7116 1.822-1.7678 4.251-2.7173 6.744-2.6518 3.834-.0327 6.711 2.0298 8.629 6.155zM26.1191 53.0878l.5433.3274-.5433-.3274zm19.9421-8.2831l-2.7165-1.2113-.8629-.3929-.8309-.3928-.799.491-13.1988 7.9884V36.5872l-.767-.3274-.767.3274v14.6999l-1.2463-.753-.767-.4583-.7671-.4584-10.3865-6.3187-.7989-.491-.831.3601-.8308.3601-2.1093.9167-.63917.2947-.83092.3928.25567 2.8811c.06391-.5566.12783-1.1131.25566-1.6697l.38351.2292L26.1191 57.6713c-.0319.0983-.0319.2292-.0639.3274-.032.2292-.0959.4584-.1279.6876-.0319.2291-.0958.4583-.1597.6547-.0959.3274-.1599.6548-.2557.9822l-.0958.2947-.0959.2946-.1918.5893c-.0959.2947-.1918.5893-.3196.8512v.0327l-.1918.4911c-.0638.131-.0959.2293-.1597.3602l.8948-.1309.8629-.1311v-.0327c.0319-.0982.0959-.2292.1278-.3274.032-.0982.0959-.2292.1278-.3274.032-.0327.032-.0982.064-.1309.0319-.0655.0639-.131.0639-.1965.0639-.2292.1598-.4583.2237-.6875.032-.131.0639-.2292.0959-.3601 0-.0327.0319-.0655.0319-.0983l.032.131.0959.2947c.0319.0982.0639.2291.0958.3601v.0328l.0959.3273c0 .0328.032.0655.032.0982.0319.0983.0639.1638.0958.262l.1918.4911.767-.0983.767-.0982c-.0319-.0654-.064-.0982-.064-.1636-.0638-.1965-.1278-.393-.2237-.5566l-.1917-.5893-.0958-.2947-.0959-.2947c-.032-.0654-.032-.1309-.064-.1964-.0319-.0655-.0638-.2291-.0959-.3274-.0319-.0982-.0638-.2291-.0958-.3274-.032-.0982-.0639-.2291-.0959-.3274-.032-.0982-.0639-.2291-.0639-.3274 0-.1309-.0639-.2291-.0639-.3274-.032-.0982-.0639-.2292-.0639-.3274-.032-.0981-.032-.2292-.064-.3273-.0319-.0982-.0319-.2293-.0638-.3274-.032-.0982-.032-.0982-.032-.1637L45.1983 47.162l1.1825-.7203.6071-1.2769-.9267-.3601zm-34.8347-.7529l12.1442 7.3663 2.7484 1.6697.5433.3274.1917.1309.1918-.1309.5433-.3274 14.8926-9.036 2.7165 1.2113-17.8009 10.7712-.5752.3601-.5753-.3601-17.80078-10.804 2.78038-1.1785z" fill="#fff"/><path d="M26.8855 36.2595l-.767.3274v.8512l.767-.3275.7671.3275v-.8512l-.7671-.3274zm.735-.5239l-.767-.3274-.7669.3274v1.6697l.7669-.3274.767.3274v-1.6697zm0 .8513l-.767-.3274-.7669.3274v.8512l.7669-.3275.767.3275v-.8512zm0 0l-.767-.3274v.8511l.767.3275v-.8512zm0 0l-.767-.3274v.8511l.767.3275v-.8512zm0 0l-.767-.3274v.8511l.767.3275v-.8512zm0 0l-.767-.3274v.8511l.767.3275v-.8512zm0 0l-.767-.3274v.8511l.767.3275v-.8512zm0 0l-.767-.3274v.8511l.767.3275v-.8512zm0 0l-.767-.3274v.8511l.767.3275v-.8512zm0 0l-.767-.3274v.8511l.767.3275v-.8512zm0 0l-.767-.3274v.8511l.767.3275v-.8512zm0 0l-.767-.3274v.8511l.767.3275v-.8512zm0 0l-.767-.3274v.8511l.767.3275v-.8512zm0 0l-.767-.3274v.8511l.767.3275v-.8512zm0 0l-.767-.3274v.8511l.767.3275v-.8512zm20.038 8.414l-.0959-.3601-.7031-.2947-2.7164-1.2113-.8629-.3929-.8629-.3929-.7989.4911-.7991.491.8629.393.8629.3928 2.7165 1.2114.6391.2946-.1597.3274-.6073 1.2769 1.1825-.7203.0959-.0655c.064.3929.1278.8185.1918 1.2441l.5752-1.2114.5433-1.1458c-.0319-.0983-.0639-.2292-.0639-.3274zm-20.773-8.7414v.8511l.7671.3275v-.8512l-.7671-.3274zm.735.3274l-.767-.3274v.8511l.767.3275v-.8512zm0 0l-.767-.3274v.8511l.767.3275v-.8512zm0 0l-.767-.3274v.8511l.767.3275v-.8512zm0 0l-.767-.3274v.8511l.767.3275v-.8512zm0 0l-.767-.3274v.8511l.767.3275v-.8512zm0 0l-.767-.3274v.8511l.767.3275v-.8512zm0 0l-.767-.3274v.8511l.767.3275v-.8512zm0 0l-.767-.3274v.8511l.767.3275v-.8512zm0 0l-.767-.3274v.8511l.767.3275v-.8512zm0 0l-.767-.3274v.8511l.767.3275v-.8512zm0 0l-.767-.3274v.8511l.767.3275v-.8512zm0 0l-.767-.3274v.8511l.767.3275v-.8512zm-1.502 0v.8512l.767-.3275v-.8511l-.767.3274zm0 0v.8512l.767-.3275v-.8511l-.767.3274zm.3196 25.6021l-.8629.1309-.8629.1311-.1917.491c-.0639.131-.0958.2292-.1598.3601l-.0959.1965-.0959.1965c-.0638.0981-.0958.1963-.1597.2946l-.0959.1637.9268-.131.8948-.131c.1279-.2619.2557-.5237.3516-.8184v-.0328c.0319-.0982.0958-.2291.1278-.3274.032-.0982.0959-.2291.1278-.3274.032-.0655.0639-.1309.0959-.1964zm-.3196-25.6021v.8512l.767-.3275v-.8511l-.767.3274zm0 0v.8512l.767-.3275v-.8511l-.767.3274zm0 0v.8512l.767-.3275v-.8511l-.767.3274zm0 0v.8512l.767-.3275v-.8511l-.767.3274zm0 0v.8512l.767-.3275v-.8511l-.767.3274zm0 0v.8512l.767-.3275v-.8511l-.767.3274zm0 0v.8512l.767-.3275v-.8511l-.767.3274zm0 0v.8512l.767-.3275v-.8511l-.767.3274zm0 0v.8512l.767-.3275v-.8511l-.767.3274zm0 0v.8512l.767-.3275v-.8511l-.767.3274zm0 0v.8512l.767-.3275v-.8511l-.767.3274zm0 0v.8512l.767-.3275v-.8511l-.767.3274zm-14.7647 5.7293l-.831.3601-.83085.3602-2.7165 1.2113-.70308.2947-.09588.3601c0 .0328-.03196.0983-.03196.131l.28763 2.9138.06392.7531.57525.6547c.03196-.4584.06391-.9167.09587-1.4078.06392-.5566.12784-1.1131.25566-1.6697l.35155.2292-.09588-.9495.86288-.3929 2.74839-1.2113.831-.3601.8309-.3602-.799-.491-.7989-.4257zm14.7647-5.7293v.8512l.767-.3275v-.8511l-.767.3274zm0 0v.8512l.767-.3275v-.8511l-.767.3274zm0 0v.8512l.767-.3275v-.8511l-.767.3274zm0 0v.8512l.767-.3275v-.8511l-.767.3274zm0 0v.8512l.767-.3275v-.8511l-.767.3274zm0 0v.8512l.767-.3275v-.8511l-.767.3274zm0 0v.8512l.767-.3275v-.8511l-.767.3274zm0 0v.8512l.767-.3275v-.8511l-.767.3274zm0 0v.8512l.767-.3275v-.8511l-.767.3274zm0 0v.8512l.767-.3275v-.8511l-.767.3274zm0 0v.8512l.767-.3275v-.8511l-.767.3274zm0 0v.8512l.767-.3275v-.8511l-.767.3274zm2.9722 25.995c-.032-.0655-.064-.0982-.064-.1637-.0638-.1964-.1278-.3929-.2237-.5566l-.767.0982-.767.0982c.032.0983.064.1638.0959.2619l.1918.4912c.0319.0654.0638.1309.0638.1964.064.1964.1599.3602.2237.5565l.7671-.0981.767-.0982c-.0639-.262-.1598-.5239-.2876-.7858zm-1.4702-25.995l-.767-.3274-.7669.3274v.8512l.7669-.3275.767.3275v-.8512zm0 0l-.767-.3274-.7669.3274v.8512l.7669-.3275.767.3275v-.8512z" fill="#fff"/><path d="M42.7386 35.3426c-.7031-.8513-1.4701-1.6697-2.301-2.4227l1.9175 3.2739 1.2144.5566-.8309-1.4078zm-16.8741-6.8098l.0959.0655.1278-.0655h-.2237zm1.0227 3.5359l-.4154.1964-.3196.1637-1.9815.9167v-.8185l-.767.3274-13.80594 6.417 1.11854-1.8989.6711-1.1787.2237-.3928.4474-.7531 1.2464-2.0953c-.8309.753-1.5979 1.5387-2.301 2.4227l-.1279.2292-.6711 1.1787-1.18243 2.0297-.63917 1.0478-.57525 1.0149c-.03196.0327-.03195.0982-.06391.1309v.0327l.767.4584 1.47008.884.54328.3274.799.491.7989.4911 11.2813 6.8426.767.4583 1.9815 1.2113.6711.4256.0639.0328v-20.593zm-1.9814 18.465l-.767-.4584-.767-.4583-10.4184-6.3187-.799-.4911-.799-.4584-2.01334-1.2441 14.06164-6.5478.767-.3602.767-.3601 1.2464-.5894v18.0067l-1.2783-.7202zm1.9814-22.7866h-.767v1.6042l.767-.3601.7671.3601v-1.6042h-.7671z" fill="#fff"/><path d="M24.1385 33.3789l-.767.3273v.8512l.767-.3601.767-.3601 1.2465-.5894v-.8511l-2.0135.9822zm0 0l-.767.3273v.8512l.767-.3601.767-.3601 1.2465-.5894v-.8511l-2.0135.9822zm19.239 1.5387c-.7351-.9167-1.5021-1.7025-2.3329-2.4555-.5433-.4911-1.1186-.9494-1.6938-1.3751l1.1185 1.8989 1.9175 3.274.6711 1.1786 1.2144.5566 1.2145.5565-2.1093-3.634zM26.887 26.9619h-.767v3.2412l.767-.3602.767.3602v-3.2412h-.767zm.735 3.9288l-.767.3601-.1917.0982-.5433.2619-1.2464.5566-.7351.3601-.767.3274v1.7024l.767-.3601.767-.3601 1.2465-.5894v18.0067l-1.2465-.753-.767-.4584-.767-.4583-10.4184-6.286-.799-.491-.7989-.4584-2.01337-1.2441-.60721-.3602.15979-.2946.67114-1.1785 1.11855-1.899.6711-1.1786.2556-.3929.4475-.753 1.2464-2.0953 1.1185-1.8989c-.5752.4257-1.1505.884-1.6938 1.3751-.8309.753-1.5979 1.5715-2.301 2.4227l-.032.0328-.73497 1.2768-2.49277 4.2233-.06392.0982v.0328c-.03196.0655-.03196.0982-.06392.1637l-.25566.6548.47937.2946.03196.0328.35154.1964 1.98138 1.2114.79899.491.799.4912 12.1441 7.3663 2.7485 1.6697.5433.3274.1917.1309.1918-.1309.5433-.3274.0319-22.1972zm-3.4835 2.4882l-.767.3273v.8512l.767-.3601.767-.3601 1.2465-.5894v-.8511l-2.0135.9822zm0 0l-.767.3273v.8512l.767-.3601.767-.3601 1.2465-.5894v-.8511l-2.0135.9822z" fill="#fff"/><path d="M47.1789 46.4086c-.0639-.4256-.1597-.8185-.2556-1.2113l-1.1825.7202-18.1204 10.9677-.0319.0327-.7032.4257-.703-.4257-.0319-.0327-18.504-11.1969-.79895-.491c-.03196.1309-.06392.2291-.09588.3601-.06392.3274-.12783.622-.19175.9494-.03196.0982-.03196.1637-.03196.2619-.03196.131-.03196.2947-.06392.4256-.03196.131-.03196.1965-.03196.2947-.03196.1965-.06391.3928-.06391.5893-.06392.753-.12784 1.506-.12784 2.259v1.3423c0 .131.03196.2619.03196.3929 0 .1309.03196.262.03196.3601v.131c0 .0982.03196.1964.03196.2946 0 .0983.03196.1965.03196.3274l.19175 1.1786c0 .0655.03196.131.03196.1965.12783.6221.25567 1.2768.44741 1.8989.03196.0982.06392.1636.06392.2619.03196.0982.06392.1637.06392.2619.06391.2619.15979.5238.25567.7857l.09587.2292.19175.4911.09587.2619c.12784.3274.25567.6548.41547.9822.09587.2619.2237.4911.35154.7203l.19175.3601c.06392.1309.12783.2292.19175.3601l.09587.1965v.0327l.41546.6875c.03193.0655.09589.131.12782.1965l.28766.4583.12779.1965.1598.2618.0639.0983.064.0982.2876.3928.0959.1638.2237.2947c.0319.0654.0639.1309.1278.1636l.1918.2292.1597.1965c.064.0654.0959.1309.1598.1963l.1598.1965c.1918.2292.4155.4583.6073.6875.0958.131.2237.262.3515.3601l.3515.3602c.0959.0655.1598.1637.2557.2292.3195.2946.6711.622.9907.8839l.032.0328c.0639.0654.1278.131.2237.1637l.0958.0982.032.0327.0959.0655.1917.131.0639.0655.3835.2946.0959.0655.0959.0654.1917.131c.1279.0655.2238.1637.3516.2292l.0639.0328c.1279.0654.2237.1309.3516.2291l.0319.0327.0319.0327c.1918.1311.3836.2292.5753.3275.0639.0328.0958.0655.1598.0982l.1918.0982.1917.0982.1598.0983c.0639.0327.0959.0654.1598.0982l.0639.0327c.2876.131.5752.2946.8309.4257.0639.0327.1598.0654.2237.0981.0639.0328.1598.0655.2237.0982l.0639.0328.1598.0655c.064.0328.1598.0655.2237.0982h.032c.2876.0982.5433.1964.8309.2947.2557.0982.5114.1636.767.2291l.6711.1964c.6073.1638 1.2145.262 1.8536.3602h.064c.6711.0982 1.3102.1637 1.9813.1637h.6712c1.534 0 3.068-.1965 4.5701-.5566.0959-.0327.1917-.0654.2876-.0654h.0639c.1278-.0328.2237-.0655.3196-.0983.2556-.0655.5113-.1637.767-.2291.1598-.0655.2876-.0983.4474-.1638.0639-.0327.1598-.0654.2237-.0982.0639-.0327.1598-.0654.2237-.0981.2876-.1311.5753-.2292.8629-.3602.8309-.3929 1.6619-.8185 2.4608-1.3096.1278-.0655.2237-.1637.3515-.2291l.0639-.0328.064-.0328.0639-.0327.0958-.0655.064-.0654c.0959-.0655.1598-.0982.2556-.1638l.2237-.1636c.064-.0327.1279-.0655.1599-.131.0638-.0655.1597-.1309.2237-.1637l.0958-.0654c.0959-.0656.1598-.131.2557-.1965l.0319-.0327c.0959-.0982.2237-.1638.3196-.262l.064-.0327c.5433-.4584 1.0545-.9167 1.5659-1.4406l.1918-.1963c.0639-.0656.1278-.131.1917-.2292l.2237-.2292.1918-.2292c.1278-.1637.2556-.2946.3835-.4583.1278-.1638.2557-.3274.3835-.4584l.3835-.4911c.1278-.1637.2557-.3274.3515-.4911.2238-.3274.4794-.6875.6712-1.0149.6071-.9494 1.1185-1.9643 1.5978-2.9792.0959-.1965.1599-.3602.2557-.5566.0959-.1965.1598-.3929.2237-.5893.0639-.1965.1279-.3929.2237-.5894l.2877-.8839c.0639-.1964.1278-.3929.1598-.5894.0639-.1963.0958-.3928.1598-.5893.0639-.1963.0958-.4255.1278-.622.3515-1.5388.5113-3.143.5113-4.7145.1279-1.3095.0959-2.6518-.1598-3.9614zM7.00723 51.4505v-1.2114c0-.2947 0-.5566.03196-.8512.03196-.4583.06392-.9168.09588-1.4078.06392-.5566.12783-1.1132.25567-1.6698l.38349.2292L26.0864 57.6382c-.0319.0982-.0319.2291-.064.3274-.0319.2291-.0958.4583-.1278.6875-.0319.2292-.0959.4583-.1597.6548-.0959.3274-.1599.6548-.2558.9822l-.0958.2946-.0958.2947-.1918.5893c-.0959.2947-.1918.5893-.3196.8512v.0328l-.1918.491c-.0639.131-.0958.2292-.1597.3601l-.0959.1965-.0959.1965c-.0639.0982-.0959.1963-.1598.2946l-.0959.1637c-.0319.0654-.0639.131-.1278.1965-.1598.2946-.3515.5565-.5113.8184-.1279.1964-.2557.3929-.4155.5566-.032.0654-.0958.0982-.1278.1637-.1279.1637-.2557.3274-.4154.4583-.1918.1965-.3836.3601-.6073.5239-.1597.1309-.3196.2292-.4793.3274l-.1279.0654c-.0639.0655-.1598.0982-.2557.131-.0319.0328-.0959.0328-.1278.0655-.1598.0982-.3196.1636-.5114.2291-.0638.0328-.1597.0656-.2237.0656l-.3834.0981c-.1279.0328-.2877.0655-.4155.0655-.1278.0327-.2557.0327-.3835.0327-1.1185.0656-2.2051-.1309-3.2278-.5565-.3196-.131-.6392-.2619-.9268-.4256-4.4742-3.7978-7.25454-9.298-7.70197-15.2566.03196.0327.03196-.0654 0-.1636zM26.1504 71.5851h-.7032l-.3196-.0327h-.1597l-.1599-.0327-.1597-.0655h-.064c-.0639 0-.1597-.0327-.2237-.0327h-.1917c-.0959 0-.2237-.0328-.3196-.0655-.0959-.0328-.1917-.0328-.2876-.0655-.0959-.0328-.2237-.0328-.3196-.0655h-.032c-.0958-.0327-.2237-.0327-.3196-.0655l-.1597-.0327-.2557-.0654c-.1917-.0656-.4154-.0983-.6391-.1638l-.4155-.1309-.3515-.0983c-.2877-.0982-.5753-.1964-.8629-.3274l-.1918-.0654c-.1918-.0655-.3835-.1637-.5433-.2292l-.0639-.0328-.1918-.0982c-.0639-.0327-.1597-.0654-.2237-.0981-.0959-.0328-.1917-.0656-.2556-.1311l-.1598-.0981c.5113 0 1.0226-.0655 1.534-.1965h.0639l.1278-.0327.2876-.0982.2877-.0982c.2237-.0656.4155-.1638.6071-.262l.3836-.1964c.4155-.2292.7989-.5239 1.1505-.8185.1278-.0982.2237-.2291.3515-.3274l.1598-.1637.3516-.3601c.2876-.3601.5752-.7203.8309-1.0804.0958-.0982.1598-.2292.2237-.3602.3195-.5238.6072-1.0803.8628-1.6369.1279-.2619.2558-.5239.3517-.8185v-.0328c.0319-.0981.0957-.2292.1278-.3273.0319-.0982.0959-.2292.1278-.3274.0319-.0328.0319-.0982.0639-.131.032-.0655.0639-.131.0639-.1964.064-.2292.1598-.4584.2237-.6875.032-.131.064-.2292.0959-.3601 0-.0328.0319-.0656.0319-.0983l.032.131.0959.2946c.032.0982.0639.2291.0958.3602v.0327l.0959.3274c0 .0327.032.0654.032.0982.032.0982.0639.1637.0959.2619l.1917.4911c.032.0655.064.1309.064.1964.0638.1965.1597.3601.2237.5566 0 .0327 0 .0327.0319.0327.1278.2947.2557.5566.3835.8185.0959.1637.1918.3602.2876.5239.4794.8839 1.0546 1.6697 1.7257 2.3899l.1599.1638c.0959.1309.2237.2291.3515.3273.064.0328.0959.0982.1599.131.0958.0982.2237.1637.3195.2619.2237.1637.4474.2946.6711.4583.0639.0328.0959.0655.1598.0983.1278.0654.2557.1309.4155.1964.1278.0655.2876.131.4154.1637l.5753.1965c.0958.0327.1917.0654.2876.0654.0959.0328.1918.0328.2877.0655.3515.0654.7349.0982 1.0866.0982h-.0321l-.3834.1964-.1599.0655c-.0638.0327-.1597.0655-.2237.0982h-.0319c-.2877.131-.5433.2292-.8309.3602-.2876.1309-.5753.2291-.8629.3274l-.3515.0982c-.1279.0327-.2557.0982-.3836.1309-.2556.0656-.4474.131-.6711.1965-.0638.0327-.1597.0327-.2556.0654l-.1278.0328c-.1279.0327-.2237.0655-.3516.0655h-.032l-.2876.0655h-.0639l-.2237.0327h-.064l-.2875.0327h-.032l-.1279.0328-.4154.0654c-.0959 0-.1598.0327-.2876.0327-.1279 0-.2237.0328-.3196.0328h-2.0453l-.1278-.0655zm20.6131-21.2805c0 .4255 0 .8512-.032 1.2768 0 .1637-.0319.3601-.0319.5239-.032.2946-.064.622-.0959.9167 0 .0981-.032.1963-.032.2619l-.0958.5892c-.032.1638-.064.2947-.0959.4584 0 .0327 0 .0982-.032.1309-.0319.0983-.0319.1965-.0639.2947l-.2876 1.1786c-.064.1965-.0959.3601-.1598.5566v.0327c-.0639.1965-.0959.3602-.1598.5566-.0639.1964-.1598.4256-.2237.6548-.032.0655-.064.1637-.0959.2292-.2876.753-.6072 1.4732-.9588 2.1935-.0319.0982-.0959.1637-.1278.2619-.0319.0983-.0959.1637-.1278.2619-.2877.5239-.5752 1.0477-.8948 1.5388-.064.0982-.0959.1637-.1599.2619-.0638.0982-.0958.1637-.1597.2619-.1918.262-.3516.5239-.5433.753-.064.0655-.0959.131-.1598.1965-.1279.1637-.2557.3274-.3516.4583-.1598.2292-.3515.4256-.5432.622-.064.0656-.0959.131-.1599.1638-.2237.2619-.4474.5238-.703.7529l-.4155.4257c-.3515.3274-.6711.6548-1.0547.9494-.2556.1309-.5112.262-.7989.3602-.0639.0327-.1278.0654-.1917.0654-.2237.0982-.4475.1638-.6712.2292l-.1278.0327-.1598.0328c-.2237.0654-.4474.0982-.6711.1637-.0639 0-.1598.0327-.2237.0327-.1598.0328-.2877.0328-.4474.0655h-.1599c-.4793.0327-.9586 0-1.4381-.1309l-.6711-.1965c-.1917-.0654-.3515-.131-.5113-.2292l-.1918-.0982c-.1597-.0654-.2876-.1637-.4154-.2619-.0639-.0327-.1279-.0982-.1918-.1309l-.3835-.2947c-.1278-.0983-.2556-.2292-.3834-.3602-.2877-.3274-.5754-.6548-.831-.9822-.0959-.1309-.1918-.2619-.2556-.3928l-.1279-.1965-.0958-.1636c-.0959-.131-.1599-.2947-.2558-.4584l-.0958-.1964c-.0959-.1965-.1917-.3929-.3196-.6221-.1278-.2292-.2237-.4911-.3196-.7202-.0319-.0655-.0639-.0983-.0639-.1637-.0639-.1965-.1278-.3929-.2237-.5566l-.1918-.5893-.0958-.2947-.0959-.2946c-.032-.0655-.032-.131-.0639-.1964-.032-.0655-.0639-.2292-.0959-.3274-.032-.0983-.0639-.2292-.0959-.3274-.0319-.0983-.0639-.2292-.0958-.3274-.032-.0983-.064-.2292-.064-.3274 0-.131-.0639-.2292-.0639-.3274-.0319-.0983-.0639-.2292-.0639-.3274-.0319-.0983-.0319-.2292-.0639-.3275-.032-.0981-.032-.2291-.0639-.3273-.032-.0982-.032-.0982-.032-.1637l17.4493-10.5748 1.1824-.7202.0959-.0656c.064.3929.1279.8185.1918 1.2441.0959.884.1598 1.8007.1598 2.6847z" fill="#fff"/><path d="M27.0133 58.1295l-.032-.1309c-.0319-.0983-.0319-.1638-.0319-.262v-.131c0-.0982-.0319-.1636-.0319-.2619 0 .0655-.032.131-.032.1964 0 .0655 0 .0983-.032.1311 0 .0327 0 .0981-.0319.1309 0 .0654-.032.1309-.032.2292 0 .0327-.032.0982-.032.1309l.1279.0655.1278-.0982zm0 0c0-.0328 0-.0982-.032-.1309-.0319-.0983-.0319-.1638-.0319-.262v-.131c0-.0982-.0319-.1636-.0319-.2619 0 .0655-.032.131-.032.1964 0 .0655 0 .0983-.032.1311 0 .0327 0 .0981-.0319.1309 0 .0654-.032.1309-.032.2292 0 .0327-.032.0982-.032.1309l.1279.0655.1278-.0982zm0 0c0-.0328 0-.0982-.032-.1309-.0319-.0983-.0319-.1638-.0319-.262v-.131c0-.0982-.0319-.1636-.0319-.2619 0 .0655-.032.131-.032.1964 0 .0655 0 .0983-.032.1311 0 .0327 0 .0981-.0319.1309 0 .0654-.032.1309-.032.2292 0 .0327-.032.0982-.032.1309l.1279.0655.1278-.0982zm0 0c0-.0328 0-.0982-.032-.1309-.0319-.0983-.0319-.1638-.0319-.262v-.131c0-.0982-.0319-.1636-.0319-.2619 0 .0655-.032.131-.032.1964 0 .0655 0 .0983-.032.1311 0 .0327 0 .0981-.0319.1309 0 .0654-.032.1309-.032.2292 0 .0327-.032.0982-.032.1309l.1279.0655.1278-.0982zm0 0c0-.0328 0-.0982-.032-.1309-.0319-.0983-.0319-.1638-.0319-.262v-.131c0-.0982-.0319-.1636-.0319-.2619 0 .0655-.032.131-.032.1964 0 .0655 0 .0983-.032.1311 0 .0327 0 .0981-.0319.1309 0 .0654-.032.1309-.032.2292 0 .0327-.032.0982-.032.1309l.1279.0655.1278-.0982zm0 0c0-.0328 0-.0982-.032-.1309-.0319-.0983-.0319-.1638-.0319-.262v-.131c0-.0982-.0319-.1636-.0319-.2619 0 .0655-.032.131-.032.1964 0 .0655 0 .0983-.032.1311 0 .0327 0 .0981-.0319.1309 0 .0654-.032.1309-.032.2292 0 .0327-.032.0982-.032.1309l.1279.0655.1278-.0982zm0 0c0-.0328 0-.0982-.032-.1309-.0319-.0983-.0319-.1638-.0319-.262v-.131c0-.0982-.0319-.1636-.0319-.2619 0 .0655-.032.131-.032.1964 0 .0655 0 .0983-.032.1311 0 .0327 0 .0981-.0319.1309 0 .0654-.032.1309-.032.2292 0 .0327-.032.0982-.032.1309l.1279.0655.1278-.0982zm0 0c0-.0328 0-.0982-.032-.1309-.0319-.0983-.0319-.1638-.0319-.262v-.131c0-.0982-.0319-.1636-.0319-.2619 0 .0655-.032.131-.032.1964 0 .0655 0 .0983-.032.1311 0 .0327 0 .0981-.0319.1309 0 .0654-.032.1309-.032.2292 0 .0327-.032.0982-.032.1309l.1279.0655.1278-.0982zm0 0c0-.0328 0-.0982-.032-.1309-.0319-.0983-.0319-.1638-.0319-.262v-.131c0-.0982-.0319-.1636-.0319-.2619 0 .0655-.032.131-.032.1964 0 .0655 0 .0983-.032.1311 0 .0327 0 .0981-.0319.1309 0 .0654-.032.1309-.032.2292 0 .0327-.032.0982-.032.1309l.1279.0655.1278-.0982zm0 0c0-.0328 0-.0982-.032-.1309-.0319-.0983-.0319-.1638-.0319-.262v-.131c0-.0982-.0319-.1636-.0319-.2619 0 .0655-.032.131-.032.1964 0 .0655 0 .0983-.032.1311 0 .0327 0 .0981-.0319.1309 0 .0654-.032.1309-.032.2292 0 .0327-.032.0982-.032.1309l.1279.0655.1278-.0982zm0 0c0-.0328 0-.0982-.032-.1309-.0319-.0983-.0319-.1638-.0319-.262v-.131c0-.0982-.0319-.1636-.0319-.2619 0 .0655-.032.131-.032.1964 0 .0655 0 .0983-.032.1311 0 .0327 0 .0981-.0319.1309 0 .0654-.032.1309-.032.2292 0 .0327-.032.0982-.032.1309l.1279.0655.1278-.0982zm0 0c0-.0328 0-.0982-.032-.1309-.0319-.0983-.0319-.1638-.0319-.262v-.131c0-.0982-.0319-.1636-.0319-.2619 0 .0655-.032.131-.032.1964 0 .0655 0 .0983-.032.1311 0 .0327 0 .0981-.0319.1309 0 .0654-.032.1309-.032.2292 0 .0327-.032.0982-.032.1309l.1279.0655.1278-.0982zm0 0c0-.0328 0-.0982-.032-.1309-.0319-.0983-.0319-.1638-.0319-.262v-.131c0-.0982-.0319-.1636-.0319-.2619 0 .0655-.032.131-.032.1964 0 .0655 0 .0983-.032.1311 0 .0327 0 .0981-.0319.1309 0 .0654-.032.1309-.032.2292 0 .0327-.032.0982-.032.1309l.1279.0655.1278-.0982zm0 0c0-.0328 0-.0982-.032-.1309-.0319-.0983-.0319-.1638-.0319-.262v-.131c0-.0982-.0319-.1636-.0319-.2619 0 .0655-.032.131-.032.1964 0 .0655 0 .0983-.032.1311 0 .0327 0 .0981-.0319.1309 0 .0654-.032.1309-.032.2292 0 .0327-.032.0982-.032.1309l.1279.0655.1278-.0982zm0 0c0-.0328 0-.0982-.032-.1309-.0319-.0983-.0319-.1638-.0319-.262v-.131c0-.0982-.0319-.1636-.0319-.2619 0 .0655-.032.131-.032.1964 0 .0655 0 .0983-.032.1311 0 .0327 0 .0981-.0319.1309 0 .0654-.032.1309-.032.2292 0 .0327-.032.0982-.032.1309l.1279.0655.1278-.0982zm-.032-.1309c-.0319-.0983-.0319-.1638-.0319-.262v-.131c0-.0982-.0319-.1636-.0319-.2619 0 .0655-.032.131-.032.1964 0 .0655 0 .0983-.032.1311 0 .0327 0 .0981-.0319.1309 0 .0654-.032.1309-.032.2292 0 .0327-.032.0982-.032.1309l.1279.0655.1278-.0655c0-.0655 0-.1309-.032-.1636zm20.741-12.7357c-.0319-.0982-.0319-.1964-.0638-.2619l-.0959-.3601-.7031-.2947-.799.4911-.7989.4911-17.8009 10.7713-.5752.3601-.5753-.3601-17.80079-10.804-.79897-.4912-.8309-.491-.70309.2947-.09588.3601c0 .0327-.03195.0982-.03195.1309-.41547 1.7025-.60721 3.4376-.60721 5.1728v.3274c0 .2292 0 .4583.03196.6875v.5239c0 .2292.03195.4256.06391.6548.03196.1964.03196.3601.06391.5566 0 .0982.03196.1963.03196.2619l.19175 1.1785.09588.4912c.12784.5566.25567 1.113.41545 1.6369.06392.1965.09588.3601.1598.5566.35155 1.1131.767 2.2263 1.27833 3.2739.09588.1637.1598.3602.25567.5238l.19176.3929c.06391.131.15979.2947.2237.4257.06392.1309.19175.3601.28763.5237l.12783.2292c.12784.2292.28763.4584.44742.6875.15978.2292.31962.4584.44744.6876.09589.1637.22371.2946.31959.4583.1278.1965.2876.3929.4474.5566l.0639.0655.1598.2292c.1278.1309.2237.2947.3516.4256l.1917.1964c.1278.131.2557.2619.3516.3929l.1916.1965.1918.1963.1918.1965.1918.1964.2237.2292.1597.1637c.064.0655.1599.1309.2237.1964.0959.0656.1599.131.2237.2292l.1918.1637.1278.0982.064.0655.0958.0982.0639.0655c.064.0328.0959.0982.1598.1309l.1598.131.032.0328h.032l.2556.1964.0959.0654.1278.0983.2876.1964.3196.2292.064.0327.0319.0327c.0319.0328.0639.0328.0959.0656l.0959.0655c.2556.1963.5433.3601.7989.5237l.1598.0983.0958.0655c2.3011 1.375 4.8258 2.2917 7.4464 2.6846.1917.0328.4154.0655.6072.0655l.1598.0327h.1917c.064 0 .1278 0 .1918.0328h.5114c.1278 0 .2875.0327.4154.0327h.735c1.5979 0 3.1959-.1965 4.7299-.5893.1917-.0328.3835-.0982.5752-.1637l.9588-.2946.2876-.0983c.2237-.0655.4474-.1637.6392-.2291.2875-.1311.6071-.262.8948-.393 1.3742-.622 2.6526-1.375 3.867-2.259.0959-.0982.2237-.1636.3196-.2292l.0638-.0654.064-.0655c.0639-.0654.1597-.0982.2237-.1637.0639-.0655.1278-.0982.1918-.1637l.1597-.1309.064-.0656.0638-.0327c.5433-.4583 1.0866-.9494 1.598-1.4732l.4474-.4584c.4154-.4583.799-.9167 1.1824-1.375 3.2918-4.1252 5.0814-9.2653 5.1134-14.6018 0-1.7025-.1917-3.3721-.5753-5.0091zm-.9587 5.0091c0 .4256 0 .8513-.032 1.2769 0 .1637-.0319.3601-.0319.5238-.032.2947-.064.6221-.0959.9167 0 .0982-.0319.1964-.0319.2619l-.0959.5893c-.032.1637-.064.2946-.0959.4584 0 .0327 0 .0982-.0319.1309-.032.0982-.032.1965-.064.2947l-.2876 1.1786c-.0639.1965-.0959.3601-.1598.5566v.0327c-.0639.1964-.0959.3601-.1598.5566-.0639.1964-.1598.4256-.2237.6548-.0319.0655-.0639.1636-.0959.2291-.2876.7531-.6072 1.4733-.9587 2.1935-.032.0983-.0959.1638-.1279.262-.0319.0982-.0959.1637-.1278.2619-.2876.5239-.5752 1.0477-.8948 1.5387-.064.0982-.0959.1638-.1599.262-.0638.0982-.0958.1636-.1597.2619-.1918.2619-.3515.5238-.5433.753-.0639.0654-.0959.131-.1598.1964-.1278.1637-.2557.3274-.3515.4583-.1598.2292-.3516.4257-.5433.6221-.0639.0655-.0959.131-.1598.1637-.2237.262-.4474.5238-.7031.753l-.4155.4256c-.3515.3275-.6711.6549-1.0546.9495l-.0639.0655c-.6711.5566-1.3742 1.0803-2.1093 1.5387-.5433.3274-1.0866.6548-1.6299.9495-.6071.2946-1.2144.5893-1.8215.8184l-.2877.0983-.4155.1636c-.2556.0983-.4793.1638-.735.2292l-.3515.0982c-.1278.0327-.2237.0655-.3196.0983-1.4381.3601-2.9082.5565-4.3783.5565h-.7031c-.6392-.0328-1.2463-.0655-1.8855-.1637-.7031-.0982-1.4062-.2619-2.0774-.4256l-.0638-.0328-.2557-.0654c-.2557-.0655-.5113-.1637-.799-.262-.2237-.0654-.4155-.1636-.6392-.2291l-.1917-.0655c-.1279-.0655-.2876-.0982-.4154-.1637l-.1599-.0654-.2556-.0983c-.2877-.1309-.5753-.2619-.8309-.3929-.5753-.2946-1.1186-.5893-1.6618-.9494-5.7206-3.6995-9.39584-9.9855-9.87522-16.8935 0-.0982 0-.1964-.03196-.2946v-1.2114c0-.2947 0-.5566.03196-.8512.03196-.4584.06392-.9168.09587-1.4078.06392-.5566.12784-1.1132.25568-1.6697l.38349.2291L26.1185 57.7366l.1279.0982.5432.3274.1279.0655.1278-.0655.5433-.3274.1278-.0982 17.4493-10.5748 1.1825-.7202.0958-.0656c.0639.393.1279.8185.1917 1.2441.0959.884.1279 1.768.1279 2.6519zm-19.7503 7.8575c0-.0328 0-.0982-.032-.1309-.0319-.0983-.0319-.1638-.0319-.262v-.131c0-.0982-.0319-.1636-.0319-.2619 0 .0655-.032.131-.032.1964 0 .0655 0 .0983-.032.1311 0 .0327 0 .0981-.0319.1309 0 .0654-.032.1309-.032.2292 0 .0327-.032.0982-.032.1309l.1279.0655.1278-.0982zm0 0c0-.0328 0-.0982-.032-.1309-.0319-.0983-.0319-.1638-.0319-.262v-.131c0-.0982-.0319-.1636-.0319-.2619 0 .0655-.032.131-.032.1964 0 .0655 0 .0983-.032.1311 0 .0327 0 .0981-.0319.1309 0 .0654-.032.1309-.032.2292 0 .0327-.032.0982-.032.1309l.1279.0655.1278-.0982zm0 0c0-.0328 0-.0982-.032-.1309-.0319-.0983-.0319-.1638-.0319-.262v-.131c0-.0982-.0319-.1636-.0319-.2619 0 .0655-.032.131-.032.1964 0 .0655 0 .0983-.032.1311 0 .0327 0 .0981-.0319.1309 0 .0654-.032.1309-.032.2292 0 .0327-.032.0982-.032.1309l.1279.0655.1278-.0982zm0 0c0-.0328 0-.0982-.032-.1309-.0319-.0983-.0319-.1638-.0319-.262v-.131c0-.0982-.0319-.1636-.0319-.2619 0 .0655-.032.131-.032.1964 0 .0655 0 .0983-.032.1311 0 .0327 0 .0981-.0319.1309 0 .0654-.032.1309-.032.2292 0 .0327-.032.0982-.032.1309l.1279.0655.1278-.0982zm0 0c0-.0328 0-.0982-.032-.1309-.0319-.0983-.0319-.1638-.0319-.262v-.131c0-.0982-.0319-.1636-.0319-.2619 0 .0655-.032.131-.032.1964 0 .0655 0 .0983-.032.1311 0 .0327 0 .0981-.0319.1309 0 .0654-.032.1309-.032.2292 0 .0327-.032.0982-.032.1309l.1279.0655.1278-.0982zm0 0c0-.0328 0-.0982-.032-.1309-.0319-.0983-.0319-.1638-.0319-.262v-.131c0-.0982-.0319-.1636-.0319-.2619 0 .0655-.032.131-.032.1964 0 .0655 0 .0983-.032.1311 0 .0327 0 .0981-.0319.1309 0 .0654-.032.1309-.032.2292 0 .0327-.032.0982-.032.1309l.1279.0655.1278-.0982zm0 0c0-.0328 0-.0982-.032-.1309-.0319-.0983-.0319-.1638-.0319-.262v-.131c0-.0982-.0319-.1636-.0319-.2619 0 .0655-.032.131-.032.1964 0 .0655 0 .0983-.032.1311 0 .0327 0 .0981-.0319.1309 0 .0654-.032.1309-.032.2292 0 .0327-.032.0982-.032.1309l.1279.0655.1278-.0982zm0 0c0-.0328 0-.0982-.032-.1309-.0319-.0983-.0319-.1638-.0319-.262v-.131c0-.0982-.0319-.1636-.0319-.2619 0 .0655-.032.131-.032.1964 0 .0655 0 .0983-.032.1311 0 .0327 0 .0981-.0319.1309 0 .0654-.032.1309-.032.2292 0 .0327-.032.0982-.032.1309l.1279.0655.1278-.0982zm0 0c0-.0328 0-.0982-.032-.1309-.0319-.0983-.0319-.1638-.0319-.262v-.131c0-.0982-.0319-.1636-.0319-.2619 0 .0655-.032.131-.032.1964 0 .0655 0 .0983-.032.1311 0 .0327 0 .0981-.0319.1309 0 .0654-.032.1309-.032.2292 0 .0327-.032.0982-.032.1309l.1279.0655.1278-.0982zm0 0c0-.0328 0-.0982-.032-.1309-.0319-.0983-.0319-.1638-.0319-.262v-.131c0-.0982-.0319-.1636-.0319-.2619 0 .0655-.032.131-.032.1964 0 .0655 0 .0983-.032.1311 0 .0327 0 .0981-.0319.1309 0 .0654-.032.1309-.032.2292 0 .0327-.032.0982-.032.1309l.1279.0655.1278-.0982zm0 0c0-.0328 0-.0982-.032-.1309-.0319-.0983-.0319-.1638-.0319-.262v-.131c0-.0982-.0319-.1636-.0319-.2619 0 .0655-.032.131-.032.1964 0 .0655 0 .0983-.032.1311 0 .0327 0 .0981-.0319.1309 0 .0654-.032.1309-.032.2292 0 .0327-.032.0982-.032.1309l.1279.0655.1278-.0982zm0 0c0-.0328 0-.0982-.032-.1309-.0319-.0983-.0319-.1638-.0319-.262v-.131c0-.0982-.0319-.1636-.0319-.2619 0 .0655-.032.131-.032.1964 0 .0655 0 .0983-.032.1311 0 .0327 0 .0981-.0319.1309 0 .0654-.032.1309-.032.2292 0 .0327-.032.0982-.032.1309l.1279.0655.1278-.0982zm0 0c0-.0328 0-.0982-.032-.1309-.0319-.0983-.0319-.1638-.0319-.262v-.131c0-.0982-.0319-.1636-.0319-.2619 0 .0655-.032.131-.032.1964 0 .0655 0 .0983-.032.1311 0 .0327 0 .0981-.0319.1309 0 .0654-.032.1309-.032.2292 0 .0327-.032.0982-.032.1309l.1279.0655.1278-.0982zm0 0c0-.0328 0-.0982-.032-.1309-.0319-.0983-.0319-.1638-.0319-.262v-.131c0-.0982-.0319-.1636-.0319-.2619 0 .0655-.032.131-.032.1964 0 .0655 0 .0983-.032.1311 0 .0327 0 .0981-.0319.1309 0 .0654-.032.1309-.032.2292 0 .0327-.032.0982-.032.1309l.1279.0655.1278-.0982zm0 0l-.032-.1309c-.0319-.0983-.0319-.1638-.0319-.262v-.131c0-.0982-.0319-.1636-.0319-.2619 0 .0655-.032.131-.032.1964 0 .0655 0 .0983-.032.1311 0 .0327 0 .0981-.0319.1309 0 .0654-.032.1309-.032.2292 0 .0327-.032.0982-.032.1309l.1279.0655.1278-.0982zM26.8861 28.9915l-.767.3601v-.6875l.767.3274z" fill="#fff"/><path d="M26.8871 32.0693v20.593l-.0959-.0654-.6711-.3929-1.9814-1.2113v-.9167l.767.4584 1.2144.7529V33.2807l-1.2144.5893-.767.3601v-.884l1.9814-.9166.3515-.131.4155-.2292z" fill="#fff"/><path d="M26.8865 31.2507l-.1917.0983-.5433.2619-1.2464.5565-.767.3602-.767.3601v1.7024l.767-.3601.767-.3601 1.2464-.5566V51.32l-1.2464-.7531-.767-.4583-.767-.4584v1.8007l2.7484 1.6697.5433.3274.1918.131.1918-.131.5432-.3274v-22.23l-.7031.3601z" fill="#fff"/><path d="M27.6224 33.2807v3.3067-3.3067zm0 0v3.3067-3.3067zm0 0v3.3067-3.3067zm0 0v3.3067-3.3067zm0 0v3.3067-3.3067zm0 0v3.3067-3.3067zm0 0v3.3067-3.3067zm0 0v3.3067-3.3067zm0 0v3.3067-3.3067zm0 0v3.3067-3.3067zm0 0v3.3067-3.3067zm0 0v3.3067-3.3067zm0 0v3.3067-3.3067zm0 0v3.3067-3.3067zm0 0v3.3067-3.3067zm0-.8512l-.7669-.3602v20.5603l.0958-.0654.6711-.3929 14.0298-8.5122.7989-.4911.7989-.4912 2.0135-1.2113.7989-.4911-18.44-8.5449zm14.7968 9.92l-.799.4911-.7989.4911-13.1989 7.9884V33.3134l16.8101 7.8247-2.0133 1.2114zm-14.7968-9.0688v3.3067-3.3067zm0 0v3.3067-3.3067zm0 0v3.3067-3.3067zm0 0v3.3067-3.3067zm0 0v3.3067-3.3067zm0 0v3.3067-3.3067zm0 0v3.3067-3.3067zm0 0v3.3067-3.3067zm0 0v3.3067-3.3067zm0 0v3.3067-3.3067zm0 0v3.3067-3.3067zm0 0v3.3067-3.3067zm0 0v3.3067-3.3067zm0 0v3.3067-3.3067zm0 0v3.3067-3.3067z" fill="#fff"/><path d="M26.8861 32.92l-.767-.3602v3.9943l.767-.3275.7671.3275v-3.3068l-.7671-.3273zm19.7184 7.4973l-1.2144-.5566-1.2145-.5566-16.5544-7.6937-1.5021-.6875v22.1973l.5433.3273.1918.131.1918-.131.5433-.3273 14.8926-9.0361.7989-.4911.799-.4911 1.9814-1.2113.9907-.5894-.4474-.8839zm-4.9855 2.39l-.799.491-13.1988 7.9884V33.2801l16.8102 7.8247-2.0135 1.2113-.7989.4912z" fill="#fff"/><path d="M26.8867 29.8421v1.3752l.767-.3602v-.6876l-.767-.3274zm0 0v1.3752l.767-.3602v-.6876l-.767-.3274zm0 0v1.3752l.767-.3602v-.6876l-.767-.3274zm0 0v1.3752l.767-.3602v-.6876l-.767-.3274zm0 0v1.3752l.767-.3602v-.6876l-.767-.3274zm0 0v1.3752l.767-.3602v-.6876l-.767-.3274zm0 0v1.3752l.767-.3602v-.6876l-.767-.3274zm0 0v1.3752l.767-.3602v-.6876l-.767-.3274zm0 0v1.3752l.767-.3602v-.6876l-.767-.3274zm0 0v1.3752l.767-.3602v-.6876l-.767-.3274zm0 0v1.3752l.767-.3602v-.6876l-.767-.3274zm0 0v1.3752l.767-.3602v-.6876l-.767-.3274zm0 0v1.3752l.767-.3602v-.6876l-.767-.3274zm0 0v1.3752l.767-.3602v-.6876l-.767-.3274zm18.5039 10.0183l-1.1185-1.8989-.6711-1.1785-.831-1.4079-1.7257-2.9137L27.6537 9.70749l-.767-1.27683V32.134l.767.3601 18.44 8.5776-.7031-1.2113zm-17.7688-8.9705V11.148l11.6967 19.8728 1.1186 1.8989 1.9175 3.2739.6711 1.1786 1.1186 1.8989-16.5545-7.6937.032-.6875zm-.7351-1.0478v1.3752l.767-.3602v-.6876l-.767-.3274zm0 0v1.3752l.767-.3602v-.6876l-.767-.3274zm0 0v1.3752l.767-.3602v-.6876l-.767-.3274zm0 0v1.3752l.767-.3602v-.6876l-.767-.3274zm0 0v1.3752l.767-.3602v-.6876l-.767-.3274zm0 0v1.3752l.767-.3602v-.6876l-.767-.3274zm0 0v1.3752l.767-.3602v-.6876l-.767-.3274zm0 0v1.3752l.767-.3602v-.6876l-.767-.3274zm0 0v1.3752l.767-.3602v-.6876l-.767-.3274zm0 0v1.3752l.767-.3602v-.6876l-.767-.3274zm0 0v1.3752l.767-.3602v-.6876l-.767-.3274zm0 0v1.3752l.767-.3602v-.6876l-.767-.3274zm0 0v1.3752l.767-.3602v-.6876l-.767-.3274zm0 0v1.3752l.767-.3602v-.6876l-.767-.3274z" fill="#fff"/><path d="M26.8861 28.9911l-.767.3601v2.2263l.5433-.2619.1918-.0982.767-.3602v-1.5387l-.7351-.3274zm0 0l-.767.3601v2.2263l.5433-.2619.1918-.0982.767-.3602v-1.5387l-.7351-.3274zm0 .8513v1.375l.7671-.3602v-.6875l-.7671-.3273zm0 0v1.375l.7671-.3602v-.6875l-.7671-.3273zm0 0v1.375l.7671-.3602v-.6875l-.7671-.3273zm0 0v1.375l.7671-.3602v-.6875l-.7671-.3273zm0 0v1.375l.7671-.3602v-.6875l-.7671-.3273zm0 0v1.375l.7671-.3602v-.6875l-.7671-.3273zm0 0v1.375l.7671-.3602v-.6875l-.7671-.3273zm0 0v1.375l.7671-.3602v-.6875l-.7671-.3273zm0 0v1.375l.7671-.3602v-.6875l-.7671-.3273zm0 0v1.375l.7671-.3602v-.6875l-.7671-.3273zm0 0v1.375l.7671-.3602v-.6875l-.7671-.3273zm0 0v1.375l.7671-.3602v-.6875l-.7671-.3273zm0 0v1.375l.7671-.3602v-.6875l-.7671-.3273zm0 0v1.375l.7671-.3602v-.6875l-.7671-.3273zm19.7184 10.5748l-3.2278-5.5003L27.6532 8.20163l-.7671-1.27683-.767 1.27683V32.6252l.767.3601.7671.3601 16.8101 7.8247.8309.3929.8309.3929.9908-.5893-.5114-.9494zm-18.9833-29.269L39.3179 31.021l1.1186 1.8989 1.9175 3.2738.6712 1.1787 1.1185 1.8989-16.5544-7.6938.0319-20.4293zm-.7351 18.6942v1.375l.7671-.3602v-.6875l-.7671-.3273zm0 0v1.375l.7671-.3602v-.6875l-.7671-.3273zm0 0v1.375l.7671-.3602v-.6875l-.7671-.3273zm0 0v1.375l.7671-.3602v-.6875l-.7671-.3273zm0 0v1.375l.7671-.3602v-.6875l-.7671-.3273zm0 0v1.375l.7671-.3602v-.6875l-.7671-.3273zm0 0v1.375l.7671-.3602v-.6875l-.7671-.3273zm0 0v1.375l.7671-.3602v-.6875l-.7671-.3273zm0 0v1.375l.7671-.3602v-.6875l-.7671-.3273zm0 0v1.375l.7671-.3602v-.6875l-.7671-.3273zm0 0v1.375l.7671-.3602v-.6875l-.7671-.3273zm0 0v1.375l.7671-.3602v-.6875l-.7671-.3273zm0 0v1.375l.7671-.3602v-.6875l-.7671-.3273zm0 0l-.767.3601v1.375l.5433-.2619.1918-.0982.767-.3602v-.6875l-.7351-.3273zm0-.8186l-.767.3601v2.2264l.5433-.2619.1918-.0983.767-.3601v-1.5388l-.7351-.3274z" fill="#fff"/><path d="M26.4705 32.298l-.3196.1638-1.9814.9167v-.8513l-.767.3601-13.80599 6.417 1.11849-1.8989.6712-1.1786-1.2145.5566-1.18243 2.0297-.63917 1.0477-.57525 1.015c-.03196.0327-.03196.0982-.06391.1309l.767.4584 2.01336 1.2112.799.4912.7989.4911 11.2814 6.8753.767.4583 1.9814 1.2113.6711.4256.0639.0327V32.1016l-.3835.1964zm-.3515 18.9888l-1.2464-.7529-.767-.4584-.767-.4583-10.3865-6.3188-.7989-.491-.799-.4584-2.01338-1.2441L23.4025 34.557l.767-.3601.767-.3601 1.2464-.5894-.0639 18.0394z" fill="#fff"/><path d="M24.1389 33.3788l-.767.3274v.8512l.767-.3601.767-.3601 1.2464-.5893v-.8513l-2.0134.9822zm0 0l-.767.3274v.8512l.767-.3601.767-.3601 1.2464-.5893v-.8513l-2.0134.9822zm2.7485-2.1281l-.1918.0983-.5433.2619-1.2464.5893-.767.3274-.767.3274v1.7024l.767-.3601.767-.3601 1.2464-.5893v18.0066l-1.2464-.753-1.502-.9168-10.4504-6.2859-.799-.4911-.799-.4583-2.01333-1.2441-.60721-.3601.1598-.2947.6711-1.1786 1.11854-1.8989.6711-1.1787.2237-.3928.4474-.753-1.2144.5565-1.21432.5566-2.4928 4.2234-.06391.0982-.44742.753.12784.0655.47937.2947.03196.0327.35155.2291 1.98139 1.2114.79894.4911.799.4911 12.1442 7.3664 2.7484 1.6696.5433.3274.1918.131.1917-.131.5433-.3274V30.8906l-.6391.3601zm-2.7485 2.1281l-.767.3274v.8512l.767-.3601.767-.3601 1.2464-.5893v-.8513l-2.0134.9822zm0 0l-.767.3274v.8512l.767-.3601.767-.3601 1.2464-.5893v-.8513l-2.0134.9822z" fill="#fff"/><path d="M26.4705 32.2984l-.3196.1638-1.9814.9167-.767.3601-14.50911 6.7442-1.18245.5566.767.4584 2.01336 1.2114.799.491.7989.4911 11.3133 6.8753.767.4583 1.9814 1.2114.6711.4255.064.0328V32.1348l-.4155.1636zm-3.068 2.259l.767-.3274.767-.3601 1.2464-.5893v18.0066l-1.2464-.7529-.767-.4584-.767-.4583-10.4504-6.3188-.7989-.491-.799-.4584-2.01339-1.2441 14.06169-6.5479z" fill="#fff"/><path d="M26.8866 31.2507l-.1917.0983-.5433.2619-1.2464.5565-.767.3602-.767.3601-13.80606 6.4169-1.21439.5566-.95875.4583-.25567.131-.06392.0982-.44741.753.12783.0655.51133.3274.35155.1965 1.98145 1.2112.79894.4912.7989.4911 12.1443 7.3663 2.7483 1.6697.5433.3274.1918.131.1918-.131.5433-.3274v-22.23l-.6712.3601zM9.3095 41.1053l14.0617-6.5479.767-.3601.767-.3601 1.2464-.5566v18.0066l-1.2464-.753-1.5021-.9167-10.4503-6.3187-.799-.4911-.7989-.4911-2.0454-1.2113zM26.1195 28.5332l-.1274.0652-.0956-.0652h.223z" fill="#fff"/><path d="M26.1197 30.2029v1.3751l.5433-.262.1917-.0982v-1.3751l-.735.3602zm-1.2144 1.9644l-.767.3601-.767.3601-13.80609 6.4169 1.11849-1.8989-1.11849 1.8989-.6711 1.1786 14.50909-6.7442.767-.3602 1.9815-.9167v-.8512l-1.2464.5566zm1.2144-1.9644v1.3751l.5433-.262.1917-.0982v-1.3751l-.735.3602zm-1.2144 1.9644l-.767.3601-.767.3601-13.80609 6.4169 1.11849-1.8989-1.11849 1.8989-.6711 1.1786 14.50909-6.7442.767-.3602 1.9815-.9167v-.8512l-1.2464.5566zm1.2144-1.9644v1.3751l.5433-.262.1917-.0982v-1.3751l-.735.3602zm-1.2144 1.9644l-.767.3601-.767.3601-13.80609 6.4169 1.11849-1.8989-1.11849 1.8989-.6711 1.1786 14.50909-6.7442.767-.3602 1.9815-.9167v-.8512l-1.2464.5566zm1.2144-1.9644v1.3751l.5433-.262.1917-.0982v-1.3751l-.735.3602zm-1.2144 1.9644l-.767.3601-.767.3601-13.80609 6.4169 1.11849-1.8989-1.11849 1.8989-.6711 1.1786 14.50909-6.7442.767-.3602 1.9815-.9167v-.8512l-1.2464.5566zm1.2144-1.9644v1.3751l.5433-.262.1917-.0982v-1.3751l-.735.3602zm-1.2144 1.9644l-.767.3601-.767.3601-13.80609 6.4169 1.11849-1.8989-1.11849 1.8989-.6711 1.1786 14.50909-6.7442.767-.3602 1.9815-.9167v-.8512l-1.2464.5566zm1.2144-1.9644v1.3751l.5433-.262.1917-.0982v-1.3751l-.735.3602zm-1.2144 1.9644l-.767.3601-.767.3601-13.80609 6.4169 1.11849-1.8989-1.11849 1.8989-.6711 1.1786 14.50909-6.7442.767-.3602 1.9815-.9167v-.8512l-1.2464.5566zm1.2144-1.9644v1.3751l.5433-.262.1917-.0982v-1.3751l-.735.3602zm-1.2144 1.9644l-.767.3601-.767.3601-13.80609 6.4169 1.11849-1.8989-1.11849 1.8989-.6711 1.1786 14.50909-6.7442.767-.3602 1.9815-.9167v-.8512l-1.2464.5566zm1.2144-1.9644v1.3751l.5433-.262.1917-.0982v-1.3751l-.735.3602zm-1.2144 1.9644l-.767.3601-.767.3601-13.80609 6.4169 1.11849-1.8989-1.11849 1.8989-.6711 1.1786 14.50909-6.7442.767-.3602 1.9815-.9167v-.8512l-1.2464.5566zm1.2144-1.9644v1.3751l.5433-.262.1917-.0982v-1.3751l-.735.3602zm-1.2144 1.9644l-.767.3601-.767.3601-13.80609 6.4169 1.11849-1.8989-1.11849 1.8989-.6711 1.1786 14.50909-6.7442.767-.3602 1.9815-.9167v-.8512l-1.2464.5566zm1.2144-1.9644v1.3751l.5433-.262.1917-.0982v-1.3751l-.735.3602zm-1.2144 1.9644l-.767.3601-.767.3601-13.80609 6.4169 1.11849-1.8989-1.11849 1.8989-.6711 1.1786 14.50909-6.7442.767-.3602 1.9815-.9167v-.8512l-1.2464.5566zm1.2144-1.9644v1.3751l.5433-.262.1917-.0982v-1.3751l-.735.3602zm-1.2144 1.9644l-.767.3601-.767.3601-13.80609 6.4169 1.11849-1.8989-1.11849 1.8989-.6711 1.1786 14.50909-6.7442.767-.3602 1.9815-.9167v-.8512l-1.2464.5566zm1.2144-1.9644v1.3751l.5433-.262.1917-.0982v-1.3751l-.735.3602zm-1.2144 1.9644l-.767.3601-.767.3601-13.80609 6.4169 1.11849-1.8989-1.11849 1.8989-.6711 1.1786 14.50909-6.7442.767-.3602 1.9815-.9167v-.8512l-1.2464.5566zm1.2144-1.9644v1.3751l.5433-.262.1917-.0982v-1.3751l-.735.3602zm-1.2144 1.9644l-.767.3601-.767.3601-13.80609 6.4169 1.11849-1.8989-1.11849 1.8989-.6711 1.1786 14.50909-6.7442.767-.3602 1.9815-.9167v-.8512l-1.2464.5566zm1.2144-1.9644v1.3751l.5433-.262.1917-.0982v-1.3751l-.735.3602zm-1.2144 1.9644l-.767.3601-.767.3601-13.80609 6.4169 1.11849-1.8989-1.11849 1.8989-.6711 1.1786 14.50909-6.7442.767-.3602 1.9815-.9167v-.8512l-1.2464.5566zm1.2144-22.49196L12.7291 32.4291l-1.7258 2.9139-.1278.2291-.6711 1.1786-1.82162 3.0775-.60721 1.0149-.09588.1311h.03196l1.18246-.5566 14.50909-6.7444.767-.3601 1.9815-.9167.3195-.1636.4155-.1965V8.33301l-.767 1.34233zm0 21.90266l-1.2464.5565-.735.3929-.767.3601-13.80609 6.4169 1.11849-1.8989.6712-1.1785.2237-.393.4474-.7529 1.2464-2.0954 1.1186-1.8989L26.0877 11.214l.032 20.364zm-1.2144.5893l-.767.3601-.767.3601-13.80609 6.4169 1.11849-1.8989-1.11849 1.8989-.6711 1.1786 14.50909-6.7442.767-.3602 1.9815-.9167v-.8512l-1.2464.5566zm1.2144-1.9644v1.3751l.5433-.262.1917-.0982v-1.3751l-.735.3602zm-1.2144 1.9644l-.767.3601-.767.3601-13.80609 6.4169 1.11849-1.8989-1.11849 1.8989-.6711 1.1786 14.50909-6.7442.767-.3602 1.9815-.9167v-.8512l-1.2464.5566zm1.2144-1.9644v1.3751l.5433-.262.1917-.0982v-1.3751l-.735.3602zm-1.2144 1.9644l-.767.3601-.767.3601-13.80609 6.4169 1.11849-1.8989-1.11849 1.8989-.6711 1.1786 14.50909-6.7442.767-.3602 1.9815-.9167v-.8512l-1.2464.5566zm1.2144-1.9644v1.3751l.5433-.262.1917-.0982v-1.3751l-.735.3602zm-1.2144 1.9644l-.767.3601-.767.3601-13.80609 6.4169 1.11849-1.8989-1.11849 1.8989-.6711 1.1786 14.50909-6.7442.767-.3602 1.9815-.9167v-.8512l-1.2464.5566zm1.2144-1.9644v1.3751l.5433-.262.1917-.0982v-1.3751l-.735.3602zm-1.2144 1.9644l-.767.3601-.767.3601-13.80609 6.4169 1.11849-1.8989-1.11849 1.8989-.6711 1.1786 14.50909-6.7442.767-.3602 1.9815-.9167v-.8512l-1.2464.5566zm1.2144-1.9644v1.3751l.5433-.262.1917-.0982v-1.3751l-.735.3602zm-1.2144 1.9644l-.767.3601-.767.3601-13.80609 6.4169 1.11849-1.8989-1.11849 1.8989-.6711 1.1786 14.50909-6.7442.767-.3602 1.9815-.9167v-.8512l-1.2464.5566zm1.2144-1.9644v1.3751l.5433-.262.1917-.0982v-1.3751l-.735.3602zm-1.2144 1.9644l-.767.3601-.767.3601-13.80609 6.4169 1.11849-1.8989-1.11849 1.8989-.6711 1.1786 14.50909-6.7442.767-.3602 1.9815-.9167v-.8512l-1.2464.5566zm1.2144-1.9644v1.3751l.5433-.262.1917-.0982v-1.3751l-.735.3602zm-1.2144 1.9644l-.767.3601-.767.3601-13.80609 6.4169 1.11849-1.8989-1.11849 1.8989-.6711 1.1786 14.50909-6.7442.767-.3602 1.9815-.9167v-.8512l-1.2464.5566zm1.2144-1.9644v1.3751l.5433-.262.1917-.0982v-1.3751l-.735.3602zm-1.2144 1.9644l-.767.3601-.767.3601-13.80609 6.4169 1.11849-1.8989-1.11849 1.8989-.6711 1.1786 14.50909-6.7442.767-.3602 1.9815-.9167v-.8512l-1.2464.5566zm1.2144-1.9644v1.3751l.5433-.262.1917-.0982v-1.3751l-.735.3602zm-1.2144 1.9644l-.767.3601-.767.3601-13.80609 6.4169 1.11849-1.8989-1.11849 1.8989-.6711 1.1786 14.50909-6.7442.767-.3602 1.9815-.9167v-.8512l-1.2464.5566zm1.2144-1.9644v1.3751l.5433-.262.1917-.0982v-1.3751l-.735.3602zm-1.2144 1.9644l-.767.3601-.767.3601-13.80609 6.4169 1.11849-1.8989-1.11849 1.8989-.6711 1.1786 14.50909-6.7442.767-.3602 1.9815-.9167v-.8512l-1.2464.5566zm1.2144-1.9644v1.3751l.5433-.262.1917-.0982v-1.3751l-.735.3602zm-1.2144 1.9644l-.767.3601-.767.3601-13.80609 6.4169 1.11849-1.8989-1.11849 1.8989-.6711 1.1786 14.50909-6.7442.767-.3602 1.9815-.9167v-.8512l-1.2464.5566zm1.2144-1.9644v1.3751l.5433-.262.1917-.0982v-1.3751l-.735.3602zm-1.2144 1.9644l-.767.3601-.767.3601-13.80609 6.4169 1.11849-1.8989-1.11849 1.8989-.6711 1.1786 14.50909-6.7442.767-.3602 1.9815-.9167v-.8512l-1.2464.5566zm1.2144-1.9644v1.3751l.5433-.262.1917-.0982v-1.3751l-.735.3602z" fill="#fff"/><path d="M24.9045 32.1673l1.2464-.5892-1.2464.5892zm-.767 1.1786v-.8184l-.767.3601v.8512l.767-.3929 1.9814-.9167-1.9814.9167zm.767-1.1786l1.2464-.5892-1.2464.5892zm-.767 1.1786v-.8184l-.767.3601v.8512l.767-.3929 1.9814-.9167-1.9814.9167zm1.9814-3.1429v1.3751l.5433-.262.1918-.0982v-1.3751l-.7351.3602zm-1.2144 1.9643l-.767.3602-.767.3601-13.806 6.4169 1.1185-1.8989-1.1185 1.8989-.67116 1.1786 14.50906-6.7443.767-.3601 1.9815-.9167v-.8512l-1.2464.5565zm1.2144-1.9643v1.3751l.5433-.262.1918-.0982v-1.3751l-.7351.3602zm-1.2144 1.9643l-.767.3602-.767.3601-13.806 6.4169 1.1185-1.8989-1.1185 1.8989-.67116 1.1786 14.50906-6.7443.767-.3601 1.9815-.9167v-.8512l-1.2464.5565zm1.2144-1.9643v1.3751l.5433-.262.1918-.0982v-1.3751l-.7351.3602zm-1.2144 1.9643l-.767.3602-.767.3601-13.806 6.4169 1.1185-1.8989-1.1185 1.8989-.67116 1.1786 14.50906-6.7443.767-.3601 1.9815-.9167v-.8512l-1.2464.5565zm1.2144-1.9643v1.3751l.5433-.262.1918-.0982v-1.3751l-.7351.3602zm-1.2144 1.9643l-.767.3602-.767.3601-13.806 6.4169 1.1185-1.8989-1.1185 1.8989-.67116 1.1786 14.50906-6.7443.767-.3601 1.9815-.9167v-.8512l-1.2464.5565zm1.2144-1.9643v1.3751l.5433-.262.1918-.0982v-1.3751l-.7351.3602zm-1.2144 1.9643l-.767.3602-.767.3601-13.806 6.4169 1.1185-1.8989-1.1185 1.8989-.67116 1.1786 14.50906-6.7443.767-.3601 1.9815-.9167v-.8512l-1.2464.5565zm1.2144-1.9643v1.3751l.5433-.262.1918-.0982v-1.3751l-.7351.3602zm-1.2144 1.9643l-.767.3602-.767.3601-13.806 6.4169 1.1185-1.8989-1.1185 1.8989-.67116 1.1786 14.50906-6.7443.767-.3601 1.9815-.9167v-.8512l-1.2464.5565zm1.2144-1.9643v1.3751l.5433-.262.1918-.0982v-1.3751l-.7351.3602zm-1.2144 1.9643l-.767.3602-.767.3601-13.806 6.4169 1.1185-1.8989-1.1185 1.8989-.67116 1.1786 14.50906-6.7443.767-.3601 1.9815-.9167v-.8512l-1.2464.5565zm1.2144-1.9643v1.3751l.5433-.262.1918-.0982v-1.3751l-.7351.3602zm-1.2144 1.9643l-.767.3602-.767.3601-13.806 6.4169 1.1185-1.8989-1.1185 1.8989-.67116 1.1786 14.50906-6.7443.767-.3601 1.9815-.9167v-.8512l-1.2464.5565zm1.2144-1.9643v1.3751l.5433-.262.1918-.0982v-1.3751l-.7351.3602zm-1.2144 1.9643l-.767.3602-.767.3601-13.806 6.4169 1.1185-1.8989-1.1185 1.8989-.67116 1.1786 14.50906-6.7443.767-.3601 1.9815-.9167v-.8512l-1.2464.5565zm1.2144-1.9643v1.3751l.5433-.262.1918-.0982v-1.3751l-.7351.3602zm-1.2144 1.9643l-.767.3602-.767.3601-13.806 6.4169 1.1185-1.8989-1.1185 1.8989-.67116 1.1786 14.50906-6.7443.767-.3601 1.9815-.9167v-.8512l-1.2464.5565zm1.2144-1.9643v1.3751l.5433-.262.1918-.0982v-1.3751l-.7351.3602zm-1.2144 1.9643l-.767.3602-.767.3601-13.806 6.4169 1.1185-1.8989-1.1185 1.8989-.67116 1.1786 14.50906-6.7443.767-.3601 1.9815-.9167v-.8512l-1.2464.5565zm1.2144-1.9643v1.3751l.5433-.262.1918-.0982v-1.3751l-.7351.3602zm-1.2144 1.9643l-.767.3602-.767.3601-13.806 6.4169 1.1185-1.8989-1.1185 1.8989-.67116 1.1786 14.50906-6.7443.767-.3601 1.9815-.9167v-.8512l-1.2464.5565zm1.2144-1.9643v1.3751l.5433-.262.1918-.0982v-1.3751l-.7351.3602zm-1.2144 1.9643l-.767.3602-.767.3601-13.806 6.4169 1.1185-1.8989-1.1185 1.8989-.67116 1.1786 14.50906-6.7443.767-.3601 1.9815-.9167v-.8512l-1.2464.5565zm1.2144-1.9643v1.3751l.5433-.262.1918-.0982v-1.3751l-.7351.3602zm-1.2144 1.9643l-.767.3602-.767.3601-13.806 6.4169 1.1185-1.8989-1.1185 1.8989-.67116 1.1786 14.50906-6.7443.767-.3601 1.9815-.9167v-.8512l-1.2464.5565zm1.9814-25.27472l-.767 1.27684L10.3954 34.9174l-.7351 1.2768-2.49272 4.2235-.06392.0981-.44741.7531.12784.0655.51133.3274.35154.1964.83092-.3929.86287-.3929 14.06165-6.5478.767-.3601.767-.3602 1.2465-.5566.7669-.3601.767-.3601V8.10394l-.8309-1.21136zm-.767 24.68552l-1.2463.5565-.7351.3929-.767.3601-13.806 6.4169 1.1185-1.8989.6712-1.1786.2237-.3929.4474-.7529 1.2463-2.0954 1.1186-1.8989L26.087 11.2141l.0319 20.364zm-1.2144.5892l-.767.3602-.767.3601-13.806 6.4169 1.1185-1.8989-1.1185 1.8989-.67116 1.1786 14.50906-6.7443.767-.3601 1.9815-.9167v-.8512l-1.2464.5565zm1.2144-1.9643v1.3751l.5433-.262.1918-.0982v-1.3751l-.7351.3602zm-1.2144 1.9643l-.767.3602-.767.3601-13.806 6.4169 1.1185-1.8989-1.1185 1.8989-.67116 1.1786 14.50906-6.7443.767-.3601 1.9815-.9167v-.8512l-1.2464.5565zm1.2144-1.9643v1.3751l.5433-.262.1918-.0982v-1.3751l-.7351.3602zm-1.2144 1.9643l-.767.3602-.767.3601-13.806 6.4169 1.1185-1.8989-1.1185 1.8989-.67116 1.1786 14.50906-6.7443.767-.3601 1.9815-.9167v-.8512l-1.2464.5565zm1.2144-1.9643v1.3751l.5433-.262.1918-.0982v-1.3751l-.7351.3602zm-1.2144 1.9643l-.767.3602-.767.3601-13.806 6.4169 1.1185-1.8989-1.1185 1.8989-.67116 1.1786 14.50906-6.7443.767-.3601 1.9815-.9167v-.8512l-1.2464.5565zm1.2144-1.9643v1.3751l.5433-.262.1918-.0982v-1.3751l-.7351.3602zm-1.2144 1.9643l-.767.3602-.767.3601-13.806 6.4169 1.1185-1.8989-1.1185 1.8989-.67116 1.1786 14.50906-6.7443.767-.3601 1.9815-.9167v-.8512l-1.2464.5565zm1.2144-1.9643v1.3751l.5433-.262.1918-.0982v-1.3751l-.7351.3602zm-1.2144 1.9643l-.767.3602-.767.3601-13.806 6.4169 1.1185-1.8989-1.1185 1.8989-.67116 1.1786 14.50906-6.7443.767-.3601 1.9815-.9167v-.8512l-1.2464.5565zm1.2144-1.9643v1.3751l.5433-.262.1918-.0982v-1.3751l-.7351.3602zm-1.2144 1.9643l-.767.3602-.767.3601-13.806 6.4169 1.1185-1.8989-1.1185 1.8989-.67116 1.1786 14.50906-6.7443.767-.3601 1.9815-.9167v-.8512l-1.2464.5565zm1.2144-1.9643v1.3751l.5433-.262.1918-.0982v-1.3751l-.7351.3602zm-1.2144 1.9643l-.767.3602-.767.3601-13.806 6.4169 1.1185-1.8989-1.1185 1.8989-.67116 1.1786 14.50906-6.7443.767-.3601 1.9815-.9167v-.8512l-1.2464.5565zm1.2144-1.9643v1.3751l.5433-.262.1918-.0982v-1.3751l-.7351.3602zm-1.2144 1.9643l-.767.3602-.767.3601-13.806 6.4169 1.1185-1.8989-1.1185 1.8989-.67116 1.1786 14.50906-6.7443.767-.3601 1.9815-.9167v-.8512l-1.2464.5565zm1.2144-1.9643v1.3751l.5433-.262.1918-.0982v-1.3751l-.7351.3602zm-1.2144 1.9643l-.767.3602-.767.3601-13.806 6.4169 1.1185-1.8989-1.1185 1.8989-.67116 1.1786 14.50906-6.7443.767-.3601 1.9815-.9167v-.8512l-1.2464.5565zm1.2144-1.9643v1.3751l.5433-.262.1918-.0982v-1.3751l-.7351.3602zm-1.2144 1.9643l-.767.3602-.767.3601-13.806 6.4169 1.1185-1.8989-1.1185 1.8989-.67116 1.1786 14.50906-6.7443.767-.3601 1.9815-.9167v-.8512l-1.2464.5565zm1.2144-1.9643v1.3751l.5433-.262.1918-.0982v-1.3751l-.7351.3602zm-1.2144 1.9643l-.767.3602-.767.3601-13.806 6.4169 1.1185-1.8989-1.1185 1.8989-.67116 1.1786 14.50906-6.7443.767-.3601 1.9815-.9167v-.8512l-1.2464.5565zm1.2144-1.9643v1.3751l.5433-.262.1918-.0982v-1.3751l-.7351.3602zm-1.2144 1.9643l-.767.3602-.767.3601-13.806 6.4169 1.1185-1.8989-1.1185 1.8989-.67116 1.1786 14.50906-6.7443.767-.3601 1.9815-.9167v-.8512l-1.2464.5565zm1.2144-1.9643v1.3751l.5433-.262.1918-.0982v-1.3751l-.7351.3602zm-1.9814 3.1429v-.8184l-.767.3601v.8512l.767-.3929 1.9814-.9167-1.9814.9167zm.767-1.1786l1.2464-.5892-1.2464.5892zm-.767 1.1786v-.8184l-.767.3601v.8512l.767-.3929 1.9814-.9167-1.9814.9167zm.767-1.1786l1.2464-.5892-1.2464.5892zM19.1211 70.6689c.2877.131.5753.262.8629.3603-.2876-.0983-.5752-.2293-.8629-.3603z" fill="#fff"/><path d="M20.2389 70.3411l-.2876.7203-.2557.7202-.0958-.0327c-.1279-.0328-.2557-.0982-.3516-.1637-.1598-.0655-.2876-.131-.4474-.1965l.3196-.6875.3196-.6875.0639.0328c.1917.0654.3515.1636.5433.2291l.1917.0655zM19.9824 71.0615c.2877.131.5753.2292.8949.3273-.3196-.1309-.6072-.2291-.8949-.3273z" fill="#fff"/><path d="M20.6221 72.1088c-.3196-.0982-.6072-.2292-.9268-.3274l.5433-1.4406c.2876.0982.5752.2292.8628.3274l-.4793 1.4406zM21.6133 71.6182l.6711.1964c-.1918-.0654-.4155-.1309-.6711-.1964z" fill="#fff"/><path d="M22.1249 72.535l-.3835-.0983-.3195-.0982.4154-1.4733.3196.0983c.0958.0327.2237.0654.3515.0982l-.3835 1.4733zM26.1823 56.8858l-.032-.0328L7.6464 45.6562l-.79895-.4912c-.03196.1311-.06392.2292-.09588.3602-.06392.3274-.12783.6221-.19175.9495-.03196.0982-.03196.1636-.03196.2618-.03196.131-.03196.2947-.06392.4257-.03196.1309-.03196.1964-.03196.2947-.03196.1963-.06391.3928-.06391.5893-.06392.7529-.12784 1.5059-.12784 2.259v1.3422c0 .1311.03196.262.03196.3929 0 .131.03196.2619.03196.3602v.1309c0 .0982.03196.1965.03196.2947 0 .0982.03196.1964.03196.3274l.19175 1.1786c0 .0655.03196.1309.03196.1964.12783.622.25567 1.2768.44741 1.8989.03196.0982.06392.1637.06392.2619.03196.0983.06392.1637.06392.2619.06391.262.15979.5239.25567.7858l.09587.2291.19175.4911.09587.262c.12784.3274.25567.6548.41547.9821.06392.131.09587.2292.15978.3602.06392.0982.12784.2292.1598.3601l.19175.3601c.06392.131.12783.2292.19175.3602l.09587.1964v.0327l.41549.6876c.03193.0655.09588.1309.12782.1964l.28757.4584.12791.1964.1598.2619.0639.0982.0639.0983.2876.3928.0959.1637.2237.2946c.032.0656.0639.131.1278.1638l.1918.2292.1598.1963c.0639.0655.0959.1311.1597.1965l.1599.1965c.1917.2291.4154.4583.6071.6875.0959.1309.2237.2619.3516.3601l.3516.3601c.0959.0655.1597.1638.2556.2292.3196.3274.6392.6221.9907.884l.1598.0655.1598.0982.1598.0654.1598.0656.4794.1963c.1278.0328.2556.0983.3515.1311.3515.1309.7031.2291 1.0547.2946.703.1637 1.4061.1964 2.1092.1637.0639 0 .1278 0 .1918-.0328.1597-.0327.3195-.0327.4793-.0654s.3196-.0655.4474-.0983c.0639-.0327.1598-.0327.2238-.0655l.2876-.0982c.0958-.0327.1917-.0654.2876-.1309l.1918-.0983.1597-.0981.1599-.0982.1916-.0983.1599-.0982c.0639-.0327.1278-.0655.1597-.1309.064-.0328.1279-.0656.1599-.131l.1597-.1309.0321-.0328c.0958-.0655.1916-.1637.2875-.2292l.1599-.131.1597-.1309.1278-.1637c.032-.0655.0959-.0982.1279-.1637l.032-.0327c.0958-.0982.1597-.1965.2556-.2947.032-.0654.0959-.0982.1278-.1637l.032-.0328c.0639-.0981.1598-.1963.2237-.2946.0959-.0982.1598-.2291.2237-.3274l.1598-.2619c.0639-.0982.0959-.1637.1598-.2619.0639-.0983.0959-.131.1278-.1964l.0959-.131c0-.0328.032-.0328.032-.0655.0639-.0982.1278-.2291.1917-.3274l.0959-.1964c.1278-.2946.2556-.5566.3835-.8512.0639-.131.1279-.2947.1917-.4256.064-.131.0959-.2292.1279-.3274l.032-.0655c.0638-.1964.1597-.3929.2237-.5894.1278-.3274.2237-.6547.3196-.9821.1278-.4583.2556-.9167.3515-1.375.0639-.2292.0959-.4584.1597-.6875.0321-.0983.0321-.1965.064-.2947.0319-.0983.0319-.131.0319-.2292 0-.0327.032-.0982.032-.1309 0-.0328.032-.131.032-.2292 0-.0328 0-.0982.0319-.131.0319-.131.0319-.2291.064-.3602l-.6392-.4255zm-.1918 1.1786c-.0319.2291-.0959.4583-.1278.6875-.0319.2292-.0959.4583-.1598.6548-.0959.3274-.1598.6548-.2557.9822l-.0959.2946-.0958.2947-.1918.5893c-.0958.2946-.1917.5893-.3195.8512v.0328l-.1918.491c-.0639.131-.0959.2292-.1598.3601l-.0959.1965-.0958.1965c-.064.0981-.0959.1963-.1598.2946l-.0959.1637c-.032.0654-.0639.131-.1278.1964-.1598.2947-.3516.5566-.5114.8185-.1278.1964-.2556.3929-.4155.5566-.0319.0654-.0958.0982-.1278.1637-.1278.1636-.2556.3274-.4155.4583-.1916.1965-.3834.3601-.6071.5239-.1599.1309-.3196.2292-.4795.3274l-.1278.0654c-.0638.0655-.1597.0982-.2556.131-.032.0328-.0959.0328-.1278.0655-.1599.0982-.3196.1636-.5114.2292-.0639.0327-.1598.0654-.2237.0654l-.3835.0982c-.1278.0328-.2876.0655-.4155.0655-.1278.0327-.2556.0327-.3834.0327-1.1186.0656-2.2052-.1309-3.2279-.5565-.3195-.131-.6391-.2619-.9268-.4257-4.4741-3.7977-7.2545-9.2979-7.70193-15.2565 0-.0982 0-.1964-.03195-.2947v-1.2113c0-.2946 0-.5565.03195-.8512.03196-.4584.06392-.9167.09588-1.4078.06392-.5566.12784-1.1131.25567-1.6697l.3835.2292L26.0224 57.606c0 .1637 0 .2947-.0319.4584z" fill="#fff"/><path d="M24.3607 63.2696l-.0958.1964c.0639-.0655.0958-.1309.0958-.1964.064-.131.1279-.2292.1599-.3602-.032.131-.0959.2619-.1599.3602zm-.4154.8511l.0639-.1636-.0639.1636zm.4154-.8511l-.0958.1964c.0639-.0655.0958-.1309.0958-.1964.064-.131.1279-.2292.1599-.3602-.032.131-.0959.2619-.1599.3602zm-.4154.8511l.0639-.1636-.0639.1636zm.4154-.8511l-.0958.1964c.0639-.0655.0958-.1309.0958-.1964.064-.131.1279-.2292.1599-.3602-.032.131-.0959.2619-.1599.3602zm-.4154.8511l.0639-.1636-.0639.1636zm.4154-.8511l-.0958.1964c.0639-.0655.0958-.1309.0958-.1964.064-.131.1279-.2292.1599-.3602-.032.131-.0959.2619-.1599.3602zm-.4154.8511l.0639-.1636-.0639.1636zm3.6752-7.2681l-.0319-.0327-.7031-.4256-.5753-.3602L8.50941 45.2302l-.79897-.4911-.83091-.4256-.70308.2947-.09588.3601c0 .0327-.03195.0982-.03195.1309-.41547 1.7025-.60721 3.4376-.60721 5.1728v.3274c0 .2292 0 .4583.03196.6875v.5239c0 .2292.03195.4256.06391.6548.03196.1964.03196.3601.06391.5566 0 .0982.03196.1963.03196.2619l.19175 1.1785.09588.4912c.12784.5566.25567 1.113.41545 1.6369.06392.1965.09588.3601.1598.5566.35155 1.1131.767 2.2263 1.27833 3.2739.09588.1637.1598.3602.25567.5238l.19176.3929c.06391.131.15979.2947.2237.4257.06392.1309.19175.3601.28763.5237l.12783.2292c.12784.2292.28762.4584.44742.6875.15978.2292.31962.4584.44744.6876.09589.1637.22371.2946.31959.4583.1278.1965.2876.3929.4474.5566l.0639.0655.1598.2292c.1278.1309.2237.2947.3516.4256l.1917.1964c.1278.131.2557.2619.3516.3929l.1916.1965.1918.1963.1918.1965.1918.1964.2237.2292.1597.1637c.064.0655.1599.1309.2237.1964.0959.0655.1599.131.2237.2292l.1918.1637.1918.1637.0958.0982.0639.0655.064.0328c.8309.4583 1.7257.7857 2.6525.9821.5753.1309 1.1824.2292 1.7897.2292h.1278c.5113 0 1.0227-.0655 1.534-.1964h.0639l.1278-.0328.2877-.0982.2876-.0982c.2238-.0655.4154-.1637.6072-.262l.3836-.1963c.4154-.2292.7989-.5239 1.1504-.8186.1279-.0982.2237-.2292.3516-.3274l.1598-.1636.3515-.3602c.2876-.3601.5753-.7203.8309-1.0804.0959-.0982.1598-.2292.2237-.3601.3196-.5238.6073-1.0804.8629-1.6369.1278-.262.2556-.5239.3515-.8185v-.0328c.032-.0982.0959-.2292.1279-.3274.032-.0982.0958-.2292.1278-.3274.032-.0327.032-.0982.032-.131.0319-.0654.0639-.1309.0639-.1963.0639-.2292.1598-.4584.2237-.6876.032-.131.0639-.2291.0959-.3602 0-.0327.032-.0654.032-.0982.1597-.4911.2875-.9821.3834-1.4733.1279-.5237.2237-1.0476.2877-1.5714.0319-.131.0319-.2292.0639-.3602l.0319-.1309.0639-.3929.0959-.1637zm-2.1732 3.5359l-.0959.2946-.0958.2947-.1917.5893c-.0959.2947-.1918.5893-.3196.8512v.0328l-.1918.491c-.0639.131-.0959.2292-.1598.3602l-.0958.1964-.0959.1965c-.064.0982-.0959.1964-.1598.2946l-.0959.1637c-.032.0655-.0639.131-.1278.1964-.1598.2947-.3516.5566-.5114.8186-.1278.1963-.2556.3928-.4154.5565-.032.0655-.0959.0982-.1279.1637-.1278.1636-.2556.3274-.4154.4583-.1917.1965-.3835.3602-.6072.5239-.1598.1309-.3196.2292-.4794.3274l-.1279.0654c-.0638.0655-.1597.0983-.2556.131-.0319.0328-.0959.0328-.1278.0655-.1599.0982-.3196.1636-.5114.2292-.0639.0327-.1597.0654-.2237.0654l-.3835.0982c-.1278.0328-.2876.0655-.4154.0655-.1279.0328-.2557.0328-.3835.0328-1.1185.0655-2.2051-.131-3.2279-.5566-.3195-.131-.6071-.2619-.9267-.4256-4.4742-3.7978-7.25458-9.2979-7.70199-15.2566 0-.0982-.00001-.1964-.03196-.2945v-1.2114c0-.2947 0-.5566.03196-.8513.03195-.4584.06391-.9167.09587-1.4078.06392-.5565.12783-1.1131.25567-1.6697l.38349.2292L26.0226 57.6056c-.032.0983-.032.2292-.0639.3274-.0319.2292-.0959.4584-.1278.6876-.032.2291-.0959.4583-.1599.6548-.0319.3928-.0959.7529-.2237 1.1131zm-1.502 3.7322l.0639-.1636-.0639.1636zm.4154-.8511l-.0958.1964c.0639-.0655.0958-.1309.0958-.1964.064-.131.1279-.2292.1599-.3602-.032.131-.0959.2619-.1599.3602zm-.4154.8511l.0639-.1636-.0639.1636zm.4154-.8511l-.0958.1964c.0639-.0655.0958-.1309.0958-.1964.064-.131.1279-.2292.1599-.3602-.032.131-.0959.2619-.1599.3602zm-.4154.8511l.0639-.1636-.0639.1636zm.4154-.8511l-.0958.1964c.0639-.0655.0958-.1309.0958-.1964.064-.131.1279-.2292.1599-.3602-.032.131-.0959.2619-.1599.3602z" fill="#fff"/><path d="M41.395 65.8228l-2.301 1.1786-.0639.0328c-.2556.1309-.5113.2618-.7989.3601-.064.0328-.1278.0655-.1918.0655-.2237.0982-.4474.1636-.6711.2292l-.1278.0327-.1599.0328c-.2237.0654-.4474.0981-.6711.1636-.0639 0-.1598.0327-.2237.0327-.1598.0328-.2876.0328-.4474.0656h-.1598c-.4794.0327-.9588 0-1.4381-.131l-.6711-.1964c-.1918-.0656-.3516-.131-.5114-.2292l-.1918-.0982c-.1597-.0655-.2875-.1637-.4154-.2619-.0639-.0328-.1279-.0983-.1917-.131l-.3836-.2947c-.1278-.0982-.2556-.2291-.3834-.3601-.2877-.3274-.5753-.6548-.831-.9822-.0958-.1309-.1917-.2619-.2556-.3928l-.1279-.1965-.0959-.1636c-.0958-.1311-.1597-.2947-.2556-.4584l-.0959-.1964c-.0959-.1965-.1918-.393-.3196-.6221-.1278-.2292-.2237-.4584-.3196-.7203-.0319-.0655-.0638-.0982-.0638-.1636-.064-.1965-.1599-.3602-.2237-.5566l-.1918-.5894-.0959-.2946-.0959-.2947c-.0319-.0654-.0319-.1309-.0639-.1964s-.0639-.2291-.0958-.3274c-.0321-.0982-.064-.2291-.0959-.3274-.032-.0982-.064-.2291-.0959-.3274-.032-.0982-.064-.2291-.064-.3274 0-.1309-.0638-.2291-.0638-.3274-.032-.0982-.064-.2291-.064-.3274-.0319-.0982-.0319-.2291-.0639-.3274-.032-.0982-.032-.2291-.0639-.3274-.0319-.0981-.0319-.0981-.0319-.1636-.0321-.131-.0321-.2619-.064-.3929 0-.0328 0-.0655-.0319-.0982l-.032-.3274v-.0655l-.0959-.7858-.5752.3602-.5753-.3602-.0958.7531v.0654l-.032.3274c0 .0328 0 .0655-.032.0982-.0319.131-.0319.262-.0639.393-.0319.0982-.0319.2291-.0639.3274-.0319.2291-.0959.4583-.1278.6875-.032.2292-.0959.4583-.1598.6547-.0959.3274-.1598.6548-.2557.9822l-.0959.2947-.0959.2946-.1917.5893c-.0958.2947-.1917.5894-.3195.8512v.0328l-.1918.4911c-.064.131-.0959.2292-.1599.3601l-.0958.1964-.0958.1965c-.064.0982-.0959.1964-.1599.2947l-.0638.1636c-.0321.0655-.064.131-.128.1965-.1597.2947-.3515.5565-.5112.8184-.1279.1965-.2557.393-.4155.5566-.0319.0655-.0959.0982-.1278.1637-.1279.1637-.2557.3274-.4155.4584-.1918.1964-.3835.3601-.6072.5238-.1598.1309-.3196.2292-.4794.3274l-.1278.0655c-.0639.0654-.1598.0981-.2557.1309-.0319.0328-.0959.0328-.1278.0655-.1598.0982-.3196.1637-.5114.2291-.0638.0328-.1597.0656-.2237.0656l-.3834.0982c-.1279.0327-.2877.0654-.4155.0654-.1278.0328-.2557.0328-.3836.0328-1.1185.0654-2.205-.1309-3.2277-.5566-.3196-.1309-.6392-.2619-.9268-.4256l-.0319-.0327h-.0321l-2.3009-1.1787-1.7897-.9167.0639.0655.1598.2292c.1279.131.2238.2946.3516.4257l.1917.1963c.1279.1311.2557.262.3516.3929l.1917.1965.1917.1964.1918.1964.1918.1965.2237.2292.1597.1636c.064.0655.1598.131.2238.1965.0958.0655.1597.1309.2237.2292l.1917.1636.1279.0982.0638.0656.1599.1309.0319.0327.1278.131.1599.131.0319.0327h.0319c.0959.0654.1599.131.2557.1965l.0959.0654.1279.0982.2875.1965.3196.2292.064.0327.0319.0327c.0319.0328.064.0328.0959.0655l.0959.0655.1918.131.0638.0327c.1278.0982.2557.1636.3836.2619l.0319.0328.1278.0981.1598.0982.0959.0656c.1278.0982.2876.1636.4474.2618.1598.0983.2876.1638.4155.2292h.0319c.1279.0655.2877.1638.4474.2292l.1599.0655c.0958.0327.1917.0982.2875.1309l.2237.0983.1918.0982c.1598.0654.2877.131.4474.1964.1278.0328.2237.0982.3515.1637l.0959.0327c.3196.131.6073.2292.8949.3274.1278.0328.2557.0983.3835.131l.4155.1309c.2556.0655.4793.131.703.1965.0959.0327.1918.0327.2877.0655l.1598.0327.3515.0655h.0319l.3516.0655.3195.0655c.1279.0327.2237.0327.3517.0654h.0319l.0959.0328h.1278c.0959 0 .1597.0327.2237.0327l.1278.0327.1278.0327.1599.0329.1917.0327c.0639 0 .1279 0 .1917.0327h3.2918c.1278 0 .2556-.0327.3515-.0327.0959 0 .1918-.0327.3196-.0327l.4155-.0656c.0639 0 .1278-.0327.1917-.0327l.2876-.0327h.064l.2556-.0328h.0639c.0959-.0327.1918-.0327.3196-.0654h.032l.3835-.0983.1278-.0327c.0959-.0328.1918-.0328.2877-.0655.2237-.0655.4474-.1309.703-.1964l.4155-.131c.1278-.0327.2556-.0654.3834-.1309.3196-.0983.6073-.2292.9269-.3274.2876-.131.6072-.2292.8948-.3601h.032c.0958-.0328.1917-.0983.2876-.131l.1278-.0655c.1598-.0654.3196-.1637.4475-.2292l.1917-.0982.2237-.0982h.032c.1278-.0655.2876-.1637.4154-.2292.1598-.0654.2876-.1637.4154-.2619.1279-.0655.2558-.1637.3836-.2292.0319 0 .0319 0 .0639-.0327l.3516-.2292.0638-.0328c.1279-.0654.2237-.1636.3516-.2291l.2237-.1637.1598-.1309.0959-.0656c.0959-.0982.2237-.1636.3196-.2291l.0639-.0655.0639-.0655c.0639-.0654.1598-.0982.2237-.1636l.032-.0328.1598-.131.1597-.1309.064-.0655h.0319l.032-.0328c.5433-.4583 1.0866-.9494 1.5979-1.4732l.4475-.4584c.4153-.4583.7989-.9167 1.1824-1.375l-1.8856.8512zm-15.308 5.7621h-.6392l-.3196-.0327h-.1598l-.1597-.0327-.1599-.0328h-.0638c-.064 0-.1599-.0327-.2238-.0327h-.1917c-.0959 0-.2237-.0327-.3196-.0655-.0959-.0328-.1918-.0328-.2877-.0655-.0959-.0327-.2237-.0327-.3196-.0655h-.0319c-.0959-.0327-.2237-.0327-.3196-.0654l-.1598-.0327-.2556-.0656c-.1918-.0655-.4155-.0982-.6392-.1636l-.4155-.131-.3515-.0982c-.2877-.0982-.5752-.1964-.8629-.3274l-.1918-.0655-.1916-.0982-.1599-.0655-.1597-.0655-.064-.0327-.1918-.0982c-.0638-.0327-.1597-.0655-.2237-.0982-.0959-.0328-.1917-.0656-.2556-.131l-.1598-.0982c.5113 0 1.0227-.0655 1.534-.1965h.0639l.1278-.0327.2877-.0982.2876-.0983c.2237-.0654.4154-.1636.6072-.2618l.3835-.1965c.4155-.2292.799-.5238 1.1505-.8185.1279-.0982.2237-.2291.3516-.3274l.1597-.1636.3515-.3602c.2877-.3602.5754-.7203.831-1.0804.0959-.0982.1598-.2292.2237-.3601.3196-.5239.6072-1.0804.8629-1.637.1278-.2619.2557-.5238.3515-.8185v-.0327c.032-.0982.0959-.2292.1279-.3274.0319-.0982.0958-.2292.1278-.3274.032-.0327.032-.0982.0639-.131.032-.0655.0639-.1309.0639-.1964.064-.2292.1598-.4584.2237-.6875.032-.131.064-.2292.0959-.3601 0-.0328.032-.0656.032-.0983l.0319.131.0959.2947c.032.0982.0639.2291.0959.3601v.0327l.0958.3274c0 .0327.032.0655.032.0982.032.0982.0639.1638.0959.2619l.1917.4912c.032.0654.064.1309.064.1963.0638.1965.1597.3602.2237.5566 0 .0328 0 .0328.0319.0328.1278.2946.2557.5566.3836.8185.0958.1636.1916.3601.2875.5237.4795.884 1.0547 1.6698 1.7258 2.3901l.1598.1637c.0959.1309.2237.2291.3515.3274.064.0327.0959.0982.1598.1309.0959.0982.2238.1637.3196.2619.2237.1637.4475.2947.6712.4583.0638.0328.0958.0656.1597.0983.1278.0655.2557.1309.4155.1964.1278.0655.2877.131.4155.1637l.5752.1964c.0959.0328.1918.0656.2877.0656.0958.0327.1917.0327.2875.0654.3516.0655.7351.0982 1.0866.0982h-.0319l-.3835.1965-.1598.0654c-.0639.0328-.1598.0655-.2237.0982h-.032c-.2876.131-.5432.2292-.8309.3602-.2877.131-.5752.2292-.8629.3274l-.3515.0982c-.1278.0328-.2557.0982-.3835.1309-.2557.0655-.4474.1311-.6711.1965-.0639.0327-.1598.0327-.2557.0655l-.1278.0327c-.1279.0327-.2238.0655-.3516.0655h-.0319l-.2877.0655h-.0639l-.2237.0327h-.0639l-.2877.0328h-.0319l-.1278.0327-.4155.0655c-.0959 0-.1597.0327-.2876.0327s-.2238.0327-.3196.0327h-2.2051l-.0639-.0982zm.8628-18.9888l-.0639-.5238v.0328l-.0639.5237-.1278.8186.1917.1309.1918-.1309-.1279-.8513z" fill="#fff"/><path d="M31.457 71.7814l.6711-.1964c-.2237.0982-.4474.1636-.6711.1964z" fill="#fff"/><path d="M31.6152 72.535l-.3515-1.5061c.1917-.0654.4154-.0982.6711-.1637l.4154 1.4733c-.2237.0982-.4794.1637-.735.1965zM32.8945 71.3557c.2877-.0982.6073-.1963.8949-.3274-.2876.1311-.5753.2292-.8949.3274z" fill="#fff"/><path d="M33.118 72.1093l-.4793-1.4733c.2876-.0982.5752-.1965.8629-.3274l.5433 1.4406c-.2877.1309-.6073.2618-.9269.3601zM33.7891 71.0613c.2875-.131.5752-.2292.8628-.3601-.2876.0982-.5753.2291-.8628.3601z" fill="#fff"/><path d="M34.0453 71.7821l-.5433-1.4405c.2876-.0983.5752-.2292.8309-.3602l.6072 1.4079c-.2877.1309-.5753.2619-.8948.3928zM47.1803 46.4086c-.0639-.4256-.1598-.8185-.2556-1.2113l-1.1825.7202-18.1204 10.9677-.032.0327-.7031.4257c0 .0982.032.1636.032.2618v.131c0 .0982.032.1965.032.2619 0 .0328 0 .0982.0319.131.0319.131.0319.2292.0639.3601 0 .0655.032.131.032.2292 0 .0982.0319.2292.0639.3274.032.0982.0639.2292.0639.3274.0319.1309.0639.2292.0959.3601.0319.0655.0319.1637.0639.2292.032.0982.0639.1964.0639.2946.032.1309.0639.2292.0959.3602.0319.131.0959.3273.1278.4584.032.1309.0959.2946.1278.4255 0 .0328 0 .0328.032.0655.0639.131.0959.2946.1598.4256.0959.2619.1918.4911.2876.753.0959.262.1918.4911.3196.7203l.0959.1964.1917.3929.0959.1965c.032.0981.0959.1636.1598.2619.0639.0982.1278.2291.1918.3274.0638.0982.1278.2291.1917.3274.1279.1963.2876.4255.4154.622l.0959.1309.0959.131v.0328c.064.0654.1278.1636.1918.2291l.0319.0327c.0319.0328.064.0983.1278.131l.3836.3929c.0638.0654.1597.131.2237.1964l.5752.4911c.064.0655.1598.131.2557.1637l.1917.1309c.064.0328.0959.0655.1598.0983h.032c.0639.0327.0959.0655.1598.0982h.0319l.1598.0655.0639.0327.1598.0654.1918.0983.1917.0655c.064.0327.1279.0327.1918.0654h.0319c.064.0328.1279.0328.1918.0655.0639.0328.1278.0328.1918.0328l.0958.0328c.0959.0327.2238.0327.3516.0654h.0959c.0638 0 .0958.0327.1597.0327l.2237.0655h1.0866l.799-.0982.1598-.0327h.0319l.1598-.0327h.0639l.1598-.0328.2237-.0655.1279-.0328c.2237-.0654.4474-.1309.6711-.2292l.1279-.0654.1917-.0982c.0958-.0327.1917-.0655.2876-.1309.0959-.0328.1918-.0983.2877-.131l.2875-.1309c.5433-.4585 1.0547-.9168 1.566-1.4406l.1918-.1965c.0639-.0654.1278-.1309.1917-.2291l.2237-.2292.1918-.2292c.1278-.1636.2557-.2947.3835-.4583.1278-.1637.2556-.3274.3835-.4584l.3835-.491c.1278-.1638.2556-.3274.3515-.4912.2237-.3274.4794-.6875.6711-1.0149.6073-.9494 1.1186-1.9643 1.598-2.9793.0959-.1964.1598-.3601.2556-.5565.0959-.1965.1599-.3929.2238-.5893.0639-.1965.1278-.3929.2237-.5893l.2876-.884c.0639-.1965.1278-.3928.1598-.5893.0639-.1965.0959-.3929.1598-.5893.0639-.1964.0958-.4256.1278-.6221.3516-1.5387.5113-3.143.5113-4.7144 0-1.3096-.1278-2.6191-.3515-3.896zm-.4155 3.896c0 .4255 0 .8512-.0319 1.2768 0 .1637-.032.3601-.032.5239-.0319.2946-.0639.622-.0958.9167 0 .0981-.032.1963-.032.2619l-.0959.5892c-.032.1638-.0639.2947-.0959.4584 0 .0327.0001.0982-.0319.1309-.032.0983-.032.1965-.0639.2947l-.2877 1.1786c-.0639.1965-.0958.3601-.1598.5566v.0327c-.0639.1965-.0958.3602-.1597.5566-.064.1964-.1598.4256-.2237.6548-.032.0655-.064.1637-.0959.2292-.2877.753-.6073 1.4732-.9588 2.1935-.0319.0982-.0959.1637-.1278.2619-.0319.0983-.0959.1637-.1278.2619-.2877.5239-.5753 1.0477-.8949 1.5388-.0639.0982-.0958.1637-.1598.2619-.0639.0982-.0959.1637-.1597.2619-.1918.262-.3516.5239-.5433.753-.064.0655-.0959.131-.1599.1965-.1278.1637-.2556.3274-.3515.4583-.1598.2292-.3515.4256-.5433.622-.0639.0656-.0958.131-.1598.1638-.2237.2619-.4474.5238-.703.7529l-.4155.4257c-.3515.3274-.6711.6548-1.0547.9494-.2556.1309-.5113.262-.7989.3602-.0639.0327-.1278.0654-.1918.0654-.2237.0982-.4474.1638-.6711.2292l-.1278.0327-.1598.0328c-.2237.0654-.4474.0982-.6711.1637-.064 0-.1598.0327-.2237.0327-.1599.0328-.2877.0328-.4474.0655h-.1599c-.4793.0327-.9587 0-1.4381-.1309l-.6711-.1965c-.1918-.0654-.3515-.131-.5114-.2292l-.1917-.0982c-.1598-.0654-.2876-.1637-.4155-.2619-.0639-.0327-.1278-.0982-.1917-.1309l-.3835-.2947c-.1278-.0983-.2556-.2292-.3835-.3602-.2876-.3274-.5753-.6548-.8309-.9822-.0959-.1309-.1918-.2619-.2557-.3928l-.1279-.1965-.0958-.1636c-.0958-.131-.1598-.2947-.2557-.4584l-.0959-.1964c-.0959-.1965-.1917-.3929-.3196-.6221-.1278-.2292-.2237-.4911-.3195-.7203-.032-.0654-.0639-.0982-.0639-.1636-.064-.1965-.1279-.3929-.2237-.5566l-.1918-.5893-.0959-.2947-.0958-.2947c-.032-.0654-.032-.1309-.064-.1963-.0319-.0655-.0639-.2292-.0958-.3274-.032-.0983-.0639-.2292-.0959-.3274-.032-.0983-.0639-.2292-.0959-.3274-.0319-.0983-.0639-.2292-.0639-.3274 0-.131-.0639-.2292-.0639-.3274-.032-.0983-.0639-.2292-.0639-.3274-.032-.0983-.032-.2292-.064-.3275-.0319-.0981-.0319-.2291-.0639-.3273-.0319-.0982-.0319-.0982-.0319-.1637L45.135 47.1616l1.1824-.7202.0959-.0656c.0639.3929.1278.8185.1918 1.2441.0958.884.1597 1.8007.1597 2.6847z" fill="#fff"/><path d="M47.7237 45.2624c-.0319-.0982-.0319-.1964-.0639-.2619l-.0959-.3601-.7031-.2947-.7989.4912-.799.491-17.8008 10.7713-.5753.3601-.6711.4256-.0639.0327-.0639.0327.0639.393.032.0982c.0319.1309.0319.2292.0638.3601l.2877 1.5715.3835 1.4733.032.1309.0958.2946c.032.0983.0639.2292.0959.3602v.0328l.0959.3274c0 .0327.032.0654.032.0982.0319.0981.0638.1636.0958.2619l.1918.491c.0319.0655.0319.131.0639.1965.0639.1965.1598.3601.2237.5566 0 .0327 0 .0327.0319.0327.1279.2947.2557.5566.3835.8184.0959.1638.1918.3602.2877.5239.4793.884 1.0546 1.6697 1.7258 2.39l.1597.1636c.0959.1311.2237.2292.3515.3274.064.0328.0959.0983.1599.131.0959.0982.2237.1637.3196.262.2237.1636.4474.2946.6711.4583.0639.0327.0959.0654.1598.0982.1278.0655.2556.131.4154.1964.1279.0655.2876.131.4155.1638l.5752.1964c.0959.0327.1917.0654.2876.0654.0959.0328.1918.0328.2877.0656.3515.0654.7351.0982 1.0866.0982h.1278c.6072 0 1.2144-.0655 1.8216-.2292.8948-.2292 1.7897-.5566 2.6206-.9822l.064-.0327.0638-.0655h.032l.032-.0327c.5433-.4584 1.0866-.9495 1.5979-1.4733l.4474-.4584c.4155-.4583.7989-.9167 1.1825-1.375 3.2917-4.1252 5.0814-9.2653 5.1133-14.6018 0-1.7024-.1918-3.4049-.5433-5.0746zm-.9588 5.0091c0 .4256 0 .8513-.0319 1.2769 0 .1637-.0319.3601-.0319.5238-.032.2947-.064.6221-.0959.9167 0 .0982-.032.1964-.032.262l-.0959.5892c-.0319.1637-.0639.2946-.0958.4584 0 .0327 0 .0982-.032.1309-.032.0983-.032.1965-.0639.2947l-.2876 1.1786c-.064.1965-.0959.3601-.1598.5566v.0327c-.0639.1965-.0959.3601-.1598.5566-.0639.1964-.1598.4256-.2237.6548-.032.0654-.064.1636-.0959.2292-.2877.753-.6072 1.4732-.9588 2.1935-.0319.0982-.0959.1637-.1278.2619-.0319.0982-.0959.1637-.1278.2619-.2877.5238-.5752 1.0477-.8948 1.5387-.064.0983-.0959.1638-.1599.262-.0638.0982-.0959.1637-.1597.2619-.1918.2619-.3516.5239-.5433.753-.064.0655-.0959.131-.1598.1964-.1279.1637-.2557.3274-.3516.4583-.1598.2292-.3515.4257-.5433.6221-.0639.0655-.0958.131-.1598.1637-.2237.262-.4474.5239-.703.753l-.4155.4257c-.3515.3274-.6711.6548-1.0547.9494-.2556.1309-.5112.2619-.7989.3601-.0639.0328-.1278.0655-.1918.0655-.2237.0982-.4474.1637-.6711.2292l-.1278.0327-.1598.0327c-.2237.0655-.4474.0982-.6711.1638-.0639 0-.1598.0327-.2237.0327-.1598.0327-.2877.0327-.4474.0655h-.1599c-.4793.0327-.9586 0-1.4381-.131l-.6711-.1964c-.1918-.0655-.3515-.131-.5113-.2292l-.1918-.0982c-.1598-.0655-.2876-.1637-.4154-.2619-.0639-.0328-.1279-.0982-.1918-.131l-.3835-.2946c-.1278-.0983-.2556-.2292-.3835-.3602-.2876-.3274-.5753-.6548-.8309-.9822-.0959-.1309-.1918-.2619-.2556-.3928l-.1279-.1965-.0958-.1637c-.0959-.131-.1599-.2946-.2558-.4584l-.0959-.1963c-.0958-.1965-.1916-.3929-.3195-.6221-.1279-.2292-.2237-.4911-.3196-.7203-.032-.0655-.0639-.0982-.0639-.1637-.0639-.1964-.1278-.3928-.2237-.5565l-.1918-.5894-.0959-.2946-.0958-.2947c-.032-.0654-.032-.1309-.0639-.1964-.032-.0654-.064-.2292-.0959-.3273-.032-.0983-.0639-.2292-.0959-.3274-.0319-.0983-.0639-.2292-.0959-.3274-.0319-.0983-.0639-.2292-.0639-.3274 0-.131-.0639-.2292-.0639-.3275-.032-.0982-.0639-.2291-.0639-.3274-.032-.0982-.032-.2291-.0639-.3274-.032-.0982-.032-.2291-.0639-.3274-.032-.0982-.032-.0982-.032-.1636l17.4493-10.5748 1.1824-.7203.0959-.0655c.0639.3929.1278.8185.1918 1.2441.0959.884.1597 1.8007.1597 2.6846zM207.834 69.3915h.927v-5.664h-.927v5.664zM208.761 62.0576h-.927v.9494h.927v-.9494zM165.009 61.9929c-1.022 0-2.076.3928-2.076 1.4077 0 .884.991 1.1459 2.141 1.3424 1.597.2618 3.164.5892 3.164 2.4226 0 1.8334-1.726 2.4227-3.229 2.4227-1.406 0-2.747-.5238-3.355-1.8661l.831-.4911c.511.9495 1.566 1.4405 2.557 1.4405.959 0 2.237-.3274 2.237-1.506 0-1.0149-1.087-1.3095-2.301-1.4732-1.534-.2292-3.004-.5893-3.004-2.2591-.033-1.7024 1.662-2.2917 3.035-2.2917 1.183 0 2.302.2292 3.005 1.4733l-.735.491c-.48-.7529-1.374-1.0803-2.27-1.113zM169.899 61.3053v3.3393c.48-.753 1.215-1.0149 1.949-1.0149 1.567 0 2.333 1.0805 2.333 2.6519v3.143h-.927v-3.143c0-1.1131-.575-1.7679-1.597-1.7679s-1.758.8185-1.758 1.8661v3.0448h-.926v-8.1521l.926.0328zM179.935 69.4245l-.032-1.0476c-.447.7858-1.278 1.1459-2.077 1.1459-1.599 0-2.877-1.1459-2.877-3.0121 0-1.8661 1.278-2.9792 2.877-2.9465.831 0 1.661.3929 2.077 1.1458v-1.0476h.894v5.7294l-.862.0327zm-2.046-4.9436c-1.119 0-2.013.8185-2.013 2.0953 0 1.2769.894 2.0953 2.013 2.0953 2.685 0 2.685-4.1906 0-4.1906zM181.693 63.6949h.895l.032 1.1131c.447-.753 1.278-1.2113 2.141-1.2113 1.598.0327 2.78 1.2113 2.78 2.9465 0 1.8007-1.182 2.9793-2.844 2.9793-.799 0-1.662-.3601-2.109-1.1459v3.7323h-.895v-8.414zm4.954 2.881c0-1.2768-.831-2.0625-1.981-2.0625-1.183 0-1.95.884-1.95 2.0625 0 1.1786.831 2.0626 1.95 2.0626 1.118 0 1.981-.7857 1.981-2.0626zM193.518 68.4749c-.576.6875-1.534 1.015-2.429 1.015-1.726 0-2.941-1.1787-2.941-2.9793 0-1.7353 1.215-2.9794 2.908-2.9794 1.727 0 3.005 1.0805 2.813 3.3722h-4.762c.096 1.0477.959 1.7025 2.014 1.7025.638 0 1.406-.2619 1.79-.7203l.607.5893zm-.544-2.3572c-.032-1.1132-.799-1.7025-1.885-1.7025-.959 0-1.822.5893-1.982 1.7025h3.867zM197.767 61.9929c-1.022 0-2.077.3928-2.077 1.4077 0 .884.991 1.1459 2.142 1.3424 1.597.2618 3.163.5892 3.163 2.4226 0 1.8334-1.725 2.4227-3.228 2.4227-1.406 0-2.748-.5238-3.355-1.8661l.831-.4911c.512.9495 1.566 1.4405 2.556 1.4405.959 0 2.238-.3274 2.238-1.506 0-1.0149-1.087-1.3095-2.301-1.4732-1.534-.2292-3.005-.5893-3.005-2.2591-.032-1.7024 1.662-2.2917 3.036-2.2917 1.183 0 2.302.2292 3.005 1.4733l-.735.491c-.48-.7529-1.407-1.0803-2.27-1.113zM202.626 61.2725v3.3394c.479-.753 1.215-1.0149 1.95-1.0149 1.565 0 2.333 1.0804 2.333 2.6519v3.143h-.927v-3.143c0-1.1132-.575-1.768-1.598-1.768-1.023 0-1.758.8186-1.758 1.8662v3.0448h-.927v-8.1194h.927zM211.638 63.2692c0-.8513.382-1.2441.99-1.2441h.032l.224-.8185c-.096 0-.192-.0328-.256-.0328-1.183 0-1.886.7531-1.886 2.0626v.4583h-1.086v.8513h1.086v4.8455h.927V64.546h1.119v-.8513h-1.119v-.4255h-.031zM216.367 68.606c-.064 0-.159.0327-.224.0327-.671 0-.894-.4256-.894-1.1132V64.579h1.182v-.8185h-1.182v-1.7351l-.927.0982v1.6369h-1.119v.8185h1.119v2.9465c0 1.2769.575 1.9972 1.758 1.9645.16 0 .287-.0328.447-.0655l-.16-.8185zM150.853 65.2339c.319-.1309.575-.3274.799-.5893.287-.3274.415-.753.415-1.2113 0-.4256-.096-.7858-.256-1.0804-.159-.2947-.383-.5239-.639-.6875-.255-.1638-.543-.2947-.863-.3601-.319-.0655-.638-.0983-.959-.0983h-2.524v8.5123h2.493c.479 0 .895-.0655 1.278-.1638.383-.0982.703-.2619.99-.491.256-.1965.48-.4584.64-.7531.159-.2946.224-.622.224-.9821 0-.6221-.192-1.146-.543-1.5061-.321-.2946-.672-.491-1.055-.5893zm.064-1.0803c-.096.1636-.224.3273-.384.4255-.159.0983-.352.1965-.543.2292-.192.0328-.384.0655-.575.0655h-1.566v-2.7501h1.342c.255 0 .511.0327.735.0655.223.0328.415.1309.575.2291.16.0983.288.262.383.4257.096.1637.128.3929.128.6221.032.2946-.032.5237-.095.6875zm-3.101 1.6042h1.599c.638 0 1.15.1309 1.502.3928.351.2619.511.6221.511 1.1459 0 .262-.064.5239-.16.6875-.128.1965-.256.3601-.447.4912-.192.1309-.416.2291-.672.2619-.255.0655-.543.0982-.83.0982h-1.438v-3.0775h-.065zM157.66 64.0557l-1.63 4.518-1.79-4.518h-1.054l2.332 5.5984-.416 1.1131c-.095.2946-.255.5239-.382.6875-.128.1637-.321.2292-.576.2292-.192 0-.383-.0327-.543-.0982l-.096-.0327-.096.9167h.064c.223.0327.479.0654.703.0654.479 0 .863-.131 1.15-.3928.256-.2619.479-.6221.64-1.0477l2.716-7.0389h-1.022z" fill="#fff"/></svg>