<svg width="129" height="96" viewBox="0 0 129 96" fill="none" xmlns="http://www.w3.org/2000/svg">
<path d="M2.51953 62.9883C2.51953 62.9883 29.2266 32.7539 64.5001 32.7539C99.7736 32.7539 126.481 62.9883 126.481 62.9883C126.481 62.9883 99.7736 93.2228 64.5001 93.2228C29.2266 93.2228 2.51953 62.9883 2.51953 62.9883Z" fill="white"/>
<path d="M64.5001 93.2228C81.1981 93.2228 94.7345 79.6864 94.7345 62.9883C94.7345 46.2903 81.1981 32.7539 64.5001 32.7539C47.802 32.7539 34.2656 46.2903 34.2656 62.9883C34.2656 79.6864 47.802 93.2228 64.5001 93.2228Z" fill="url(#paint0_linear)"/>
<path d="M77.0977 62.9883C77.0977 56.0419 71.4464 50.3906 64.5 50.3906C57.5537 50.3906 51.9023 56.0419 51.9023 62.9883C51.9023 69.9347 57.5537 75.586 64.5 75.586C71.4464 75.586 77.0977 69.9347 77.0977 62.9883Z" fill="white"/>
<path d="M0.631144 61.3202C-0.210381 62.273 -0.210381 63.7034 0.631144 64.6563C0.912324 64.9745 7.64553 72.5389 18.8628 80.1872C32.3231 89.3649 48.2116 95.7423 64.5001 95.7423C80.7909 95.7423 96.6794 89.3634 110.137 80.1872C121.354 72.5392 128.088 64.9747 128.369 64.6563C129.21 63.7034 129.21 62.273 128.369 61.3202C128.088 61.0019 121.354 53.4375 110.137 45.7892C96.6769 36.6118 80.7887 30.2344 64.5001 30.2344C48.2093 30.2344 32.3209 36.6133 18.863 45.7895C7.64553 53.4375 0.912324 61.0019 0.631144 61.3202ZM36.7852 62.9883C36.7852 47.6366 49.2889 35.2734 64.5001 35.2734C79.734 35.2734 92.215 47.6607 92.215 62.9883C92.215 78.3401 79.7113 90.7032 64.5001 90.7032C49.2663 90.7032 36.7852 78.3159 36.7852 62.9883ZM107.187 49.8767C114.87 55.1012 120.441 60.3836 123.009 62.9894C120.459 65.5792 114.944 70.8108 107.299 76.0237C102.065 79.5923 95.2463 83.5258 87.3586 86.4223C93.4592 80.4701 97.2541 72.1647 97.2541 62.9883C97.2541 53.8117 93.4592 45.506 87.3581 39.5536C95.1994 42.433 101.979 46.3355 107.187 49.8767ZM41.6416 39.5541C35.5411 45.5063 31.7462 53.8119 31.7462 62.9883C31.7462 72.165 35.5411 80.4707 41.6421 86.4231C33.8006 83.5437 27.0213 79.6412 21.8134 76.1C14.1306 70.876 8.55987 65.5935 5.99121 62.9873C8.54123 60.3975 14.056 55.1659 21.7015 49.953C26.9359 46.3841 33.7542 42.4506 41.6416 39.5541Z" fill="url(#paint1_linear)"/>
<path d="M43.0835 25.8933C44.2886 25.1977 44.7015 23.6567 44.0056 22.4516L36.447 9.35987C35.7514 8.15453 34.2102 7.74183 33.0053 8.43772C31.8002 9.13337 31.3873 10.6743 32.0832 11.8794L39.6418 24.9712C40.3407 26.1823 41.8839 26.5859 43.0835 25.8933Z" fill="url(#paint2_linear)"/>
<path d="M95.9946 8.43767C94.7898 7.74177 93.2486 8.15472 92.5529 9.35982L84.9943 22.4516C84.2984 23.6567 84.7114 25.1976 85.9165 25.8933C87.1163 26.5859 88.6595 26.1815 89.3581 24.9711L96.9168 11.8794C97.6127 10.6743 97.1997 9.13331 95.9946 8.43767Z" fill="url(#paint3_linear)"/>
<path d="M67.0195 17.6368V2.51954C67.0195 1.128 65.8915 0 64.5 0C63.1085 0 61.9805 1.128 61.9805 2.51954V17.6368C61.9805 19.0283 63.1085 20.1563 64.5 20.1563C65.8915 20.1563 67.0195 19.0283 67.0195 17.6368Z" fill="url(#paint4_linear)"/>
<defs>
<linearGradient id="paint0_linear" x1="36.5446" y1="32.7539" x2="80.9" y2="95.3856" gradientUnits="userSpaceOnUse">
<stop stop-color="#F6BF4A"/>
<stop offset="0.375" stop-color="#EC622D"/>
<stop offset="0.6875" stop-color="#DC395E"/>
<stop offset="1" stop-color="#C04D95"/>
</linearGradient>
<linearGradient id="paint1_linear" x1="4.8618" y1="30.2344" x2="37.3052" y2="120.448" gradientUnits="userSpaceOnUse">
<stop stop-color="#F6BF4A"/>
<stop offset="0.375" stop-color="#EC622D"/>
<stop offset="0.6875" stop-color="#DC395E"/>
<stop offset="1" stop-color="#C04D95"/>
</linearGradient>
<linearGradient id="paint2_linear" x1="32.2199" y1="8.09961" x2="46.3169" y2="21.9308" gradientUnits="userSpaceOnUse">
<stop stop-color="#F6BF4A"/>
<stop offset="0.375" stop-color="#EC622D"/>
<stop offset="0.6875" stop-color="#DC395E"/>
<stop offset="1" stop-color="#C04D95"/>
</linearGradient>
<linearGradient id="paint3_linear" x1="85.1311" y1="8.09961" x2="99.2279" y2="21.9308" gradientUnits="userSpaceOnUse">
<stop stop-color="#F6BF4A"/>
<stop offset="0.375" stop-color="#EC622D"/>
<stop offset="0.6875" stop-color="#DC395E"/>
<stop offset="1" stop-color="#C04D95"/>
</linearGradient>
<linearGradient id="paint4_linear" x1="62.1704" y1="2.42133e-07" x2="72.0103" y2="3.4736" gradientUnits="userSpaceOnUse">
<stop stop-color="#F6BF4A"/>
<stop offset="0.375" stop-color="#EC622D"/>
<stop offset="0.6875" stop-color="#DC395E"/>
<stop offset="1" stop-color="#C04D95"/>
</linearGradient>
</defs>
</svg>
