<svg width="252" height="43" viewBox="0 0 252 43" fill="none" xmlns="http://www.w3.org/2000/svg">
<path d="M62.7856 33.3305L63.1767 30.5027C64.9929 31.6393 67.9824 33.0533 71.9498 33.0533C76.5318 33.0533 79.1023 31.2789 79.1023 28.1461C79.1023 19.9121 62.4783 25.4015 62.4783 14.7554C62.4783 9.70963 65.8311 6.99268 71.8659 6.99268C77.6773 6.99268 80.4434 9.34922 80.9463 13.3138L78.0964 13.8683C77.6494 10.9018 75.6099 9.48784 71.8101 9.48784C67.7868 9.48784 65.412 11.2622 65.412 14.4782C65.412 23.0727 81.8962 17.112 82.008 28.0907C82.0359 33.2196 78.6832 35.7425 72.0056 35.7425C67.0883 35.6871 64.3223 34.3286 62.7856 33.3305Z" fill="white"/>
<path d="M89.4398 18.8031V30.5581C89.4398 32.7206 90.4177 33.2195 91.8985 33.2195C93.2675 33.2195 94.1616 32.8315 94.7762 32.5819L94.9998 35.0494C94.3293 35.2711 93.0719 35.687 91.1721 35.687C88.2385 35.687 86.59 34.6612 86.59 30.5858V18.8031H83.0696V16.4187H86.59V10.9294H89.4398V16.4187H95.4468V18.8031H89.4398Z" fill="white"/>
<path d="M107.684 16.28L107.489 19.0525C107.265 18.9693 106.734 18.8861 106.036 18.8861C103.186 18.8861 101.37 22.213 101.37 25.2627V35.1879H98.5201V16.4187H101.007L101.203 20.0228C102.264 17.6385 103.968 16.0305 105.98 16.0305C106.874 16.0305 107.377 16.1692 107.684 16.28Z" fill="white"/>
<path d="M125.315 33.7462C124.336 34.5779 121.794 35.7146 117.882 35.7146C111.791 35.7146 108.746 32.1105 108.746 25.9835C108.746 20.1891 111.736 16.0305 118.105 16.0305C123.135 16.0305 125.202 18.6088 125.202 21.4367C125.202 26.2053 121.124 27.7024 111.736 28.0905C112.322 31.8055 114.697 33.2194 118.105 33.2194C121.43 33.2194 123.945 31.8055 124.755 31.1678L125.315 33.7462ZM111.595 25.8171C119.81 25.5121 122.38 24.5973 122.38 21.6308C122.38 20.1337 121.319 18.498 118.022 18.498C114.53 18.498 111.68 20.4109 111.595 25.8171Z" fill="white"/>
<path d="M144.508 16.4187V35.2433H142.133L141.827 32.5264C140.569 34.4116 138.417 35.7146 135.456 35.7146C130.399 35.7146 127.13 32.1936 127.13 26.1775C127.13 19.8287 130.734 16.0305 135.847 16.0305C138.725 16.0305 140.709 17.1395 141.855 18.7475L142.133 16.4464H144.508V16.4187ZM141.659 27.8964V24.5141C141.659 21.8803 140.317 18.4702 136.127 18.4702C132.215 18.4702 129.952 21.409 129.952 26.1498C129.952 30.6965 132.048 33.1917 135.847 33.1917C139.48 33.2194 141.659 30.9184 141.659 27.8964Z" fill="white"/>
<path d="M177.169 23.5161V35.2433H174.32V23.9596C174.32 20.5772 172.978 18.5812 170.017 18.5812C166.469 18.5812 164.486 21.3258 164.486 23.821V35.2156H161.692V23.7378C161.692 20.4387 160.323 18.5534 157.417 18.5534C153.868 18.5534 151.913 21.3258 151.913 23.8487V35.2156H149.063V16.4187H151.27L151.661 19.6346C152.807 17.5554 154.985 16.0305 158.143 16.0305C161.104 16.0305 163.117 17.389 163.982 19.9396C165.1 17.6663 167.391 16.0305 170.688 16.0305C174.85 16.0305 177.169 18.5257 177.169 23.5161Z" fill="white"/>
<path d="M201.924 7.40845L191.642 24.5419V35.2434H186.306V24.5419L176.024 7.40845H182.032L189.016 19.6348L196.057 7.40845H201.924Z" fill="white"/>
<path d="M216.956 16.4187V35.2433H213.016L212.374 32.9422C211.116 34.6334 209.021 35.7146 206.283 35.7146C201.253 35.7146 197.761 32.1382 197.761 26.1498C197.761 19.8287 201.589 16.0305 206.646 16.0305C209.3 16.0305 211.144 17.0009 212.346 18.4147L212.793 16.4187H216.956ZM211.73 27.2033V24.4863C211.535 22.2962 210.277 20.3832 207.512 20.3832C204.718 20.3832 202.818 22.3516 202.818 26.0666C202.818 29.5599 204.466 31.3619 207.316 31.3619C210.11 31.3342 211.73 29.5876 211.73 27.2033Z" fill="white"/>
<path d="M231.847 16.3355L231.539 21.2426C231.233 21.1317 230.673 20.9654 229.808 20.9654C227.796 20.9654 225.924 22.7675 225.924 26.3439V35.2433H220.671V16.4187H224.89L225.337 19.2466C226.371 17.2781 227.936 16.0305 229.919 16.0305C230.925 16.0305 231.595 16.2246 231.847 16.3355Z" fill="white"/>
<path d="M251.265 7.40845V35.2434H246.879L246.376 33.0809C245.007 34.6058 242.94 35.7148 240.174 35.7148C235.563 35.7148 232.155 32.5819 232.155 26.1776C232.155 19.7734 235.758 16.0307 241.486 16.0307C243.386 16.0307 244.895 16.3911 246.04 16.8624V7.40845H251.265ZM246.012 26.5935V21.5477C245.09 20.9101 243.805 20.3833 242.073 20.3833C239.279 20.3833 237.407 22.1853 237.407 26.0945C237.407 29.865 239.139 31.3343 241.402 31.3343C243.917 31.3343 246.012 29.4768 246.012 26.5935Z" fill="white"/>
<path d="M46.4691 24.8408C45.9661 24.5081 45.4632 24.1477 44.9882 23.815C41.9149 21.6803 38.2827 17.9929 37.5843 17.2721C37.2211 15.1651 36.5784 12.6144 34.5389 9.6757C32.9463 6.9033 30.0685 5.2953 28.3363 4.54674C26.8555 0.776273 19.5354 0.221792 16.7135 0.0277236C16.3783 -4.22366e-07 16.043 0 15.7077 0C10.1198 0 8.97429 3.7982 8.75077 5.37847C7.3538 5.46164 6.15241 5.79433 5.11865 6.37653C1.90561 8.23405 1.01155 11.9768 0.815975 14.7769C0.648338 17.383 0.788035 18.4088 0.815975 18.6029C1.03949 20.7099 1.62622 22.2902 3.83343 24.009C2.38059 30.5242 1.84973 38.1206 1.82179 38.2038L1.79385 38.3979L1.90561 38.5642C2.01737 38.7305 5.00689 42.5841 11.5727 42.9723C11.8521 43 12.1593 43 12.4387 43C19.6192 43 22.2455 37.4829 22.3573 37.2612L22.4691 37.0393L22.3852 36.8176C22.3852 36.8176 21.7426 35.0709 22.7205 31.855C23.5307 29.1935 26.4085 28.7222 27.1629 28.6667C30.6273 31.2727 40.2664 36.2631 42.781 37.2612C44.0383 37.7601 45.2397 38.0374 46.3014 38.0374C47.5587 38.0374 48.5086 37.6493 48.9556 36.9839C49.71 35.7918 49.5703 34.6551 48.5365 33.6293C48.8159 33.6847 49.1512 33.7125 49.5144 33.7679C49.8497 33.8234 50.2968 33.8511 50.7158 33.8511C52.2525 33.8511 53.1186 33.1302 53.3421 31.6331C53.5935 29.8311 50.7996 27.7518 46.4691 24.8408ZM12.4667 42.4733C12.4387 42.4733 12.4387 42.4733 12.4109 42.4733C12.5226 42.4733 12.6343 42.4733 12.774 42.4733C12.6623 42.4733 12.5784 42.4733 12.4667 42.4733ZM15.5959 0.582205C15.6239 0.582205 15.6798 0.582205 15.7077 0.582205C15.7915 0.582205 15.8473 0.582205 15.9312 0.582205C15.8473 0.582205 15.7077 0.554481 15.5959 0.582205ZM19.4795 0.88717C19.8707 0.942618 20.2898 0.998066 20.7088 1.05352C20.2898 0.998066 19.8707 0.914894 19.4795 0.88717Z" fill="#0B2946"/>
<path d="M44.8486 24.2862C41.3561 21.8742 37.249 17.5492 37.249 17.5492C36.8858 15.3313 36.2711 12.8916 34.2594 10.0083C32.639 7.18044 29.5936 5.62789 28.0849 4.99024C26.9673 1.38611 19.6471 0.803896 16.8812 0.609827C9.30954 0.055345 9.44923 6.18237 9.44923 6.18237L6.73911 15.0818L4.69953 23.6762C3.13492 30.3301 2.60406 38.2591 2.60406 38.2591C2.60406 38.2591 5.45389 42.0573 11.852 42.4455C19.3957 42.889 22.0779 37.0392 22.0779 37.0392C22.0779 37.0392 21.3514 35.1817 22.4132 31.7163C23.4748 28.2507 27.5819 28.1121 27.5819 28.1121C30.9067 30.6905 40.7693 35.7917 43.228 36.762C46.1337 37.9265 48.1733 37.5383 48.7041 36.7066C49.235 35.8749 49.4585 34.8213 47.8659 33.6015C46.8322 32.8252 46.2175 32.4093 46.2175 32.4093C47.391 32.6866 47.5307 32.9638 49.8217 33.2411C51.4422 33.4351 52.7274 33.4351 53.0068 31.6054C53.2303 29.7201 48.5366 26.8368 44.8486 24.2862Z" fill="#0B2946"/>
<path d="M12.6064 37.6768C8.19194 37.5383 5.62152 36.0411 4.7554 35.4589L4.44806 37.6214C4.44806 37.6214 7.82873 40.782 12.2991 40.782C13.8916 40.782 17.0208 40.9483 20.0942 36.956C20.0942 36.956 19.9824 36.1243 20.0382 34.9598C18.9207 36.0411 17.2723 37.8155 12.6064 37.6768Z" fill="#FEFFFF"/>
<path d="M4.44806 35.237C4.44806 35.237 4.55983 35.3202 4.7554 35.4589L4.78334 35.2094L4.44806 35.237Z" fill="#0B2946"/>
<path d="M20.5692 34.4612L20.0662 34.4889C20.0662 34.6553 20.0383 34.7938 20.0383 34.9602C20.2338 34.7662 20.4015 34.5998 20.5692 34.4612Z" fill="#0B2946"/>
<path d="M34.9299 14.638C33.1139 10.2299 29.7892 6.73666 26.0732 5.54452C22.3572 4.35238 16.7414 3.27115 15.0092 7.42976C15.0092 7.42976 6.79496 21.569 6.26411 24.8959L4.81126 35.2093L4.78333 35.4589C5.62151 36.041 8.21987 37.5381 12.6344 37.6768C17.3002 37.8153 18.9766 36.041 20.0662 34.932C20.0662 34.7935 20.0941 34.627 20.0941 34.4607C20.2338 32.8804 20.6529 30.8566 21.9102 29.3041C24.285 26.3653 28.4201 26.2544 28.4201 26.2544C28.4201 26.2544 31.5493 26.6148 33.7286 24.3692C35.9078 22.1235 36.7181 19.0739 34.9299 14.638Z" fill="#016666"/>
<path d="M37.6122 26.8925C37.6122 26.8925 40.6856 29.6094 41.8032 30.552C42.9207 31.4946 47.5866 34.7383 47.6146 35.4591C47.6146 35.6256 35.908 30.1362 35.908 30.1362C35.908 30.1362 25.8777 23.2328 25.9336 23.0388C25.9894 22.8447 26.3527 21.4585 26.5761 21.3753C26.7997 21.2922 31.5214 21.4585 31.5214 21.4585L37.6122 26.8925Z" fill="#79455B"/>
<path d="M26.5202 23.1774C27.3305 23.2882 31.9125 25.0072 34.5668 27.1697C37.249 29.3321 41.7472 32.4372 43.0604 33.0471C44.3735 33.6848 47.6983 35.0433 47.6145 35.57C47.5307 36.0968 47.1395 36.984 44.0941 35.7918C41.0488 34.572 33.1419 29.9143 32.0243 29.1658C30.9067 28.4172 25.2629 24.5913 25.2629 24.5913L26.5202 23.1774Z" fill="#C8842C"/>
<path d="M17.5238 14.472C18.6415 14.2503 22.0221 14.278 24.6204 16.7732C27.2188 19.2683 27.6659 21.2644 26.9394 23.0388C26.213 24.8131 24.872 26.1439 22.1898 24.73C19.5075 23.316 16.9372 21.5694 16.1268 19.4069C15.3166 17.2445 17.5238 14.472 17.5238 14.472Z" fill="#02A484"/>
<path d="M1.57038 18.5748C1.82184 20.8205 2.46444 22.3176 5.09075 24.1474C6.29214 24.9791 7.57736 25.6445 10.3154 25.4228C13.0814 25.2009 15.0371 23.3712 15.9592 21.375C16.8811 19.3789 18.4458 14.7767 17.3002 11.0616C16.1827 7.34664 14.0872 6.84761 13.0534 6.51492C12.0198 6.1545 8.35966 5.29506 5.56572 6.90305C2.77178 8.51105 1.73801 11.7825 1.54244 14.8598C1.3748 17.66 1.57038 18.5748 1.57038 18.5748Z" fill="#0B2946"/>
<path d="M6.43172 8.67751C6.43172 8.67751 7.85664 7.76262 10.5109 8.3171C13.1652 8.87159 14.8136 10.7568 14.8136 13.0579C14.8136 15.359 14.5342 19.5177 12.3828 21.6247C10.6226 23.3435 6.01264 24.2307 4.16863 20.7374C2.32463 17.2443 6.87876 14.6659 6.87876 14.6659L6.43172 8.67751Z" fill="#2D9BDA"/>
<path d="M20.3737 11.0619C20.0105 9.92527 20.9604 8.45589 23.3632 7.95686C25.766 7.45783 28.2526 7.95686 29.5379 10.2025C30.823 12.4481 28.3923 13.5571 26.9953 13.8621C25.5983 14.1671 21.2678 13.8621 20.3737 11.0619Z" fill="#02A484"/>
<path d="M23.7263 15.3594C23.9499 13.7236 25.0115 12.5315 26.0733 12.4206C26.5762 12.3652 26.9674 12.6146 27.2468 12.975C27.1071 12.5315 26.8835 12.1433 26.6041 11.8107C25.4306 10.5354 23.1675 11.5612 22.4691 14.084C21.7706 16.6069 22.7485 18.6307 23.7543 18.908C24.2293 19.0467 24.6204 19.0189 24.9837 18.9357C24.8998 18.908 24.844 18.908 24.7601 18.8526C23.2514 18.104 23.6425 15.9693 23.7263 15.3594Z" fill="#FDFFFF"/>
<path d="M27.2467 12.975C27.6658 14.2503 27.4424 15.8584 26.9673 16.8286C26.4923 17.7713 25.8777 18.6585 24.9557 18.908" fill="#0B2946"/>
<path d="M26.9673 16.8286C27.4423 15.8582 27.638 14.2503 27.2467 12.9749C26.9673 12.6145 26.5482 12.365 26.0733 12.4204C25.0116 12.5313 23.922 13.7235 23.7264 15.3592C23.6426 15.9691 23.2793 18.1316 24.7602 18.8247C24.8439 18.8524 24.8999 18.8802 24.9836 18.9078C25.9057 18.6584 26.5204 17.7712 26.9673 16.8286Z" fill="#0B2946"/>
<path d="M49.3747 30.6628C48.6762 29.9974 47.7821 29.2488 48.0616 28.9162C48.2292 28.7221 48.6483 28.6944 49.263 28.9162C47.9778 28.029 46.3294 26.9478 44.5691 25.7279C40.6018 22.9833 35.9079 18.6305 35.433 18.2978C33.8125 17.1334 33.5331 18.381 33.5051 18.9909C33.4772 19.6009 33.4772 20.3494 32.0523 20.9871C30.6273 21.6247 28.9789 21.0148 28.0011 20.8762C27.0232 20.7376 27.107 21.5138 27.582 21.902C29.1746 23.1772 45.6309 31.1064 49.0953 31.7995C49.2071 31.8272 49.2909 31.8272 49.4027 31.8549C49.5424 31.6331 49.8777 31.1341 49.3747 30.6628Z" fill="#FFCC34"/>
<path d="M51.7496 31.3558C51.8614 30.9121 50.8276 30.0527 49.2351 28.916C48.6205 28.6665 48.2013 28.722 48.0337 28.916C47.7822 29.221 48.6763 29.9972 49.3468 30.6626C49.8498 31.1339 49.5424 31.633 49.319 31.8547C51.2188 32.2151 51.582 32.132 51.7496 31.3558Z" fill="#C8842C"/>
<path d="M35.0698 22.0962C35.3492 22.7894 36.7183 23.5379 37.4446 23.3716C38.199 23.2052 37.8358 22.4566 36.9138 21.5695C35.9918 20.71 34.539 20.7378 35.0698 22.0962Z" fill="#C8842C"/>
<path d="M8.35968 25.0072L8.52731 40.3664L10.4272 40.9485L10.1757 25.0072H8.35968Z" fill="#0B2946"/>
<path d="M12.2154 19.4346C10.7345 22.7615 8.24792 22.6507 6.12452 22.1239C3.88936 21.5694 3.30264 19.3792 3.21882 17.3276C3.19088 16.2187 3.60997 11.6164 5.06282 9.73123C6.51567 7.846 9.19786 8.3173 10.0081 8.53909C10.8183 8.76088 13.8358 10.2302 13.3887 13.8344C12.9418 17.6326 12.7741 18.1871 12.2154 19.4346Z" fill="white"/>
<path d="M4.78333 18.6861L5.25829 17.0225C5.25829 17.0225 7.26993 18.0761 8.21987 17.6879C9.14187 17.2998 8.72278 16.3295 7.68903 15.9136C6.65527 15.47 5.31417 14.777 5.84502 12.7254C6.37587 10.6738 7.77284 10.0638 11.1255 11.3114L10.5109 13.0858C10.5109 13.0858 7.77284 11.7272 7.52139 13.1689C7.35375 14.2501 11.2932 14.3888 10.5947 17.4107C9.61685 21.2089 4.78333 18.6861 4.78333 18.6861Z" fill="#2D9BDA"/>
</svg>
