<svg width="239" height="76" viewBox="0 0 239 76" fill="none" xmlns="http://www.w3.org/2000/svg">
<g clip-path="url(#clip0)">
<path d="M95.2429 59.6761H92.4906V17.0612H79.5613C78.6226 17.0612 78.1531 17.5347 78.1531 18.4816V21.6455H75.4648V17.9651C75.4648 16.6308 75.6996 15.7268 76.1689 15.2533C76.681 14.7368 77.5984 14.4785 78.9212 14.4785H108.812C110.135 14.4785 111.031 14.7368 111.5 15.2533C112.013 15.7268 112.268 16.6308 112.268 17.9651V21.6455H109.581V18.4816C109.581 17.5347 109.111 17.0612 108.172 17.0612H95.2429V59.6761Z" fill="white"/>
<path d="M111.262 43.5996C111.262 38.3911 112.777 34.2587 115.807 31.2025C118.836 28.1463 122.506 26.6182 126.816 26.6182C130.955 26.6182 134.155 28.0387 136.417 30.8796C138.721 33.6346 139.873 37.1212 139.873 41.3397L139.745 43.0831H114.078C114.078 47.6459 115.38 51.2401 117.983 53.8659C120.586 56.4916 123.851 57.8046 127.776 57.8046C129.483 57.8046 131.169 57.5032 132.833 56.9006C134.497 56.2549 135.755 55.5447 136.609 54.7699L137.697 53.7367L139.169 55.9967C138.827 56.341 138.337 56.7714 137.697 57.288C137.185 57.7185 135.883 58.3641 133.792 59.225C131.873 60.0429 129.867 60.4518 127.776 60.4518C123.125 60.4518 119.199 58.9022 115.999 55.8029C112.841 52.6176 111.262 48.5498 111.262 43.5996ZM114.27 40.5649H137.057C136.886 36.906 135.862 34.0865 133.984 32.1064C132.107 30.1263 129.697 29.1363 126.751 29.1363C123.594 29.1363 120.842 30.1695 118.495 32.2356C116.191 34.2587 114.782 37.0351 114.27 40.5649Z" fill="white"/>
<path d="M169.313 59.6766H146.143V57.4812L165.537 32.8808L168.032 29.9107V29.7815C167.009 29.8676 165.921 29.9107 164.768 29.9107H150.367C149.428 29.9107 148.959 30.3842 148.959 31.3312V34.1076H146.335V31.1374C146.335 29.8031 146.612 28.8561 147.166 28.2965C147.764 27.6939 148.724 27.3926 150.047 27.3926H171.681V29.5879L152.223 54.1883L149.663 57.1584V57.2875C150.772 57.2014 151.882 57.1584 152.991 57.1584H168.993C169.931 57.1584 170.401 56.6849 170.401 55.7379V52.9615H173.025V55.9316C173.025 57.266 172.726 58.2346 172.129 58.8372C171.575 59.3967 170.635 59.6766 169.313 59.6766Z" fill="white"/>
<path d="M177.02 43.3413C177.02 38.6494 178.62 34.6892 181.82 31.4608C185.063 28.2324 188.989 26.6182 193.598 26.6182C198.207 26.6182 202.11 28.2324 205.311 31.4608C208.554 34.6892 210.176 38.6494 210.176 43.3413C210.176 48.1624 208.554 52.2086 205.311 55.4801C202.11 58.7946 198.207 60.4518 193.598 60.4518C189.032 60.4518 185.106 58.7946 181.82 55.4801C178.62 52.1656 177.02 48.1193 177.02 43.3413ZM179.836 43.3413C179.836 47.4306 181.159 50.8742 183.805 53.6722C186.493 56.4271 189.757 57.8046 193.598 57.8046C197.481 57.8046 200.724 56.4271 203.327 53.6722C206.015 50.8742 207.359 47.4306 207.359 43.3413C207.359 39.3811 206.015 36.0451 203.327 33.3333C200.724 30.6214 197.481 29.2655 193.598 29.2655C189.757 29.2655 186.493 30.6214 183.805 33.3333C181.159 36.0882 179.836 39.4242 179.836 43.3413Z" fill="white"/>
<path d="M215.45 55.4801L215.002 54.899L216.923 52.8973C217.307 53.414 217.819 53.995 218.459 54.6407C220.805 56.75 223.6 57.8046 226.843 57.8046C229.105 57.8046 230.983 57.2665 232.476 56.1903C233.969 55.0712 234.717 53.5861 234.717 51.7352C234.717 49.0663 232.54 46.914 228.188 45.2784C223.963 43.6857 221.126 42.3298 219.675 41.2105C217.456 39.4887 216.326 37.4225 216.282 35.012C216.282 32.3432 217.264 30.277 219.227 28.8135C221.189 27.35 223.857 26.6182 227.227 26.6182C228.038 26.6182 228.913 26.7258 229.852 26.941C230.79 27.1132 231.751 27.393 232.732 27.7804C233.756 28.1248 234.588 28.6843 235.229 29.4592C235.911 30.234 236.252 31.1164 236.252 32.1064V34.5601H233.564V33.0104C233.564 31.8051 232.881 30.8796 231.516 30.234C230.151 29.5884 228.764 29.2655 227.355 29.2655C221.851 29.2655 219.099 31.1164 219.099 34.8184C219.099 37.5302 221.254 39.704 225.563 41.3397C229.66 42.8893 232.391 44.1161 233.756 45.0201C236.274 46.7849 237.532 49.0232 237.532 51.7352C237.532 54.2748 236.509 56.3625 234.46 57.9982C232.37 59.634 229.809 60.4518 226.78 60.4518C224.006 60.4087 221.638 59.8492 219.675 58.7731C217.755 57.6969 216.346 56.5993 215.45 55.4801Z" fill="white"/>
<path d="M35.8815 74.6C30.6045 74.6 26.7528 73.3178 24.3264 70.7534C22.0788 68.5826 20.7744 65.6026 20.6985 62.4645C20.6712 61.5112 20.8902 60.5671 21.334 59.7249C21.748 58.9974 22.3461 58.3936 23.067 57.9754C23.905 57.5538 24.8287 57.3343 25.7651 57.3343C26.7016 57.3343 27.6251 57.5538 28.4632 57.9754C29.1829 58.392 29.7781 58.9963 30.1864 59.7249C30.643 60.563 30.8702 61.5086 30.8446 62.4645C30.8918 63.6061 30.5672 64.732 29.9203 65.67C29.3812 66.4357 28.6107 67.0045 27.7241 67.2912C28.5911 68.4047 29.8178 69.1762 31.1905 69.4712C32.7264 69.9212 34.317 70.1526 35.9164 70.1587C38.0337 70.1772 40.1075 69.5518 41.8673 68.3636C43.6927 67.0626 45.0542 65.203 45.7495 63.0602C46.6312 60.5099 47.0614 57.8231 47.0206 55.1225C47.0918 52.307 46.6208 49.5043 45.634 46.8696C44.8917 44.7625 43.4827 42.9602 41.6245 41.7409C39.8972 40.6383 37.8921 40.0597 35.8481 40.0742C34.067 40.2264 32.3495 40.8146 30.8446 41.7877L27.1346 43.6642V41.7877L43.8082 19.2237H20.6985V42.6386C20.6332 44.3283 21.0763 45.9984 21.9696 47.4293C22.4017 48.0528 22.9862 48.5532 23.6664 48.882C24.3465 49.2107 25.0993 49.3567 25.8518 49.3057C27.2423 49.2774 28.5869 48.7994 29.6878 47.942C30.9357 47.0195 32.0215 45.8927 32.9002 44.6082C32.9793 44.383 33.1252 44.1879 33.318 44.0492C33.4729 43.9141 33.6706 43.8396 33.8751 43.8393C34.2766 43.8763 34.6565 44.0393 34.9614 44.3053C35.3476 44.7407 35.5578 45.3063 35.5505 45.8904C35.5059 46.2831 35.4364 46.6724 35.3426 47.0561C34.5216 49.0606 33.1456 50.7839 31.379 52.0201C29.7383 53.14 27.8005 53.7338 25.8194 53.7237C20.8159 53.7237 17.3497 52.729 15.4207 50.7397C14.4292 49.6402 13.665 48.3522 13.173 46.9511C12.6809 45.5501 12.4708 44.064 12.555 42.5801V19.2237H0.800781V14.8732H12.6098V4.95366L9.90614 2.22442V0H17.7516L20.6985 1.53883V14.8732L51.2261 14.7795L54.2653 17.8567L35.5463 36.8317C36.6772 36.3729 37.8682 36.0824 39.0819 35.9691C41.4841 36.0753 43.8279 36.7501 45.9237 37.9392C48.3506 39.1029 50.3958 40.9441 51.8171 43.2446C53.0905 45.192 53.9918 47.3624 54.4747 49.6439C54.8718 51.4435 55.0848 53.2795 55.1103 55.123C55.1227 58.6411 54.332 62.115 52.7993 65.2752C51.3459 68.3355 48.8998 70.8031 45.8661 72.2693C42.7607 73.8129 39.3434 74.6106 35.8815 74.6Z" fill="white"/>
</g>
<defs>
<clipPath id="clip0">
<rect width="237.6" height="75.9" fill="white" transform="translate(0.800781)"/>
</clipPath>
</defs>
</svg>
