<svg width="326" height="68" viewBox="0 0 326 68" fill="none" xmlns="http://www.w3.org/2000/svg">
<path fill-rule="evenodd" clip-rule="evenodd" d="M9.0749 1.537L56.9884 29.2192C60.6685 31.3445 60.6687 36.6567 56.9888 38.7823L9.07431 66.4651C5.38885 68.5933 0.791016 65.9309 0.791016 61.6835V6.31806C0.791016 2.07294 5.38747 -0.594271 9.0749 1.537ZM6.69741 5.64345C6.18728 5.34852 5.53859 5.71243 5.53859 6.31806V61.6835C5.53859 62.2872 6.18587 62.6533 6.69801 62.3579L54.6125 34.6751C55.13 34.3763 55.1303 33.6256 54.6128 33.3268L6.69741 5.64345Z" fill="#705DF2"/>
<path fill-rule="evenodd" clip-rule="evenodd" d="M21.7943 14.9321L6.02974 24.0395C5.72718 24.2139 5.53859 24.5381 5.53859 24.8928V43.1073C5.53859 43.4617 5.72827 43.788 6.0309 43.9627L21.7943 53.0708C22.0975 53.2458 22.4716 53.2458 22.7748 53.0708L38.5374 43.9646C38.842 43.7884 39.0305 43.463 39.0305 43.1088V24.8941C39.0305 24.5399 38.8408 24.2135 38.5382 24.0387L22.7748 14.9321C22.4719 14.7575 22.0972 14.7575 21.7943 14.9321ZM19.4191 10.8243C21.192 9.80075 23.3771 9.80075 25.15 10.8243L40.9134 19.931C42.6864 20.955 43.7781 22.8487 43.7781 24.8941V43.1088C43.7781 45.1545 42.688 47.0463 40.9142 48.0713L25.1505 57.1783C23.3778 58.2018 21.192 58.2021 19.4191 57.1786L3.65576 48.0705C1.88277 47.0466 0.791016 45.1529 0.791016 43.1073V24.8928C0.791016 22.8478 1.88047 20.955 3.65614 19.9307L19.4191 10.8243Z" fill="#705DF2"/>
<path fill-rule="evenodd" clip-rule="evenodd" d="M0.791016 23.6531C0.791016 21.5152 3.10546 20.18 4.9582 21.25L23.2678 31.8292C24.1431 32.3326 24.6577 33.2594 24.6577 34.2339V56.0927C24.6577 56.9405 24.2049 57.7238 23.4702 58.1474C22.7352 58.5711 21.83 58.5706 21.0957 58.1463L2.18963 47.2228L2.18156 47.2182C1.30589 46.715 0.791016 45.7879 0.791016 44.8133V23.6531ZM5.53859 27.0654L19.9101 35.3693V51.9812L5.53859 43.6777V27.0654Z" fill="#705DF2"/>
<path fill-rule="evenodd" clip-rule="evenodd" d="M39.1749 21.5017C41.2317 20.3146 43.7722 21.8087 43.7781 24.1518V24.1578V44.6475C43.7781 45.7415 43.1945 46.7547 42.2446 47.3031L42.241 47.3052L24.514 57.5465C22.4639 58.73 19.9102 57.247 19.9102 54.891V34.4026C19.9102 33.3081 20.4943 32.2944 21.4449 31.7463L21.4471 31.7451L39.1749 21.5017ZM39.0305 27.0654L24.6577 35.3701V51.9836L39.0305 43.68V27.0654Z" fill="#705DF2"/>
<path d="M212.386 22.1284C213.224 22.1284 214.206 21.5101 214.206 20.3826C214.206 19.255 213.224 18.6367 212.386 18.6367C211.586 18.6367 210.566 19.255 210.566 20.3826C210.566 21.5101 211.586 22.1284 212.386 22.1284ZM210.93 25.7293V45.8431C210.93 47.9526 210.348 48.1345 207.873 47.9526V50.135C208.929 50.4259 209.657 50.5351 210.566 50.5351C213.042 50.5351 213.842 48.6437 213.842 45.5521V25.7293H210.93ZM226.26 44.7883C220.582 44.7883 217.161 40.7873 217.161 35.0042C217.161 29.221 220.582 25.2201 226.26 25.2201C231.902 25.2201 235.324 29.221 235.324 35.0042C235.324 40.7873 231.902 44.7883 226.26 44.7883ZM226.26 42.2422C230.41 42.2422 232.412 38.9687 232.412 35.0042C232.412 31.0396 230.41 27.7661 226.26 27.7661C222.075 27.7661 220.073 31.0396 220.073 35.0042C220.073 38.9687 222.075 42.2422 226.26 42.2422ZM250.566 25.7293V37.2956C250.566 40.169 248.383 42.2422 245.107 42.2422C242.195 42.2422 241.066 40.3509 241.066 37.9503V25.7293H238.155V38.6777C238.155 42.9333 240.994 44.7883 244.379 44.7883C247.545 44.7883 249.511 43.3698 250.494 42.0604H250.566V44.2791H253.478V25.7293H250.566ZM265.61 25.2201C262.953 25.2201 261.461 26.9659 260.478 29.4029H260.405V25.7293H257.493V44.2791H260.405V34.3858C260.405 30.4213 263.208 27.5843 267.248 28.239H267.321V25.3292C266.811 25.2564 266.301 25.2201 265.61 25.2201ZM279.069 25.2201C275.903 25.2201 273.937 26.6386 272.954 27.948H272.882V25.7293H269.97V44.2791H272.882V32.7127C272.882 29.8393 275.065 27.7661 278.341 27.7661C281.253 27.7661 282.381 29.6575 282.381 32.058V44.2791H285.293V31.3306C285.293 27.075 282.454 25.2201 279.069 25.2201ZM297.097 42.2422C293.057 42.2422 291.055 39.1142 291.055 35.768H305.724C305.724 29.1846 302.885 25.2201 297.061 25.2201C291.638 25.2201 288.143 28.8209 288.143 35.0042C288.143 40.8237 291.565 44.7883 297.207 44.7883C301.829 44.7883 304.486 42.024 305.433 38.5686H302.521C302.193 39.8417 300.81 42.2422 297.097 42.2422ZM297.061 27.7661C300.555 27.7661 302.812 30.2394 302.812 33.2219H291.055C291.055 30.2394 293.567 27.7661 297.061 27.7661ZM323.977 25.7293H320.701L315.35 40.8601H315.277L309.599 25.7293H306.324L313.348 42.7514C314.076 44.57 313.312 46.134 312.548 46.9706C311.565 48.0254 310.436 48.1345 308.835 47.989H308.398V50.1713C308.871 50.3168 309.709 50.5351 310.873 50.5351C314.295 50.5351 315.241 47.8071 316.042 45.8067L323.977 25.7293Z" fill="white"/>
<path d="M87.8642 30.0206V25.656H84.6247V20.4548H78.8011V25.656H76.2168V30.0206H78.8011V38.168C78.8011 42.3508 80.0022 44.6059 84.2608 44.6059C85.8987 44.6059 86.8086 44.424 87.8642 44.2058V39.8411C85.3891 39.8411 84.6247 39.8411 84.6247 37.7315V30.0206H87.8642ZM101.68 25.074C98.6958 25.074 96.8759 26.638 95.8931 28.3475H95.8203V18.2725H89.9966V44.2785H95.8203V33.5124C95.8203 30.9299 97.349 29.8024 99.2053 29.8024C101.316 29.8024 102.226 30.7481 102.226 33.5487V44.2785H108.05V31.6938C108.05 27.4382 105.611 25.074 101.68 25.074ZM121.201 25.3286C119.163 25.3286 117.561 26.638 116.651 28.7113H116.579V25.656H110.755V44.2785H116.579V35.6219C116.579 31.6574 119.745 30.0206 122.73 30.5662H122.803V25.4741C122.148 25.3286 121.711 25.3286 121.201 25.3286ZM133.323 40.4958C131.249 40.4958 129.32 39.1137 129.32 36.4949H142.714C142.714 29.7297 139.475 25.074 133.105 25.074C127.172 25.074 123.496 29.2932 123.496 34.9672C123.496 40.7868 127.245 44.8605 133.432 44.8605C138.492 44.8605 141.404 42.3872 142.423 38.6408H136.636C136.272 39.5501 135.325 40.4958 133.323 40.4958ZM133.105 29.075C135.325 29.075 136.89 30.3844 136.89 32.9668H129.32C129.32 30.3844 130.885 29.075 133.105 29.075ZM153.691 40.4958C151.616 40.4958 149.687 39.1137 149.687 36.4949H163.081C163.081 29.7297 159.842 25.074 153.472 25.074C147.539 25.074 143.863 29.2932 143.863 34.9672C143.863 40.7868 147.612 44.8605 153.8 44.8605C158.859 44.8605 161.771 42.3872 162.79 38.6408H157.003C156.639 39.5501 155.693 40.4958 153.691 40.4958ZM153.472 29.075C155.693 29.075 157.258 30.3844 157.258 32.9668H149.687C149.687 30.3844 151.252 29.075 153.472 29.075ZM167.729 44.6059C169.44 44.6059 170.823 43.4056 170.823 41.5142C170.823 39.6592 169.44 38.4226 167.729 38.4226C165.982 38.4226 164.635 39.6592 164.635 41.5142C164.635 43.4056 165.982 44.6059 167.729 44.6059ZM176.797 23.4373C178.435 23.4373 179.709 22.5644 179.709 20.8549C179.709 19.1818 178.435 18.2725 176.797 18.2725C175.159 18.2725 173.885 19.1818 173.885 20.8549C173.885 22.5644 175.159 23.4373 176.797 23.4373ZM173.885 25.656V43.842C173.885 45.9516 173.121 45.9516 170.646 45.9516V50.3163C171.701 50.5345 172.611 50.7164 174.249 50.7164C178.508 50.7164 179.709 48.4613 179.709 44.2785V25.656H173.885ZM191.655 32.5303C188.78 31.912 187.615 31.8756 187.615 30.5662C187.615 29.6569 188.452 29.075 190.09 29.075C191.983 29.075 192.784 29.8752 192.966 31.3664H198.425C198.243 28.0929 195.914 25.074 189.945 25.074C184.703 25.074 181.791 27.6565 181.791 31.0391C181.791 34.9309 185.286 36.0948 188.452 36.7859C191.401 37.4405 193.148 37.6588 193.148 39.2592C193.148 40.3139 192.238 40.8595 190.6 40.8595C188.307 40.8595 187.069 39.9502 186.887 38.0952H181.427C181.609 41.8779 184.157 44.8605 190.818 44.8605C195.987 44.8605 198.971 42.7145 198.971 38.7863C198.971 34.5672 195.331 33.3305 191.655 32.5303Z" fill="white"/>
</svg>
