<svg width="220" height="51" viewBox="0 0 220 51" fill="none" xmlns="http://www.w3.org/2000/svg">
<path fill-rule="evenodd" clip-rule="evenodd" d="M35.0828 0.675903L29.0938 16.7133L22.2232 0.675903H19.9735L13.1332 16.7133L7.1442 0.675903H1.00317L11.5828 27.8657H13.802L21.1287 11.3367L28.3946 27.8657H30.6139L41.1934 0.675903H35.0828Z" fill="white"/>
<path d="M44.5984 24.3325H55.6036L57.0933 27.8657H63.0215L51.2563 0.675903H49.0066L37.1805 27.8657H43.1088L44.5984 24.3325ZM50.101 10.5994L53.6579 19.7548H46.5745L50.101 10.5994Z" fill="white"/>
<path fill-rule="evenodd" clip-rule="evenodd" d="M88.1632 0.675903H81.5965L71.321 13.3337V0.675903H65.8184V27.8657H71.321V13.7024L82.843 27.8657H89.5008L77.8572 13.4873L88.1632 0.675903Z" fill="white"/>
<path d="M97.7699 0.675903H92.2673V27.8657H97.7699V0.675903Z" fill="white"/>
<path fill-rule="evenodd" clip-rule="evenodd" d="M120.449 16.8669L105.279 0.675903H103.029V27.8657H108.532V11.5518L123.641 27.8657H125.952V0.675903H120.449V16.8669Z" fill="white"/>
<path fill-rule="evenodd" clip-rule="evenodd" d="M156.9 12.9651H143.98V17.7886H151.397V20.0007C149.938 22.0591 147.445 23.3802 144.314 23.3802C138.903 23.3802 135.346 19.5398 135.346 14.2555C135.346 9.06333 138.781 5.31513 143.98 5.31513C147.293 5.31513 149.695 6.78983 151.489 9.30911L155.41 6.05248C152.826 2.33501 148.874 0.153687 144.071 0.153687C135.954 0.153687 129.661 6.26754 129.661 14.2555C129.661 22.2434 135.984 28.3573 144.071 28.3573C149.817 28.3573 154.559 25.2543 156.93 20.9838V12.9651H156.9Z" fill="white"/>
<path fill-rule="evenodd" clip-rule="evenodd" d="M188.396 16.5289C188.396 20.6151 185.872 22.7042 182.467 22.7042C179.123 22.7042 176.539 20.6151 176.539 16.5289V0.675903H171.037V16.1295C171.037 23.4416 175.901 27.8657 182.467 27.8657C189.004 27.8657 193.898 23.4108 193.898 16.1295V0.675903H188.396V16.5289Z" fill="white"/>
<path d="M209.099 0.675903H198.975V27.8964H204.478V18.2801H209.099C214.784 18.2801 218.797 14.6855 218.797 9.46265C218.797 4.14759 214.753 0.675903 209.099 0.675903ZM209.099 13.3952H204.478V5.56084H209.099C211.683 5.56084 213.173 7.15843 213.173 9.43193C213.173 11.7976 211.652 13.3952 209.099 13.3952Z" fill="white"/>
<path fill-rule="evenodd" clip-rule="evenodd" d="M52.7763 41.9675L51.8947 42.6434C51.3474 41.8139 50.4962 41.353 49.5842 41.353C48.6417 41.353 47.7905 41.8446 47.7905 42.8584C47.7905 43.7801 48.4897 44.1181 49.4322 44.5789L50.557 45.1319C52.0467 45.8386 52.9283 46.6066 52.9283 47.9892C52.9283 49.7096 51.5299 50.8464 49.645 50.8464C48.0337 50.8464 46.6961 49.9861 45.9056 48.6343L46.7873 47.9584C47.3953 48.9108 48.3073 49.7096 49.6146 49.7096C50.8002 49.7096 51.6515 49.0337 51.6515 47.9892C51.6515 47.0367 50.9522 46.6681 49.949 46.1765L48.8241 45.6235C47.6385 45.0398 46.5441 44.3331 46.5441 42.8584C46.5441 41.2301 47.9729 40.1855 49.6146 40.1855C50.9522 40.2163 52.1379 40.9536 52.7763 41.9675Z" fill="white"/>
<path d="M65.9399 48.5728H60.9845L60.1029 50.662H58.8564L63.2646 40.2162H63.7206L68.1288 50.662H66.8519L65.9399 48.5728ZM63.447 42.459L61.4101 47.4975H65.4839L63.447 42.459Z" fill="white"/>
<path fill-rule="evenodd" clip-rule="evenodd" d="M83.907 40.2163V50.6621H82.7213V43.2886L79.4684 47.7434H79.0428L75.7899 43.2578V50.6313H74.6042V40.1855H75.0299L79.2556 46.1151L83.5118 40.1855H83.907V40.2163Z" fill="white"/>
<path fill-rule="evenodd" clip-rule="evenodd" d="M108.35 50.6621H107.164V45.7157H101.479V50.6621H100.293V40.4006H101.479V44.6404H107.164V40.4006H108.35V50.6621Z" fill="white"/>
<path d="M121.969 48.5728H117.014L116.132 50.662H114.886L119.294 40.2162H119.75L124.158 50.662H122.881L121.969 48.5728ZM119.476 42.459L117.439 47.4975H121.513L119.476 42.459Z" fill="white"/>
<path d="M137.17 50.6621L134.008 46.3609H131.85V50.6621H130.664V40.4006H134.221C136.227 40.4006 137.474 41.6295 137.474 43.3808C137.474 44.7633 136.683 45.8386 135.346 46.238L138.568 50.6928H137.17V50.6621ZM131.819 45.2548H134.13C135.467 45.2548 136.167 44.4868 136.167 43.3808C136.167 42.3055 135.467 41.4759 134.13 41.4759H131.819V45.2548Z" fill="white"/>
<path d="M151.367 50.6621L148.205 46.3609H146.047V50.6621H144.861V40.4006H148.418C150.425 40.4006 151.671 41.6295 151.671 43.3808C151.671 44.7633 150.881 45.8386 149.543 46.238L152.766 50.6928H151.367V50.6621ZM146.047 45.2548H148.357C149.695 45.2548 150.394 44.4868 150.394 43.3808C150.394 42.3055 149.695 41.4759 148.357 41.4759H146.047V45.2548Z" fill="white"/>
<path fill-rule="evenodd" clip-rule="evenodd" d="M160.275 50.6621H159.089V40.4006H160.275V50.6621Z" fill="white"/>
<path fill-rule="evenodd" clip-rule="evenodd" d="M173.803 41.9675L172.922 42.6434C172.374 41.8139 171.523 41.353 170.611 41.353C169.669 41.353 168.817 41.8446 168.817 42.8584C168.817 43.7801 169.517 44.1181 170.459 44.5789L171.584 45.1319C173.074 45.8386 173.955 46.6066 173.955 47.9892C173.955 49.7096 172.557 50.8464 170.672 50.8464C169.061 50.8464 167.723 49.9861 166.932 48.6343L167.814 47.9584C168.422 48.9108 169.334 49.7096 170.641 49.7096C171.827 49.7096 172.678 49.0337 172.678 47.9892C172.678 47.0368 171.979 46.6681 170.976 46.1765L169.851 45.6235C168.665 45.0398 167.571 44.3331 167.571 42.8584C167.571 41.2301 169 40.1855 170.641 40.1855C172.009 40.2163 173.195 40.9536 173.803 41.9675Z" fill="white"/>
</svg>
