<svg width="628" height="85" viewBox="0 0 628 85" fill="none" xmlns="http://www.w3.org/2000/svg">
<ellipse cx="41" cy="44.5" rx="39" ry="38.5" fill="url(#paint0_linear)"/>
<path d="M9.5 76.5L11.5 69.5L16.5 73.5L9.5 76.5Z" fill="#2AB53F"/>
<path d="M0.201172 85L6.17596 63.1727C2.48909 56.7835 0.551797 49.5408 0.555339 42.114C0.565964 18.8948 19.4608 0 42.6764 0C53.9424 0.00354167 64.5178 4.39167 72.4724 12.3533C80.4235 20.315 84.801 30.8975 84.7974 42.1529C84.7868 65.3756 65.892 84.2704 42.6764 84.2704C35.6285 84.2669 28.6833 82.4996 22.5314 79.1421L0.201172 85ZM23.5655 71.5169C29.5014 75.0408 35.168 77.1517 42.6622 77.1552C61.9572 77.1552 77.6751 61.4515 77.6858 42.1458C77.6928 22.8013 62.0493 7.11875 42.6905 7.11167C23.3814 7.11167 7.67409 22.8154 7.66701 42.1175C7.66346 49.9977 9.97263 55.8981 13.8508 62.0712L10.3126 74.9912L23.5655 71.5169ZM63.8945 52.1652C63.6324 51.726 62.9312 51.464 61.8758 50.9363C60.8239 50.4085 55.6495 47.8621 54.6826 47.5115C53.7193 47.1608 53.018 46.9838 52.3133 48.0392C51.612 49.091 49.5933 51.464 48.9805 52.1652C48.3678 52.8665 47.7516 52.955 46.6997 52.4273C45.6478 51.8996 42.2549 50.791 38.2351 47.2033C35.1078 44.4125 32.9935 40.9665 32.3808 39.911C31.768 38.8592 32.317 38.289 32.8412 37.7648C33.3158 37.2938 33.893 36.5358 34.4208 35.9196C34.9555 35.3104 35.1291 34.8713 35.4833 34.1665C35.8339 33.4652 35.6603 32.849 35.3947 32.3213C35.1291 31.7971 33.0253 26.6156 32.1505 24.5083C31.2935 22.4577 30.4258 22.734 29.7812 22.7021L27.7624 22.6667C27.0612 22.6667 25.9208 22.9287 24.9574 23.9842C23.9941 25.0396 21.2741 27.5825 21.2741 32.764C21.2741 37.9454 25.046 42.9498 25.5701 43.651C26.0978 44.3523 32.9899 54.9844 43.5476 59.5425C46.0587 60.6263 48.0208 61.2744 49.5472 61.7596C52.0689 62.56 54.3639 62.4467 56.1772 62.1775C58.1995 61.8765 62.4035 59.631 63.2818 57.1731C64.1601 54.7117 64.1601 52.6044 63.8945 52.1652Z" fill="white"/>
<path d="M121.5 36.4H128.5L133.8 52.25L138.35 36.4H144.95L137.25 61H130.6L124.85 44.2L119.2 61H112.45L104.6 36.4H111.6L116.15 52.2L121.5 36.4ZM146.755 54.3C146.755 52.2 147.438 50.5167 148.805 49.25C150.172 47.9833 151.938 47.1833 154.105 46.85L160.155 45.95C161.388 45.7833 162.005 45.2 162.005 44.2C162.005 43.2667 161.638 42.5 160.905 41.9C160.205 41.3 159.188 41 157.855 41C156.455 41 155.338 41.3833 154.505 42.15C153.705 42.9167 153.255 43.8667 153.155 45L147.255 43.75C147.488 41.6167 148.538 39.7333 150.405 38.1C152.272 36.4667 154.738 35.65 157.805 35.65C161.472 35.65 164.172 36.5333 165.905 38.3C167.638 40.0333 168.505 42.2667 168.505 45V57.1C168.505 58.5667 168.605 59.8667 168.805 61H162.705C162.538 60.2667 162.455 59.2833 162.455 58.05C160.888 60.4833 158.472 61.7 155.205 61.7C152.672 61.7 150.622 60.9667 149.055 59.5C147.522 58.0333 146.755 56.3 146.755 54.3ZM156.605 56.75C158.172 56.75 159.455 56.3167 160.455 55.45C161.488 54.55 162.005 53.0833 162.005 51.05V49.95L156.455 50.8C154.422 51.1 153.405 52.1333 153.405 53.9C153.405 54.7 153.688 55.3833 154.255 55.95C154.822 56.4833 155.605 56.75 156.605 56.75ZM175.458 60.05C174.558 59.15 174.108 58.0667 174.108 56.8C174.108 55.5333 174.558 54.4667 175.458 53.6C176.358 52.7 177.425 52.25 178.658 52.25C179.925 52.25 181.008 52.7 181.908 53.6C182.808 54.4667 183.258 55.5333 183.258 56.8C183.258 58.0667 182.808 59.15 181.908 60.05C181.008 60.9167 179.925 61.35 178.658 61.35C177.425 61.35 176.358 60.9167 175.458 60.05ZM195.886 61H189.236V36.4H195.586V39.4C196.219 38.2667 197.219 37.3667 198.586 36.7C199.952 36.0333 201.352 35.7 202.786 35.7C206.352 35.7 208.786 37.0667 210.086 39.8C211.852 37.0667 214.452 35.7 217.886 35.7C220.386 35.7 222.486 36.4833 224.186 38.05C225.919 39.6167 226.786 41.95 226.786 45.05V61H220.336V46.4C220.336 45 219.969 43.8833 219.236 43.05C218.536 42.1833 217.452 41.75 215.986 41.75C214.619 41.75 213.519 42.2167 212.686 43.15C211.852 44.0833 211.436 45.2333 211.436 46.6V61H204.836V46.4C204.836 45 204.469 43.8833 203.736 43.05C203.002 42.1833 201.919 41.75 200.486 41.75C199.086 41.75 197.969 42.2167 197.136 43.15C196.302 44.05 195.886 45.2 195.886 46.6V61ZM237.623 45.9H248.623C248.556 44.5333 248.056 43.3833 247.123 42.45C246.223 41.5167 244.889 41.05 243.123 41.05C241.523 41.05 240.223 41.55 239.223 42.55C238.223 43.55 237.689 44.6667 237.623 45.9ZM249.273 52.3L254.823 53.95C254.156 56.2167 252.839 58.0833 250.873 59.55C248.939 61.0167 246.523 61.75 243.623 61.75C240.089 61.75 237.089 60.5667 234.623 58.2C232.156 55.8 230.923 52.6 230.923 48.6C230.923 44.8 232.123 41.7 234.523 39.3C236.923 36.8667 239.756 35.65 243.023 35.65C246.823 35.65 249.789 36.7833 251.923 39.05C254.089 41.3167 255.173 44.4333 255.173 48.4C255.173 48.6667 255.156 48.9667 255.123 49.3C255.123 49.6333 255.123 49.9 255.123 50.1L255.073 50.45H237.473C237.539 52.05 238.173 53.3833 239.373 54.45C240.573 55.5167 242.006 56.05 243.673 56.05C246.506 56.05 248.373 54.8 249.273 52.3ZM279.42 25.1L261.67 61.45H255.67L273.37 25.1H279.42ZM281.1 43.55H290.55V33.8H296.15V43.55H305.65V49H296.15V58.8H290.55V49H281.1V43.55ZM309.798 59.95L311.498 54.4C313.165 55.3333 315.082 55.8 317.248 55.8C320.248 55.8 322.648 55 324.448 53.4C326.282 51.8 327.315 49.5333 327.548 46.6C326.848 47.6667 325.832 48.5167 324.498 49.15C323.198 49.7833 321.715 50.1 320.048 50.1C316.915 50.1 314.265 49.1 312.098 47.1C309.932 45.1 308.848 42.4667 308.848 39.2C308.848 35.8667 310.015 33.1333 312.348 31C314.715 28.8667 317.698 27.8 321.298 27.8C325.032 27.8 328.115 29.1333 330.548 31.8C333.015 34.4333 334.248 38.2167 334.248 43.15C334.248 49.05 332.798 53.6333 329.898 56.9C326.998 60.1333 322.798 61.75 317.298 61.75C314.232 61.75 311.732 61.15 309.798 59.95ZM324.998 42.85C326.098 41.85 326.648 40.5667 326.648 39C326.648 37.4333 326.098 36.15 324.998 35.15C323.932 34.15 322.615 33.65 321.048 33.65C319.515 33.65 318.198 34.15 317.098 35.15C316.032 36.15 315.498 37.4333 315.498 39C315.498 40.6 316.032 41.9 317.098 42.9C318.165 43.8667 319.482 44.35 321.048 44.35C322.615 44.35 323.932 43.85 324.998 42.85ZM351.212 61H344.362V39.3H336.562V34.65C338.895 34.6167 340.845 34.0333 342.412 32.9C343.978 31.7333 344.928 30.2833 345.262 28.55H351.212V61ZM356.882 59.95L358.582 54.4C360.249 55.3333 362.166 55.8 364.332 55.8C367.332 55.8 369.732 55 371.532 53.4C373.366 51.8 374.399 49.5333 374.632 46.6C373.932 47.6667 372.916 48.5167 371.582 49.15C370.282 49.7833 368.799 50.1 367.132 50.1C363.999 50.1 361.349 49.1 359.182 47.1C357.016 45.1 355.932 42.4667 355.932 39.2C355.932 35.8667 357.099 33.1333 359.432 31C361.799 28.8667 364.782 27.8 368.382 27.8C372.116 27.8 375.199 29.1333 377.632 31.8C380.099 34.4333 381.332 38.2167 381.332 43.15C381.332 49.05 379.882 53.6333 376.982 56.9C374.082 60.1333 369.882 61.75 364.382 61.75C361.316 61.75 358.816 61.15 356.882 59.95ZM372.082 42.85C373.182 41.85 373.732 40.5667 373.732 39C373.732 37.4333 373.182 36.15 372.082 35.15C371.016 34.15 369.699 33.65 368.132 33.65C366.599 33.65 365.282 34.15 364.182 35.15C363.116 36.15 362.582 37.4333 362.582 39C362.582 40.6 363.116 41.9 364.182 42.9C365.249 43.8667 366.566 44.35 368.132 44.35C369.699 44.35 371.016 43.85 372.082 42.85ZM393.235 46.6L390.185 41.8L398.685 34.5H384.485V28.55H407.435V34.1L399.035 41.1C401.602 41.2 403.802 42.1667 405.635 44C407.502 45.8 408.435 48.1333 408.435 51C408.435 53.9333 407.302 56.4667 405.035 58.6C402.768 60.7 399.752 61.75 395.985 61.75C392.352 61.75 389.402 60.75 387.135 58.75C384.868 56.7167 383.635 54.2667 383.435 51.4L390.085 50.1C390.152 51.7667 390.718 53.1333 391.785 54.2C392.885 55.2667 394.285 55.8 395.985 55.8C397.652 55.8 398.985 55.3333 399.985 54.4C400.985 53.4667 401.485 52.3 401.485 50.9C401.485 49.4 400.985 48.2333 399.985 47.4C399.018 46.5333 397.752 46.1 396.185 46.1C395.152 46.1 394.168 46.2667 393.235 46.6ZM434.468 28.55V34.3C433.702 34.9333 432.968 35.6 432.268 36.3C431.568 37 430.568 38.2 429.268 39.9C428.002 41.5667 426.885 43.3167 425.918 45.15C424.952 46.9833 424.035 49.3167 423.168 52.15C422.302 54.9833 421.735 57.9333 421.468 61H414.318C414.585 57.7333 415.168 54.6 416.068 51.6C417.002 48.5667 418.035 46.0667 419.168 44.1C420.335 42.1 421.468 40.35 422.568 38.85C423.702 37.3167 424.635 36.2 425.368 35.5L426.518 34.5H409.818V28.55H434.468ZM442.908 41.1L436.358 40.9C436.191 40.1333 436.108 39.3833 436.108 38.65C436.108 35.65 437.174 33.1 439.308 31C441.441 28.8667 444.324 27.8 447.958 27.8C451.491 27.8 454.324 28.8167 456.458 30.85C458.591 32.85 459.658 35.3167 459.658 38.25C459.658 42.3833 457.558 45.7333 453.358 48.3L447.108 52.1C445.641 53.0333 444.708 54.0167 444.308 55.05H459.858V61H435.858C435.891 57.9667 436.474 55.3167 437.608 53.05C438.774 50.7833 440.741 48.8167 443.508 47.15L448.858 43.95C451.424 42.4167 452.708 40.55 452.708 38.35C452.708 37.1167 452.274 36.0667 451.408 35.2C450.574 34.3333 449.374 33.9 447.808 33.9C446.141 33.9 444.858 34.4 443.958 35.4C443.091 36.4 442.658 37.7 442.658 39.3C442.658 39.9 442.741 40.5 442.908 41.1ZM462.106 51.9L468.556 50.45C468.623 51.9833 469.19 53.2833 470.256 54.35C471.356 55.3833 472.756 55.9 474.456 55.9C476.056 55.9 477.39 55.4167 478.456 54.45C479.523 53.4833 480.056 52.2 480.056 50.6C480.056 48.8333 479.49 47.4833 478.356 46.55C477.256 45.6167 475.906 45.15 474.306 45.15C472.273 45.15 470.606 45.8833 469.306 47.35C466.94 46.45 464.84 45.7333 463.006 45.2L466.856 28.55H485.156V34.5H471.556L469.956 41.65C471.39 40.3167 473.34 39.65 475.806 39.65C479.14 39.65 481.823 40.6167 483.856 42.55C485.89 44.45 486.906 47.1 486.906 50.5C486.906 53.6333 485.773 56.3 483.506 58.5C481.24 60.7 478.223 61.8 474.456 61.8C471.056 61.8 468.19 60.8167 465.856 58.85C463.556 56.8833 462.306 54.5667 462.106 51.9ZM498.145 36.55C496.979 38.3833 496.395 41.1333 496.395 44.8C496.395 48.4667 496.979 51.2167 498.145 53.05C499.245 54.8167 500.879 55.7 503.045 55.7C505.179 55.7 506.795 54.8167 507.895 53.05C509.095 51.25 509.695 48.5 509.695 44.8C509.695 41.1 509.095 38.35 507.895 36.55C506.795 34.7833 505.179 33.9 503.045 33.9C500.879 33.9 499.245 34.7833 498.145 36.55ZM492.345 56.35C490.445 53.45 489.495 49.6 489.495 44.8C489.495 40 490.445 36.15 492.345 33.25C494.779 29.6167 498.345 27.8 503.045 27.8C507.745 27.8 511.295 29.6167 513.695 33.25C515.629 36.1833 516.595 40.0333 516.595 44.8C516.595 49.5667 515.629 53.4167 513.695 56.35C511.295 59.9833 507.745 61.8 503.045 61.8C498.345 61.8 494.779 59.9833 492.345 56.35ZM544.699 29.3L542.799 34.9C540.999 34.1333 539.215 33.75 537.449 33.75C534.615 33.75 532.199 34.5667 530.199 36.2C528.232 37.8 527.065 40.0833 526.699 43.05C527.365 42.05 528.365 41.2 529.699 40.5C531.065 39.8 532.632 39.45 534.399 39.45C537.765 39.45 540.465 40.4333 542.499 42.4C544.565 44.3667 545.599 47.0167 545.599 50.35C545.599 53.65 544.399 56.3833 541.999 58.55C539.632 60.6833 536.649 61.75 533.049 61.75C529.315 61.75 526.182 60.45 523.649 57.85C521.149 55.2167 519.899 51.55 519.899 46.85C519.899 41.05 521.549 36.4333 524.849 33C528.149 29.5333 532.499 27.8 537.899 27.8C540.732 27.8 542.999 28.3 544.699 29.3ZM527.299 50.5C527.299 52.1 527.849 53.4167 528.949 54.45C530.082 55.45 531.432 55.95 532.999 55.95C534.632 55.95 535.999 55.45 537.099 54.45C538.199 53.45 538.749 52.1333 538.749 50.5C538.749 48.8667 538.199 47.5667 537.099 46.6C535.999 45.6 534.632 45.1 532.999 45.1C531.399 45.1 530.049 45.6 528.949 46.6C527.849 47.5667 527.299 48.8667 527.299 50.5ZM548.8 59.95L550.5 54.4C552.167 55.3333 554.084 55.8 556.25 55.8C559.25 55.8 561.65 55 563.45 53.4C565.284 51.8 566.317 49.5333 566.55 46.6C565.85 47.6667 564.834 48.5167 563.5 49.15C562.2 49.7833 560.717 50.1 559.05 50.1C555.917 50.1 553.267 49.1 551.1 47.1C548.934 45.1 547.85 42.4667 547.85 39.2C547.85 35.8667 549.017 33.1333 551.35 31C553.717 28.8667 556.7 27.8 560.3 27.8C564.034 27.8 567.117 29.1333 569.55 31.8C572.017 34.4333 573.25 38.2167 573.25 43.15C573.25 49.05 571.8 53.6333 568.9 56.9C566 60.1333 561.8 61.75 556.3 61.75C553.234 61.75 550.734 61.15 548.8 59.95ZM564 42.85C565.1 41.85 565.65 40.5667 565.65 39C565.65 37.4333 565.1 36.15 564 35.15C562.934 34.15 561.617 33.65 560.05 33.65C558.517 33.65 557.2 34.15 556.1 35.15C555.034 36.15 554.5 37.4333 554.5 39C554.5 40.6 555.034 41.9 556.1 42.9C557.167 43.8667 558.484 44.35 560.05 44.35C561.617 44.35 562.934 43.85 564 42.85ZM599.451 28.55V34.3C598.684 34.9333 597.951 35.6 597.251 36.3C596.551 37 595.551 38.2 594.251 39.9C592.984 41.5667 591.867 43.3167 590.901 45.15C589.934 46.9833 589.017 49.3167 588.151 52.15C587.284 54.9833 586.717 57.9333 586.451 61H579.301C579.567 57.7333 580.151 54.6 581.051 51.6C581.984 48.5667 583.017 46.0667 584.151 44.1C585.317 42.1 586.451 40.35 587.551 38.85C588.684 37.3167 589.617 36.2 590.351 35.5L591.501 34.5H574.801V28.55H599.451ZM610.38 46.6L607.33 41.8L615.83 34.5H601.63V28.55H624.58V34.1L616.18 41.1C618.746 41.2 620.946 42.1667 622.78 44C624.646 45.8 625.58 48.1333 625.58 51C625.58 53.9333 624.446 56.4667 622.18 58.6C619.913 60.7 616.896 61.75 613.13 61.75C609.496 61.75 606.546 60.75 604.28 58.75C602.013 56.7167 600.78 54.2667 600.58 51.4L607.23 50.1C607.296 51.7667 607.863 53.1333 608.93 54.2C610.03 55.2667 611.43 55.8 613.13 55.8C614.796 55.8 616.13 55.3333 617.13 54.4C618.13 53.4667 618.63 52.3 618.63 50.9C618.63 49.4 618.13 48.2333 617.13 47.4C616.163 46.5333 614.896 46.1 613.33 46.1C612.296 46.1 611.313 46.2667 610.38 46.6Z" fill="white"/>
<path d="M104 70.75H627.13V74.75H104V70.75Z" fill="white"/>
<defs>
<linearGradient id="paint0_linear" x1="66.2676" y1="17.3873" x2="41.5643" y2="83.2118" gradientUnits="userSpaceOnUse">
<stop stop-color="#50CC5D"/>
<stop offset="1" stop-color="#28B43E"/>
</linearGradient>
</defs>
</svg>
