<svg id="ekzgtjeu903p1" xmlns="http://www.w3.org/2000/svg" xmlns:xlink="http://www.w3.org/1999/xlink" viewBox="0 0 82 82" shape-rendering="geometricPrecision" text-rendering="geometricPrecision"><style><![CDATA[#ekzgtjeu903p2_to {animation: ekzgtjeu903p2_to__to 3000ms linear infinite normal forwards}@keyframes ekzgtjeu903p2_to__to { 0% {transform: translate(41.000001px,68.252499px);animation-timing-function: cubic-bezier(1,0,0,1)} 33.333333% {transform: translate(58.035985px,68.252499px);animation-timing-function: cubic-bezier(1,0,0,1)} 100% {transform: translate(41px,68.252499px)} }#ekzgtjeu903p2_ts {animation: ekzgtjeu903p2_ts__ts 3000ms linear infinite normal forwards}@keyframes ekzgtjeu903p2_ts__ts { 0% {transform: scale(0,0);animation-timing-function: cubic-bezier(1,0,0,1)} 33.333333% {transform: scale(1,1);animation-timing-function: cubic-bezier(1,0,0,1)} 100% {transform: scale(0,0)} }#ekzgtjeu903p3_to {animation: ekzgtjeu903p3_to__to 3000ms linear infinite normal forwards}@keyframes ekzgtjeu903p3_to__to { 0% {transform: translate(45.851569px,47.745207px);animation-timing-function: cubic-bezier(1,0,0,1)} 33.333333% {transform: translate(36.136567px,47.745207px);animation-timing-function: cubic-bezier(1,0,0,1)} 100% {transform: translate(45.850000px,47.745207px)} }#ekzgtjeu903p4_to {animation: ekzgtjeu903p4_to__to 3000ms linear infinite normal forwards}@keyframes ekzgtjeu903p4_to__to { 0% {transform: translate(64.629101px,22.729402px);animation-timing-function: cubic-bezier(1,0,0,1)} 33.333333% {transform: translate(54.914099px,22.729402px);animation-timing-function: cubic-bezier(1,0,0,1)} 100% {transform: translate(64.630000px,22.729402px)} }]]></style><g id="ekzgtjeu903p2_to" transform="translate(41.000001,68.252499)"><g id="ekzgtjeu903p2_ts" transform="scale(0,0)"><path id="ekzgtjeu903p2" d="M68.307600,64.755900L48.852100,64.755900C46.954100,64.755900,45.410200,66.324100,45.410200,68.252500C45.410200,70.184200,46.954100,71.749100,48.852100,71.749100L68.307600,71.749100C70.205900,71.749100,71.749600,70.184200,71.749600,68.252500C71.749600,66.324100,70.205900,64.755900,68.307600,64.755900Z" transform="translate(-58.579901,-68.252499)" opacity="0.4000000059604645" fill="rgb(255,255,255)" stroke="none" stroke-width="1"/></g></g><g id="ekzgtjeu903p3_to" transform="translate(45.851569,47.745207)"><path id="ekzgtjeu903p3" d="M35.222400,23.583300L53.658400,38.480200C54.102900,38.836600,54.179100,39.490200,53.832000,39.945700L31.975700,68.424900C30.601800,70.184200,28.577100,71.179500,26.407700,71.216400L14.476300,71.363300C13.839900,71.370400,13.283100,70.929700,13.138500,70.298000L10.426800,58.508100C9.956820,56.341200,10.426800,54.100900,11.800800,52.374500L33.765400,23.759600C34.119800,23.300500,34.774200,23.219700,35.222400,23.583300Z" transform="translate(-32.149704,-47.359407)" fill="rgb(255,255,255)" stroke="none" stroke-width="1"/></g><g id="ekzgtjeu903p4_to" transform="translate(64.629101,22.729402)"><path id="ekzgtjeu903p4" d="M61.915400,29.606900L58.361000,34.043700C58.003300,34.495300,57.359600,34.568800,56.915100,34.209000C52.594400,30.712400,41.530500,21.739700,38.461000,19.253200C38.012700,18.885900,37.951200,18.232200,38.312700,17.776700L41.740300,13.520000C44.849800,9.516570,50.273100,9.149280,54.647800,12.638500L59.673700,16.641800C61.734600,18.257900,63.108500,20.388100,63.578600,22.628500C64.120800,25.093000,63.542400,27.513400,61.915400,29.606900Z" transform="translate(-50.927237,-22.343602)" opacity="0.4000000059604645" fill="rgb(255,255,255)" stroke="none" stroke-width="1"/></g></svg>