<svg width="82" height="82" viewBox="0 0 82 82" fill="none" xmlns="http://www.w3.org/2000/svg">
<path opacity="0.4" d="M68.3076 64.7559H48.8521C46.9541 64.7559 45.4102 66.3241 45.4102 68.2525C45.4102 70.1842 46.9541 71.7491 48.8521 71.7491H68.3076C70.2059 71.7491 71.7496 70.1842 71.7496 68.2525C71.7496 66.3241 70.2059 64.7559 68.3076 64.7559Z" fill="white"/>
<path d="M35.2224 23.5833L53.6584 38.4802C54.1029 38.8366 54.1791 39.4902 53.832 39.9457L31.9757 68.4249C30.6018 70.1842 28.5771 71.1795 26.4077 71.2164L14.4763 71.3633C13.8399 71.3704 13.2831 70.9297 13.1385 70.298L10.4268 58.5081C9.95682 56.3412 10.4268 54.1009 11.8008 52.3745L33.7654 23.7596C34.1198 23.3005 34.7742 23.2197 35.2224 23.5833Z" fill="white"/>
<path opacity="0.4" d="M61.9154 29.6069L58.361 34.0437C58.0033 34.4953 57.3596 34.5688 56.9151 34.209C52.5944 30.7124 41.5305 21.7397 38.461 19.2532C38.0127 18.8859 37.9512 18.2322 38.3127 17.7767L41.7403 13.52C44.8498 9.51657 50.2731 9.14928 54.6478 12.6385L59.6737 16.6418C61.7346 18.2579 63.1085 20.3881 63.5786 22.6285C64.1208 25.093 63.5424 27.5134 61.9154 29.6069Z" fill="white"/>
</svg>
