<svg id="e0ot4fyaj7ke1" xmlns="http://www.w3.org/2000/svg" xmlns:xlink="http://www.w3.org/1999/xlink" viewBox="0 0 150 150" shape-rendering="geometricPrecision" text-rendering="geometricPrecision"><style><![CDATA[#e0ot4fyaj7ke4_to {animation: e0ot4fyaj7ke4_to__to 3000ms linear infinite normal forwards}@keyframes e0ot4fyaj7ke4_to__to { 0% {transform: translate(75px,48.872980px)} 16.666667% {transform: translate(75px,48.872980px);animation-timing-function: cubic-bezier(0.420000,0,0.580000,1)} 23.333333% {transform: translate(75px,23.330105px)} 100% {transform: translate(75px,23.330105px)} }#e0ot4fyaj7ke4_ts {animation: e0ot4fyaj7ke4_ts__ts 3000ms linear infinite normal forwards}@keyframes e0ot4fyaj7ke4_ts__ts { 0% {transform: scale(0.410000,0.410000)} 16.666667% {transform: scale(0.410000,0.410000);animation-timing-function: cubic-bezier(0.420000,0,0.580000,1)} 26.666667% {transform: scale(1,1)} 100% {transform: scale(1,1)} }#e0ot4fyaj7ke4 {animation: e0ot4fyaj7ke4_c_o 3000ms linear infinite normal forwards}@keyframes e0ot4fyaj7ke4_c_o { 0% {opacity: 0} 16.666667% {opacity: 0;animation-timing-function: cubic-bezier(0.420000,0,0.580000,1)} 26.666667% {opacity: 1} 100% {opacity: 1} }#e0ot4fyaj7ke5_to {animation: e0ot4fyaj7ke5_to__to 3000ms linear infinite normal forwards}@keyframes e0ot4fyaj7ke5_to__to { 0% {transform: translate(100.839776px,75.001949px);animation-timing-function: cubic-bezier(0.420000,0,0.580000,1)} 6.666667% {transform: translate(123.546000px,74.999999px)} 100% {transform: translate(123.546000px,74.999999px)} }#e0ot4fyaj7ke5_ts {animation: e0ot4fyaj7ke5_ts__ts 3000ms linear infinite normal forwards}@keyframes e0ot4fyaj7ke5_ts__ts { 0% {transform: scale(0.406518,0.406518);animation-timing-function: cubic-bezier(0.420000,0,0.580000,1)} 10% {transform: scale(1,1)} 100% {transform: scale(1,1)} }#e0ot4fyaj7ke5 {animation: e0ot4fyaj7ke5_c_o 3000ms linear infinite normal forwards}@keyframes e0ot4fyaj7ke5_c_o { 0% {opacity: 0;animation-timing-function: cubic-bezier(0.420000,0,0.580000,1)} 10% {opacity: 1} 100% {opacity: 1} }#e0ot4fyaj7ke6_to {animation: e0ot4fyaj7ke6_to__to 3000ms linear infinite normal forwards}@keyframes e0ot4fyaj7ke6_to__to { 0% {transform: translate(50.802331px,75px)} 30% {transform: translate(50.802331px,75px);animation-timing-function: cubic-bezier(0.420000,0,0.580000,1)} 40% {transform: translate(24.998999px,74.999999px)} 100% {transform: translate(24.998999px,74.999999px)} }#e0ot4fyaj7ke6_ts {animation: e0ot4fyaj7ke6_ts__ts 3000ms linear infinite normal forwards}@keyframes e0ot4fyaj7ke6_ts__ts { 0% {transform: scale(0.410000,0.410000)} 30% {transform: scale(0.410000,0.410000);animation-timing-function: cubic-bezier(0.420000,0,0.580000,1)} 36.666667% {transform: scale(1,1)} 100% {transform: scale(1,1)} }#e0ot4fyaj7ke6 {animation: e0ot4fyaj7ke6_c_o 3000ms linear infinite normal forwards}@keyframes e0ot4fyaj7ke6_c_o { 0% {opacity: 0} 30% {opacity: 0;animation-timing-function: cubic-bezier(0.420000,0,0.580000,1)} 40% {opacity: 1} 100% {opacity: 1} }#e0ot4fyaj7ke7_to {animation: e0ot4fyaj7ke7_to__to 3000ms linear infinite normal forwards}@keyframes e0ot4fyaj7ke7_to__to { 0% {transform: translate(55.949721px,56.922137px)} 23.333333% {transform: translate(55.949721px,56.922137px);animation-timing-function: cubic-bezier(0.420000,0,0.580000,1)} 33.333333% {transform: translate(35.838268px,41.865733px)} 100% {transform: translate(35.838268px,41.865733px)} }#e0ot4fyaj7ke7_ts {animation: e0ot4fyaj7ke7_ts__ts 3000ms linear infinite normal forwards}@keyframes e0ot4fyaj7ke7_ts__ts { 0% {transform: scale(0.410000,0.410000)} 23.333333% {transform: scale(0.410000,0.410000);animation-timing-function: cubic-bezier(0.420000,0,0.580000,1)} 30% {transform: scale(1,1)} 100% {transform: scale(1,1)} }#e0ot4fyaj7ke7 {animation: e0ot4fyaj7ke7_c_o 3000ms linear infinite normal forwards}@keyframes e0ot4fyaj7ke7_c_o { 0% {opacity: 0} 23.333333% {opacity: 0;animation-timing-function: cubic-bezier(0.420000,0,0.580000,1)} 33.333333% {opacity: 1} 100% {opacity: 1} }#e0ot4fyaj7ke8_to {animation: e0ot4fyaj7ke8_to__to 3000ms linear infinite normal forwards}@keyframes e0ot4fyaj7ke8_to__to { 0% {transform: translate(95.166247px,60.313850px)} 6.666667% {transform: translate(95.166247px,60.313850px)} 14.666667% {transform: translate(112.807000px,41.978952px)} 100% {transform: translate(112.807000px,41.978952px)} }#e0ot4fyaj7ke8_ts {animation: e0ot4fyaj7ke8_ts__ts 3000ms linear infinite normal forwards}@keyframes e0ot4fyaj7ke8_ts__ts { 0% {transform: scale(0.410000,0.410000)} 6.666667% {transform: scale(0.410000,0.410000);animation-timing-function: cubic-bezier(0.420000,0,0.580000,1)} 16.666667% {transform: scale(1,1)} 100% {transform: scale(1,1)} }#e0ot4fyaj7ke8 {animation: e0ot4fyaj7ke8_c_o 3000ms linear infinite normal forwards}@keyframes e0ot4fyaj7ke8_c_o { 0% {opacity: 0} 6.666667% {opacity: 0;animation-timing-function: cubic-bezier(0.420000,0,0.580000,1)} 16.666667% {opacity: 1} 100% {opacity: 1} }]]></style><g id="e0ot4fyaj7ke2" clip-path="url(#e0ot4fyaj7ke10)"><g id="e0ot4fyaj7ke3"><g id="e0ot4fyaj7ke4_to" transform="translate(75,48.872980)"><g id="e0ot4fyaj7ke4_ts" transform="scale(0.410000,0.410000)"><path id="e0ot4fyaj7ke4" d="M74.999000,37.501900C76.656600,37.501900,78.246300,36.843500,79.418400,35.671400C80.590500,34.499300,81.249000,32.909600,81.249000,31.251900L81.249000,18.752000C81.249000,17.094300,80.590500,15.504600,79.418400,14.332500C78.246300,13.160400,76.656600,12.502000,74.999000,12.502000C73.341400,12.502000,71.751700,13.160400,70.579600,14.332500C69.407500,15.504600,68.749000,17.094300,68.749000,18.752000L68.749000,31.251900C68.749000,32.909600,69.407500,34.499300,70.579600,35.671400C71.751700,36.843500,73.341400,37.501900,74.999000,37.501900Z" transform="translate(-74.999000,-25.001950)" opacity="0" fill="rgb(104,98,211)" fill-opacity="0.6" stroke="none" stroke-width="1"/></g></g><g id="e0ot4fyaj7ke5_to" transform="translate(100.839776,75.001949)"><g id="e0ot4fyaj7ke5_ts" transform="scale(0.406518,0.406518)"><path id="e0ot4fyaj7ke5" d="M131.250000,68.752000L118.750000,68.752000C117.092000,68.752000,115.503000,69.410400,114.331000,70.582500C113.158000,71.754600,112.500000,73.344300,112.500000,75.001900C112.500000,76.659600,113.158000,78.249300,114.331000,79.421400C115.503000,80.593500,117.092000,81.251900,118.750000,81.251900L131.250000,81.251900C132.908000,81.251900,134.497000,80.593500,135.669000,79.421400C136.842000,78.249300,137.500000,76.659600,137.500000,75.001900C137.500000,73.344300,136.842000,71.754600,135.669000,70.582500C134.497000,69.410400,132.908000,68.752000,131.250000,68.752000Z" transform="translate(-125,-75.001949)" opacity="0" fill="rgb(104,98,211)" fill-opacity="0.6000000238418579" stroke="none" stroke-width="1"/></g></g><g id="e0ot4fyaj7ke6_to" transform="translate(50.802331,75)"><g id="e0ot4fyaj7ke6_ts" transform="scale(0.410000,0.410000)"><path id="e0ot4fyaj7ke6" d="M31.249000,68.752000L18.749000,68.752000C17.091400,68.752000,15.501700,69.410400,14.329600,70.582500C13.157500,71.754600,12.499000,73.344300,12.499000,75.001900C12.499000,76.659600,13.157500,78.249300,14.329600,79.421400C15.501700,80.593500,17.091400,81.251900,18.749000,81.251900L31.249000,81.251900C32.906600,81.251900,34.496300,80.593500,35.668400,79.421400C36.840500,78.249300,37.499000,76.659600,37.499000,75.001900C37.499000,73.344300,36.840500,71.754600,35.668400,70.582500C34.496300,69.410400,32.906600,68.752000,31.249000,68.752000Z" transform="translate(-24.999000,-75.001949)" opacity="0" fill="rgb(104,98,211)" fill-opacity="0.6000000238418579" stroke="none" stroke-width="1"/></g></g><g id="e0ot4fyaj7ke7_to" transform="translate(55.949721,56.922137)"><g id="e0ot4fyaj7ke7_ts" transform="scale(0.410000,0.410000)"><path id="e0ot4fyaj7ke7" d="M47.876000,40.123000L38.876000,31.248000C37.657600,30.096000,36.031500,29.475100,34.355400,29.522000C32.679300,29.568900,31.090500,30.279700,29.938500,31.498000C28.786400,32.716400,28.165600,34.342400,28.212400,36.018600C28.259300,37.694700,28.970100,39.283500,30.188500,40.435500L39.188500,49.123000C39.792400,49.706200,40.507700,50.161700,41.291600,50.462400C42.075500,50.763100,42.911900,50.902700,43.751000,50.873000C44.592900,50.869800,45.425400,50.696500,46.198700,50.363600C46.972000,50.030700,47.670000,49.544900,48.251000,48.935500C49.366600,47.715600,49.953500,46.103500,49.883200,44.451800C49.813000,42.800200,49.091200,41.243700,47.876000,40.123000L47.876000,40.123000Z" transform="translate(-39.049398,-40.198219)" opacity="0" fill="rgb(104,98,211)" fill-opacity="0.6000000238418579" stroke="none" stroke-width="1"/></g></g><g id="e0ot4fyaj7ke8_to" transform="translate(95.166247,60.313850)"><g id="e0ot4fyaj7ke8_ts" transform="scale(0.410000,0.410000)"><path id="e0ot4fyaj7ke8" d="M119.937000,31.563500C118.766000,30.399500,117.181000,29.746100,115.530000,29.746100C113.879000,29.746100,112.295000,30.399500,111.124000,31.563500L102.124000,40.126000C100.960000,41.297100,100.307000,42.881100,100.307000,44.532300C100.307000,46.183500,100.960000,47.767500,102.124000,48.938500C102.705000,49.547900,103.403000,50.033700,104.176000,50.366600C104.950000,50.699600,105.782000,50.872800,106.624000,50.876100C108.233000,50.869600,109.778000,50.242800,110.937000,49.126000L119.937000,40.438500C120.522000,39.857500,120.987000,39.166300,121.305000,38.404700C121.622000,37.643000,121.785000,36.826100,121.785000,36.001000C121.785000,35.176000,121.622000,34.359100,121.305000,33.597400C120.987000,32.835800,120.522000,32.144600,119.937000,31.563500L119.937000,31.563500Z" transform="translate(-111.046000,-40.311100)" opacity="0" fill="rgb(104,98,211)" fill-opacity="0.6000000238418579" stroke="none" stroke-width="1"/></g></g><path id="e0ot4fyaj7ke9" d="M56.728800,49.646700C62.049600,45.811700,68.442100,43.748000,75.001000,43.748000C81.559800,43.748000,87.952400,45.811700,93.273200,49.646700C98.594000,53.481700,102.573000,58.893700,104.647000,65.115900C106.721000,71.338200,106.785000,78.055300,104.830000,84.315800C102.874000,90.576300,98.998000,96.062800,93.751000,99.998100L93.751000,124.998000C93.751000,128.313000,92.434000,131.493000,90.089800,133.837000C87.745600,136.181000,84.566200,137.498000,81.251000,137.498000L68.751000,137.498000C65.435800,137.498000,62.256300,136.181000,59.912100,133.837000C57.567900,131.493000,56.251000,128.313000,56.251000,124.998000L56.251000,99.998100C51.003900,96.062800,47.128100,90.576300,45.172400,84.315800C43.216800,78.055300,43.280500,71.338200,45.354600,65.115900C47.428700,58.893700,51.408000,53.481700,56.728800,49.646700ZM92.500000,75C92.500000,84.667000,84.665200,92.500000,75,92.500000C65.334800,92.500000,57.500000,84.667000,57.500000,75C57.500000,65.336500,65.334800,57.500000,75,57.500000C84.665200,57.500000,92.500000,65.336500,92.500000,75ZM81.253500,81.674900C81.024300,81.674900,80.793300,81.615400,80.581500,81.491100L73.711000,77.392600C73.315500,77.154600,73.072300,76.725900,73.072300,76.263900L73.072300,67.431600C73.072300,66.707100,73.660300,66.119100,74.384800,66.119100C75.109300,66.119100,75.697300,66.707100,75.697300,67.431600L75.697300,75.518400L81.927300,79.233600C82.548500,79.606400,82.753300,80.411400,82.382300,81.034400C82.135500,81.445600,81.699800,81.674900,81.253500,81.674900Z" clip-rule="evenodd" fill="rgb(104,98,211)" fill-rule="evenodd" stroke="none" stroke-width="1"/></g><clipPath id="e0ot4fyaj7ke10"><rect id="e0ot4fyaj7ke11" width="150" height="150" rx="0" ry="0" fill="rgb(255,255,255)" stroke="none" stroke-width="1"/></clipPath></g></svg>