 <svg width="291" height="362" viewBox="0 0 291 362" fill="none" xmlns="http://www.w3.org/2000/svg">
            <path d="M18.9917 310.21H0L24.1669 220L39.3603 234.244L18.9917 310.21Z" fill="white"/>
            <path d="M66.4709 310.21H23.7396L44.1082 234.244H105.831L100.751 253.235H58.0196L47.8116 291.219H71.5512L74.115 281.723H64.6192L74.4474 262.731H98.187L85.4626 310.21L62.6725 324.454L66.4709 310.21Z" fill="white"/>
            <path d="M132.942 310.21L148.23 253.235H124.49L109.202 310.21H90.2105L110.579 234.244H172.302L151.933 310.21H132.942Z" fill="white"/>
            <path d="M175.673 310.21H156.681L180.848 220L196.042 234.244L175.673 310.21Z" fill="white"/>
            <path d="M226.571 253.235L211.282 310.21L188.492 324.454L207.579 253.235H193.335L203.163 234.244H245.895L236.067 253.235H226.571Z" fill="white"/>
            <path d="M248.269 234.244H291L285.92 253.235H262.18L259.616 262.731H283.356L273.528 281.723H254.536L251.972 291.219H275.712L270.631 310.21H227.9L248.269 234.244Z" fill="white"/>
            <path d="M201.644 333.496L204.184 324H230.298L226.476 338.244L220.446 342.992L223.936 347.763L220.114 361.983H194L196.54 352.488H213.158L214.44 347.74H204.944L207.484 338.244H216.98L218.262 333.496H201.644Z" fill="white"/>
            <path d="M234.523 352.488L231.983 361.983H222.488L225.028 352.488H234.523Z" fill="white"/>
            <path d="M234.357 361.983L244.542 324H270.655L260.471 361.983H234.357ZM251.497 333.496L246.393 352.488H253.515L258.619 333.496H251.497Z" fill="white"/>
            <path d="M86.4582 93.8108V167.184L135.625 204" fill="white"/>
            <path d="M140.233 128.747L119.218 153.767L140.233 202.444" fill="white"/>
            <path d="M171.973 98.7673L145.679 130.303L144.86 203.058" fill="white"/>
            <path d="M166.184 136.841L148.974 203.892L177.514 167.076" fill="white"/>
            <path d="M201.637 139.377L153.703 204L201.637 174.249" fill="white"/>
            <path d="M217.898 109.497L206.742 134.451V170.878" fill="white"/>
            <path d="M220.127 127.386L214.939 154.766L225 144.719" fill="white"/>
            <path d="M210.631 82.2085L205.053 128.747L216.209 101.005" fill="white"/>
            <path d="M194.883 67.688L187.423 99.3188L198.191 108.912" fill="white"/>
            <path d="M183.402 103.602V151.368L202.535 122.498" fill="white"/>
            <path d="M179.006 97.6998L169.99 130.303L180.498 160.313" fill="white"/>
            <path d="M157 62.5503L144.416 122.83L169.818 93.8108" fill="white"/>
            <path d="M81.1836 109.497L71 141.322L81.1836 151.628" fill="white"/>
            <path d="M93.6131 90.3107L111.256 127.386V70.7359" fill="white"/>
            <path d="M125.858 73.6833L113.834 136.841L132.967 99.3188" fill="white"/>
            <path d="M132.967 111.844L117.276 146.317L135.625 125.497" fill="white"/>
            <path d="M125.847 38.3087L144.398 95.6071L151.339 62.5503" fill="white"/>
            <path d="M148.921 0L128.229 33.316L142.175 46.4091" fill="white"/>
            <path d="M155.434 51.0948L185.402 84.2812L191.628 67.688" fill="white"/>
            </svg>